<?xml version="1.0" encoding="UTF-8"?><svg id="Layer_2" xmlns="http://www.w3.org/2000/svg" width="541.22" height="541.22" viewBox="0 0 541.22 541.22"><defs><style>.cls-1{fill:#fff;}.cls-2{fill:#db6e3b;}</style></defs><g id="Layer_1-2"><polygon class="cls-1" points="122.4 468.54 123.31 467.08 132.05 472.59 152.38 439.64 180.15 454.82 168.17 478.77 157.5 473.84 164.54 459.06 155.5 454.23 141.6 480.71 174.33 494.07 187.98 460.81 216.15 468.96 210.55 496.99 199.76 493.67 203.28 478.18 194.62 474.89 186.43 498.82 218.74 507.81 226.78 473.9 261.34 477.57 259.48 506.34 247.29 504.71 247.29 491.43 238.37 490.83 235.43 513.35 270.11 516.02 270.46 477.87 302.93 476.39 307.04 503.64 294.81 505.27 292.69 491.85 282.05 492.16 283.35 516.29 319.43 510.28 312.07 473.48 344.85 465.75 354.22 490.12 342.45 493.77 337.53 483.22 330.27 485.26 336.48 508.46 368.09 497.48 353.03 461.41 383.26 447.4 397.84 471.7 387.19 476.61 379.15 465.08 372.45 468.87 381.56 489.06 411.14 472.11 389.12 442.4 415.97 419.97 434.32 438.33 424.32 448.34 414.49 437.81 407.61 444.69 426.11 465.83 450.84 439.09 422.79 413.84 443.11 389.83 465.15 403.64 458.7 414.93 445.54 407.46 439.32 413.68 459.63 429.41 481.3 401.74 446.36 382.17 462.54 350.55 489.02 361.36 484.12 371.98 470.03 367.75 466.59 374.07 489.19 384.88 501.81 356.32 465.4 341.61 475.35 309.54 500.41 315.9 498.41 329.12 488.03 327.33 485.51 333.22 507.86 340.67 512.17 309.84 476.44 302.14 478.27 267.96 505.6 267.59 505.19 279.47 492.96 279.82 493.26 290.47 517.15 292.11 515.82 258.1 476.92 258.45 473.22 226.66 500.16 222.92 501.83 233.73 487.87 235.83 490.27 245.44 516.59 243.46 507.26 209.47 470.45 218.23 459.05 184.75 484.47 175.78 489.35 187.16 476.74 192.07 480.94 201.06 504.25 192.85 490.94 162.9 455.56 178.66 439.34 149.9 462.8 134.64 467.9 141.43 458.14 153.29 465.49 160.64 481.79 148.9 463.77 120.2 434.04 142.94 425.44 132.84 426.74 131.73 434.29 140.58 464.22 117.69 484.1 149.36 465.31 162.89 455.82 153.4 465.71 141.38 462.39 136.95 441.62 150.46 456.29 176.46 491.81 160.63 506.57 193.85 480.04 203.19 474.41 191.13 487.07 186.21 483.53 177.93 461.22 185.81 471.58 216.2 508.48 207.42 518.8 245.02 488.96 247.26 485.75 234.41 499.87 232.29 498.72 224.85 475.12 228.13 478.45 256.71 517.47 256.36 518.94 293.95 491.59 292.08 491.19 278.16 503.53 277.8 503.82 269.33 479.9 269.66 478.23 300.77 514.09 308.5 509.28 342.95 483.2 334.26 486.99 325.41 496.97 327.13 498.48 317.18 476.51 311.61 467.51 340.61 504.1 355.39 490.04 387.19 464.21 374.84 469.19 365.71 483.18 369.91 486.71 362.27 463.35 352.73 448.64 381.48 483.89 401.22 459.93 431.81 436.73 413.84 445.25 405.32 458.06 412.59 462.84 404.22 443.46 392.07 425.18 413.68 453.28 438.98 426.07 468.39 405.26 444.61 414.53 435.34 424.36 445.87 431.9 438.33 415.86 422.29 391.46 442.68 413.67 472.64 380.77 491.49 370.23 468.15 379.67 462.82 387.78 474.45 395.38 470.94 382.58 449.61 355.25 462.28 370.38 498.51 335.3 510.69 328.17 484.06 338.47 481.18 343.37 491.69 351.96 489.02 343.78 467.77 314.08 474.77 321.46 511.68 281.74 518.3 280.24 490.49 294.16 490.1 296.25 503.35 305.08 502.17 301.47 478.18 272.16 479.51 271.81 517.87 233.49 514.93 236.87 489.01 249.01 489.82 249.01 503.21 257.88 504.39 259.52 479.11 228.1 475.76 220 509.94 184.22 499.98 193.58 472.66 205.28 477.1 201.78 492.49 209.24 494.79 214.16 470.17 188.99 462.88 175.27 496.31 139.2 481.59 154.78 451.91 166.8 458.31 159.8 473.01 167.38 476.51 177.87 455.53 152.99 441.93 132.61 474.97 122.4 468.54"/><polygon class="cls-1" points="80.98 431.57 73.99 421.74 105.81 399.52 90.83 375.45 70.48 387.11 74.4 394.48 88.68 386.66 95.75 398.29 67 415.53 50.27 380.36 82.86 364.77 74.16 340.04 49.86 346.35 52.57 353.67 67.74 349.3 72.84 360.74 46.09 371.63 34.12 336.47 67.78 326.44 62.67 295.26 37.52 298.33 39.2 307.12 52.57 306.37 54.06 318.44 28.38 323.28 23.27 285.19 61.55 282.66 61.22 253.33 37.06 251.08 36.39 259.97 49.74 261.31 50.13 275.23 22.28 275.3 26.64 235.26 63.91 240.54 69.22 210.49 47.54 203.54 45.36 212.26 56.13 216.56 53.84 227 26.85 221.39 37.03 185.68 74.05 198.73 85.15 170.73 63.13 159.16 60.06 166.95 72.13 174.39 67.34 184.11 43.45 174.91 60.4 141 91.57 161.47 110.54 135.96 93.62 120.86 86.52 128.81 97.59 138.03 88.86 147.8 63.94 128.37 91.77 99.54 118.61 126.17 139.15 106.69 125.92 88.03 117.84 93.28 125.82 105.66 117.8 114.65 98.55 92.5 127.73 66.85 149.44 100.92 177.3 84.61 166.46 61.83 159.04 65.78 164.02 79.51 155.19 85 141.39 59.91 172.35 44.08 189.17 79.77 217.62 69.15 210.81 47.53 200.96 49.59 203.25 59.46 194.62 63.75 184.47 38.2 218.59 31.45 228.35 66.81 259.31 63.38 258.28 39.49 249.84 40.26 250.19 52.59 236.27 52.98 232.85 25.78 270.46 25.13 272.31 64.1 301.04 65.8 302.98 42.06 295.49 41.33 294.17 55.55 281.16 53.07 281.71 23.15 319.83 31.33 313.15 68.67 344.08 77.29 350.68 54.57 342.22 51.5 338.02 64.42 325.66 59.48 333.48 32.46 367.49 45.33 353.7 81.68 380.48 94.85 392.79 73.36 388.18 70.29 376.75 80.85 366.73 71.91 379.18 52.38 411.92 70.44 390.76 101.62 400.03 108.65 398.99 110.02 388.42 102 409.44 71.03 379.76 54.66 368.97 71.6 376.73 78.53 388.01 68.11 395.08 72.82 381.17 97.1 351.54 82.54 365.27 46.32 334.62 34.73 327.74 58.46 336.96 62.14 341.14 49.28 352.78 53.51 345.26 79.4 311.19 69.9 317.85 32.66 283.38 25.27 282.9 51.66 292.64 53.51 293.94 39.46 304.83 40.51 302.61 67.62 270.67 65.73 268.82 26.87 234.79 27.47 237.78 51.22 248.42 50.92 248.08 38.69 259.92 37.61 261.09 64.91 227.08 68.68 217.36 33.44 186.83 39.49 195.53 61.38 201.27 58.53 198.9 48.27 211.98 45.53 219.74 70.18 188.29 81.94 171.55 46.41 143.75 60.63 155.82 82.59 161.93 78.79 156.91 64.96 167.24 59.47 179.53 85.3 148.88 103.24 127.36 69.46 100.96 92.66 117.82 112.05 123.67 105.49 115.47 92.77 126.37 85.69 141.42 106.91 118.59 128.56 91.8 101.98 66.5 128.19 88.65 145.46 95.13 138.21 84.06 128.99 93.49 118.43 112.86 135.72 91.98 163.8 61.07 143.49 45.83 173.98 66.49 181.94 69.9 175.03 57.93 167.66 62.24 156.75 87.32 169.93 75.04 200.9 38.18 187.91 29 220.09 52.53 224.97 54.14 217.61 43.33 213.3 46.31 201.34 71.17 209.32 65.31 242.48 28.16 237.21 24.19 273.58 48.36 273.51 48.06 262.87 34.55 261.51 35.48 249.21 62.92 251.77 63.28 284.27 25.21 286.78 29.84 321.25 52.16 317.05 51.06 308.17 37.8 308.92 35.48 296.85 64.1 293.36 69.72 327.66 36.32 337.6 47.13 369.35 70.55 359.82 66.78 351.37 51.51 355.76 47.59 345.17 75.25 337.99 84.99 365.65 52.55 381.17 67.74 413.09 93.39 397.71 88.06 388.95 73.7 396.82 68.18 386.45 91.41 373.14 108.13 400 76.39 422.16 82.38 430.58 80.98 431.57"/><path class="cls-1" d="m440,102.37l4.15-4.15c2.71-2.71,2.71-7.11.02-9.81s-7.11-2.71-9.83,0l-4.26,4.26c-3.8-.6-7.66.64-10.39,3.37-2.75,2.75-3.99,6.61-3.38,10.41l-4.08,4.08c-2.71,2.71-2.71,7.11,0,9.83,2.69,2.69,7.1,2.69,9.81-.02l3.97-3.97c3.93.73,7.88-.49,10.7-3.31,2.8-2.8,4.04-6.77,3.29-10.68Zm-14.08,12.23l-.45-.09-4.62,4.62c-2.04,2.04-5.35,2.04-7.39,0-2.04-2.04-2.04-5.35,0-7.39l4.73-4.73-.09-.45c-.67-3.37.38-6.86,2.82-9.3,2.44-2.44,5.91-3.48,9.3-2.82l.45.09,4.89-4.89c2.04-2.04,5.35-2.04,7.39,0,2.04,2.04,2.04,5.35,0,7.39l-4.8,4.8.09.45c.78,3.48-.25,7.06-2.75,9.55s-6.1,3.55-9.57,2.77Z"/><path class="cls-1" d="m130.19,437.11l4.15-4.15c2.71-2.71,2.71-7.12.02-9.81-2.71-2.71-7.11-2.71-9.83,0l-4.26,4.26c-3.8-.6-7.66.64-10.39,3.37s-3.99,6.61-3.38,10.41l-4.08,4.08c-2.71,2.71-2.71,7.11,0,9.83s7.1,2.69,9.81-.02l3.97-3.97c3.89.73,7.88-.49,10.7-3.31s4.02-6.79,3.29-10.68Zm-14.08,12.23l-.47-.11-4.62,4.62c-2.04,2.04-5.35,2.04-7.37.02-2.04-2.04-2.04-5.35,0-7.39l4.73-4.73-.11-.44c-.67-3.4.4-6.88,2.84-9.32s5.89-3.49,9.3-2.82l.44.11,4.91-4.91c2.04-2.04,5.35-2.04,7.39,0,2.02,2.02,2.02,5.33-.02,7.37l-4.8,4.8.11.47c.78,3.47-.26,7.06-2.75,9.55-2.51,2.51-6.1,3.55-9.57,2.77Z"/><path class="cls-1" d="m304.18,278.49l-13.49-10.85c-.67-.54-.91-1.44-.6-2.24l6.26-16.11c.62-1.59-.95-3.16-2.54-2.54l-16.13,6.25c-.8.31-1.7.07-2.24-.6l-10.85-13.49c-1.07-1.33-3.21-.76-3.47.93l-2.65,17.1c-.13.85-.79,1.51-1.64,1.64l-17.1,2.65c-1.69.26-2.26,2.4-.93,3.47l13.49,10.85c.67.54.91,1.44.6,2.24l-6.25,16.13c-.62,1.59.95,3.16,2.54,2.54l16.11-6.26c.8-.31,1.7-.07,2.24.6l10.85,13.49c1.07,1.33,3.21.76,3.47-.93l2.65-17.1c.13-.85.79-1.51,1.64-1.64l17.1-2.65c1.69-.26,2.26-2.4.93-3.47Zm-26.89,21.68l-9.18-11.44c-.54-.67-1.44-.91-2.24-.6l-13.67,5.31c-1.59.62-3.16-.95-2.54-2.54l5.3-13.69c.31-.8.07-1.7-.6-2.24l-11.44-9.18c-1.33-1.07-.76-3.21.93-3.47l14.5-2.25c.85-.13,1.51-.79,1.64-1.64l2.23-14.49c.26-1.69,2.4-2.26,3.47-.93l9.19,11.43c.54.67,1.44.91,2.24.6l13.69-5.3c1.59-.62,3.16.95,2.54,2.54l-5.31,13.68c-.31.8-.07,1.7.6,2.24l11.43,9.19c1.33,1.07.75,3.21-.93,3.47l-14.49,2.23c-.85.13-1.51.79-1.64,1.64l-2.25,14.5c-.26,1.69-2.4,2.26-3.47.93Z"/><path class="cls-1" d="m226.07,333.63l-.67-.56c-4.2-3.51-8.17-7.44-11.74-11.66l-.53-.64-20.69,16.58.47.65c2.73,3.78,5.77,7.33,9.02,10.59,1.87,1.87,3.84,3.69,5.9,5.39l.64.53,17.6-20.87Zm-31.28,4.02l18.11-14.5c3.29,3.84,6.91,7.42,10.75,10.68l-15.38,18.25c-5-4.2-9.53-9.06-13.48-14.43Z"/><path class="cls-1" d="m200.43,364.11l-.67-.56c-6.15-5.09-11.74-11.05-16.58-17.63l-.51-.73-23.95,19.18.45.67c2.95,4.15,6.19,8.01,9.68,11.5s7.62,6.93,11.83,9.83l.66.44,19.09-22.69Zm-39.38.58l21.27-17.05c4.62,6.19,9.9,11.79,15.69,16.67l-17,20.2c-7.61-5.31-14.3-11.97-19.96-19.82Z"/><path class="cls-1" d="m173.23,396.44l-.76-.55c-8.79-6.21-16.52-13.94-22.98-22.95l-.55-.73-19.36,15.54.38.64c3.8,6.1,8.13,11.59,12.99,16.45,4.04,4.04,8.44,7.64,13.17,10.77l.64.42,16.47-19.6Zm-41.38-8.3l16.76-13.45c6.28,8.57,13.72,16.01,22.11,22.07l-14.28,16.98c-9.74-6.53-18.01-15.14-24.58-25.6Z"/><path class="cls-1" d="m204.87,308.68c-2.42-4.93-4.44-10.12-5.99-15.45l-.22-.8-25.66,6.73.18.8c1.51,7.22,3.91,14.17,7.11,20.65l.38.75,24.55-11.92-.36-.76Zm-23.4,10.41c-2.84-5.9-5-12.17-6.44-18.67l22.45-5.9c1.46,4.84,3.29,9.59,5.46,14.12l-21.47,10.44Z"/><path class="cls-1" d="m169.04,326.1c-3.55-7.19-6.22-14.88-7.97-22.85l-.18-.87-29.66,7.79.15.8c2.04,10.19,5.73,19.71,10.97,28.22l.4.65,26.68-12.96-.38-.78Zm-25.64,11.52c-4.79-7.95-8.21-16.76-10.17-26.22l26.37-6.93c1.71,7.53,4.24,14.79,7.53,21.62l-23.73,11.54Z"/><path class="cls-1" d="m130.94,344.55c-5.5-9.24-9.43-19.47-11.66-30.33l-.18-.87-24,6.31.09.75c1.76,13.05,6.1,24.98,12.81,35.52l.42.64,23.02-11.19-.49-.82Zm-21.91,9.79c-6.22-9.94-10.28-21.16-12.05-33.41l20.8-5.48c2.24,10.43,6.02,20.22,11.23,29.17l-19.98,9.72Z"/><path class="cls-1" d="m196.03,278.04c-.22-5.49.05-11.04.82-16.54l.11-.84-26.17-4.26-.16.78c-1.55,7.22-2.2,14.54-1.89,21.76l.05.86,27.26-.91-.02-.86Zm-25.6-.02c-.22-6.51.36-13.14,1.69-19.67l22.91,3.73c-.64,5.04-.89,10.14-.75,15.16l-23.86.78Z"/><path class="cls-1" d="m156.21,279.39c-.33-8.01.36-16.12,2.02-24.15l.18-.87-30.26-4.93-.2.78c-2.27,10.17-2.77,20.34-1.46,30.24l.09.78,29.66-1.02-.04-.84Zm-28.11.09c-1.13-9.21-.67-18.65,1.37-28.08l26.91,4.39c-1.49,7.57-2.13,15.23-1.91,22.8l-26.37.89Z"/><path class="cls-1" d="m113.9,280.75c-1.27-10.7-.69-21.62,1.67-32.46l.18-.87-24.49-4-.22.73c-3.68,12.63-4.6,25.31-2.75,37.65l.13.75,25.58-.87-.11-.91Zm-24,.02c-1.64-11.61-.78-23.53,2.58-35.41l21.22,3.46c-2.18,10.41-2.71,20.91-1.62,31.21l-22.18.75Z"/><path class="cls-1" d="m200.39,246.45c2.06-5.11,4.57-10.06,7.5-14.78l.42-.71-22.14-14.54-.47.66c-4.37,5.97-7.92,12.39-10.59,19.11l-.31.78,25.27,10.28.33-.8Zm-23.36-10.41c2.46-6.06,5.68-11.86,9.55-17.3l19.4,12.74c-2.64,4.35-4.93,8.9-6.84,13.54l-22.11-8.97Z"/><path class="cls-1" d="m163.51,231.48c2.95-7.42,6.88-14.56,11.65-21.22l.53-.71-25.66-16.85-.47.65c-6.24,8.35-10.83,17.45-13.65,27.04l-.22.76,27.49,11.12.33-.8Zm-25.75-11.34c2.73-8.88,6.97-17.3,12.68-25.09l22.8,14.94c-4.46,6.31-8.15,13.06-11.03,20.05l-24.46-9.9Z"/><path class="cls-1" d="m124.3,215.52c3.18-10.28,8.15-20.02,14.72-28.95l.53-.75-20.76-13.63-.49.6c-8.5,10.03-14.48,21.25-17.81,33.28l-.18.73,23.73,9.61.27-.89Zm-21.94-9.72c3.22-11.3,8.86-21.82,16.76-31.32l17.98,11.79c-6.22,8.63-10.97,18-14.16,27.84l-20.58-8.32Z"/><path class="cls-1" d="m216.44,186.15l-.69.4c-6.41,3.68-12.26,8.12-17.43,13.17l-.6.6,18.92,19.65.6-.6c3.97-3.82,8.28-7.33,12.85-10.44l.69-.47-14.34-22.31Zm.24,31.39l-16.54-17.2c4.71-4.53,10.01-8.52,15.76-11.9l12.54,19.52c-4.17,2.89-8.12,6.11-11.75,9.57Z"/><path class="cls-1" d="m193.11,149.79l-.73.4c-9.08,5.08-16.98,11.56-23.46,19.16l-.51.58,20.6,21.36.62-.62c5.71-5.57,12.21-10.5,19.27-14.61l.76-.47-16.56-25.8Zm-4.06,39.07l-18.31-19c6.06-7.01,13.39-12.99,21.78-17.78l14.74,22.93c-6.62,3.97-12.76,8.61-18.21,13.85Z"/><path class="cls-1" d="m186.31,139.24l-13.41-20.87-.69.33c-11.86,5.71-21.87,13.5-29.81,23.15l-.49.6,17.78,18.43.62-.69c7.1-8.12,15.58-14.99,25.22-20.49l.78-.45Zm-26.68,19.11l-15.41-15.99c7.53-8.99,16.98-16.32,28.04-21.78l11.65,18.09c-9.21,5.35-17.36,11.97-24.27,19.69Z"/><path class="cls-1" d="m256.46,170.81l-.82.09c-7.33.75-14.5,2.42-21.27,4.93l-.8.29,9.3,25.68.8-.29c5.15-1.91,10.52-3.35,15.98-4.33l.84-.15-4.02-26.22Zm-12.57,28.77l-8.12-22.42c6.15-2.22,12.61-3.73,19.23-4.46l3.53,22.93c-4.99.95-9.92,2.27-14.65,3.95Z"/><path class="cls-1" d="m249.89,128.1l-.8.07c-10.35.96-20.2,3.64-29.22,7.97l-.69.33,10.12,27.88.8-.29c7.52-2.78,15.45-4.64,23.58-5.53l.87-.11-4.66-30.32Zm-19.56,34.05l-9.01-24.8c8.41-3.93,17.5-6.4,27.13-7.37l4.13,26.95c-7.68.91-15.16,2.67-22.25,5.22Z"/><path class="cls-1" d="m244.23,91.18h-.76c-13.16.42-25.48,3.46-36.65,9.06l-.69.33,8.75,24.07.84-.4c9.79-4.51,20.34-7.35,31.37-8.44l.93-.09-3.78-24.53Zm-28.39,31.12l-7.59-20.87c10.55-5.17,22.16-8.01,34.5-8.48l3.26,21.24c-10.57,1.15-20.73,3.88-30.17,8.12Z"/><path class="cls-1" d="m299.23,173.08l-.8-.25c-7.01-2.31-14.21-3.69-21.44-4.15l-.86-.05-1.93,27.22.85.06c5.48.38,10.97,1.22,16.34,2.55l.82.2,7-25.57Zm-23.2,21.16l1.71-23.8c6.51.47,13.03,1.75,19.38,3.77l-6.11,22.38c-4.91-1.17-9.95-1.95-14.98-2.35Z"/><path class="cls-1" d="m310.61,131.4l-.76-.25c-9.86-3.35-19.94-4.91-29.95-4.62l-.76.04-2.09,29.57.85.06c7.99.53,15.99,2.06,23.78,4.53l.86.27,8.08-29.59Zm-31.75,23.13l1.87-26.29c9.28-.18,18.62,1.25,27.79,4.28l-7.17,26.31c-7.39-2.29-14.94-3.73-22.49-4.29Z"/><path class="cls-1" d="m320.45,95.35l-.69-.29c-12.19-4.99-24.69-7.22-37.18-6.64l-.76.04-1.8,25.53.93-.02c10.77-.15,21.58,1.57,32.1,5.06l.86.27,6.55-23.95Zm-38.59,16.9l1.57-22.16c11.74-.42,23.49,1.69,34.97,6.26l-5.66,20.76c-10.15-3.28-20.51-4.9-30.88-4.86Z"/><path class="cls-1" d="m337.37,192.55l-.6-.56c-5.48-4.93-11.5-9.17-17.92-12.5l-.73-.4-12.86,24.07.76.4c4.86,2.57,9.54,5.6,13.9,8.99l.66.51,16.8-20.51Zm-29.8,9.9l11.24-21.03c5.77,3.07,11.21,6.88,16.2,11.32l-14.68,17.96c-4.04-3.09-8.32-5.84-12.76-8.24Z"/><path class="cls-1" d="m364.72,159.09l-.58-.55c-7.66-7.08-16.23-12.59-25.48-16.41l-.71-.27-13.96,26.19.76.4c7.08,3.69,13.77,8.35,19.87,13.79l.67.6,19.42-23.75Zm-38.39,8.22l12.39-23.27c8.55,3.6,16.5,8.72,23.65,15.21l-17.25,21.11c-5.82-5.1-12.14-9.48-18.8-13.05Z"/><path class="cls-1" d="m388.38,130.16l-.51-.55c-9.12-9.52-19.62-16.63-31.24-21.2l-.71-.27-12.05,22.6.85.38c9.88,4.24,19.07,10.19,27.28,17.67l.67.6,15.7-19.23Zm-42.11-.25l10.43-19.6c10.9,4.39,20.78,11.1,29.41,19.94l-13.63,16.65c-7.93-7.1-16.74-12.81-26.2-17Z"/><path class="cls-1" d="m363.98,225.09c-2.98-6.73-6.77-13.03-11.28-18.71l-.51-.66-21.53,16.76.53.67c3.38,4.33,6.44,8.99,9.06,13.87l.38.75,23.67-11.92-.33-.76Zm-22.62,10.39c-2.44-4.44-5.22-8.72-8.3-12.7l18.83-14.65c4,5.17,7.42,10.84,10.19,16.92l-20.73,10.43Z"/><path class="cls-1" d="m402.59,205.66c-4.11-9.57-9.72-18.09-16.6-25.33l-.53-.56-23.4,18.23.55.69c4.93,6.28,9.17,13.25,12.52,20.71l.38.82,27.4-13.79-.33-.76Zm-26.26,12.21c-3.24-7.02-7.22-13.59-11.85-19.56l20.8-16.21c6.33,6.77,11.52,14.68,15.39,23.51l-24.35,12.26Z"/><path class="cls-1" d="m436.04,188.88c-4.46-12.39-11.15-23.16-19.92-32.04l-.55-.55-20.18,15.74.64.67c7.3,7.92,13.26,17.09,17.72,27.26l.36.8,22.18-11.15-.25-.73Zm-21.09,9.55c-4.37-9.72-10.08-18.52-17.03-26.2l17.5-13.65c8.17,8.43,14.47,18.58,18.74,30.17l-19.22,9.68Z"/><path class="cls-1" d="m375.37,266.4c.02-7.37-.87-14.67-2.67-21.67l-.2-.82-26.49,6.55.22.84c1.33,5.33,2.2,10.83,2.62,16.34l.06.85,26.49-1.27-.02-.82Zm-24.89.29c-.4-5.06-1.22-10.1-2.38-14.98l23.15-5.75c1.56,6.37,2.37,12.96,2.42,19.63l-23.18,1.09Z"/><path class="cls-1" d="m418.57,264.36c.13-10.43-1.51-20.47-4.86-29.9l-.27-.75-28.79,7.17.22.84c1.97,7.75,2.98,15.83,3.04,24v.91l30.64-1.46.02-.82Zm-28.97.47c-.09-7.73-1.06-15.36-2.88-22.71l25.6-6.35c3.02,8.77,4.55,18.09,4.51,27.77l-27.24,1.29Z"/><path class="cls-1" d="m455.92,262.63c.96-13.12-.76-25.69-5.15-37.39l-.27-.71-24.84,6.17.29.87c3.46,10.19,5.17,21,5.13,32.1l-.02.89,24.8-1.18.05-.75Zm-23.15.15c-.02-10.64-1.67-21.03-4.91-30.86l21.56-5.37c4.02,11.05,5.66,22.87,4.84,35.19l-21.49,1.04Z"/><path class="cls-1" d="m368.98,308.78c3.02-6.73,5.17-13.76,6.37-20.89l.15-.84-26.86-4.8-.16.85c-.95,5.42-2.37,10.81-4.22,16.01l-.31.78,24.71,9.61.33-.73Zm-22.85-9.86c1.69-4.79,2.98-9.72,3.89-14.67l23.51,4.19c-1.17,6.44-3.11,12.79-5.79,18.89l-21.62-8.41Z"/><path class="cls-1" d="m409.27,324.46c4.37-9.46,6.95-19.32,7.72-29.3l.07-.76-29.22-5.17-.15.84c-1.35,7.9-3.71,15.69-6.99,23.18l-.35.82,28.57,11.14.35-.75Zm-26.64-11.35c3.04-7.08,5.28-14.45,6.61-21.89l25.97,4.6c-.8,9.24-3.2,18.38-7.17,27.19l-25.4-9.9Z"/><path class="cls-1" d="m444.11,338.09c6.22-11.61,9.75-23.8,10.5-36.26l.04-.76-25.2-4.46-.09.93c-.98,10.74-3.82,21.29-8.37,31.41l-.38.82,23.14,8.99.36-.66Zm-21.2-9.3c4.29-9.72,7.02-19.87,8.06-30.19l21.87,3.89c-.82,11.7-4.13,23.16-9.9,34.1l-20.03-7.81Z"/><path class="cls-1" d="m360.23,328.37l.47-.69-22.58-15.3-.49.71c-3.06,4.55-6.57,8.9-10.39,12.9l-.58.62,18.65,18.83.6-.56c5.51-4.93,10.32-10.46,14.32-16.5Zm-14.87,14.68l-16.3-16.49c3.47-3.69,6.68-7.66,9.52-11.81l19.74,13.37c-3.66,5.4-8.02,10.43-12.96,14.92Z"/><path class="cls-1" d="m395.29,351.97l.38-.67-24.58-16.61-.47.73c-4.46,6.64-9.75,12.81-15.81,18.32l-.67.6,21.58,21.8.62-.55c7.82-6.88,14.19-14.81,18.96-23.62Zm-19.51,21.8l-19.16-19.38c5.64-5.24,10.66-11.06,14.92-17.32l21.87,14.77c-4.49,8.13-10.43,15.49-17.63,21.93Z"/><path class="cls-1" d="m426.96,373.37l.36-.69-21.22-14.34-.45.82c-5.28,9.39-12.14,17.89-20.43,25.27l-.67.6,17.49,17.63.6-.45c10.39-8.06,18.6-17.76,24.33-28.84Zm-24.78,27l-15.14-15.25c7.9-7.17,14.5-15.34,19.65-24.31l18.4,12.43c-5.5,10.37-13.21,19.51-22.91,27.13Z"/><path class="cls-1" d="m316.23,335.61l-.71.46c-4.66,2.91-9.61,5.46-14.76,7.55l-.76.33,9.39,24.78.76-.26c7.02-2.26,13.68-5.35,19.8-9.24l.71-.45-14.43-23.16Zm-5.82,30.97l-8.22-21.69c4.69-1.97,9.23-4.28,13.5-6.91l12.61,20.25c-5.55,3.44-11.57,6.26-17.89,8.35Z"/><path class="cls-1" d="m337.3,369.42l-.75.46c-6.75,4.28-14.1,7.73-21.89,10.32l-.86.27,10.86,28.7.76-.25c9.97-3.09,19.03-7.75,26.95-13.85l.6-.49-15.69-25.15Zm-11.59,37.61l-9.64-25.51c7.3-2.49,14.25-5.77,20.69-9.74l13.96,22.36c-7.39,5.6-15.81,9.92-25,12.88Z"/><path class="cls-1" d="m359.65,405.27l-.75.56c-8.62,6.44-18.36,11.41-28.93,14.77l-.86.27,8.79,23.24.75-.2c12.77-3.13,24.2-8.66,33.95-16.45l.6-.49-13.56-21.71Zm-20.69,36.81l-7.61-20.13c10.12-3.31,19.47-8.08,27.84-14.19l11.74,18.83c-9.24,7.24-19.98,12.45-31.97,15.49Z"/><path class="cls-1" d="m286.83,347.95l-.87.11c-5.44.78-10.99,1.09-16.52.91l-.86-.02-1.49,26.46.82.09c7.31.8,14.67.65,21.84-.4l.82-.13-3.73-27.02Zm-17.94,25.91l1.31-23.15c5.1.11,10.17-.16,15.16-.82l3.28,23.62c-6.48.91-13.1,1.02-19.74.35Z"/><path class="cls-1" d="m292.3,387.38l-.86.13c-7.91,1.15-16.07,1.33-24.2.51l-.89-.09-1.75,30.64.8.07c10.35,1.22,20.53.66,30.24-1.71l.75-.16-4.09-29.39Zm-25.87,29.66l1.55-27.24c7.7.71,15.38.56,22.85-.47l3.68,26.13c-9.04,2.09-18.49,2.62-28.08,1.58Z"/><path class="cls-1" d="m298.16,429.24l-.93.2c-10.5,2.38-21.42,2.97-32.44,1.73l-.89-.09-1.42,24.78.75.16c12.96,2.33,25.64,1.91,37.74-1.24l.73-.18-3.53-25.37Zm-33.88,25.22l1.22-21.49c10.59,1.09,21.07.55,31.21-1.66l3.08,22c-11.39,2.84-23.33,3.24-35.5,1.15Z"/><path class="cls-1" d="m254.93,347.24l-.84-.22c-5.3-1.51-10.5-3.51-15.49-5.91l-.75-.35-12.16,23.55.71.42c6.39,3.69,13.16,6.57,20.12,8.52l.8.22,7.59-26.22Zm-26.95,16.4l10.64-20.62c4.57,2.17,9.34,3.98,14.18,5.4l-6.62,22.93c-6.3-1.82-12.39-4.42-18.2-7.72Z"/><path class="cls-1" d="m243.88,385.51l-.82-.24c-7.7-2.16-15.21-5.31-22.33-9.37l-.76-.44-14.07,27.24.69.44c8.95,5.31,18.49,8.92,28.31,10.74l.78.13,8.19-28.5Zm-35.7,16.56l12.48-24.24c6.75,3.77,13.85,6.75,21.09,8.86l-7.3,25.35c-9.1-1.75-17.92-5.11-26.28-9.97Z"/><path class="cls-1" d="m232.2,426.12l-.91-.18c-10.55-2.11-20.76-6.02-30.35-11.61l-.78-.45-11.37,22.07.64.42c10.86,7.41,22.64,12.19,34.96,14.21l.75.13,7.08-24.58Zm-41.2,9.24l9.86-19.11c9.23,5.29,19.03,9.06,29.19,11.17l-6.15,21.33c-11.55-2.02-22.64-6.51-32.9-13.39Z"/><path class="cls-1" d="m272.15,332.36c-34.05,0-61.75-27.7-61.75-61.75s27.7-61.75,61.75-61.75,61.75,27.7,61.75,61.75-27.7,61.75-61.75,61.75Zm0-120.93c-32.63,0-59.18,26.55-59.18,59.18s26.55,59.18,59.18,59.18,59.18-26.55,59.18-59.18-26.55-59.18-59.18-59.18Z"/><path class="cls-1" d="m270.61,541.22C121.39,541.22,0,419.82,0,270.61S121.39,0,270.61,0s270.61,121.4,270.61,270.61-121.39,270.61-270.61,270.61Zm0-538.65C122.81,2.57,2.57,122.81,2.57,270.61s120.24,268.04,268.04,268.04,268.04-120.24,268.04-268.04S418.4,2.57,270.61,2.57Z"/><polygon class="cls-2" points="122.4 468.54 123.31 467.08 132.05 472.59 152.38 439.64 180.15 454.82 168.17 478.77 157.5 473.84 164.54 459.06 155.5 454.23 141.6 480.71 174.33 494.07 187.98 460.81 216.15 468.96 210.55 496.99 199.76 493.67 203.28 478.18 194.62 474.89 186.43 498.82 218.74 507.81 226.78 473.9 261.34 477.57 259.48 506.34 247.29 504.71 247.29 491.43 238.37 490.83 235.43 513.35 270.11 516.02 270.46 477.87 302.93 476.39 307.04 503.64 294.81 505.27 292.69 491.85 282.05 492.16 283.35 516.29 319.43 510.28 312.07 473.48 344.85 465.75 354.22 490.12 342.45 493.77 337.53 483.22 330.27 485.26 336.48 508.46 368.09 497.48 353.03 461.41 383.26 447.4 397.84 471.7 387.19 476.61 379.15 465.08 372.45 468.87 381.56 489.06 411.14 472.11 389.12 442.4 415.97 419.97 434.32 438.33 424.32 448.34 414.49 437.81 407.61 444.69 426.11 465.83 450.84 439.09 422.79 413.84 443.11 389.83 465.15 403.64 458.7 414.93 445.54 407.46 439.32 413.68 459.63 429.41 481.3 401.74 446.36 382.17 462.54 350.55 489.02 361.36 484.12 371.98 470.03 367.75 466.59 374.07 489.19 384.88 501.81 356.32 465.4 341.61 475.35 309.54 500.41 315.9 498.41 329.12 488.03 327.33 485.51 333.22 507.86 340.67 512.17 309.84 476.44 302.14 478.27 267.96 505.6 267.59 505.19 279.47 492.96 279.82 493.26 290.47 517.15 292.11 515.82 258.1 476.92 258.45 473.22 226.66 500.16 222.92 501.83 233.73 487.87 235.83 490.27 245.44 516.59 243.46 507.26 209.47 470.45 218.23 459.05 184.75 484.47 175.78 489.35 187.16 476.74 192.07 480.94 201.06 504.25 192.85 490.94 162.9 455.56 178.66 439.34 149.9 462.8 134.64 467.9 141.43 458.14 153.29 465.49 160.64 481.79 148.9 463.77 120.2 434.04 142.94 425.44 132.84 426.74 131.73 434.29 140.58 464.22 117.69 484.1 149.36 465.31 162.89 455.82 153.4 465.71 141.38 462.39 136.95 441.62 150.46 456.29 176.46 491.81 160.63 506.57 193.85 480.04 203.19 474.41 191.13 487.07 186.21 483.53 177.93 461.22 185.81 471.58 216.2 508.48 207.42 518.8 245.02 488.96 247.26 485.75 234.41 499.87 232.29 498.72 224.85 475.12 228.13 478.45 256.71 517.47 256.36 518.94 293.95 491.59 292.08 491.19 278.16 503.53 277.8 503.82 269.33 479.9 269.66 478.23 300.77 514.09 308.5 509.28 342.95 483.2 334.26 486.99 325.41 496.97 327.13 498.48 317.18 476.51 311.61 467.51 340.61 504.1 355.39 490.04 387.19 464.21 374.84 469.19 365.71 483.18 369.91 486.71 362.27 463.35 352.73 448.64 381.48 483.89 401.22 459.93 431.81 436.73 413.84 445.25 405.32 458.06 412.59 462.84 404.22 443.46 392.07 425.18 413.68 453.28 438.98 426.07 468.39 405.26 444.61 414.53 435.34 424.36 445.87 431.9 438.33 415.86 422.29 391.46 442.68 413.67 472.64 380.77 491.49 370.23 468.15 379.67 462.82 387.78 474.45 395.38 470.94 382.58 449.61 355.25 462.28 370.38 498.51 335.3 510.69 328.17 484.06 338.47 481.18 343.37 491.69 351.96 489.02 343.78 467.77 314.08 474.77 321.46 511.68 281.74 518.3 280.24 490.49 294.16 490.1 296.25 503.35 305.08 502.17 301.47 478.18 272.16 479.51 271.81 517.87 233.49 514.93 236.87 489.01 249.01 489.82 249.01 503.21 257.88 504.39 259.52 479.11 228.1 475.76 220 509.94 184.22 499.98 193.58 472.66 205.28 477.1 201.78 492.49 209.24 494.79 214.16 470.17 188.99 462.88 175.27 496.31 139.2 481.59 154.78 451.91 166.8 458.31 159.8 473.01 167.38 476.51 177.87 455.53 152.99 441.93 132.61 474.97 122.4 468.54"/><polygon class="cls-2" points="80.98 431.57 73.99 421.74 105.81 399.52 90.83 375.45 70.48 387.11 74.4 394.48 88.68 386.66 95.75 398.29 67 415.53 50.27 380.36 82.86 364.77 74.16 340.04 49.86 346.35 52.57 353.67 67.74 349.3 72.84 360.74 46.09 371.63 34.12 336.47 67.78 326.44 62.67 295.26 37.52 298.33 39.2 307.12 52.57 306.37 54.06 318.44 28.38 323.28 23.27 285.19 61.55 282.66 61.22 253.33 37.06 251.08 36.39 259.97 49.74 261.31 50.13 275.23 22.28 275.3 26.64 235.26 63.91 240.54 69.22 210.49 47.54 203.54 45.36 212.26 56.13 216.56 53.84 227 26.85 221.39 37.03 185.68 74.05 198.73 85.15 170.73 63.13 159.16 60.06 166.95 72.13 174.39 67.34 184.11 43.45 174.91 60.4 141 91.57 161.47 110.54 135.96 93.62 120.86 86.52 128.81 97.59 138.03 88.86 147.8 63.94 128.37 91.77 99.54 118.61 126.17 139.15 106.69 125.92 88.03 117.84 93.28 125.82 105.66 117.8 114.65 98.55 92.5 127.73 66.85 149.44 100.92 177.3 84.61 166.46 61.83 159.04 65.78 164.02 79.51 155.19 85 141.39 59.91 172.35 44.08 189.17 79.77 217.62 69.15 210.81 47.53 200.96 49.59 203.25 59.46 194.62 63.75 184.47 38.2 218.59 31.45 228.35 66.81 259.31 63.38 258.28 39.49 249.84 40.26 250.19 52.59 236.27 52.98 232.85 25.78 270.46 25.13 272.31 64.1 301.04 65.8 302.98 42.06 295.49 41.33 294.17 55.55 281.16 53.07 281.71 23.15 319.83 31.33 313.15 68.67 344.08 77.29 350.68 54.57 342.22 51.5 338.02 64.42 325.66 59.48 333.48 32.46 367.49 45.33 353.7 81.68 380.48 94.85 392.79 73.36 388.18 70.29 376.75 80.85 366.73 71.91 379.18 52.38 411.92 70.44 390.76 101.62 400.03 108.65 398.99 110.02 388.42 102 409.44 71.03 379.76 54.66 368.97 71.6 376.73 78.53 388.01 68.11 395.08 72.82 381.17 97.1 351.54 82.54 365.27 46.32 334.62 34.73 327.74 58.46 336.96 62.14 341.14 49.28 352.78 53.51 345.26 79.4 311.19 69.9 317.85 32.66 283.38 25.27 282.9 51.66 292.64 53.51 293.94 39.46 304.83 40.51 302.61 67.62 270.67 65.73 268.82 26.87 234.79 27.47 237.78 51.22 248.42 50.92 248.08 38.69 259.92 37.61 261.09 64.91 227.08 68.68 217.36 33.44 186.83 39.49 195.53 61.38 201.27 58.53 198.9 48.27 211.98 45.53 219.74 70.18 188.29 81.94 171.55 46.41 143.75 60.63 155.82 82.59 161.93 78.79 156.91 64.96 167.24 59.47 179.53 85.3 148.88 103.24 127.36 69.46 100.96 92.66 117.82 112.05 123.67 105.49 115.47 92.77 126.37 85.69 141.42 106.91 118.59 128.56 91.8 101.98 66.5 128.19 88.65 145.46 95.13 138.21 84.06 128.99 93.49 118.43 112.86 135.72 91.98 163.8 61.07 143.49 45.83 173.98 66.49 181.94 69.9 175.03 57.93 167.66 62.24 156.75 87.32 169.93 75.04 200.9 38.18 187.91 29 220.09 52.53 224.97 54.14 217.61 43.33 213.3 46.31 201.34 71.17 209.32 65.31 242.48 28.16 237.21 24.19 273.58 48.36 273.51 48.06 262.87 34.55 261.51 35.48 249.21 62.92 251.77 63.28 284.27 25.21 286.78 29.84 321.25 52.16 317.05 51.06 308.17 37.8 308.92 35.48 296.85 64.1 293.36 69.72 327.66 36.32 337.6 47.13 369.35 70.55 359.82 66.78 351.37 51.51 355.76 47.59 345.17 75.25 337.99 84.99 365.65 52.55 381.17 67.74 413.09 93.39 397.71 88.06 388.95 73.7 396.82 68.18 386.45 91.41 373.14 108.13 400 76.39 422.16 82.38 430.58 80.98 431.57"/><path class="cls-2" d="m440,102.37l4.15-4.15c2.71-2.71,2.71-7.11.02-9.81s-7.11-2.71-9.83,0l-4.26,4.26c-3.8-.6-7.66.64-10.39,3.37-2.75,2.75-3.99,6.61-3.38,10.41l-4.08,4.08c-2.71,2.71-2.71,7.11,0,9.83,2.69,2.69,7.1,2.69,9.81-.02l3.97-3.97c3.93.73,7.88-.49,10.7-3.31,2.8-2.8,4.04-6.77,3.29-10.68Zm-14.08,12.23l-.45-.09-4.62,4.62c-2.04,2.04-5.35,2.04-7.39,0-2.04-2.04-2.04-5.35,0-7.39l4.73-4.73-.09-.45c-.67-3.37.38-6.86,2.82-9.3,2.44-2.44,5.91-3.48,9.3-2.82l.45.09,4.89-4.89c2.04-2.04,5.35-2.04,7.39,0,2.04,2.04,2.04,5.35,0,7.39l-4.8,4.8.09.45c.78,3.48-.25,7.06-2.75,9.55s-6.1,3.55-9.57,2.77Z"/><path class="cls-2" d="m130.19,437.11l4.15-4.15c2.71-2.71,2.71-7.12.02-9.81-2.71-2.71-7.11-2.71-9.83,0l-4.26,4.26c-3.8-.6-7.66.64-10.39,3.37s-3.99,6.61-3.38,10.41l-4.08,4.08c-2.71,2.71-2.71,7.11,0,9.83s7.1,2.69,9.81-.02l3.97-3.97c3.89.73,7.88-.49,10.7-3.31s4.02-6.79,3.29-10.68Zm-14.08,12.23l-.47-.11-4.62,4.62c-2.04,2.04-5.35,2.04-7.37.02-2.04-2.04-2.04-5.35,0-7.39l4.73-4.73-.11-.44c-.67-3.4.4-6.88,2.84-9.32s5.89-3.49,9.3-2.82l.44.11,4.91-4.91c2.04-2.04,5.35-2.04,7.39,0,2.02,2.02,2.02,5.33-.02,7.37l-4.8,4.8.11.47c.78,3.47-.26,7.06-2.75,9.55-2.51,2.51-6.1,3.55-9.57,2.77Z"/><path class="cls-2" d="m304.18,278.49l-13.49-10.85c-.67-.54-.91-1.44-.6-2.24l6.26-16.11c.62-1.59-.95-3.16-2.54-2.54l-16.13,6.25c-.8.31-1.7.07-2.24-.6l-10.85-13.49c-1.07-1.33-3.21-.76-3.47.93l-2.65,17.1c-.13.85-.79,1.51-1.64,1.64l-17.1,2.65c-1.69.26-2.26,2.4-.93,3.47l13.49,10.85c.67.54.91,1.44.6,2.24l-6.25,16.13c-.62,1.59.95,3.16,2.54,2.54l16.11-6.26c.8-.31,1.7-.07,2.24.6l10.85,13.49c1.07,1.33,3.21.76,3.47-.93l2.65-17.1c.13-.85.79-1.51,1.64-1.64l17.1-2.65c1.69-.26,2.26-2.4.93-3.47Zm-26.89,21.68l-9.18-11.44c-.54-.67-1.44-.91-2.24-.6l-13.67,5.31c-1.59.62-3.16-.95-2.54-2.54l5.3-13.69c.31-.8.07-1.7-.6-2.24l-11.44-9.18c-1.33-1.07-.76-3.21.93-3.47l14.5-2.25c.85-.13,1.51-.79,1.64-1.64l2.23-14.49c.26-1.69,2.4-2.26,3.47-.93l9.19,11.43c.54.67,1.44.91,2.24.6l13.69-5.3c1.59-.62,3.16.95,2.54,2.54l-5.31,13.68c-.31.8-.07,1.7.6,2.24l11.43,9.19c1.33,1.07.75,3.21-.93,3.47l-14.49,2.23c-.85.13-1.51.79-1.64,1.64l-2.25,14.5c-.26,1.69-2.4,2.26-3.47.93Z"/><path class="cls-2" d="m226.07,333.63l-.67-.56c-4.2-3.51-8.17-7.44-11.74-11.66l-.53-.64-20.69,16.58.47.65c2.73,3.78,5.77,7.33,9.02,10.59,1.87,1.87,3.84,3.69,5.9,5.39l.64.53,17.6-20.87Zm-31.28,4.02l18.11-14.5c3.29,3.84,6.91,7.42,10.75,10.68l-15.38,18.25c-5-4.2-9.53-9.06-13.48-14.43Z"/><path class="cls-2" d="m200.43,364.11l-.67-.56c-6.15-5.09-11.74-11.05-16.58-17.63l-.51-.73-23.95,19.18.45.67c2.95,4.15,6.19,8.01,9.68,11.5s7.62,6.93,11.83,9.83l.66.44,19.09-22.69Zm-39.38.58l21.27-17.05c4.62,6.19,9.9,11.79,15.69,16.67l-17,20.2c-7.61-5.31-14.3-11.97-19.96-19.82Z"/><path class="cls-2" d="m173.23,396.44l-.76-.55c-8.79-6.21-16.52-13.94-22.98-22.95l-.55-.73-19.36,15.54.38.64c3.8,6.1,8.13,11.59,12.99,16.45,4.04,4.04,8.44,7.64,13.17,10.77l.64.42,16.47-19.6Zm-41.38-8.3l16.76-13.45c6.28,8.57,13.72,16.01,22.11,22.07l-14.28,16.98c-9.74-6.53-18.01-15.14-24.58-25.6Z"/><path class="cls-2" d="m204.87,308.68c-2.42-4.93-4.44-10.12-5.99-15.45l-.22-.8-25.66,6.73.18.8c1.51,7.22,3.91,14.17,7.11,20.65l.38.75,24.55-11.92-.36-.76Zm-23.4,10.41c-2.84-5.9-5-12.17-6.44-18.67l22.45-5.9c1.46,4.84,3.29,9.59,5.46,14.12l-21.47,10.44Z"/><path class="cls-2" d="m169.04,326.1c-3.55-7.19-6.22-14.88-7.97-22.85l-.18-.87-29.66,7.79.15.8c2.04,10.19,5.73,19.71,10.97,28.22l.4.65,26.68-12.96-.38-.78Zm-25.64,11.52c-4.79-7.95-8.21-16.76-10.17-26.22l26.37-6.93c1.71,7.53,4.24,14.79,7.53,21.62l-23.73,11.54Z"/><path class="cls-2" d="m130.94,344.55c-5.5-9.24-9.43-19.47-11.66-30.33l-.18-.87-24,6.31.09.75c1.76,13.05,6.1,24.98,12.81,35.52l.42.64,23.02-11.19-.49-.82Zm-21.91,9.79c-6.22-9.94-10.28-21.16-12.05-33.41l20.8-5.48c2.24,10.43,6.02,20.22,11.23,29.17l-19.98,9.72Z"/><path class="cls-2" d="m196.03,278.04c-.22-5.49.05-11.04.82-16.54l.11-.84-26.17-4.26-.16.78c-1.55,7.22-2.2,14.54-1.89,21.76l.05.86,27.26-.91-.02-.86Zm-25.6-.02c-.22-6.51.36-13.14,1.69-19.67l22.91,3.73c-.64,5.04-.89,10.14-.75,15.16l-23.86.78Z"/><path class="cls-2" d="m156.21,279.39c-.33-8.01.36-16.12,2.02-24.15l.18-.87-30.26-4.93-.2.78c-2.27,10.17-2.77,20.34-1.46,30.24l.09.78,29.66-1.02-.04-.84Zm-28.11.09c-1.13-9.21-.67-18.65,1.37-28.08l26.91,4.39c-1.49,7.57-2.13,15.23-1.91,22.8l-26.37.89Z"/><path class="cls-2" d="m113.9,280.75c-1.27-10.7-.69-21.62,1.67-32.46l.18-.87-24.49-4-.22.73c-3.68,12.63-4.6,25.31-2.75,37.65l.13.75,25.58-.87-.11-.91Zm-24,.02c-1.64-11.61-.78-23.53,2.58-35.41l21.22,3.46c-2.18,10.41-2.71,20.91-1.62,31.21l-22.18.75Z"/><path class="cls-2" d="m200.39,246.45c2.06-5.11,4.57-10.06,7.5-14.78l.42-.71-22.14-14.54-.47.66c-4.37,5.97-7.92,12.39-10.59,19.11l-.31.78,25.27,10.28.33-.8Zm-23.36-10.41c2.46-6.06,5.68-11.86,9.55-17.3l19.4,12.74c-2.64,4.35-4.93,8.9-6.84,13.54l-22.11-8.97Z"/><path class="cls-2" d="m163.51,231.48c2.95-7.42,6.88-14.56,11.65-21.22l.53-.71-25.66-16.85-.47.65c-6.24,8.35-10.83,17.45-13.65,27.04l-.22.76,27.49,11.12.33-.8Zm-25.75-11.34c2.73-8.88,6.97-17.3,12.68-25.09l22.8,14.94c-4.46,6.31-8.15,13.06-11.03,20.05l-24.46-9.9Z"/><path class="cls-2" d="m124.3,215.52c3.18-10.28,8.15-20.02,14.72-28.95l.53-.75-20.76-13.63-.49.6c-8.5,10.03-14.48,21.25-17.81,33.28l-.18.73,23.73,9.61.27-.89Zm-21.94-9.72c3.22-11.3,8.86-21.82,16.76-31.32l17.98,11.79c-6.22,8.63-10.97,18-14.16,27.84l-20.58-8.32Z"/><path class="cls-2" d="m216.44,186.15l-.69.4c-6.41,3.68-12.26,8.12-17.43,13.17l-.6.6,18.92,19.65.6-.6c3.97-3.82,8.28-7.33,12.85-10.44l.69-.47-14.34-22.31Zm.24,31.39l-16.54-17.2c4.71-4.53,10.01-8.52,15.76-11.9l12.54,19.52c-4.17,2.89-8.12,6.11-11.75,9.57Z"/><path class="cls-2" d="m193.11,149.79l-.73.4c-9.08,5.08-16.98,11.56-23.46,19.16l-.51.58,20.6,21.36.62-.62c5.71-5.57,12.21-10.5,19.27-14.61l.76-.47-16.56-25.8Zm-4.06,39.07l-18.31-19c6.06-7.01,13.39-12.99,21.78-17.78l14.74,22.93c-6.62,3.97-12.76,8.61-18.21,13.85Z"/><path class="cls-2" d="m186.31,139.24l-13.41-20.87-.69.33c-11.86,5.71-21.87,13.5-29.81,23.15l-.49.6,17.78,18.43.62-.69c7.1-8.12,15.58-14.99,25.22-20.49l.78-.45Zm-26.68,19.11l-15.41-15.99c7.53-8.99,16.98-16.32,28.04-21.78l11.65,18.09c-9.21,5.35-17.36,11.97-24.27,19.69Z"/><path class="cls-2" d="m256.46,170.81l-.82.09c-7.33.75-14.5,2.42-21.27,4.93l-.8.29,9.3,25.68.8-.29c5.15-1.91,10.52-3.35,15.98-4.33l.84-.15-4.02-26.22Zm-12.57,28.77l-8.12-22.42c6.15-2.22,12.61-3.73,19.23-4.46l3.53,22.93c-4.99.95-9.92,2.27-14.65,3.95Z"/><path class="cls-2" d="m249.89,128.1l-.8.07c-10.35.96-20.2,3.64-29.22,7.97l-.69.33,10.12,27.88.8-.29c7.52-2.78,15.45-4.64,23.58-5.53l.87-.11-4.66-30.32Zm-19.56,34.05l-9.01-24.8c8.41-3.93,17.5-6.4,27.13-7.37l4.13,26.95c-7.68.91-15.16,2.67-22.25,5.22Z"/><path class="cls-2" d="m244.23,91.18h-.76c-13.16.42-25.48,3.46-36.65,9.06l-.69.33,8.75,24.07.84-.4c9.79-4.51,20.34-7.35,31.37-8.44l.93-.09-3.78-24.53Zm-28.39,31.12l-7.59-20.87c10.55-5.17,22.16-8.01,34.5-8.48l3.26,21.24c-10.57,1.15-20.73,3.88-30.17,8.12Z"/><path class="cls-2" d="m299.23,173.08l-.8-.25c-7.01-2.31-14.21-3.69-21.44-4.15l-.86-.05-1.93,27.22.85.06c5.48.38,10.97,1.22,16.34,2.55l.82.2,7-25.57Zm-23.2,21.16l1.71-23.8c6.51.47,13.03,1.75,19.38,3.77l-6.11,22.38c-4.91-1.17-9.95-1.95-14.98-2.35Z"/><path class="cls-2" d="m310.61,131.4l-.76-.25c-9.86-3.35-19.94-4.91-29.95-4.62l-.76.04-2.09,29.57.85.06c7.99.53,15.99,2.06,23.78,4.53l.86.27,8.08-29.59Zm-31.75,23.13l1.87-26.29c9.28-.18,18.62,1.25,27.79,4.28l-7.17,26.31c-7.39-2.29-14.94-3.73-22.49-4.29Z"/><path class="cls-2" d="m320.45,95.35l-.69-.29c-12.19-4.99-24.69-7.22-37.18-6.64l-.76.04-1.8,25.53.93-.02c10.77-.15,21.58,1.57,32.1,5.06l.86.27,6.55-23.95Zm-38.59,16.9l1.57-22.16c11.74-.42,23.49,1.69,34.97,6.26l-5.66,20.76c-10.15-3.28-20.51-4.9-30.88-4.86Z"/><path class="cls-2" d="m337.37,192.55l-.6-.56c-5.48-4.93-11.5-9.17-17.92-12.5l-.73-.4-12.86,24.07.76.4c4.86,2.57,9.54,5.6,13.9,8.99l.66.51,16.8-20.51Zm-29.8,9.9l11.24-21.03c5.77,3.07,11.21,6.88,16.2,11.32l-14.68,17.96c-4.04-3.09-8.32-5.84-12.76-8.24Z"/><path class="cls-2" d="m364.72,159.09l-.58-.55c-7.66-7.08-16.23-12.59-25.48-16.41l-.71-.27-13.96,26.19.76.4c7.08,3.69,13.77,8.35,19.87,13.79l.67.6,19.42-23.75Zm-38.39,8.22l12.39-23.27c8.55,3.6,16.5,8.72,23.65,15.21l-17.25,21.11c-5.82-5.1-12.14-9.48-18.8-13.05Z"/><path class="cls-2" d="m388.38,130.16l-.51-.55c-9.12-9.52-19.62-16.63-31.24-21.2l-.71-.27-12.05,22.6.85.38c9.88,4.24,19.07,10.19,27.28,17.67l.67.6,15.7-19.23Zm-42.11-.25l10.43-19.6c10.9,4.39,20.78,11.1,29.41,19.94l-13.63,16.65c-7.93-7.1-16.74-12.81-26.2-17Z"/><path class="cls-2" d="m363.98,225.09c-2.98-6.73-6.77-13.03-11.28-18.71l-.51-.66-21.53,16.76.53.67c3.38,4.33,6.44,8.99,9.06,13.87l.38.75,23.67-11.92-.33-.76Zm-22.62,10.39c-2.44-4.44-5.22-8.72-8.3-12.7l18.83-14.65c4,5.17,7.42,10.84,10.19,16.92l-20.73,10.43Z"/><path class="cls-2" d="m402.59,205.66c-4.11-9.57-9.72-18.09-16.6-25.33l-.53-.56-23.4,18.23.55.69c4.93,6.28,9.17,13.25,12.52,20.71l.38.82,27.4-13.79-.33-.76Zm-26.26,12.21c-3.24-7.02-7.22-13.59-11.85-19.56l20.8-16.21c6.33,6.77,11.52,14.68,15.39,23.51l-24.35,12.26Z"/><path class="cls-2" d="m436.04,188.88c-4.46-12.39-11.15-23.16-19.92-32.04l-.55-.55-20.18,15.74.64.67c7.3,7.92,13.26,17.09,17.72,27.26l.36.8,22.18-11.15-.25-.73Zm-21.09,9.55c-4.37-9.72-10.08-18.52-17.03-26.2l17.5-13.65c8.17,8.43,14.47,18.58,18.74,30.17l-19.22,9.68Z"/><path class="cls-2" d="m375.37,266.4c.02-7.37-.87-14.67-2.67-21.67l-.2-.82-26.49,6.55.22.84c1.33,5.33,2.2,10.83,2.62,16.34l.06.85,26.49-1.27-.02-.82Zm-24.89.29c-.4-5.06-1.22-10.1-2.38-14.98l23.15-5.75c1.56,6.37,2.37,12.96,2.42,19.63l-23.18,1.09Z"/><path class="cls-2" d="m418.57,264.36c.13-10.43-1.51-20.47-4.86-29.9l-.27-.75-28.79,7.17.22.84c1.97,7.75,2.98,15.83,3.04,24v.91l30.64-1.46.02-.82Zm-28.97.47c-.09-7.73-1.06-15.36-2.88-22.71l25.6-6.35c3.02,8.77,4.55,18.09,4.51,27.77l-27.24,1.29Z"/><path class="cls-2" d="m455.92,262.63c.96-13.12-.76-25.69-5.15-37.39l-.27-.71-24.84,6.17.29.87c3.46,10.19,5.17,21,5.13,32.1l-.02.89,24.8-1.18.05-.75Zm-23.15.15c-.02-10.64-1.67-21.03-4.91-30.86l21.56-5.37c4.02,11.05,5.66,22.87,4.84,35.19l-21.49,1.04Z"/><path class="cls-2" d="m368.98,308.78c3.02-6.73,5.17-13.76,6.37-20.89l.15-.84-26.86-4.8-.16.85c-.95,5.42-2.37,10.81-4.22,16.01l-.31.78,24.71,9.61.33-.73Zm-22.85-9.86c1.69-4.79,2.98-9.72,3.89-14.67l23.51,4.19c-1.17,6.44-3.11,12.79-5.79,18.89l-21.62-8.41Z"/><path class="cls-2" d="m409.27,324.46c4.37-9.46,6.95-19.32,7.72-29.3l.07-.76-29.22-5.17-.15.84c-1.35,7.9-3.71,15.69-6.99,23.18l-.35.82,28.57,11.14.35-.75Zm-26.64-11.35c3.04-7.08,5.28-14.45,6.61-21.89l25.97,4.6c-.8,9.24-3.2,18.38-7.17,27.19l-25.4-9.9Z"/><path class="cls-2" d="m444.11,338.09c6.22-11.61,9.75-23.8,10.5-36.26l.04-.76-25.2-4.46-.09.93c-.98,10.74-3.82,21.29-8.37,31.41l-.38.82,23.14,8.99.36-.66Zm-21.2-9.3c4.29-9.72,7.02-19.87,8.06-30.19l21.87,3.89c-.82,11.7-4.13,23.16-9.9,34.1l-20.03-7.81Z"/><path class="cls-2" d="m360.23,328.37l.47-.69-22.58-15.3-.49.71c-3.06,4.55-6.57,8.9-10.39,12.9l-.58.62,18.65,18.83.6-.56c5.51-4.93,10.32-10.46,14.32-16.5Zm-14.87,14.68l-16.3-16.49c3.47-3.69,6.68-7.66,9.52-11.81l19.74,13.37c-3.66,5.4-8.02,10.43-12.96,14.92Z"/><path class="cls-2" d="m395.29,351.97l.38-.67-24.58-16.61-.47.73c-4.46,6.64-9.75,12.81-15.81,18.32l-.67.6,21.58,21.8.62-.55c7.82-6.88,14.19-14.81,18.96-23.62Zm-19.51,21.8l-19.16-19.38c5.64-5.24,10.66-11.06,14.92-17.32l21.87,14.77c-4.49,8.13-10.43,15.49-17.63,21.93Z"/><path class="cls-2" d="m426.96,373.37l.36-.69-21.22-14.34-.45.82c-5.28,9.39-12.14,17.89-20.43,25.27l-.67.6,17.49,17.63.6-.45c10.39-8.06,18.6-17.76,24.33-28.84Zm-24.78,27l-15.14-15.25c7.9-7.17,14.5-15.34,19.65-24.31l18.4,12.43c-5.5,10.37-13.21,19.51-22.91,27.13Z"/><path class="cls-2" d="m316.23,335.61l-.71.46c-4.66,2.91-9.61,5.46-14.76,7.55l-.76.33,9.39,24.78.76-.26c7.02-2.26,13.68-5.35,19.8-9.24l.71-.45-14.43-23.16Zm-5.82,30.97l-8.22-21.69c4.69-1.97,9.23-4.28,13.5-6.91l12.61,20.25c-5.55,3.44-11.57,6.26-17.89,8.35Z"/><path class="cls-2" d="m337.3,369.42l-.75.46c-6.75,4.28-14.1,7.73-21.89,10.32l-.86.27,10.86,28.7.76-.25c9.97-3.09,19.03-7.75,26.95-13.85l.6-.49-15.69-25.15Zm-11.59,37.61l-9.64-25.51c7.3-2.49,14.25-5.77,20.69-9.74l13.96,22.36c-7.39,5.6-15.81,9.92-25,12.88Z"/><path class="cls-2" d="m359.65,405.27l-.75.56c-8.62,6.44-18.36,11.41-28.93,14.77l-.86.27,8.79,23.24.75-.2c12.77-3.13,24.2-8.66,33.95-16.45l.6-.49-13.56-21.71Zm-20.69,36.81l-7.61-20.13c10.12-3.31,19.47-8.08,27.84-14.19l11.74,18.83c-9.24,7.24-19.98,12.45-31.97,15.49Z"/><path class="cls-2" d="m286.83,347.95l-.87.11c-5.44.78-10.99,1.09-16.52.91l-.86-.02-1.49,26.46.82.09c7.31.8,14.67.65,21.84-.4l.82-.13-3.73-27.02Zm-17.94,25.91l1.31-23.15c5.1.11,10.17-.16,15.16-.82l3.28,23.62c-6.48.91-13.1,1.02-19.74.35Z"/><path class="cls-2" d="m292.3,387.38l-.86.13c-7.91,1.15-16.07,1.33-24.2.51l-.89-.09-1.75,30.64.8.07c10.35,1.22,20.53.66,30.24-1.71l.75-.16-4.09-29.39Zm-25.87,29.66l1.55-27.24c7.7.71,15.38.56,22.85-.47l3.68,26.13c-9.04,2.09-18.49,2.62-28.08,1.58Z"/><path class="cls-2" d="m298.16,429.24l-.93.2c-10.5,2.38-21.42,2.97-32.44,1.73l-.89-.09-1.42,24.78.75.16c12.96,2.33,25.64,1.91,37.74-1.24l.73-.18-3.53-25.37Zm-33.88,25.22l1.22-21.49c10.59,1.09,21.07.55,31.21-1.66l3.08,22c-11.39,2.84-23.33,3.24-35.5,1.15Z"/><path class="cls-2" d="m254.93,347.24l-.84-.22c-5.3-1.51-10.5-3.51-15.49-5.91l-.75-.35-12.16,23.55.71.42c6.39,3.69,13.16,6.57,20.12,8.52l.8.22,7.59-26.22Zm-26.95,16.4l10.64-20.62c4.57,2.17,9.34,3.98,14.18,5.4l-6.62,22.93c-6.3-1.82-12.39-4.42-18.2-7.72Z"/><path class="cls-2" d="m243.88,385.51l-.82-.24c-7.7-2.16-15.21-5.31-22.33-9.37l-.76-.44-14.07,27.24.69.44c8.95,5.31,18.49,8.92,28.31,10.74l.78.13,8.19-28.5Zm-35.7,16.56l12.48-24.24c6.75,3.77,13.85,6.75,21.09,8.86l-7.3,25.35c-9.1-1.75-17.92-5.11-26.28-9.97Z"/><path class="cls-2" d="m232.2,426.12l-.91-.18c-10.55-2.11-20.76-6.02-30.35-11.61l-.78-.45-11.37,22.07.64.42c10.86,7.41,22.64,12.19,34.96,14.21l.75.13,7.08-24.58Zm-41.2,9.24l9.86-19.11c9.23,5.29,19.03,9.06,29.19,11.17l-6.15,21.33c-11.55-2.02-22.64-6.51-32.9-13.39Z"/><path class="cls-2" d="m272.15,332.36c-34.05,0-61.75-27.7-61.75-61.75s27.7-61.75,61.75-61.75,61.75,27.7,61.75,61.75-27.7,61.75-61.75,61.75Zm0-120.93c-32.63,0-59.18,26.55-59.18,59.18s26.55,59.18,59.18,59.18,59.18-26.55,59.18-59.18-26.55-59.18-59.18-59.18Z"/><path class="cls-2" d="m270.61,541.22C121.39,541.22,0,419.82,0,270.61S121.39,0,270.61,0s270.61,121.4,270.61,270.61-121.39,270.61-270.61,270.61Zm0-538.65C122.81,2.57,2.57,122.81,2.57,270.61s120.24,268.04,268.04,268.04,268.04-120.24,268.04-268.04S418.4,2.57,270.61,2.57Z"/></g></svg>