<?xml version="1.0" encoding="UTF-8"?><svg id="Layer_2" xmlns="http://www.w3.org/2000/svg" width="110.02" height="167.73" viewBox="0 0 110.02 167.73"><defs><style>.cls-1{fill:none;}.cls-2{fill:#db6e3b;}</style></defs><path class="cls-1" d="m97.22,35.01l-4.79,1.87,5.27-2.02c-.16.04-.32.08-.48.14Z"/><path class="cls-2" d="m16.82,77.25c.21.08.44.13.66.18l2.35.46-3-.64Zm-.31-10.66c-.24.09-.47.2-.69.33l9.48-3.77-8.79,3.44Zm32.44,43.05c.13-.12.27-.24.39-.37l3.04-3.15-3.43,3.53Zm24.18,1.17l2.28,2c.16.14.32.27.49.39l-2.77-2.39Z"/><path class="cls-2" d="m97.7,34.87l-5.27,2.02L25.43,63.1l-.13.05-9.48,3.77-13.61,5.41c-.89.36-.78,1.65.16,1.85l14.46,3.07,3,.64.13.03,18.43,3.62v36.58c0,.87,1.06,1.3,1.67.68l8.9-9.15,3.43-3.53,7.05-7.3,13.51,11.83.2.17,2.77,2.39,6.43,5.55c.56.48,1.42.19,1.58-.52l2.82-12.63,13.73-59.71,1.55-6.74,1.09-4.73c.17-.76-.57-1.4-1.29-1.13l-4.11,1.58ZM22.2,71.86l-1.11-.21,1.39-.54,54.04-21.14-35.68,25.55-18.64-3.66Zm22.57,33v-18.91l9.87,8.66-9.87,10.25Zm34.85,3.18l-32.92-28.87,47.39-33.96-14.46,62.84Z"/></svg>