<?xml version="1.0" encoding="UTF-8"?><svg id="Layer_2" xmlns="http://www.w3.org/2000/svg" width="110.02" height="167.73" viewBox="0 0 110.02 167.73"><defs><style>.cls-1{fill:#db6e3b;}</style></defs><g id="Layer_1-2"><path class="cls-1" d="m35.06,77.73c-7.94,0-15-3.26-20.69-9.63-4.95-5.53-7.03-12.36-6.19-20.29.61-5.72,2.66-11.2,6.12-16.27,2.45-3.6,4.95-6.94,7.96-10.94,4.17-5.53,7.07-9.95,9.42-14.32.09-.16.19-.33.32-.54l3.53-5.75,3.4,5.58c.3.49.58.97.87,1.45.57.95,1.1,1.85,1.66,2.69,3.41,5.11,6.84,10.21,10.28,15.29l.69,1.02c2.27,3.35,4.62,6.81,6.56,10.58,1.6,3.1,3.49,7.28,3.91,12.15.46,5.31-.62,10.31-3.21,14.87-4.05,7.13-10.31,11.76-18.09,13.4-2.24.47-4.43.71-6.56.71Zm.57-62.34c-1.93,3.08-4.2,6.33-6.99,10.04-2.95,3.91-5.39,7.18-7.74,10.63-2.74,4.02-4.3,8.15-4.77,12.6-.6,5.67.77,10.28,4.2,14.11,5.35,5.98,11.77,8.08,19.64,6.43,5.56-1.17,9.86-4.37,12.79-9.52,1.77-3.12,2.51-6.56,2.19-10.22-.3-3.48-1.79-6.73-3.05-9.17-1.73-3.34-3.84-6.46-6.08-9.76l-.7-1.03c-3.18-4.69-6.34-9.39-9.49-14.11Z"/><path class="cls-1" d="m82.06,122.73c-7.94,0-15-3.26-20.69-9.63-4.95-5.53-7.03-12.36-6.19-20.29.61-5.72,2.66-11.2,6.12-16.27,2.45-3.6,4.95-6.94,7.96-10.94,4.17-5.53,7.07-9.95,9.42-14.32.09-.16.19-.33.32-.54l3.53-5.75,3.4,5.58c.3.49.58.97.87,1.45.57.95,1.1,1.85,1.66,2.69,3.41,5.11,6.84,10.21,10.28,15.29l.69,1.02c2.27,3.35,4.62,6.81,6.56,10.58,1.6,3.1,3.49,7.28,3.91,12.15.46,5.31-.62,10.31-3.21,14.87-4.05,7.13-10.31,11.76-18.09,13.4-2.24.47-4.43.71-6.56.71Zm.57-62.34c-1.93,3.08-4.2,6.33-6.99,10.04-2.95,3.91-5.39,7.18-7.74,10.63-2.74,4.02-4.3,8.15-4.77,12.6-.6,5.67.77,10.28,4.2,14.11,5.35,5.98,11.77,8.08,19.64,6.43,5.56-1.17,9.86-4.37,12.79-9.52,1.77-3.12,2.51-6.56,2.19-10.22-.3-3.48-1.79-6.73-3.05-9.17-1.73-3.34-3.84-6.46-6.08-9.76l-.7-1.03c-3.18-4.69-6.34-9.39-9.49-14.11Z"/><path class="cls-1" d="m27.06,167.73c-7.94,0-15-3.26-20.69-9.63-4.95-5.53-7.03-12.36-6.19-20.29.61-5.72,2.66-11.2,6.12-16.27,2.45-3.6,4.95-6.94,7.96-10.94,4.17-5.53,7.07-9.95,9.42-14.32.09-.16.19-.33.32-.54l3.53-5.75,3.4,5.58c.3.49.58.97.87,1.45.57.95,1.1,1.85,1.66,2.69,3.41,5.11,6.84,10.21,10.28,15.29l.69,1.02c2.27,3.35,4.62,6.81,6.56,10.58,1.6,3.1,3.49,7.28,3.91,12.15.46,5.31-.62,10.31-3.21,14.87-4.05,7.13-10.31,11.76-18.09,13.4-2.24.47-4.43.71-6.56.71Zm.57-62.34c-1.93,3.08-4.2,6.33-6.99,10.04-2.95,3.91-5.39,7.18-7.74,10.63-2.74,4.02-4.3,8.15-4.77,12.6-.6,5.67.77,10.28,4.2,14.11,5.35,5.98,11.77,8.08,19.64,6.43,5.56-1.17,9.86-4.37,12.79-9.52,1.77-3.12,2.51-6.56,2.19-10.22-.3-3.48-1.79-6.73-3.05-9.17-1.73-3.34-3.84-6.46-6.08-9.76l-.7-1.03c-3.18-4.69-6.34-9.39-9.49-14.11Z"/></g></svg>