<?xml version="1.0" encoding="UTF-8"?><svg id="Layer_2" xmlns="http://www.w3.org/2000/svg" width="431.42" height="443.13" viewBox="0 0 431.42 443.13"><defs><style>.cls-1{fill:#ec6342;}</style></defs><g id="Layer_1-2"><path class="cls-1" d="m36.84,146.25c.29-.5.64-.76,1.04-.76.4,0,1.01.15,1.83.47,2.77,1.05,4.86,2.06,6.26,3.01.79.51,1.25,1.12,1.36,1.84.12.72-.09,1.87-.62,3.46l-7.34,21.77c-.38,1.12-.75,1.86-1.12,2.24s-.84.47-1.42.27c-.61-.21-1.03-.56-1.24-1.05-.21-.49-.35-.99-.4-1.49-.05-.5-.47-1.09-1.26-1.78-.79-.69-1.98-1.3-3.56-1.83l-19.45-6.55c-1.58-.53-2.9-.77-3.94-.7-1.05.07-1.74.29-2.08.65-.34.37-.75.68-1.22.94-.47.26-1.01.29-1.62.08-.58-.19-.9-.55-.96-1.08-.07-.52.09-1.34.47-2.46l6.97-20.69c.5-1.48,1-2.48,1.5-3.01.5-.53,1.14-.81,1.9-.83,1.91-.2,3.95-.11,6.11.25,1.65.23,2.44.8,2.37,1.7,0,.96-.81,1.63-2.42,2.01-2.13.49-3.82,1.21-5.06,2.17-1.25.96-2.16,2.31-2.74,4.04l-.86,2.54c-.66,1.95-.9,3.3-.73,4.05.17.76.7,1.29,1.6,1.59l7.51,2.53c1.08.36,1.89.31,2.43-.17.54-.48,1.04-1.4,1.51-2.77l.51-1.51c.27-.79.27-1.5,0-2.14-.27-.63-.65-1.12-1.13-1.46-.49-.34-.89-.74-1.22-1.19-.33-.45-.42-.91-.26-1.38.19-.58.54-.9,1.05-.97.51-.07,1.28.07,2.32.42l6.32,2.13c1.76.59,2.48,1.4,2.14,2.4-.16.47-.51.78-1.07.93-.55.15-1.12.22-1.69.21-.58-.01-1.17.15-1.79.48-.61.33-1.05.9-1.32,1.69l-.51,1.51c-.47,1.4-.64,2.45-.49,3.14s.76,1.22,1.84,1.58l9.83,3.31c.94.32,1.71.2,2.31-.33.6-.54,1.25-1.85,1.96-3.94l1.15-3.58c.58-1.73.6-3.17.04-4.32s-1.74-2.59-3.56-4.33c-1.33-1.29-1.74-2.33-1.23-3.12Z"/><path class="cls-1" d="m50.02,115.94l8.65.04c.97-.01,1.87-.14,2.69-.39.82-.25,1.42-.5,1.8-.74s.8-.4,1.25-.46.93.04,1.42.32c.53.3.78.7.76,1.19-.02.49-.29,1.2-.82,2.12l-4.17,7.27c-.91,1.58-1.84,2.1-2.79,1.55-.43-.25-.79-.73-1.08-1.44-.29-.71-.6-1.25-.92-1.61-.32-.36-1.16-.62-2.51-.78h-6.43c-.54,1.08-.98,1.92-1.32,2.52l-2.24,3.91c-.38.66-.24,1.18.42,1.56l1.98,1.13c1.32.76,2.48,1.2,3.47,1.34,1,.13,1.72.08,2.17-.17.45-.25.94-.44,1.47-.57.54-.13,1.05-.05,1.54.23.53.3.78.71.75,1.22-.03.51-.34,1.27-.92,2.3l-4.51,7.86c-.57.99-1.07,1.64-1.52,1.96-.44.31-.93.32-1.46.02-.49-.28-.82-.7-.96-1.24-.15-.54-.22-1.08-.23-1.61,0-.53-.31-1.2-.92-2.01-.61-.81-1.57-1.59-2.89-2.35l-17.95-10.3c-1.45-.83-2.7-1.32-3.73-1.45-1.04-.14-1.76-.06-2.17.23-.41.29-.87.52-1.38.69-.51.17-1.05.09-1.61-.23-.53-.3-.77-.72-.73-1.24.04-.52.35-1.3.94-2.32l6.18-10.78c2.97-5.17,6.39-8.52,10.27-10.05,3.88-1.52,7.64-1.23,11.3.87,4.65,2.67,6.71,6.48,6.19,11.44Zm-6.68,8.2c1.42-2.47,1.89-4.75,1.43-6.84-.47-2.09-1.89-3.81-4.26-5.17-3.03-1.74-5.97-2.27-8.81-1.6-2.84.67-5.04,2.38-6.61,5.11-.77,1.27-1.17,2.14-1.21,2.62-.04.48.21.88.74,1.18l14.54,8.34c.59.34,1.19.26,1.79-.25.6-.51,1.4-1.64,2.4-3.39Z"/><path class="cls-1" d="m48.72,75.23l9.74-9.53c2.71-2.66,5.51-4.62,8.39-5.9s5.58-1.84,8.1-1.71c2.52.13,4.88.69,7.06,1.67,2.18.98,4.13,2.35,5.86,4.11,4.12,4.21,6.25,9,6.38,14.38.13,5.38-2.17,10.38-6.89,15l-10.71,10.49c-.84.82-1.51,1.32-2.01,1.49-.5.17-.96.04-1.39-.4-.45-.46-.66-.96-.63-1.5.03-.54.14-1.04.32-1.51.18-.47.07-1.19-.32-2.16s-1.17-2.05-2.34-3.25l-14.35-14.66c-1.17-1.2-2.24-2-3.2-2.41s-1.68-.54-2.15-.37c-.47.17-.98.27-1.51.29-.54.02-1.03-.2-1.48-.66-.42-.43-.55-.9-.37-1.39.18-.5.69-1.15,1.53-1.98Zm35.82,16.06c3.23-3.16,4.72-6.38,4.46-9.67s-1.89-6.46-4.9-9.52c-3.85-3.94-8.09-6.2-12.71-6.79-4.62-.59-8.57.73-11.85,3.94-.92.9-1.43,1.63-1.54,2.18-.1.55.21,1.19.93,1.92l19.06,19.47c.85.87,1.74,1.24,2.67,1.1.93-.14,2.22-1.02,3.88-2.64Z"/><path class="cls-1" d="m120.84,67.61c-9.13,5.61-16.84,3.31-23.13-6.92l-6.75-10.97c-.82-1.33-1.63-2.29-2.44-2.88-.81-.59-1.47-.89-1.98-.89-.51,0-1.03-.06-1.55-.18-.52-.12-.93-.43-1.23-.91-.32-.52-.34-.99-.07-1.43.27-.43.91-.96,1.91-1.58l7.77-4.78c.97-.6,1.72-.92,2.24-.98.52-.05.95.18,1.26.7.26.42.36.83.31,1.21-.05.39-.17.79-.37,1.2-.19.41-.35.86-.47,1.36-.12.5-.06,1.17.18,2.03.24.86.68,1.82,1.34,2.89l7.55,12.28c2.03,3.3,4.31,5.38,6.84,6.23,2.53.85,5.14.45,7.83-1.2s4.19-3.89,4.5-6.72c.31-2.83-.55-5.91-2.6-9.24l-8.56-13.81c-.46-.74-.98-1.29-1.58-1.64-.59-.35-1.12-.54-1.58-.56-.46-.03-.93-.11-1.39-.25-.46-.14-.8-.38-1.02-.74-.3-.49-.33-.91-.09-1.28s.76-.8,1.57-1.3l4.32-2.66c.84-.52,1.49-.79,1.94-.82s.82.2,1.12.68c.26.42.27.94.05,1.54-.23.61-.39,1.34-.5,2.18-.11.85.13,1.74.71,2.68l7.82,12.72c3.25,5.36,4.56,10,3.91,13.92-.64,3.92-3.27,7.29-7.86,10.12Z"/><path class="cls-1" d="m166.7,47.69c-5.25,1.41-10.05.87-14.4-1.64s-7.25-6.44-8.7-11.79c-1.6-5.94-1.01-11.51,1.79-16.69,2.79-5.18,7.11-8.56,12.94-10.13,5.43-1.46,10.29-.88,14.58,1.76,4.29,2.64,7.17,6.66,8.62,12.05,1.61,5.98,1.03,11.48-1.75,16.5s-7.14,8.33-13.08,9.93Zm1.69-5.12c3.34-.9,5.53-2.73,6.58-5.49,1.05-2.76,1.08-5.96.1-9.59-.85-3.16-2.18-6.03-3.97-8.61-1.8-2.58-3.98-4.54-6.54-5.88-2.56-1.33-5.15-1.65-7.75-.95-3.27.88-5.47,2.76-6.62,5.65-1.15,2.89-1.26,6.06-.33,9.5,1.36,5.03,3.79,9.11,7.32,12.25,3.52,3.14,7.27,4.18,11.23,3.11Z"/><path class="cls-1" d="m215.19.31l5.12-.29c1.97-.11,2.99.31,3.04,1.25.03.46-.13.86-.47,1.23-.34.36-.74.68-1.2.95-.46.27-.97.75-1.52,1.43-.55.68-.99,1.5-1.32,2.47l-10.21,31.41c-.19.66-.46,1.12-.81,1.39-.35.27-1.05.51-2.1.72-1.28.26-2.16.33-2.64.21-.48-.12-.86-.48-1.12-1.08l-14.35-30.64c-.48-1.04-1-1.87-1.57-2.51-.57-.63-1.05-1.05-1.44-1.26s-.73-.45-1.01-.74c-.28-.29-.44-.66-.46-1.12-.04-.61.17-1.05.61-1.32.44-.27,1.21-.44,2.31-.5l9.16-.52c1.82-.1,2.76.38,2.82,1.44.03.57-.24,1.1-.83,1.59-.58.49-1.01.96-1.29,1.41-.28.45-.14,1.46.4,3.03l10.55,22.98,7.65-24.24c.37-1.58.43-2.58.17-3.01-.25-.42-.64-.85-1.16-1.28-.52-.43-.79-.89-.82-1.38-.05-.99.77-1.53,2.48-1.62Z"/><path class="cls-1" d="m257.3,32.68c.55.19.86.49.94.88.08.4.03,1.02-.13,1.88-.54,2.92-1.15,5.15-1.84,6.7-.36.87-.88,1.43-1.57,1.67-.69.25-1.86.25-3.52,0l-22.73-3.31c-1.17-.17-1.97-.4-2.4-.7-.44-.29-.61-.74-.53-1.34.09-.64.36-1.11.81-1.41.45-.3.91-.52,1.39-.66.48-.14.99-.66,1.52-1.56s.92-2.18,1.16-3.83l2.96-20.31c.24-1.65.23-2.99-.02-4.01-.26-1.02-.59-1.66-1.02-1.93-.42-.27-.8-.62-1.14-1.03-.34-.41-.47-.94-.38-1.58.09-.6.38-.98.89-1.14.5-.16,1.34-.15,2.5.02l21.6,3.14c1.54.22,2.62.54,3.23.93.61.4,1,.97,1.16,1.72.54,1.84.82,3.86.85,6.06.07,1.66-.35,2.54-1.25,2.64-.95.17-1.75-.5-2.41-2.02-.86-2.01-1.88-3.54-3.05-4.59-1.17-1.05-2.66-1.71-4.46-1.97l-2.65-.39c-2.03-.29-3.4-.29-4.12,0-.72.3-1.14.92-1.28,1.86l-1.14,7.84c-.16,1.13.04,1.92.61,2.36.57.45,1.57.78,3,.98l1.58.23c.83.12,1.53,0,2.1-.39.57-.38.99-.84,1.24-1.38.25-.54.57-1.01.96-1.42.38-.4.82-.57,1.31-.5.6.09.98.37,1.14.86.16.48.16,1.27,0,2.36l-.96,6.6c-.27,1.84-.93,2.69-1.98,2.53-.49-.07-.86-.37-1.11-.88s-.42-1.06-.51-1.63c-.09-.57-.36-1.13-.79-1.67-.44-.54-1.07-.88-1.9-1l-1.58-.23c-1.47-.21-2.53-.19-3.18.08-.66.27-1.06.97-1.23,2.1l-1.49,10.27c-.14.98.11,1.71.74,2.21.64.5,2.05.9,4.23,1.22l3.73.49c1.8.26,3.22.02,4.25-.73,1.03-.75,2.24-2.18,3.62-4.28,1.03-1.54,1.98-2.13,2.85-1.77Z"/><path class="cls-1" d="m289.52,40.26l1.51,8.52c.18.95.47,1.81.87,2.58.39.77.74,1.31,1.05,1.64s.53.71.68,1.15c.15.44.12.92-.07,1.46-.2.57-.55.89-1.04.96-.49.07-1.23-.08-2.24-.43l-7.89-2.81c-1.72-.61-2.39-1.44-2.02-2.47.17-.46.57-.9,1.23-1.32.65-.41,1.12-.81,1.42-1.19.3-.38.4-1.25.32-2.61l-1.13-6.33c-1.17-.34-2.08-.62-2.72-.85l-4.24-1.51c-.72-.26-1.2-.02-1.46.69l-.76,2.15c-.51,1.43-.74,2.65-.7,3.66s.23,1.71.55,2.1c.32.4.6.85.82,1.35.22.5.24,1.02.05,1.56-.2.57-.56.89-1.06.95-.51.06-1.31-.1-2.42-.5l-8.54-3.04c-1.07-.38-1.81-.76-2.19-1.14-.39-.38-.48-.86-.28-1.43.19-.54.54-.93,1.05-1.17.51-.24,1.02-.41,1.54-.51.52-.1,1.12-.52,1.81-1.26.69-.74,1.29-1.83,1.8-3.26l6.94-19.49c.56-1.58.82-2.89.76-3.93-.05-1.05-.26-1.75-.62-2.1-.36-.35-.67-.76-.92-1.23-.26-.47-.27-1.02-.06-1.62.2-.57.57-.89,1.09-.94.52-.06,1.34.11,2.45.51l11.71,4.17c5.62,2,9.52,4.77,11.71,8.31,2.19,3.54,2.58,7.3,1.16,11.27-1.8,5.05-5.18,7.76-10.15,8.12Zm-9.25-5.11c2.68.96,5.01,1.02,6.98.19,1.97-.83,3.41-2.54,4.33-5.11,1.17-3.29,1.17-6.28,0-8.95s-3.23-4.54-6.21-5.6c-1.38-.53-2.32-.77-2.8-.72-.48.05-.82.36-1.03.94l-5.62,15.79c-.23.64-.04,1.22.57,1.71.61.5,1.86,1.09,3.76,1.76Z"/><path class="cls-1" d="m335.78,37.81l-16.91,27.07c-.44.71-.7,1.39-.77,2.04-.07.65-.03,1.19.13,1.62.15.43.26.88.31,1.33.05.46-.03.85-.23,1.17-.44.71-1.41.6-2.89-.33l-7.93-4.95c-1.55-.97-2.1-1.8-1.66-2.51.24-.39.63-.64,1.17-.75.54-.11,1.08-.14,1.63-.09.55.05,1.14-.06,1.79-.33.64-.27,1.18-.76,1.62-1.47l12.05-19.29c.7-1.13,1.06-2.02,1.06-2.67,0-.65-.4-1.47-1.21-2.47-.77-.93-.96-1.7-.57-2.31.2-.32.49-.5.87-.53.38-.03,1.13.06,2.25.27,1.65.22,3.48.56,5.49,1.01,2.01.45,3.2.79,3.59,1.03.74.46.81,1.18.21,2.14Z"/><path class="cls-1" d="m350.94,70.62c.98,2.96,1.45,5.53,1.42,7.69-.03,2.16-.82,4.16-2.36,5.99-2.38,2.82-5.28,4.08-8.72,3.79-3.44-.29-6.75-1.78-9.95-4.47-2.93-2.47-4.9-5.36-5.89-8.66-1-3.3-.3-6.36,2.07-9.18,2.69-3.19,6.77-4.28,12.22-3.26-1.12-4.57-.61-8.12,1.52-10.65,2.11-2.5,4.78-3.56,8.02-3.19,3.24.37,6.34,1.81,9.3,4.31,1.51,1.27,2.76,2.7,3.76,4.29,1,1.59,1.54,3.34,1.64,5.26s-.49,3.64-1.77,5.15c-2.5,2.96-6.26,3.94-11.28,2.94Zm-16.64,10.8c1.45,1.22,2.95,1.72,4.49,1.48,1.54-.24,2.81-.94,3.79-2.1.98-1.16,1.36-2.7,1.13-4.61-.23-1.91-.93-4.47-2.09-7.69l-.97-2.83c-2.87.51-5.2,1.83-6.99,3.95-1.62,1.92-2.37,3.98-2.27,6.18.11,2.2,1.07,4.08,2.9,5.62Zm21.49-26.1c-1.13-.96-2.36-1.43-3.68-1.43-1.32,0-2.45.56-3.38,1.66-.96,1.13-1.3,2.6-1.02,4.39.27,1.8.92,4.12,1.95,6.97l.16.43c2.7-.31,4.89-1.47,6.58-3.47,1.2-1.42,1.75-2.91,1.64-4.47-.11-1.55-.85-2.92-2.25-4.1Z"/><path class="cls-1" d="m365.22,103.38l-2.59.58c-1.56.5-2.45.96-2.67,1.4-.23.44-.38,1-.45,1.68-.08.68-.32,1.17-.72,1.45-.81.57-1.72.14-2.72-1.29l-2.93-4.15c-1.14-1.61-1.32-2.7-.54-3.24.37-.26.8-.35,1.27-.27s.95.25,1.43.49c.47.25,1.15.42,2.02.53.87.11,1.8.04,2.79-.19l26.78-6.34c1.27-.43,1.99-.88,2.15-1.35.16-.46.3-1.07.42-1.83.12-.76.39-1.29.83-1.6.84-.59,1.61-.39,2.31.6l3.71,5.26c.59.84.61,1.69.05,2.54l-18.22,27.86c-.63.96-1.06,1.84-1.3,2.66-.24.82-.33,1.46-.29,1.91.04.46.02.88-.08,1.28-.1.39-.33.72-.7.98-.5.35-.98.41-1.44.18-.46-.23-1.02-.8-1.65-1.7l-5.29-7.5c-1.05-1.49-1.14-2.54-.27-3.16.47-.33,1.06-.38,1.78-.14.72.23,1.35.35,1.88.35.53,0,1.32-.65,2.36-1.94l1.18-1.88c.48-.71.66-1.28.54-1.71-.21-.69-1.44-2.64-3.7-5.83-2.45-3.48-3.94-5.36-4.47-5.64-.35-.17-.84-.17-1.47,0Zm8.9,3.62c1.91,2.7,3.03,4.09,3.37,4.18.27,0,.58-.27.91-.78l8.07-12.19-14.05,3.43c-.83.21-1.23.47-1.2.77.06.42,1.03,1.95,2.89,4.59Zm26.59-12.59c-1.57-.35-2.87-1.25-3.87-2.67-1.01-1.43-1.4-2.91-1.18-4.44.22-1.53,1.02-2.78,2.38-3.74,1.43-1.01,2.92-1.34,4.49-1,1.56.34,2.86,1.24,3.89,2.7.99,1.4,1.38,2.86,1.18,4.4-.2,1.54-.99,2.79-2.39,3.78-1.43,1.01-2.93,1.33-4.51.98Zm-1.23-4.26c.46.65,1.05,1.01,1.76,1.06.71.06,1.39-.19,2.03-.73.61-.52.96-1.12,1.07-1.8.1-.68-.05-1.31-.47-1.9-.48-.68-1.06-1.06-1.75-1.14-.68-.08-1.34.16-1.98.7-.61.52-.97,1.14-1.1,1.86s.02,1.37.44,1.96Z"/><path class="cls-1" d="m398.83,153.42l-5.25,6.88c-.58.78-1.01,1.58-1.31,2.38s-.46,1.44-.5,1.88c-.04.45-.17.88-.38,1.28-.22.4-.59.72-1.12.94-.56.24-1.03.2-1.41-.11-.38-.31-.78-.96-1.2-1.94l-3.28-7.71c-.71-1.68-.57-2.73.45-3.17.45-.19,1.05-.19,1.8,0,.75.2,1.36.28,1.84.24.48-.04,1.19-.55,2.14-1.53l3.89-5.13c-.55-1.09-.95-1.95-1.22-2.58l-1.76-4.14c-.3-.7-.8-.9-1.5-.6l-2.1.89c-1.4.6-2.45,1.25-3.16,1.96-.71.71-1.1,1.33-1.17,1.83-.07.51-.22,1.01-.44,1.52-.22.5-.59.87-1.12,1.09-.56.24-1.03.19-1.42-.14-.39-.33-.81-1.04-1.28-2.12l-3.55-8.34c-.45-1.05-.66-1.85-.65-2.39.02-.54.3-.94.86-1.17.52-.22,1.05-.23,1.57-.02s1,.47,1.42.79c.42.32,1.14.47,2.15.48,1.01,0,2.22-.29,3.62-.89l19.04-8.11c1.54-.66,2.67-1.36,3.41-2.1.74-.75,1.11-1.37,1.12-1.87.01-.5.11-1.01.28-1.51.17-.51.56-.89,1.16-1.14.56-.24,1.04-.18,1.43.16.4.35.82,1.06,1.29,2.15l4.87,11.43c2.34,5.49,2.95,10.24,1.83,14.25-1.12,4.01-3.62,6.84-7.5,8.49-4.93,2.1-9.21,1.45-12.85-1.96Zm-2.51-10.27c1.12,2.62,2.65,4.38,4.59,5.26,1.95.88,4.18.79,6.7-.28,3.22-1.37,5.41-3.39,6.59-6.06,1.18-2.67,1.15-5.46-.09-8.36-.55-1.38-1-2.23-1.37-2.55-.36-.32-.83-.36-1.38-.12l-15.42,6.57c-.63.27-.92.79-.87,1.58.05.79.46,2.1,1.25,3.96Z"/><path class="cls-1" d="m390.76,180.37c-.26-1.15-.14-2.19.36-3.12.5-.93,1.39-1.55,2.65-1.84,1.37-.31,2.57-.11,3.59.61,1.02.72,1.68,1.69,1.96,2.91.26,1.11.12,2.15-.42,3.11-.54.96-1.44,1.59-2.7,1.88-1.3.3-2.45.1-3.47-.6-1.02-.7-1.67-1.68-1.96-2.94Zm15.82-2.18c-1.05.16-1.72-.17-1.99-1-.32-.86-.05-1.57.8-2.12.31-.19.65-.32,1.02-.41,2.11-.49,4.24-.47,6.39.05,2.15.52,4.2,1.07,6.17,1.65,1.97.58,3.73.69,5.28.33,1.07-.25,1.92-.75,2.55-1.49.63-.75.82-1.66.57-2.73-.25-1.07-.86-1.83-1.84-2.27-.98-.44-2.44-.8-4.38-1.1-.73-.11-1.27-.21-1.62-.33-.36-.11-.76-.37-1.2-.78-.44-.41-.75-.96-.91-1.66-.27-1.18-.12-2.15.45-2.88.57-.74,1.34-1.21,2.3-1.44,2.18-.5,4.31.09,6.38,1.78,2.06,1.69,3.51,4.33,4.34,7.92.81,3.52.72,6.47-.27,8.86-.99,2.39-2.63,3.85-4.93,4.38-1.26.29-2.59.21-4.01-.25-1.41-.46-2.63-1.04-3.65-1.76s-2.19-1.51-3.5-2.38c-1.31-.87-2.4-1.48-3.26-1.82-1.74-.61-3.3-.8-4.69-.56Z"/><path class="cls-1" d="m395.25,292.06c-.28.51-.62.77-1.02.79-.4.02-1.02-.12-1.84-.42-2.8-.98-4.91-1.93-6.34-2.85-.81-.49-1.28-1.09-1.41-1.81-.14-.72.04-1.88.53-3.47l6.76-21.95c.35-1.13.7-1.88,1.06-2.27.36-.39.83-.49,1.41-.31.62.19,1.04.53,1.27,1.02.23.49.38.98.44,1.48.06.5.5,1.08,1.31,1.75.81.67,2.01,1.25,3.61,1.74l19.61,6.04c1.6.49,2.92.69,3.96.59,1.04-.1,1.73-.33,2.07-.71.33-.37.73-.7,1.19-.97.46-.28,1-.32,1.62-.13.58.18.91.53.99,1.05.08.52-.06,1.34-.4,2.47l-6.42,20.87c-.46,1.49-.93,2.51-1.42,3.05-.49.54-1.11.84-1.88.88-1.91.25-3.94.22-6.11-.09-1.65-.19-2.46-.74-2.42-1.64-.02-.96.77-1.65,2.37-2.08,2.11-.54,3.78-1.31,5-2.31,1.22-1,2.1-2.37,2.63-4.11l.79-2.56c.6-1.96.81-3.32.63-4.07-.19-.75-.73-1.27-1.64-1.55l-7.57-2.33c-1.09-.33-1.9-.26-2.43.24-.53.49-1.01,1.43-1.43,2.81l-.47,1.53c-.25.8-.23,1.51.06,2.13.28.62.67,1.1,1.17,1.43.49.33.91.72,1.25,1.16.34.44.44.9.29,1.37-.18.58-.52.91-1.02,1-.5.08-1.28-.04-2.33-.36l-6.37-1.96c-1.78-.55-2.51-1.33-2.2-2.35.15-.47.49-.79,1.04-.96.55-.17,1.11-.25,1.69-.26.58,0,1.17-.18,1.77-.53.6-.35,1.03-.92,1.28-1.72l.47-1.53c.43-1.42.57-2.47.4-3.16-.17-.69-.79-1.2-1.88-1.53l-9.91-3.05c-.95-.29-1.71-.16-2.3.4-.59.55-1.21,1.88-1.85,3.99l-1.05,3.61c-.54,1.74-.51,3.18.07,4.32.58,1.13,1.81,2.54,3.68,4.23,1.36,1.25,1.8,2.29,1.32,3.09Z"/><path class="cls-1" d="m382.87,322.71l-8.65.19c-.97.04-1.86.19-2.68.47-.82.27-1.41.53-1.78.79-.37.25-.79.42-1.24.5-.45.08-.93-.02-1.43-.29-.54-.29-.8-.68-.79-1.17,0-.49.26-1.21.77-2.14l3.98-7.37c.87-1.61,1.78-2.15,2.75-1.62.43.24.81.71,1.12,1.41s.63,1.24.96,1.59c.33.35,1.17.59,2.53.71l6.43-.16c.51-1.11.93-1.96,1.25-2.56l2.14-3.96c.36-.67.21-1.18-.46-1.55l-2.01-1.08c-1.34-.72-2.51-1.14-3.51-1.24-1-.11-1.72-.03-2.16.23-.44.26-.93.46-1.46.61-.53.14-1.05.08-1.55-.19-.54-.29-.79-.69-.78-1.2s.3-1.28.86-2.32l4.3-7.98c.54-1,1.03-1.67,1.46-2,.44-.33.92-.35,1.46-.06.5.27.83.68.99,1.22.16.54.25,1.08.27,1.6.02.53.34,1.19.97,1.98.63.79,1.61,1.55,2.95,2.27l18.21,9.82c1.47.79,2.73,1.25,3.77,1.35,1.04.11,1.76.01,2.16-.29.4-.3.85-.54,1.36-.72.51-.18,1.04-.12,1.61.19.54.29.79.7.77,1.22-.03.53-.32,1.31-.88,2.34l-5.9,10.94c-2.83,5.25-6.17,8.69-10,10.31-3.83,1.62-7.61,1.43-11.32-.57-4.72-2.54-6.88-6.3-6.49-11.27Zm6.46-8.37c-1.35,2.51-1.77,4.8-1.25,6.87.52,2.07,1.99,3.76,4.4,5.06,3.08,1.66,6.03,2.12,8.85,1.37,2.82-.75,4.98-2.51,6.48-5.28.74-1.29,1.12-2.17,1.14-2.65.02-.48-.23-.87-.77-1.16l-14.75-7.96c-.6-.32-1.2-.22-1.78.3-.59.53-1.36,1.67-2.31,3.45Z"/><path class="cls-1" d="m385.25,363.37l-9.48,9.78c-2.64,2.73-5.39,4.77-8.23,6.12-2.84,1.35-5.53,1.99-8.05,1.92-2.53-.07-4.89-.56-7.1-1.48-2.2-.92-4.19-2.24-5.97-3.96-4.23-4.1-6.48-8.83-6.75-14.2-.27-5.37,1.89-10.43,6.49-15.18l10.43-10.77c.82-.85,1.48-1.36,1.97-1.54.49-.18.96-.06,1.4.36.46.45.69.94.67,1.48-.02.54-.11,1.04-.28,1.52-.17.47-.04,1.19.38,2.15.42.96,1.23,2.02,2.43,3.19l14.74,14.28c1.2,1.16,2.29,1.94,3.26,2.33.97.39,1.69.49,2.16.31.47-.18.97-.29,1.51-.33.54-.03,1.04.17,1.5.62.44.42.57.88.4,1.39-.17.5-.66,1.17-1.48,2.02Zm-36.24-15.11c-3.15,3.25-4.55,6.51-4.2,9.78.35,3.27,2.06,6.4,5.15,9.39,3.96,3.83,8.25,5.98,12.88,6.45,4.63.46,8.54-.96,11.74-4.26.9-.93,1.39-1.67,1.48-2.22.08-.55-.24-1.18-.98-1.9l-19.57-18.96c-.88-.85-1.77-1.19-2.7-1.03-.92.16-2.19,1.08-3.81,2.74Z"/><path class="cls-1" d="m313.35,372.9c8.98-5.85,16.74-3.75,23.3,6.3l7.04,10.79c.85,1.3,1.69,2.24,2.52,2.82.83.57,1.5.85,2.01.83.51-.02,1.03.03,1.56.14s.94.41,1.26.88c.33.51.37.98.11,1.42-.26.44-.88.98-1.87,1.63l-7.64,4.98c-.96.62-1.69.97-2.21,1.04-.52.07-.95-.15-1.28-.66-.27-.41-.38-.82-.34-1.21.04-.39.15-.79.34-1.21.18-.42.33-.87.43-1.37.11-.5.03-1.17-.23-2.03-.26-.85-.73-1.8-1.42-2.85l-7.88-12.08c-2.12-3.25-4.45-5.26-7.01-6.05-2.55-.78-5.15-.32-7.79,1.41-2.64,1.72-4.08,4-4.32,6.83-.24,2.83.71,5.89,2.85,9.17l8.92,13.57c.48.73,1.02,1.26,1.62,1.6.6.33,1.14.51,1.6.52.46.01.93.08,1.4.21s.82.36,1.04.71c.31.48.35.9.12,1.28-.23.38-.74.83-1.54,1.34l-4.25,2.77c-.83.54-1.46.83-1.91.87-.45.04-.83-.17-1.14-.65-.27-.41-.3-.93-.09-1.54s.36-1.35.44-2.19c.08-.85-.18-1.73-.78-2.66l-8.16-12.51c-3.39-5.27-4.82-9.88-4.28-13.81.54-3.94,3.07-7.38,7.59-10.33Z"/><path class="cls-1" d="m268.05,394.03c5.21-1.55,10.02-1.14,14.44,1.26,4.42,2.39,7.42,6.24,9.01,11.56,1.76,5.9,1.31,11.48-1.35,16.73-2.66,5.25-6.88,8.74-12.67,10.47-5.39,1.61-10.26,1.15-14.63-1.38-4.36-2.53-7.34-6.47-8.94-11.82-1.77-5.94-1.33-11.45,1.31-16.54,2.65-5.09,6.92-8.52,12.82-10.28Zm-1.55,5.16c-3.31.99-5.46,2.88-6.43,5.66-.97,2.79-.92,5.99.15,9.59.93,3.13,2.33,5.97,4.2,8.5,1.87,2.54,4.1,4.44,6.7,5.71,2.6,1.27,5.19,1.52,7.78.75,3.24-.97,5.4-2.91,6.47-5.82,1.07-2.92,1.1-6.09.08-9.51-1.49-4.99-4.03-9.01-7.64-12.06-3.61-3.05-7.38-3.99-11.31-2.81Z"/><path class="cls-1" d="m220.8,442.67l-5.11.43c-1.97.16-2.99-.23-3.07-1.18-.04-.45.11-.87.44-1.24.33-.37.72-.7,1.18-.98.45-.29.95-.78,1.48-1.47.53-.69.95-1.53,1.25-2.51l9.38-31.67c.17-.66.43-1.13.77-1.41.34-.28,1.03-.53,2.08-.77,1.27-.3,2.15-.39,2.64-.28.49.11.87.46,1.15,1.05l15.15,30.26c.5,1.03,1.05,1.85,1.63,2.47.58.62,1.08,1.03,1.47,1.22.4.2.74.43,1.03.71.29.28.45.65.49,1.1.05.6-.14,1.05-.58,1.33-.43.28-1.2.47-2.3.56l-9.15.76c-1.82.15-2.77-.3-2.86-1.36-.05-.57.21-1.1.78-1.61.57-.5.99-.99,1.25-1.45.27-.46.11-1.47-.48-3.02l-11.15-22.7-7.01,24.43c-.33,1.59-.36,2.59-.09,3.01.26.42.66.83,1.19,1.25.53.41.82.87.86,1.36.08.98-.73,1.55-2.43,1.69Z"/><path class="cls-1" d="m177.85,411.43c-.55-.18-.87-.47-.96-.86-.09-.39-.06-1.02.08-1.88.46-2.93,1.02-5.18,1.66-6.75.33-.88.84-1.45,1.52-1.71.68-.26,1.85-.3,3.51-.1l22.81,2.7c1.17.14,1.98.35,2.42.63.45.28.63.72.56,1.33-.08.64-.33,1.12-.77,1.43-.44.31-.9.54-1.37.7-.48.15-.97.69-1.48,1.6-.51.92-.86,2.2-1.06,3.87l-2.41,20.38c-.2,1.66-.15,3,.13,4,.28,1.01.64,1.64,1.07,1.91.43.26.82.59,1.17,1s.49.93.42,1.57c-.07.6-.36.99-.85,1.16-.5.17-1.33.19-2.5.05l-21.68-2.57c-1.55-.18-2.63-.46-3.26-.84-.62-.38-1.03-.94-1.21-1.69-.59-1.83-.92-3.84-1.01-6.03-.11-1.66.28-2.55,1.18-2.67.94-.2,1.76.46,2.47,1.96.91,1.98,1.97,3.48,3.17,4.51s2.7,1.64,4.52,1.86l2.66.32c2.04.24,3.41.2,4.12-.12s1.12-.95,1.23-1.89l.93-7.87c.13-1.13-.09-1.91-.67-2.35-.58-.43-1.59-.73-3.02-.9l-1.59-.19c-.83-.1-1.53.05-2.09.44-.56.39-.96.86-1.2,1.41s-.54,1.03-.92,1.44c-.37.42-.81.59-1.3.54-.6-.07-.99-.35-1.16-.83-.17-.48-.19-1.27-.07-2.36l.78-6.62c.22-1.85.86-2.71,1.91-2.59.49.06.87.34,1.13.85.27.51.45,1.05.55,1.62.11.57.38,1.12.84,1.65.45.53,1.1.85,1.93.95l1.58.19c1.47.17,2.53.12,3.18-.17.65-.29,1.04-1,1.17-2.13l1.22-10.3c.12-.98-.15-1.71-.8-2.19-.65-.48-2.07-.85-4.26-1.11l-3.74-.39c-1.81-.21-3.22.07-4.23.85-1.01.78-2.18,2.24-3.5,4.38-.99,1.57-1.92,2.18-2.8,1.85Z"/><path class="cls-1" d="m145.48,404.72l-1.73-8.48c-.21-.95-.52-1.8-.94-2.55-.41-.75-.78-1.29-1.09-1.62-.31-.32-.55-.7-.71-1.13-.16-.43-.15-.92.03-1.46.19-.58.53-.91,1.01-.99.49-.08,1.24.04,2.25.37l7.97,2.6c1.73.57,2.43,1.37,2.09,2.42-.15.47-.55.92-1.19,1.35-.64.43-1.1.84-1.39,1.23-.29.39-.37,1.26-.25,2.62l1.3,6.3c1.18.3,2.09.56,2.75.77l4.28,1.4c.72.24,1.2,0,1.44-.73l.71-2.17c.47-1.44.67-2.67.6-3.67-.07-1-.27-1.7-.61-2.09-.33-.39-.62-.83-.86-1.33-.24-.5-.27-1.02-.09-1.56.19-.58.53-.91,1.04-.98.5-.08,1.32.07,2.44.44l8.62,2.81c1.08.35,1.83.71,2.22,1.08.4.37.5.84.32,1.42-.18.54-.52.94-1.02,1.2-.5.25-1.01.44-1.53.55-.52.11-1.11.55-1.78,1.31-.67.76-1.24,1.86-1.71,3.31l-6.42,19.67c-.52,1.59-.74,2.91-.66,3.95.08,1.05.3,1.74.67,2.08.37.34.69.74.95,1.21.27.47.3,1.01.1,1.62-.19.58-.54.9-1.07.97-.52.07-1.34-.08-2.46-.44l-11.81-3.85c-5.67-1.85-9.65-4.52-11.93-8-2.28-3.48-2.77-7.23-1.46-11.24,1.66-5.09,4.97-7.89,9.93-8.39Zm9.39,4.86c-2.71-.88-5.04-.88-6.98,0-1.95.88-3.34,2.62-4.19,5.23-1.08,3.32-1.01,6.31.23,8.95,1.24,2.64,3.36,4.45,6.35,5.43,1.4.5,2.34.71,2.82.65.48-.06.81-.38,1-.96l5.2-15.93c.21-.65,0-1.22-.62-1.7s-1.89-1.04-3.8-1.66Z"/><path class="cls-1" d="m99.31,408.39l16.19-27.51c.42-.72.66-1.41.72-2.06.05-.65,0-1.19-.17-1.62-.17-.43-.28-.87-.34-1.33s0-.85.2-1.17c.42-.72,1.39-.64,2.89.25l8.06,4.74c1.57.92,2.15,1.75,1.72,2.47-.23.39-.62.65-1.15.78s-1.08.17-1.63.13c-.55-.04-1.14.09-1.78.38-.63.29-1.16.79-1.59,1.51l-11.54,19.6c-.67,1.15-1,2.04-.99,2.69.01.65.44,1.46,1.28,2.44.79.91,1,1.67.63,2.29-.19.33-.48.51-.86.56-.38.04-1.13-.03-2.26-.21-1.66-.18-3.49-.47-5.51-.86-2.02-.39-3.22-.71-3.62-.94-.75-.44-.84-1.16-.26-2.14Z"/><path class="cls-1" d="m83.25,375.97c-1.06-2.94-1.6-5.49-1.62-7.65-.02-2.16.71-4.17,2.21-6.05,2.3-2.88,5.17-4.22,8.62-4.02,3.44.2,6.8,1.6,10.06,4.21,3,2.4,5.04,5.23,6.12,8.5,1.08,3.27.47,6.35-1.83,9.23-2.61,3.26-6.65,4.46-12.13,3.58,1.24,4.54.82,8.1-1.24,10.68-2.04,2.55-4.68,3.69-7.93,3.4-3.25-.29-6.39-1.64-9.42-4.06-1.54-1.23-2.83-2.63-3.87-4.19-1.04-1.56-1.63-3.3-1.78-5.22-.15-1.92.4-3.65,1.63-5.19,2.42-3.03,6.15-4.11,11.2-3.24Zm-4.45,15.42c1.16.92,2.4,1.37,3.72,1.33s2.43-.62,3.33-1.75c.92-1.16,1.23-2.63.91-4.42-.32-1.79-1.03-4.09-2.13-6.92l-.17-.43c-2.69.38-4.85,1.59-6.49,3.64-1.16,1.45-1.67,2.96-1.53,4.51.15,1.55.93,2.9,2.36,4.04Zm20.79-26.65c-1.48-1.19-2.99-1.64-4.53-1.36-1.54.28-2.78,1.01-3.73,2.2-.95,1.19-1.28,2.73-1,4.63.28,1.9,1.04,4.45,2.29,7.63l1.04,2.8c2.86-.59,5.15-1.97,6.88-4.13,1.57-1.96,2.27-4.04,2.1-6.24-.16-2.2-1.18-4.05-3.05-5.54Z"/><path class="cls-1" d="m32.87,353.5c1.58.31,2.9,1.17,3.94,2.57s1.48,2.87,1.29,4.4c-.18,1.54-.94,2.8-2.28,3.8-1.4,1.05-2.89,1.42-4.46,1.12-1.57-.3-2.89-1.16-3.96-2.59-1.02-1.37-1.46-2.82-1.3-4.36s.92-2.82,2.29-3.84c1.4-1.04,2.89-1.41,4.48-1.1Zm1.34,4.23c-.48-.64-1.07-.98-1.79-1.01-.71-.04-1.38.23-2.01.79-.59.54-.93,1.15-1.02,1.83-.08.68.09,1.31.52,1.89.5.67,1.09,1.03,1.78,1.09.68.06,1.34-.19,1.96-.75.59-.54.94-1.17,1.05-1.88.11-.72-.06-1.37-.49-1.95Zm33.9-14.13l2.58-.64c1.54-.54,2.42-1.03,2.64-1.47.21-.44.35-1.01.41-1.69.06-.68.29-1.17.68-1.47.79-.59,1.71-.19,2.76,1.21l3.03,4.07c1.18,1.58,1.39,2.66.63,3.23-.37.27-.79.37-1.27.3s-.96-.22-1.44-.45c-.48-.23-1.16-.39-2.03-.48s-1.8,0-2.79.27l-26.6,7.05c-1.26.47-1.97.94-2.12,1.4s-.27,1.08-.37,1.84c-.1.76-.36,1.3-.79,1.62-.82.61-1.6.43-2.32-.54l-3.85-5.16c-.61-.82-.65-1.67-.12-2.54l17.48-28.33c.6-.97,1.01-1.87,1.23-2.69.22-.82.29-1.46.24-1.92s-.04-.88.04-1.28c.08-.39.31-.73.67-1,.49-.36.97-.44,1.44-.22.47.22,1.04.77,1.7,1.65l5.49,7.36c1.09,1.46,1.21,2.51.36,3.15-.46.34-1.05.4-1.78.19-.73-.21-1.36-.31-1.89-.29-.53.02-1.3.69-2.31,2.01l-1.13,1.91c-.46.72-.62,1.29-.49,1.72.23.68,1.51,2.6,3.85,5.73,2.54,3.41,4.08,5.25,4.61,5.52.36.16.85.15,1.47-.03Zm-9-3.38c-1.98-2.65-3.14-4.01-3.48-4.09-.27.01-.57.28-.89.81l-7.75,12.4,13.95-3.8c.82-.23,1.21-.5,1.18-.81-.07-.42-1.08-1.92-3.01-4.51Z"/><path class="cls-1" d="m33.19,294.49l5.06-7.02c.56-.8.97-1.6,1.24-2.42.28-.82.42-1.45.45-1.9s.14-.88.35-1.29c.21-.41.57-.73,1.09-.97.55-.25,1.02-.23,1.41.07.39.3.81.94,1.25,1.91l3.49,7.62c.76,1.66.64,2.72-.36,3.18-.45.21-1.05.22-1.8.04-.75-.18-1.37-.24-1.84-.19-.48.05-1.18.58-2.09,1.59l-3.75,5.23c.58,1.07,1.01,1.92,1.29,2.54l1.88,4.09c.32.69.82.88,1.51.56l2.07-.95c1.38-.63,2.42-1.32,3.11-2.05.69-.73,1.06-1.35,1.12-1.86.06-.51.19-1.02.4-1.53.21-.51.57-.89,1.08-1.12.55-.25,1.03-.22,1.42.1.4.32.84,1.02,1.33,2.09l3.77,8.24c.48,1.04.71,1.83.71,2.37s-.28.94-.83,1.2c-.52.24-1.04.26-1.57.06-.53-.2-1.01-.45-1.44-.75-.43-.3-1.15-.44-2.17-.42-1.01.03-2.21.35-3.59.99l-18.81,8.62c-1.52.7-2.64,1.43-3.35,2.19s-1.07,1.4-1.07,1.9-.08,1.01-.24,1.52-.54.9-1.12,1.17c-.55.25-1.03.21-1.44-.12s-.85-1.04-1.34-2.11l-5.17-11.3c-2.48-5.42-3.22-10.16-2.21-14.19s3.44-6.93,7.27-8.69c4.87-2.23,9.17-1.69,12.9,1.62Zm2.79,10.2c-1.19-2.59-2.76-4.3-4.73-5.14-1.97-.83-4.2-.68-6.69.46-3.18,1.46-5.32,3.53-6.42,6.23-1.1,2.7-1,5.48.31,8.35.58,1.36,1.06,2.2,1.43,2.51.37.31.83.34,1.39.09l15.24-6.98c.62-.28.9-.82.83-1.6-.07-.79-.52-2.09-1.36-3.92Z"/><path class="cls-1" d="m24.79,269.93c1.05-.19,1.72.12,2.01.95.34.85.09,1.57-.74,2.13-.3.2-.64.34-1.01.44-2.1.54-4.23.58-6.39.12-2.16-.46-4.23-.96-6.21-1.48s-3.75-.59-5.29-.19c-1.07.27-1.9.8-2.51,1.56-.61.77-.77,1.68-.5,2.75.28,1.07.91,1.81,1.9,2.22.99.41,2.46.74,4.4.98.73.09,1.27.18,1.63.29.36.1.77.35,1.22.74.46.39.77.94.95,1.64.3,1.18.18,2.14-.37,2.89-.55.75-1.31,1.25-2.26,1.5-2.17.56-4.31.02-6.42-1.61-2.11-1.63-3.63-4.23-4.55-7.8-.9-3.5-.89-6.45.03-8.87.93-2.42,2.53-3.92,4.81-4.51,1.25-.32,2.59-.28,4.01.14,1.42.42,2.66.97,3.7,1.66,1.04.69,2.23,1.46,3.56,2.29,1.33.83,2.44,1.41,3.3,1.74,1.76.57,3.32.71,4.7.43Zm15.75-2.6c.29,1.14.2,2.19-.28,3.13s-1.35,1.58-2.6,1.91c-1.36.35-2.56.18-3.61-.51-1.04-.69-1.72-1.64-2.03-2.86-.29-1.1-.17-2.14.34-3.12.51-.98,1.4-1.63,2.65-1.95,1.29-.33,2.45-.16,3.49.51s1.72,1.64,2.04,2.89Z"/><path class="cls-1" d="m8.86,222.77c-.63.2-1.26.13-1.87-.22-.61-.35-.99-.87-1.14-1.56-.15-.69-.05-1.34.3-1.95.27-.53.9-1.15,1.87-1.86.97-.7,1.58-1.16,1.81-1.39.39-.37.5-.76.33-1.15-.18-.4-.55-.56-1.11-.49-.48.05-1.07.18-1.76.38s-1.23.33-1.59.41c-.37.08-.88.08-1.53.01-.73-.15-1.3-.5-1.71-1.05-.42-.55-.56-1.16-.43-1.82.12-.69.47-1.22,1.05-1.6.58-.37,1.22-.5,1.94-.38.59.08,1.4.46,2.44,1.15s1.67,1.09,1.9,1.2c.47.25.85.23,1.15-.06.3-.29.33-.7.09-1.2-.19-.36-.59-1.02-1.21-1.98-.62-.96-.99-1.73-1.09-2.32-.12-.71,0-1.35.38-1.92.37-.57.9-.91,1.58-1.03.68-.12,1.29.03,1.83.44.54.41.88.97,1,1.68.1.59,0,1.46-.28,2.61-.29,1.15-.45,1.89-.48,2.23-.06.56.11.93.49,1.1.38.18.75.07,1.11-.33.26-.26.74-.87,1.44-1.83.7-.96,1.32-1.58,1.85-1.85.64-.35,1.29-.45,1.96-.29.67.16,1.17.54,1.52,1.15.34.58.41,1.2.21,1.86-.21.66-.62,1.18-1.26,1.57-.59.29-1.07.45-1.44.5-.37.05-.93.1-1.66.15-.74.05-1.32.13-1.76.24-.56.13-.84.41-.86.83-.02.43.21.76.67.98.33.13,1.06.36,2.2.69,1.14.34,1.94.71,2.41,1.11.54.46.84,1.04.92,1.74.08.7-.11,1.32-.57,1.86-.46.54-1.02.82-1.68.84-.67.02-1.28-.2-1.85-.68-.5-.4-1.02-1.16-1.58-2.28-.56-1.12-.96-1.87-1.21-2.26-.31-.37-.64-.52-.99-.44-.35.08-.61.34-.78.8-.16.51-.3,1.37-.42,2.56-.13,1.19-.34,2.06-.64,2.6-.38.64-.88,1.07-1.52,1.27Z"/><path class="cls-1" d="m415.38,237.08c-.63.2-1.26.13-1.87-.22-.61-.35-.99-.87-1.14-1.56-.15-.69-.05-1.34.3-1.95.27-.53.9-1.15,1.87-1.86.97-.7,1.58-1.16,1.81-1.39.39-.37.5-.76.33-1.15-.18-.4-.55-.56-1.11-.49-.48.05-1.07.18-1.76.38s-1.23.33-1.59.41c-.37.08-.88.08-1.53.01-.73-.15-1.3-.5-1.71-1.05-.42-.55-.56-1.16-.43-1.82.12-.69.47-1.22,1.05-1.6.58-.37,1.22-.5,1.94-.38.59.08,1.4.46,2.44,1.15s1.67,1.09,1.9,1.2c.47.25.85.23,1.15-.06.3-.29.33-.7.09-1.2-.19-.36-.59-1.02-1.21-1.98-.62-.96-.99-1.73-1.09-2.32-.12-.71,0-1.35.38-1.92.37-.57.9-.91,1.58-1.03.68-.12,1.29.03,1.83.44.54.41.88.97,1,1.68.1.59,0,1.46-.28,2.61-.29,1.15-.45,1.89-.48,2.23-.06.56.11.93.49,1.1.38.18.75.07,1.11-.33.26-.26.74-.87,1.44-1.83.7-.96,1.32-1.58,1.85-1.85.64-.35,1.29-.45,1.96-.29.67.16,1.17.54,1.52,1.15.34.58.41,1.2.21,1.86-.21.66-.62,1.18-1.26,1.57-.59.29-1.07.45-1.44.5-.37.05-.93.1-1.66.15-.74.05-1.32.13-1.76.24-.56.13-.84.41-.86.83-.02.43.21.76.67.98.33.13,1.06.36,2.2.69,1.14.34,1.94.71,2.41,1.11.54.46.84,1.04.92,1.74.08.7-.11,1.32-.57,1.86-.46.54-1.02.82-1.68.84-.67.02-1.28-.2-1.85-.68-.5-.4-1.02-1.16-1.58-2.28-.56-1.12-.96-1.87-1.21-2.26-.31-.37-.64-.52-.99-.44-.35.08-.61.34-.78.8-.16.51-.3,1.37-.42,2.56-.13,1.19-.34,2.06-.64,2.6-.38.64-.88,1.07-1.52,1.27Z"/></g></svg>