<?xml version="1.0" encoding="UTF-8"?><svg id="Layer_2" xmlns="http://www.w3.org/2000/svg" width="110.02" height="167.73" viewBox="0 0 110.02 167.73"><defs><style>.cls-1{fill:#db6e3b;}</style></defs><path class="cls-1" d="m99.93,96.02c-.74-.43-1.66-.71-2.27-.98-2.27-1.02-4.63-1.8-6.9-2.82l-6.9-3.09c-2.28-1.02-4.57-2.04-6.85-3.07-1.1-.49-2.19-1-3.28-1.52-.92-.43-2.01-1.1-3.05-.84s-2.03,1.27-2.76,2.03c-1.9,1.96-3.96,3.75-6.06,5.5-1.05.88-2.12,1.74-3.17,2.61-.54.45-1.08.9-1.63,1.35s-.57.44-1.17.15c-7.25-3.52-14.78-10.99-18.31-18.16,0,0-.29-.59-.29-.59l4.15-4.94c1.05-1.25,2.2-2.47,3.18-3.78,1.21-1.63,2.73-3.01,4.04-4.57.24-.28.48-.58.59-.93.22-.67-.05-1.4-.32-2.05-.92-2.22-2.06-4.34-3.05-6.53l-4.69-10.45-1.96-4.38c-.76-1.69-1.58-3.36-2.41-5.02-.16-.33-.33-.66-.57-.93-.64-.73-1.56-.49-2.42-.4-1.02.1-2.05.25-3.06.45-2.77.54-5.36,1.42-7.84,2.77s-4.85,3.24-6.76,5.43c-3.98,4.55-6.16,10.38-6.15,16.42,0,35.95,29.24,65.2,65.2,65.2h.04c6.03,0,11.84-2.19,16.38-6.15,2.3-2.01,4.22-4.46,5.64-7.16,1.61-3.07,2.45-6.52,3.5-9.82.24-.76.49-1.56.32-2.33-.12-.6-.6-1.03-1.19-1.37Zm-24.7,21.48c-15.97-.01-30.99-6.24-42.29-17.54-11.3-11.3-17.53-26.32-17.55-42.29-.02-4.74,1.69-9.31,4.8-12.88.35-.4.71-.77,1.09-1.14.12-.12.25-.24.38-.36.26-.24.53-.48.8-.7.15-.12.3-.25.45-.36.33-.26.67-.51,1.02-.74.15-.1.3-.2.46-.3.35-.22.71-.44,1.07-.64.17-.09.34-.18.51-.27.31-.16.63-.31.95-.46.16-.07.32-.14.48-.21.45-.19.91-.36,1.38-.52.03,0,.05-.02.08-.03.9-.29,1.83-.5,2.77-.66.58.01,1.12.18,1.59.67.14.15.27.31.38.48,1.3,2.91,2.6,5.83,3.9,8.74l3.74,8.37c.45,1.01.86,2.04,1.35,3.03.89,1.81-.83,3.17-1.93,4.49l-3.21,3.84-4.14,4.95c-.06.08-.12.15-.18.25-.6.91-.95,1.97-1.02,3.06-.07,1.1.15,2.19.62,3.17,4.08,8.33,12.47,16.67,20.89,20.73.85.41,1.79.62,2.73.62.15,0,.3-.01.46-.02,1.09-.08,2.15-.44,3.06-1.04.09-.06.18-.13.25-.19,1.54-1.31,3.08-2.62,4.61-3.94,1.82-1.56,3.37-3.49,5.45-4.72s3.24-.55,5.32.38c1.04.47,2.08.93,3.12,1.4,1.09.49,2.18.98,3.27,1.46l6.28,2.81c.66.3,1.32.59,1.98.89.7.31,1.4.63,2.1.94.14.06.27.12.41.18,0,0,1.11.5,1.13.5.1.05.19.11.28.2.27.3.4.61.44.93.02.12.02.24.01.37-.07.46-.14.91-.24,1.36,0,.02,0,.03-.01.05-.11.5-.25.99-.4,1.47-.05.15-.1.29-.15.44-.13.38-.27.75-.42,1.12-.05.13-.1.26-.16.38-.21.48-.43.94-.67,1.4-.04.08-.09.16-.14.24-.21.38-.43.75-.67,1.12-.08.13-.17.26-.26.39-.15.23-.32.44-.48.66-.3.41-.62.8-.95,1.18-.13.16-.27.31-.41.47-.47.51-.96,1-1.48,1.46-3.55,3.11-8.11,4.81-12.89,4.81Z"/></svg>