<?xml version="1.0" encoding="UTF-8"?><svg id="Layer_2" xmlns="http://www.w3.org/2000/svg" width="211.34" height="60.12" viewBox="0 0 211.34 60.12"><defs><style>.cls-1{fill:#db6e3b;}</style></defs><g id="Layer_1-2"><path class="cls-1" d="m156.78,36.58c12.35-6.39,23.13-14.63,33.24-23.97-.21-.24-.4-.43-.55-.65-1.16-1.62-2.44-3.18-3.45-4.89-1.41-2.37-.64-5.04,1.65-6.37,2.36-1.37,5.1-.69,6.52,1.69,1.86,3.12,4.27,5.63,7.74,6.86,1.48.52,3.1.81,4.67.87,4.06.17,5.7,4.41,4.19,7.12-.92,1.66-2.42,2.45-4.26,2.46-2.68.02-5.29-.43-7.79-1.44-.41-.16-.7-.21-1.08.15-5.34,5.1-10.96,9.87-16.89,14.27-6.6,4.9-13.48,9.36-20.77,13.17-6.31,3.3-12.82,6.14-19.58,8.4-7.13,2.38-14.41,4.06-21.87,5.02-8.75,1.12-17.5,1.11-26.25.1-9.42-1.09-18.56-3.39-27.45-6.7-7.78-2.89-15.22-6.53-22.33-10.79-10.79-6.47-20.85-13.93-29.69-22.94-.38-.39-.7-.5-1.25-.32-2.25.75-4.57,1.13-6.95,1.1-2.2-.02-4.19-1.71-4.55-3.77-.41-2.33.8-4.63,2.92-5.43.53-.2,1.13-.31,1.7-.33,5.27-.13,9.11-2.69,11.94-6.97.24-.36.45-.73.69-1.09C18.79,0,21.38-.59,23.64.71c2.24,1.29,3.05,3.95,1.84,6.24-1.11,2.1-2.62,3.91-4.25,5.62-.7.74-.71.73.03,1.42,9.66,8.98,20.18,16.77,31.86,22.92,10.02,5.28,20.51,9.26,31.63,11.56,8.54,1.77,17.15,2.37,25.85,1.95,1.34-.07,2.68-.21,4.02-.28.47-.03.62-.24.61-.67,0-1.09,0-2.18,0-3.27,0-5.32.07-10.64-.01-15.96-.14-9.4,6.85-18.09,16.18-20.08,11.8-2.52,22.77,4.83,24.99,16.25.4,2.04.29,4.18.37,6.28.05,1.24,0,2.47,0,3.89Zm-16.62,7.35c.16-.02.34,0,.49-.06,2.38-.99,4.77-1.97,7.13-3,.23-.1.45-.54.46-.82.03-2.89.02-5.78,0-8.66-.01-1.06,0-2.14-.19-3.18-.86-4.72-3.56-8.01-8.15-9.4-4.7-1.43-9.04-.52-12.64,3-2.73,2.67-3.65,6.04-3.6,9.76.03,3.12.03,6.23.04,9.35,0,2.55,0,5.1,0,7.72.24-.04.44-.06.62-.1,2.23-.56,4.46-1.16,6.7-1.67.66-.15.84-.43.83-1.07-.03-3.88-.03-7.75-.01-11.63,0-1.82,1.11-3.29,2.79-3.86,1.72-.59,3.48-.07,4.64,1.36.75.92.89,2.01.89,3.14,0,3.03,0,6.07,0,9.14Z"/></g></svg>