<?xml version="1.0" encoding="UTF-8"?><svg id="Layer_2" xmlns="http://www.w3.org/2000/svg" width="422.64" height="422.56" viewBox="0 0 422.64 422.56"><defs><style>.cls-1{fill:#ec6342;}</style></defs><g id="Layer_2-2"><path class="cls-1" d="m22.62,151.52c-.63.2-1.26.13-1.87-.22s-.99-.87-1.14-1.56c-.15-.69-.05-1.34.3-1.95.27-.53.9-1.15,1.87-1.86.97-.7,1.58-1.16,1.81-1.39.39-.37.5-.76.33-1.15-.18-.4-.55-.56-1.11-.49-.48.05-1.07.18-1.76.38s-1.23.33-1.59.41c-.37.08-.88.08-1.53,0-.73-.15-1.3-.5-1.71-1.05-.42-.55-.56-1.16-.43-1.82.12-.69.47-1.22,1.05-1.6.58-.37,1.22-.5,1.94-.38.59.08,1.4.46,2.44,1.15s1.67,1.09,1.9,1.2c.47.25.85.23,1.15-.06s.33-.7.09-1.2c-.19-.36-.59-1.02-1.21-1.98-.62-.96-.99-1.73-1.09-2.32-.12-.71,0-1.35.38-1.92.37-.57.9-.91,1.58-1.03s1.29.03,1.83.44c.54.41.88.97,1,1.68.1.59,0,1.46-.28,2.61-.29,1.15-.45,1.89-.48,2.23-.06.56.11.93.49,1.1.38.18.75.07,1.11-.33.26-.26.74-.87,1.44-1.83s1.32-1.58,1.85-1.85c.64-.35,1.29-.45,1.96-.29.67.16,1.17.54,1.52,1.15.34.58.41,1.2.21,1.86-.21.66-.62,1.18-1.26,1.57-.59.29-1.07.45-1.44.5s-.93.1-1.66.15c-.74.05-1.32.13-1.76.24-.56.13-.84.41-.86.83-.02.43.21.76.67.98.33.13,1.06.36,2.2.69,1.14.34,1.94.71,2.41,1.11.54.46.84,1.04.92,1.74.08.7-.11,1.32-.57,1.86-.46.54-1.02.82-1.68.84-.67.02-1.28-.2-1.85-.68-.5-.4-1.02-1.16-1.58-2.28s-.96-1.87-1.21-2.26c-.31-.37-.64-.52-.99-.44-.35.08-.61.34-.78.8-.16.51-.3,1.37-.42,2.56-.13,1.19-.34,2.06-.64,2.6-.38.64-.88,1.07-1.52,1.27l-.03-.02Z"/><path class="cls-1" d="m394.7,289.2c-.63.2-1.26.13-1.87-.22s-.99-.87-1.14-1.56c-.15-.69-.05-1.34.3-1.95.27-.53.9-1.15,1.87-1.86.97-.7,1.58-1.16,1.81-1.39.39-.37.5-.76.33-1.15-.18-.4-.55-.56-1.11-.49-.48.05-1.07.18-1.76.38s-1.23.33-1.59.41c-.37.08-.88.08-1.53,0-.73-.15-1.3-.5-1.71-1.05-.42-.55-.56-1.16-.43-1.82.12-.69.47-1.22,1.05-1.6.58-.37,1.22-.5,1.94-.38.59.08,1.4.46,2.44,1.15s1.67,1.09,1.9,1.2c.47.25.85.23,1.15-.06s.33-.7.09-1.2c-.19-.36-.59-1.02-1.21-1.98-.62-.96-.99-1.73-1.09-2.32-.12-.71,0-1.35.38-1.92.37-.57.9-.91,1.58-1.03s1.29.03,1.83.44c.54.41.88.97,1,1.68.1.59,0,1.46-.28,2.61-.29,1.15-.45,1.89-.48,2.23-.06.56.11.93.49,1.1.38.18.75.07,1.11-.33.26-.26.74-.87,1.44-1.83s1.32-1.58,1.85-1.85c.64-.35,1.29-.45,1.96-.29.67.16,1.17.54,1.52,1.15.34.58.41,1.2.21,1.86-.21.66-.62,1.18-1.26,1.57-.59.29-1.07.45-1.44.5s-.93.1-1.66.15c-.74.05-1.32.13-1.76.24-.56.13-.84.41-.86.83-.02.43.21.76.67.98.33.13,1.06.36,2.2.69,1.14.34,1.94.71,2.41,1.11.54.46.84,1.04.92,1.74.08.7-.11,1.32-.57,1.86-.46.54-1.02.82-1.68.84-.67.02-1.28-.2-1.85-.68-.5-.4-1.02-1.16-1.58-2.28s-.96-1.87-1.21-2.26c-.31-.37-.64-.52-.99-.44-.35.08-.61.34-.78.8-.16.51-.3,1.37-.42,2.56-.13,1.19-.34,2.06-.64,2.6-.38.64-.88,1.07-1.52,1.27l-.03-.02Z"/><path class="cls-1" d="m56.6,110.07c-.5.79-1.09.97-1.76.55l-3.34-2.12-5.17,8.14c-.35.55-.71.85-1.07.92-.37.07-.89-.11-1.55-.54s-1.34-1.23-2.01-2.41c-.67-1.18-1.19-2.23-1.55-3.16-.36-.93-.91-2.39-1.63-4.38-1.25-3.35-2.16-6.05-2.72-8.08-.5-1.85-.76-3.03-.79-3.53-.04-.79.18-1.56.66-2.31.27-.42.55-.69.85-.8.3-.11.66-.03,1.08.24l13.37,8.49c.23-.37.41-.76.53-1.2s.21-.7.28-.81c.31-.49,1.2-.12,2.67,1.1,1.25.99,1.57,1.96.96,2.92l-.37.58,1.85,1.18c.61.39.9.96.88,1.71-.06,1.21-.45,2.39-1.17,3.52Zm-12.29,1.49l3.33-5.52-8.66-5.5c1.26,3.93,2.52,7.39,3.78,10.37.24.61.5.97.79,1.08.29.11.54-.03.76-.43Z"/><path class="cls-1" d="m67.26,94.15c-1.92,2.37-4.5,3.48-7.73,3.35-3.23-.13-6.29-1.38-9.18-3.72-2.79-2.27-4.53-4.88-5.21-7.83-.68-2.95-.09-5.57,1.77-7.86,1.92-2.37,4.46-3.47,7.6-3.31,3.15.16,6.16,1.41,9.05,3.76,2.81,2.29,4.6,4.89,5.35,7.8.75,2.92.2,5.52-1.66,7.81Zm-1.48-2.41c1.21-1.49.1-3.63-3.32-6.41-1.55-1.26-3.27-2.38-5.16-3.38-1.9-1-3.72-1.66-5.46-1.98-1.75-.32-2.96-.06-3.64.77-1.2,1.47-.08,3.6,3.35,6.38,1.53,1.24,3.24,2.37,5.15,3.37,1.9,1.01,3.73,1.67,5.48,1.99,1.75.32,2.95.07,3.62-.75Z"/><path class="cls-1" d="m84.22,77.08c-.67.65-1.28.7-1.83.13l-2.76-2.84-6.91,6.73c-.46.45-.88.67-1.26.65-.37-.02-.84-.32-1.39-.88-.55-.57-1.02-1.5-1.4-2.81-.38-1.3-.64-2.45-.78-3.43-.14-.99-.33-2.53-.58-4.64-.45-3.55-.71-6.38-.78-8.49-.06-1.92-.04-3.12.05-3.61.15-.78.54-1.48,1.17-2.1.36-.35.7-.55,1.01-.58.31-.04.65.12,1,.48l11.05,11.34c.31-.3.57-.65.79-1.05.22-.4.37-.64.45-.72.41-.4,1.19.16,2.35,1.68.98,1.25,1.07,2.27.27,3.06l-.49.48,1.53,1.57c.5.52.66,1.14.46,1.87-.34,1.17-.99,2.22-1.95,3.16Zm-12.3-1.38l4.51-4.6-7.16-7.35c.32,4.11.75,7.77,1.28,10.96.09.65.27,1.06.52,1.23.25.17.53.09.84-.24Z"/><path class="cls-1" d="m103.53,60.09c-.84.6-1.82,1.14-2.93,1.62-1.11.49-1.73.77-1.85.85-.35.25-.6.59-.74,1.01-.14.42-.31.71-.5.85-.59.42-1.34.16-2.27-.77-1.68-1.69-2.89-3.02-3.64-3.99-.72-.93-.82-1.58-.29-1.96.35-.25.83-.26,1.45-.02.11.04.42.16.92.36,3.27,1.53,6.16,1.4,8.66-.38.84-.6,1.32-1.27,1.43-2.02s-.05-1.45-.49-2.11c-.29-.41-.67-.72-1.13-.94-.46-.21-1.1-.32-1.92-.31-.82,0-1.44.03-1.87.07-.43.04-1.22.14-2.38.29-.09,0-.14,0-.17.01-.03,0-.07,0-.12.02-.05,0-.11.02-.16.02-1.5.21-2.59.35-3.27.41-.68.06-1.51.05-2.5-.03-.98-.08-1.81-.33-2.47-.76-.66-.43-1.28-1.05-1.87-1.87-1.23-1.72-1.54-3.68-.93-5.88.61-2.2,1.98-4.07,4.11-5.58.57-.4,1.29-.81,2.18-1.22.89-.41,1.4-.67,1.53-.76.25-.18.48-.45.66-.81.19-.36.38-.6.58-.74.29-.21.61-.28.96-.2.35.08.79.36,1.33.87,1.25,1.17,2.28,2.27,3.09,3.28.76.94.82,1.63.2,2.07-.23.17-.53.22-.88.16-.35-.06-.88-.22-1.6-.47-3.02-1.06-5.33-1.02-6.91.11-.8.57-1.28,1.22-1.44,1.95-.16.73,0,1.44.5,2.12.56.78,1.39,1.22,2.49,1.32,1.1.1,2.83-.02,5.19-.34,2.96-.43,4.94-.62,5.93-.56,1.97.16,3.47.96,4.5,2.41,1.39,1.9,1.7,3.98.94,6.25-.76,2.27-2.2,4.16-4.33,5.68Z"/><path class="cls-1" d="m111.94,46.48l-6.24-10.7c-.41-.7-.83-1.25-1.24-1.63-.42-.38-.79-.62-1.1-.71-.32-.09-.62-.15-.92-.17-.29-.02-.56-.09-.82-.19-.25-.1-.47-.31-.65-.62-.22-.37-.24-.71-.06-1,.17-.3.61-.65,1.32-1.06l5.69-3.32c.66-.39,1.18-.59,1.54-.61.36-.02.66.16.87.53.21.35.26.71.17,1.08-.09.37-.22.71-.4,1-.17.3-.22.78-.14,1.44.08.66.37,1.42.86,2.27l6.24,10.7c.41.71.83,1.25,1.24,1.63.42.38.78.62,1.1.71.32.09.62.15.91.17.29.02.56.09.82.19s.47.31.65.62c.22.37.24.71.06,1-.18.3-.61.65-1.32,1.06l-5.69,3.32c-.68.4-1.2.6-1.56.62s-.64-.17-.86-.54c-.21-.35-.26-.71-.17-1.09.09-.37.22-.71.4-1s.22-.78.14-1.44c-.08-.66-.37-1.42-.86-2.27Z"/><path class="cls-1" d="m114.84,23.07l8.37-3.77c2.17-.97,4.23-1.53,6.18-1.66,1.96-.13,3.67.1,5.15.7,1.48.6,2.76,1.43,3.85,2.49,1.08,1.07,1.95,2.32,2.6,3.76,1.54,3.42,1.72,6.75.55,10-1.17,3.25-3.58,5.7-7.24,7.34l-9.13,4.11c-.72.33-1.26.48-1.61.45-.35-.03-.62-.24-.8-.63-.19-.42-.21-.8-.08-1.15.13-.35.3-.66.51-.92.21-.26.3-.74.28-1.43-.02-.69-.26-1.55-.72-2.58l-4.84-10.77c-.46-1.03-.95-1.78-1.45-2.25-.5-.47-.92-.72-1.26-.74-.34-.02-.68-.09-1.03-.23-.35-.13-.62-.41-.8-.82-.18-.39-.16-.73.06-1.01.22-.28.68-.58,1.41-.91Zm18.08,16.85c2.23-1,3.62-2.44,4.16-4.32.54-1.87.27-4.01-.82-6.42-1.4-3.11-3.33-5.37-5.8-6.79-2.47-1.42-4.85-1.61-7.15-.57-.68.31-1.1.61-1.27.91-.17.3-.12.75.15,1.34l6.82,15.17c.31.7.74,1.13,1.29,1.28.54.15,1.41-.04,2.62-.58Z"/><path class="cls-1" d="m164.51,22.61c.42-.03.72.07.9.29.18.22.35.64.5,1.24.49,1.88.75,3.42.78,4.61.01.62-.15,1.11-.48,1.46-.33.35-1,.67-1.98.97l-14.25,4.26c-.76.23-1.31.3-1.66.23-.35-.07-.58-.31-.71-.73-.13-.44-.11-.82.07-1.15.18-.33.39-.61.63-.85.24-.24.4-.7.47-1.38.07-.68-.06-1.57-.38-2.65l-3.38-11.31c-.32-1.08-.7-1.89-1.14-2.42s-.82-.83-1.15-.9c-.33-.06-.66-.18-.99-.36-.33-.18-.56-.48-.69-.92-.12-.41-.06-.75.19-1,.25-.25.76-.49,1.51-.72l13.42-4.01c1.68-.5,2.82-.38,3.42.37.75.83,1.47,1.89,2.16,3.19.53,1.02.53,1.71.02,2.06-.56.39-1.24.26-2.04-.41-1.1-.9-2.11-1.5-3.05-1.79-.94-.29-1.94-.28-3,.03l-1.48.44c-1.04.31-1.7.64-2,.99-.3.35-.36.82-.19,1.39l1.29,4.31c.2.67.51,1.06.94,1.19.43.12,1.03.07,1.81-.17l.69-.21c.51-.15.87-.41,1.1-.78.23-.37.34-.74.34-1.12,0-.38.06-.73.19-1.07.12-.34.35-.55.67-.65.39-.12.71-.07.96.14.25.21.47.64.67,1.29l1.33,4.45c.34,1.13.14,1.8-.6,2.02-.32.1-.63.03-.92-.19-.29-.23-.54-.49-.74-.79-.2-.3-.5-.55-.9-.75-.4-.2-.85-.22-1.35-.07l-.69.21c-.81.24-1.35.53-1.62.86-.28.33-.31.83-.12,1.5l1.74,5.83c.17.58.49.92.95,1.05.46.12,1.28.01,2.45-.34l2.13-.67c.97-.29,1.62-.8,1.96-1.54s.66-1.96.96-3.65c.2-1.16.62-1.76,1.26-1.81Z"/><path class="cls-1" d="m185.11,1.61l3.52-.56c.66-.11,1.13-.11,1.4,0s.44.36.5.76c.05.31-.06.62-.34.95-.28.32-.55.72-.81,1.19-.27.47-.35,1.02-.25,1.66l2.97,18.59c.08.5.03.93-.14,1.3-.17.37-.42.58-.76.63l-.39.06c-.54.09-1.17-.15-1.87-.72l-17.49-14.05,2.09,12.86c.08.5.25.91.51,1.25.26.33.53.57.81.71.28.14.54.31.77.51.24.21.38.45.43.73.06.4-.02.69-.26.86s-.66.31-1.25.4l-3.48.56c-.66.11-1.13.1-1.41-.01-.27-.11-.44-.36-.5-.74-.05-.31.06-.62.34-.95.28-.32.54-.72.79-1.18s.33-1.02.23-1.66l-2.19-13.72c-.18-1.11-.44-1.96-.79-2.55-.35-.59-.69-.93-1.02-1.04-.33-.1-.64-.27-.94-.49-.29-.22-.47-.56-.54-1.01-.07-.43.04-.75.32-.96.28-.21.8-.38,1.56-.5l3.48-.56c.73-.12,1.46.11,2.19.67l15.25,12.36-1.74-10.88c-.08-.5-.25-.91-.51-1.25-.26-.33-.53-.57-.81-.71-.28-.14-.54-.31-.77-.51-.24-.2-.38-.45-.43-.73-.06-.4.02-.69.26-.86.24-.17.66-.31,1.25-.4Z"/><path class="cls-1" d="m219.25,10.24c1.89.48,3.32,1.33,4.3,2.54.98,1.21,1.46,2.66,1.44,4.34-.03,2.42-1.03,4.41-2.98,5.96-1.95,1.55-4.64,2.3-8.08,2.25l-9.36-.12c-.79-.01-1.34-.1-1.65-.27-.31-.17-.46-.47-.46-.91,0-.46.14-.81.41-1.07.27-.26.55-.47.85-.62.3-.15.59-.54.86-1.18s.42-1.51.43-2.64l.16-11.81c.01-1.13-.11-2.01-.36-2.65s-.53-1.04-.83-1.2c-.3-.16-.58-.37-.84-.64-.26-.27-.39-.63-.38-1.08,0-.43.17-.73.48-.89s.87-.24,1.66-.23l8.1.11c6.26.08,9.41,1.94,9.43,5.56.02,2.18-1.04,3.71-3.19,4.57Zm-5.35,12.49c3.05.04,4.59-1.47,4.63-4.55.02-1.73-.52-3.19-1.63-4.4s-2.64-1.82-4.58-1.84c-.48,0-.81.06-.99.2-.18.14-.28.42-.28.83l-.09,7.2c-.01.94.17,1.59.55,1.97.38.38,1.18.57,2.4.59Zm-2.74-19.05l-.06,4.68c0,.55.53.84,1.61.85.07,0,.12,0,.14,0,2.5.03,3.76-.9,3.78-2.79.01-1.01-.37-1.88-1.13-2.61-.77-.73-1.8-1.1-3.1-1.12-.82-.01-1.23.32-1.24.99Z"/><path class="cls-1" d="m245.13,19.92c.37.14.59.35.66.63.07.28.06.72-.05,1.34-.32,1.92-.71,3.43-1.17,4.53-.22.58-.55.96-1,1.14-.45.18-1.2.21-2.24.07l-13.39-1.74c-.79-.1-1.32-.26-1.61-.46-.29-.21-.4-.52-.35-.95.06-.45.24-.79.53-1.02.29-.23.6-.4.92-.52s.65-.47.99-1.07c.34-.6.59-1.45.73-2.57l1.56-12c.1-.81.11-1.49.01-2.05-.1-.56-.24-.97-.44-1.24-.2-.27-.4-.5-.62-.7-.22-.2-.39-.41-.53-.65s-.19-.53-.14-.89c.06-.43.24-.71.56-.83.32-.13.88-.14,1.69-.03l6.53.85c.76.1,1.29.25,1.59.46.3.21.42.53.37.95-.05.41-.23.73-.53.97-.3.24-.6.42-.92.55-.32.13-.65.48-.99,1.05-.34.57-.57,1.35-.7,2.32l-1.88,14.46c-.07.57.05,1,.38,1.3.33.3,1,.51,2.02.64l1.29.13c1,.13,1.82-.07,2.46-.61.64-.54,1.41-1.52,2.32-2.95.66-.98,1.3-1.36,1.93-1.13Z"/><path class="cls-1" d="m267.15,25.1c.37.19.58.43.62.71.04.28-.02.72-.2,1.32-.54,1.87-1.1,3.33-1.68,4.37-.31.54-.69.88-1.16,1.01s-1.2.07-2.2-.17l-14.43-3.57c-.77-.19-1.28-.4-1.55-.64-.26-.24-.34-.57-.24-.99.11-.44.32-.76.64-.95.32-.19.64-.33.97-.41.33-.08.7-.4,1.11-.95s.75-1.38,1.02-2.47l2.84-11.46c.27-1.1.36-1.98.25-2.66-.1-.68-.28-1.13-.54-1.36-.25-.22-.48-.5-.67-.82-.19-.32-.23-.7-.12-1.14.1-.42.33-.67.67-.76.34-.09.9-.04,1.67.15l13.59,3.37c1.7.42,2.62,1.11,2.75,2.05.22,1.09.3,2.37.24,3.84-.06,1.15-.41,1.74-1.03,1.78-.68.05-1.2-.41-1.55-1.38-.49-1.33-1.06-2.36-1.72-3.1-.66-.73-1.53-1.23-2.6-1.5l-1.5-.37c-1.05-.26-1.79-.31-2.22-.16-.43.15-.72.52-.87,1.1l-1.08,4.37c-.17.68-.1,1.17.2,1.5.3.32.85.58,1.64.78l.7.17c.51.13.96.09,1.34-.11.38-.2.67-.46.86-.79.19-.32.43-.6.71-.83s.58-.3.91-.22c.4.1.65.3.76.61.11.31.08.79-.08,1.45l-1.12,4.51c-.28,1.14-.8,1.62-1.54,1.44-.33-.08-.56-.29-.7-.64-.14-.34-.22-.7-.24-1.06-.02-.36-.15-.73-.4-1.1-.24-.37-.62-.62-1.13-.74l-.7-.17c-.82-.2-1.43-.23-1.83-.08-.41.15-.69.56-.86,1.23l-1.46,5.91c-.14.58-.05,1.04.29,1.39.34.34,1.1.66,2.29.96l2.17.5c.98.24,1.8.13,2.47-.33.67-.46,1.56-1.35,2.68-2.66.77-.9,1.43-1.2,2.01-.91Z"/><path class="cls-1" d="m295.07,17.26l3.15,1.23c1.27.5,1.79,1.07,1.53,1.72-.11.29-.32.51-.62.65-.3.14-.62.23-.97.26-.35.03-.77.17-1.26.4-.49.23-.94.58-1.35,1.04l-13.86,15.08c-.32.36-.64.59-.96.67-.32.08-.83.02-1.55-.18-.94-.24-1.54-.45-1.81-.65-.27-.2-.4-.54-.39-1.02l-.17-21c0-.72-.09-1.34-.26-1.86s-.34-.89-.51-1.11c-.17-.22-.3-.46-.38-.71s-.06-.53.06-.85c.16-.4.4-.63.75-.67.34-.05.86.06,1.55.33l6.14,2.39c1.14.44,1.57,1.02,1.29,1.74-.14.36-.45.6-.93.74-.48.14-.86.3-1.13.49-.28.19-.47.8-.56,1.85l.05,14.47,9.71-10.86c.62-.81.92-1.37.89-1.68s-.15-.66-.34-1.06c-.19-.4-.23-.75-.11-1.06.25-.65.94-.76,2.06-.32Z"/><path class="cls-1" d="m302.61,41.87l6.05-10.81c.4-.71.66-1.34.77-1.9.12-.55.13-.99.05-1.31-.08-.32-.19-.61-.31-.88-.13-.26-.21-.53-.25-.8-.04-.27.03-.56.2-.88.21-.38.49-.57.83-.57.34,0,.87.2,1.58.6l5.75,3.22c.67.38,1.1.72,1.31,1.02.2.3.2.65-.02,1.02-.2.36-.48.59-.85.7-.37.11-.72.17-1.06.17-.34,0-.78.2-1.31.61-.53.41-1.04,1.04-1.52,1.9l-6.05,10.81c-.4.71-.66,1.34-.77,1.9-.12.55-.14.99-.05,1.31.08.32.18.61.31.88.13.26.21.53.25.8.04.27-.03.56-.2.88-.21.38-.49.56-.83.56-.34,0-.87-.2-1.58-.6l-5.75-3.22c-.69-.39-1.13-.73-1.32-1.03-.19-.3-.18-.64.03-1.01.2-.36.48-.59.85-.7.37-.11.72-.17,1.06-.17s.78-.2,1.31-.61c.53-.4,1.04-1.04,1.51-1.9Z"/><path class="cls-1" d="m336.09,46.48l-3.11.41-2.6,14.03c-.14.78-.17,1.49-.1,2.11.07.62.18,1.08.33,1.38.14.29.22.61.24.94.01.33-.1.67-.33,1-.25.35-.55.51-.89.47-.34-.04-.83-.28-1.45-.72l-5.15-3.63c-.65-.46-1.05-.84-1.21-1.16-.16-.32-.11-.65.14-1.01.21-.29.57-.51,1.08-.65.51-.14.92-.29,1.23-.46.31-.16.6-.67.87-1.5l1.92-10.02-6.44.87-2.06,2.91c-.47.67-.79,1.27-.97,1.81s-.24.97-.19,1.3c.05.33.12.63.22.9.1.28.16.55.17.82.01.27-.08.56-.29.85-.25.35-.54.51-.89.48-.34-.04-.85-.29-1.51-.76l-5.38-3.8c-.65-.46-1.05-.84-1.21-1.16-.16-.32-.11-.65.14-1.01.23-.33.54-.54.91-.61.38-.07.73-.09,1.08-.06.34.04.8-.12,1.37-.47.57-.35,1.14-.92,1.7-1.73l7.15-10.12c.47-.67.79-1.27.97-1.81.17-.54.24-.97.19-1.3-.05-.33-.12-.63-.22-.91s-.15-.55-.17-.82c-.01-.27.09-.56.29-.85.25-.35.55-.51.89-.47.34.04.85.29,1.51.76l5.38,3.8c.63.44,1.02.83,1.19,1.15.17.33.13.66-.12,1.02-.24.33-.54.54-.92.61-.38.07-.73.09-1.08.06-.34-.04-.8.12-1.37.47-.57.35-1.14.92-1.7,1.73l-2.97,4.2,10.16-1.33c.65-.1,1.09-.27,1.32-.52.22-.25.29-.52.21-.8-.08-.28-.16-.6-.22-.97-.06-.37-.01-.67.15-.9.25-.35.52-.53.83-.52.3,0,.69.18,1.16.51l4.12,2.91c1.18.83,1.54,1.56,1.1,2.19-.22.31-.48.5-.77.56s-.6.04-.91-.05c-.32-.09-.83-.16-1.52-.22-.7-.05-1.45-.03-2.26.08Z"/><path class="cls-1" d="m358.29,65.95l-3.13-.04-4.56,13.52c-.25.75-.39,1.45-.4,2.07-.02.63.03,1.1.13,1.41s.14.63.1.96-.19.65-.47.94c-.29.31-.61.43-.94.34-.33-.08-.78-.39-1.34-.92l-4.58-4.33c-.58-.54-.92-.98-1.03-1.32s-.02-.66.28-.98c.25-.26.63-.42,1.16-.49.52-.07.95-.16,1.28-.28.33-.12.68-.58,1.07-1.37l3.32-9.64-6.5-.05-2.45,2.59c-.56.59-.97,1.14-1.21,1.65-.25.51-.38.93-.37,1.26,0,.33.03.64.09.93.06.29.08.57.05.84-.03.27-.16.54-.41.8-.3.31-.61.43-.94.34-.33-.08-.8-.41-1.39-.97l-4.79-4.53c-.58-.54-.92-.98-1.03-1.32-.11-.34-.02-.66.28-.98.28-.3.61-.45.99-.47.38-.02.74.01,1.07.1.33.08.81,0,1.42-.27.61-.26,1.26-.75,1.93-1.47l8.51-9c.56-.59.97-1.14,1.22-1.65.25-.51.37-.93.37-1.26,0-.33-.03-.64-.09-.93s-.07-.57-.05-.84.16-.54.41-.8c.3-.31.61-.43.95-.34.33.08.8.41,1.39.97l4.79,4.53c.56.53.9.96,1.02,1.31.12.34.03.67-.27.99-.28.3-.61.46-.99.47s-.74-.01-1.07-.1c-.33-.08-.81,0-1.42.27-.61.26-1.26.75-1.93,1.47l-3.54,3.74,10.24.12c.66,0,1.12-.11,1.38-.33.26-.22.37-.47.32-.76-.04-.29-.07-.62-.08-.99-.01-.37.08-.66.28-.87.3-.31.59-.44.89-.39.3.05.66.27,1.08.67l3.66,3.46c1.05.99,1.31,1.76.78,2.32-.26.28-.54.43-.84.44-.3.02-.59-.04-.9-.18-.3-.14-.79-.28-1.48-.43-.68-.15-1.43-.23-2.25-.24Z"/><path class="cls-1" d="m367.74,95.94c.18.38.21.69.07.94-.14.25-.46.56-.95.94-1.55,1.17-2.88,2-3.96,2.49-.57.25-1.08.29-1.53.11-.45-.17-1-.66-1.66-1.46l-9.39-11.53c-.5-.61-.78-1.09-.85-1.44-.07-.35.07-.66.4-.93.35-.29.72-.41,1.09-.38.37.04.71.12,1.02.26.31.13.79.1,1.46-.09.66-.2,1.43-.65,2.3-1.36l9.16-7.46c.87-.71,1.47-1.37,1.8-1.98.33-.61.46-1.08.39-1.41s-.08-.68-.05-1.05c.04-.37.23-.7.59-.99.34-.27.67-.34.99-.21.33.14.74.51,1.24,1.12l8.84,10.86c1.11,1.36,1.43,2.46.97,3.3-.48,1.01-1.19,2.08-2.12,3.21-.74.88-1.37,1.15-1.9.8-.58-.37-.71-1.04-.41-2.04.41-1.36.57-2.53.49-3.51-.09-.98-.48-1.9-1.18-2.76l-.98-1.2c-.68-.84-1.24-1.33-1.68-1.46-.44-.14-.89-.02-1.35.36l-3.49,2.84c-.54.44-.79.88-.74,1.32.05.44.33.98.85,1.61l.45.56c.33.41.71.65,1.14.72.43.07.82.03,1.16-.11.35-.14.7-.22,1.06-.24.36-.01.64.11.86.37.26.32.34.63.24.95-.1.31-.41.68-.93,1.11l-3.6,2.93c-.91.74-1.61.82-2.1.22-.21-.26-.27-.57-.17-.93.1-.36.25-.69.45-.99.2-.3.31-.68.34-1.12.03-.44-.12-.87-.46-1.28l-.46-.56c-.53-.65-1-1.04-1.42-1.17-.41-.13-.89.03-1.43.47l-4.72,3.84c-.46.38-.67.81-.6,1.28.06.47.48,1.19,1.25,2.14l1.44,1.71c.64.78,1.36,1.19,2.18,1.22.82.03,2.06-.14,3.74-.51,1.15-.26,1.87-.1,2.15.48Z"/><path class="cls-1" d="m394.57,116.13c-.86.76-1.53.93-2,.51-.51-.45-.54-1.14-.09-2.08.61-1.28.95-2.41,1.01-3.39.06-.98-.18-1.95-.74-2.9l-.82-1.4c-.55-.93-1.02-1.5-1.42-1.71-.4-.21-.83-.18-1.29.09l-4.59,2.7c-.6.35-.91.75-.93,1.19-.02.44.18,1.01.59,1.72l.66,1.12c.27.45.6.74,1.01.87.41.12.79.14,1.16.05.37-.09.73-.11,1.08-.07.36.04.62.21.79.5.22.37.25.7.1.99-.15.28-.52.6-1.1.94l-4.01,2.35c-1.01.59-1.72.56-2.1-.1-.17-.29-.18-.6-.03-.94.15-.34.35-.64.59-.91.25-.27.42-.61.52-1.04.1-.42.02-.86-.25-1.31l-.66-1.12c-.43-.72-.83-1.18-1.21-1.38-.38-.19-.88-.11-1.5.25l-2.79,1.64c-.7.41-1.25.83-1.63,1.25-.38.42-.62.79-.71,1.1s-.15.62-.17.92c-.02.29-.09.57-.19.82-.1.25-.31.47-.62.66-.37.22-.71.24-1,.07-.3-.17-.65-.61-1.07-1.32l-3.33-5.68c-.4-.68-.61-1.2-.62-1.55-.01-.35.17-.64.54-.86.35-.21.71-.27,1.08-.18.37.09.71.22,1,.39.3.17.78.22,1.44.14s1.42-.37,2.27-.87l10.43-6.12c.97-.57,1.67-1.13,2.08-1.68.42-.55.61-.99.6-1.33-.02-.34.02-.69.12-1.05s.34-.66.73-.89c.37-.22.71-.24,1.01-.05.3.18.65.62,1.06,1.3l7.12,12.14c.89,1.51,1.04,2.65.46,3.41-.69,1.05-1.55,2-2.58,2.85Z"/><path class="cls-1" d="m382.13,138.48c-1.38-3.22-1.52-6-.41-8.32,1.1-2.33,3.52-4.29,7.25-5.89l6.65-2.85c.93-.4,1.62-.83,2.07-1.3.45-.47.71-.87.76-1.21.05-.34.16-.67.31-1.01.15-.34.42-.59.79-.75.4-.17.73-.15,1.01.06.27.21.56.68.88,1.41l2.61,6.09c.29.68.42,1.21.38,1.58-.04.37-.24.63-.62.79-.38.16-.74.18-1.09.06s-.67-.29-.96-.51-.76-.32-1.41-.32c-.65,0-1.44.21-2.37.6l-7.71,3.3c-2.21.95-3.7,2.13-4.47,3.56-.77,1.43-.79,3-.05,4.72.73,1.7,1.92,2.75,3.59,3.16,1.67.41,3.64.12,5.94-.86l9-3.85c.46-.2.83-.47,1.09-.8.26-.33.43-.65.49-.96.07-.3.17-.59.31-.88.14-.28.34-.48.61-.59.38-.16.67-.15.9.04.22.19.46.56.69,1.11l1.4,3.28c.27.62.38,1.07.35,1.36s-.24.51-.61.67c-.29.12-.62.09-1-.1-.38-.19-.83-.36-1.35-.5-.52-.14-1.08-.09-1.67.17l-8.09,3.42c-3.98,1.68-7.17,2.12-9.57,1.34-2.4-.79-4.29-2.8-5.68-6.04Z"/><path class="cls-1" d="m417.24,163.7l.92,3.44c.17.65.22,1.11.15,1.39-.07.28-.31.47-.7.58-.3.08-.63,0-.98-.24-.35-.24-.77-.47-1.26-.69-.49-.22-1.05-.24-1.68-.07l-18.18,4.88c-.49.13-.92.13-1.31,0s-.62-.36-.71-.69l-.1-.38c-.14-.53.03-1.18.53-1.93l12.16-18.85-12.58,3.42c-.49.13-.88.34-1.19.64-.31.29-.51.59-.62.88-.11.29-.25.57-.43.83-.18.26-.41.43-.69.5-.39.11-.69.05-.89-.17-.2-.22-.37-.62-.53-1.2l-.92-3.41c-.17-.65-.22-1.12-.13-1.4.09-.28.31-.48.68-.58.3-.08.63,0,.98.24.35.24.77.46,1.26.67.49.2,1.05.22,1.67.05l13.42-3.6c1.09-.29,1.91-.64,2.46-1.05s.86-.78.93-1.12c.07-.34.2-.67.39-.98.19-.31.51-.53.95-.64.42-.11.75-.04.99.22.24.26.46.76.66,1.5l.92,3.41c.19.72.05,1.47-.44,2.24l-10.72,16.45,10.64-2.86c.49-.13.88-.34,1.19-.64.3-.29.51-.59.62-.88.11-.29.25-.56.43-.82.18-.26.41-.43.69-.5.39-.11.69-.05.89.17.2.22.37.62.53,1.2Z"/><path class="cls-1" d="m419.82,175.6l1.07,9.12c.28,2.36.18,4.49-.28,6.39-.46,1.9-1.21,3.47-2.22,4.7-1.01,1.23-2.19,2.2-3.54,2.92-1.34.71-2.8,1.16-4.37,1.35-3.72.44-6.95-.39-9.7-2.48-2.75-2.09-4.35-5.13-4.82-9.11l-1.17-9.94c-.09-.79-.07-1.34.06-1.67.13-.33.41-.52.84-.57.45-.05.83.04,1.12.27.29.23.53.49.72.77.19.28.62.51,1.28.7.66.19,1.55.21,2.67.08l11.73-1.38c1.12-.13,1.98-.37,2.58-.7.6-.34.96-.66,1.08-.98.12-.32.29-.62.53-.91.23-.29.57-.47,1.03-.52.43-.05.75.07.95.36.2.29.35.83.44,1.61Zm-21.51,12.18c.29,2.43,1.24,4.19,2.87,5.26,1.62,1.08,3.75,1.46,6.37,1.15,3.38-.4,6.12-1.56,8.22-3.49,2.09-1.93,2.99-4.14,2.7-6.64-.09-.74-.25-1.23-.48-1.48-.24-.25-.67-.34-1.32-.26l-16.52,1.95c-.76.09-1.3.37-1.6.84-.31.47-.38,1.36-.23,2.67Z"/><path class="cls-1" d="m405.34,223.1c-.1.41-.29.66-.55.77-.27.11-.71.14-1.33.11-1.94-.1-3.49-.31-4.64-.64-.6-.18-1.01-.48-1.25-.9-.24-.42-.34-1.15-.33-2.18l.2-14.87c.01-.79.1-1.34.27-1.65.17-.31.48-.46.91-.46.46,0,.81.14,1.07.41.26.27.47.55.62.85s.54.59,1.18.86c.63.27,1.51.42,2.64.43l11.81.16c1.13.02,2.01-.11,2.65-.36.64-.25,1.04-.53,1.2-.83.16-.3.37-.58.64-.84.27-.26.63-.39,1.09-.38.43,0,.73.17.89.48.16.31.24.87.23,1.66l-.19,14c-.02,1.75-.48,2.8-1.38,3.15-1.02.47-2.24.83-3.69,1.1-1.13.2-1.79,0-1.97-.6-.21-.65.12-1.26,1-1.82,1.19-.78,2.06-1.57,2.62-2.38.56-.81.85-1.76.87-2.87l.02-1.55c.02-1.08-.1-1.81-.35-2.2-.25-.39-.67-.59-1.27-.59l-4.5-.06c-.7,0-1.17.17-1.41.54-.24.37-.37.96-.38,1.78v.72c-.02.53.12.96.4,1.28.28.33.6.55.96.66.36.11.68.28.97.5.28.22.42.5.42.83,0,.41-.15.7-.42.88-.28.18-.75.26-1.43.25l-4.64-.06c-1.18-.02-1.76-.41-1.75-1.18,0-.34.16-.61.46-.82.3-.21.63-.37.98-.47.35-.1.68-.31.98-.63.3-.32.46-.74.47-1.27v-.72c.02-.84-.09-1.44-.33-1.8-.24-.36-.7-.55-1.4-.56l-6.08-.08c-.6,0-1.03.19-1.29.59-.26.4-.39,1.22-.41,2.44v2.23c0,1.01.29,1.79.89,2.33.6.55,1.67,1.22,3.2,2.01,1.05.54,1.5,1.12,1.34,1.75Z"/><path class="cls-1" d="m416.04,241.78l-14.38-1.91c-.81-.11-1.49-.11-2.05-.02-.56.1-.97.24-1.24.43-.27.19-.5.4-.7.62-.2.22-.41.39-.65.53-.24.14-.53.18-.89.14-.43-.06-.71-.25-.83-.56-.13-.32-.14-.88-.03-1.69l.87-6.53c.1-.79.26-1.32.47-1.61.21-.29.52-.4.95-.35.41.05.73.23.96.53.24.3.42.61.55.92.13.32.48.65,1.05.99.57.34,1.35.58,2.32.71l14.38,1.91c.98.13,1.53-.29,1.66-1.27.13-.98-.05-1.77-.54-2.38s-1.42-1.39-2.79-2.35c-.8-.52-1.17-1.03-1.1-1.53.09-.69.72-.93,1.88-.73,1.92.33,3.43.72,4.53,1.18.57.25.95.59,1.13,1.04.18.45.21,1.18.07,2.21l-1.94,14.63c-.14,1.05-.36,1.76-.65,2.15-.29.38-.75.61-1.36.67-1.18.16-2.74.14-4.68-.04-1.17-.11-1.71-.51-1.62-1.2.06-.45.55-.85,1.46-1.19,1.57-.54,2.68-1.04,3.32-1.5.64-.46,1.03-1.19,1.16-2.19.13-.95-.31-1.49-1.31-1.63Z"/><path class="cls-1" d="m368.65,308.44c.48-.8,1.06-1,1.74-.6l3.4,2.03,4.95-8.28c.33-.56.68-.87,1.05-.95.37-.08.89.09,1.57.5.68.41,1.37,1.19,2.07,2.35.71,1.16,1.25,2.2,1.64,3.12.39.92.97,2.36,1.75,4.34,1.34,3.32,2.32,5.99,2.93,8,.55,1.84.84,3.01.88,3.5.06.79-.14,1.57-.6,2.33-.26.43-.54.71-.83.83-.29.12-.66.05-1.09-.21l-13.59-8.13c-.22.37-.39.77-.5,1.21s-.19.71-.25.81c-.3.49-1.2.15-2.7-1.03-1.27-.96-1.62-1.92-1.04-2.89l.35-.59-1.88-1.13c-.62-.37-.93-.93-.92-1.68.03-1.21.39-2.4,1.08-3.55Zm12.25-1.82l-3.18,5.6,8.8,5.27c-1.36-3.89-2.71-7.31-4.05-10.27-.26-.6-.53-.95-.82-1.05-.29-.1-.54.05-.75.45Z"/><path class="cls-1" d="m358.42,324.65c1.86-2.42,4.4-3.6,7.64-3.55,3.23.05,6.32,1.21,9.27,3.47,2.85,2.19,4.66,4.76,5.42,7.69.76,2.93.24,5.57-1.56,7.91-1.86,2.42-4.36,3.59-7.51,3.51-3.15-.08-6.2-1.25-9.15-3.52-2.87-2.21-4.72-4.76-5.56-7.66-.83-2.9-.35-5.51,1.45-7.85Zm1.54,2.37c-1.17,1.52,0,3.63,3.5,6.32,1.58,1.21,3.33,2.29,5.25,3.24,1.92.95,3.76,1.56,5.52,1.83,1.76.28,2.96-.01,3.62-.87,1.16-1.5-.02-3.6-3.52-6.29-1.56-1.2-3.3-2.28-5.24-3.23-1.93-.96-3.77-1.57-5.53-1.85s-2.96,0-3.6.84Z"/><path class="cls-1" d="m341.93,342.16c.65-.67,1.26-.73,1.83-.18l2.84,2.76,6.73-6.92c.45-.46.86-.69,1.24-.68.37.01.84.29,1.41.85.57.55,1.06,1.47,1.48,2.77.42,1.29.71,2.43.87,3.41.17.98.4,2.52.7,4.62.54,3.54.88,6.36,1.01,8.46.11,1.92.13,3.12.05,3.61-.13.78-.5,1.49-1.12,2.13-.35.36-.68.56-1,.61-.31.05-.65-.11-1.01-.46l-11.35-11.04c-.3.31-.55.67-.76,1.07s-.35.65-.44.73c-.4.41-1.2-.13-2.39-1.62-1.02-1.23-1.13-2.24-.35-3.05l.48-.49-1.57-1.53c-.52-.5-.69-1.12-.51-1.85.31-1.17.93-2.24,1.87-3.21Zm12.34,1.05l-4.39,4.72,7.35,7.15c-.43-4.1-.96-7.74-1.58-10.93-.11-.64-.29-1.05-.55-1.21-.26-.17-.54-.08-.84.27Z"/><path class="cls-1" d="m323.07,359.66c.82-.62,1.79-1.19,2.89-1.7,1.1-.51,1.71-.81,1.82-.9.35-.26.58-.6.71-1.03.13-.43.29-.71.48-.86.57-.43,1.34-.2,2.29.71,1.72,1.65,2.97,2.94,3.75,3.89.75.91.86,1.56.34,1.95-.34.26-.83.28-1.45.05-.12-.03-.43-.15-.93-.34-3.31-1.44-6.19-1.24-8.64.62-.82.62-1.28,1.31-1.38,2.06-.1.75.08,1.45.54,2.09.3.4.69.7,1.16.91.47.2,1.11.29,1.93.26s1.44-.07,1.87-.12c.43-.05,1.22-.17,2.38-.35.09,0,.14-.01.17-.01.03,0,.07-.01.12-.02s.11-.02.16-.03c1.49-.25,2.58-.42,3.26-.5.68-.08,1.51-.09,2.5-.04.99.05,1.82.28,2.49.7.67.41,1.31,1.02,1.92,1.82,1.27,1.69,1.63,3.64,1.08,5.86-.55,2.22-1.87,4.12-3.96,5.69-.56.42-1.27.85-2.15,1.28s-1.38.7-1.51.8c-.25.19-.46.46-.64.82-.18.36-.36.61-.56.76-.29.22-.61.29-.96.23-.35-.07-.8-.34-1.35-.83-1.28-1.14-2.34-2.2-3.18-3.19-.78-.92-.86-1.6-.25-2.07.23-.17.52-.24.88-.19.35.05.89.19,1.61.43,3.05.98,5.35.88,6.9-.29.79-.59,1.25-1.26,1.38-1.99.14-.74-.05-1.44-.55-2.11-.58-.77-1.42-1.18-2.52-1.25-1.1-.07-2.83.09-5.18.48-2.95.51-4.92.75-5.91.72-1.97-.11-3.49-.87-4.56-2.28-1.44-1.86-1.8-3.94-1.11-6.22.7-2.28,2.09-4.21,4.18-5.79Z"/><path class="cls-1" d="m315.03,373.49l6.52,10.53c.43.69.86,1.23,1.29,1.6s.8.6,1.12.68c.32.08.63.13.92.15.29.02.57.07.82.17s.48.3.67.6c.23.37.26.7.09,1s-.6.67-1.29,1.1l-5.6,3.47c-.65.4-1.16.62-1.53.65-.36.03-.66-.14-.89-.51-.22-.35-.28-.71-.2-1.08.08-.37.2-.71.37-1.01.17-.3.2-.78.1-1.44-.1-.66-.41-1.41-.92-2.24l-6.52-10.53c-.43-.69-.86-1.23-1.29-1.6-.43-.37-.8-.6-1.12-.68s-.63-.13-.92-.15c-.29-.02-.57-.07-.82-.17-.26-.09-.48-.3-.67-.6-.23-.37-.26-.7-.09-1,.17-.3.6-.67,1.29-1.1l5.6-3.47c.67-.42,1.19-.64,1.54-.66.35-.02.64.15.87.52.21.35.28.71.2,1.08-.08.37-.2.71-.37,1.01-.17.3-.2.78-.1,1.44s.41,1.41.92,2.24Z"/><path class="cls-1" d="m312.76,396.98l-8.27,3.99c-2.14,1.03-4.19,1.64-6.14,1.82-1.95.18-3.67,0-5.17-.57-1.49-.56-2.8-1.35-3.91-2.39-1.11-1.04-2.01-2.27-2.7-3.69-1.63-3.37-1.9-6.7-.82-9.98,1.08-3.28,3.43-5.79,7.04-7.53l9.01-4.35c.71-.34,1.25-.51,1.6-.49.35.02.62.22.81.61.2.41.24.79.11,1.14-.12.35-.29.66-.49.94-.2.27-.28.75-.25,1.44.04.69.3,1.54.79,2.55l5.13,10.64c.49,1.02.99,1.75,1.51,2.21.51.46.94.69,1.28.7.34,0,.68.08,1.04.2.35.12.63.39.83.8.19.39.18.73-.03,1.01-.21.29-.67.6-1.38.95Zm-18.53-16.37c-2.2,1.06-3.55,2.54-4.04,4.43-.49,1.89-.16,4.02.99,6.4,1.48,3.07,3.47,5.28,5.98,6.63,2.5,1.35,4.89,1.48,7.16.38.67-.32,1.09-.64,1.25-.94.16-.3.1-.75-.18-1.33l-7.22-14.98c-.33-.69-.77-1.11-1.32-1.24-.55-.14-1.41.08-2.6.66Z"/><path class="cls-1" d="m263.12,398.76c-.42.04-.72-.05-.9-.27-.19-.22-.36-.63-.54-1.23-.54-1.87-.84-3.4-.9-4.59-.03-.62.12-1.11.45-1.47.32-.36.98-.7,1.96-1.02l14.12-4.64c.75-.25,1.3-.34,1.65-.28.35.06.59.3.73.71.14.43.13.82-.04,1.15s-.37.62-.61.86c-.24.24-.38.71-.43,1.39s.1,1.57.45,2.64l3.68,11.22c.35,1.07.75,1.87,1.2,2.39.45.52.84.81,1.17.87s.67.17,1,.33c.33.17.57.47.71.9.13.41.08.74-.16,1-.24.26-.74.51-1.49.76l-13.3,4.37c-1.66.55-2.81.45-3.43-.28-.77-.81-1.52-1.85-2.24-3.13-.56-1-.58-1.69-.07-2.06.55-.41,1.23-.29,2.05.35,1.12.87,2.15,1.44,3.1,1.71.95.27,1.95.23,3-.11l1.47-.48c1.03-.34,1.68-.69,1.97-1.04.29-.36.34-.82.15-1.39l-1.4-4.28c-.22-.66-.54-1.05-.97-1.16-.43-.11-1.03-.04-1.8.21l-.68.22c-.5.16-.86.43-1.08.81-.22.37-.32.75-.31,1.12,0,.38-.04.73-.16,1.08-.12.34-.33.56-.65.67-.39.13-.71.09-.97-.12s-.49-.63-.7-1.27l-1.45-4.41c-.37-1.12-.19-1.79.54-2.04.32-.1.63-.05.93.17s.55.47.76.77c.21.3.52.54.92.72.4.18.85.19,1.36.03l.68-.22c.8-.26,1.33-.56,1.6-.9.27-.34.29-.84.07-1.5l-1.9-5.78c-.19-.57-.51-.91-.98-1.02-.47-.11-1.28.02-2.45.4l-2.11.73c-.96.31-1.6.85-1.92,1.6-.32.75-.61,1.97-.86,3.67-.17,1.17-.58,1.78-1.21,1.84Z"/><path class="cls-1" d="m243.09,420.31l-3.5.66c-.66.12-1.13.14-1.4.04s-.45-.34-.52-.74c-.06-.31.05-.63.32-.96s.53-.73.78-1.21c.25-.47.32-1.03.2-1.67l-3.47-18.51c-.09-.5-.06-.93.1-1.3.16-.37.41-.59.74-.65l.39-.07c.54-.1,1.17.12,1.88.67l17.85,13.57-2.44-12.8c-.09-.5-.27-.91-.54-1.24-.27-.33-.54-.56-.82-.69-.28-.13-.54-.3-.79-.49-.24-.2-.39-.44-.45-.72-.07-.4,0-.69.24-.87.24-.18.65-.32,1.24-.43l3.47-.65c.66-.12,1.13-.13,1.41-.03.28.11.45.35.52.73.06.31-.05.62-.32.96-.27.33-.52.73-.76,1.21-.24.47-.3,1.03-.18,1.67l2.56,13.66c.21,1.11.49,1.95.86,2.53.36.58.71.92,1.05,1.01.33.1.65.25.95.46.3.21.49.54.57.99.08.42-.02.75-.29.97-.28.22-.79.41-1.54.55l-3.47.65c-.73.14-1.46-.07-2.2-.61l-15.57-11.95,2.03,10.83c.09.5.27.91.54,1.24.27.33.54.56.83.69.28.13.54.29.79.49.25.2.39.44.45.72.08.4,0,.69-.24.87-.23.18-.65.32-1.24.43Z"/><path class="cls-1" d="m208.73,412.6c-1.9-.43-3.36-1.24-4.37-2.43s-1.53-2.62-1.55-4.3c-.03-2.42.91-4.44,2.82-6.03,1.91-1.6,4.58-2.42,8.01-2.47l9.36-.13c.79-.01,1.35.07,1.66.23.31.16.47.46.48.89,0,.46-.12.82-.38,1.09-.26.27-.54.48-.84.64-.3.16-.58.56-.83,1.2-.25.64-.38,1.52-.36,2.65l.16,11.81c.01,1.13.16,2.01.43,2.64.27.63.56,1.02.86,1.18.3.15.59.36.85.62.27.26.41.62.41,1.07,0,.43-.15.73-.46.91-.31.17-.86.26-1.65.27l-8.1.11c-6.26.08-9.46-1.68-9.58-5.31-.08-2.18.95-3.73,3.07-4.65Zm5.01-12.63c-3.05.04-4.55,1.6-4.51,4.67.02,1.73.61,3.18,1.75,4.35s2.69,1.75,4.63,1.72c.48,0,.81-.08.99-.23.18-.15.26-.42.26-.83l-.1-7.2c-.01-.94-.21-1.59-.6-1.95-.39-.37-1.2-.54-2.42-.53Zm3.24,18.97l-.06-4.68c0-.55-.55-.82-1.63-.81-.07,0-.12,0-.14,0-2.5.03-3.73,1-3.71,2.89.01,1.01.42,1.87,1.21,2.58.79.71,1.83,1.06,3.13,1.04.82-.01,1.22-.35,1.21-1.02Z"/><path class="cls-1" d="m182.6,403.6c-.37-.14-.6-.34-.68-.61-.08-.27-.08-.72,0-1.34.27-1.93.62-3.45,1.05-4.56.2-.58.53-.97.97-1.17.44-.2,1.19-.24,2.24-.13l13.43,1.38c.79.08,1.33.22,1.62.42.29.2.42.51.38.94-.05.45-.21.8-.5,1.03-.29.24-.59.42-.91.54s-.63.49-.96,1.1c-.33.6-.55,1.47-.66,2.59l-1.24,12.03c-.08.81-.07,1.5.04,2.05.11.55.27.96.47,1.23.2.26.41.49.63.68.22.19.41.4.55.64.14.23.2.53.16.88-.04.43-.22.71-.54.85-.32.14-.88.16-1.69.08l-6.55-.67c-.76-.08-1.3-.22-1.6-.42-.31-.2-.44-.52-.39-.95.04-.41.21-.73.5-.98.29-.25.6-.44.91-.58.32-.14.64-.5.96-1.08.33-.58.54-1.36.64-2.34l1.49-14.5c.06-.57-.08-1-.41-1.29-.33-.29-1.01-.48-2.04-.59l-1.29-.1c-1-.1-1.81.12-2.44.67-.62.55-1.37,1.55-2.25,3.01-.63,1-1.26,1.39-1.89,1.18Z"/><path class="cls-1" d="m160.45,399.02c-.38-.18-.59-.41-.64-.69-.05-.28,0-.72.16-1.33.49-1.88,1.01-3.35,1.56-4.41.29-.55.67-.9,1.13-1.04.46-.14,1.2-.11,2.2.12l14.52,3.19c.77.17,1.29.37,1.56.6.27.23.36.56.26.98-.1.45-.3.77-.62.97-.31.2-.63.34-.96.43-.33.09-.69.41-1.08.98-.39.57-.71,1.4-.95,2.5l-2.53,11.53c-.24,1.1-.3,1.99-.18,2.67.12.68.31,1.12.57,1.34.26.22.49.48.69.8.2.31.25.69.16,1.14-.09.42-.31.68-.65.78-.34.1-.9.06-1.67-.11l-13.68-3c-1.71-.38-2.65-1.04-2.81-1.98-.25-1.09-.37-2.37-.34-3.83.03-1.15.36-1.75.99-1.81.68-.07,1.21.38,1.59,1.34.52,1.32,1.12,2.33,1.8,3.05.68.71,1.56,1.19,2.63,1.43l1.51.33c1.05.23,1.8.26,2.23.1.43-.16.71-.54.84-1.12l.97-4.39c.15-.68.07-1.18-.25-1.49-.31-.31-.87-.56-1.66-.73l-.7-.16c-.51-.11-.96-.06-1.34.15-.38.21-.66.48-.84.81-.18.33-.41.61-.68.85-.27.23-.57.32-.9.24-.4-.09-.66-.29-.77-.59-.12-.31-.1-.79.04-1.45l1-4.54c.25-1.15.75-1.64,1.5-1.48.33.07.57.28.71.62.15.34.24.69.27,1.05.03.36.17.73.42,1.09.25.36.64.6,1.15.71l.7.15c.82.18,1.43.19,1.84.03s.68-.58.83-1.26l1.3-5.94c.13-.59.02-1.05-.32-1.38-.35-.33-1.11-.63-2.31-.89l-2.19-.44c-.98-.22-1.81-.08-2.46.4-.66.48-1.53,1.39-2.61,2.73-.74.92-1.4,1.24-1.98.97Z"/><path class="cls-1" d="m132.75,407.61l-3.19-1.14c-1.29-.46-1.81-1.02-1.58-1.67.11-.29.31-.52.6-.66.3-.15.62-.24.96-.29.35-.04.76-.19,1.25-.43.49-.25.93-.6,1.32-1.08l13.45-15.45c.31-.37.62-.61.94-.7.31-.09.83-.05,1.56.14.94.21,1.55.41,1.83.6s.42.53.42,1.01l.74,20.99c.02.72.13,1.34.31,1.85.19.51.37.88.54,1.09.18.22.31.45.4.7.09.25.08.53-.04.85-.15.41-.39.64-.73.69-.34.06-.86-.04-1.56-.29l-6.2-2.22c-1.15-.41-1.6-.98-1.34-1.7.13-.36.43-.62.9-.77.47-.15.85-.32,1.12-.52.27-.2.45-.82.51-1.86l-.44-14.46-9.42,11.12c-.6.83-.88,1.4-.84,1.71.04.31.17.66.37,1.05.21.39.25.75.14,1.06-.24.65-.92.78-2.05.38Z"/><path class="cls-1" d="m124.55,383.21l-5.76,10.96c-.38.72-.62,1.36-.72,1.92-.1.56-.11.99-.02,1.31.09.32.2.61.34.87.13.26.23.53.27.8.05.27-.01.56-.18.88-.2.38-.47.58-.82.59-.34,0-.88-.18-1.6-.55l-5.83-3.06c-.68-.36-1.12-.69-1.33-.99-.21-.3-.21-.64-.01-1.02.19-.36.47-.6.83-.72.36-.12.72-.19,1.06-.2.34,0,.77-.22,1.29-.64s1.01-1.06,1.46-1.94l5.76-10.96c.38-.72.62-1.36.72-1.92.1-.56.11-.99.02-1.31-.09-.32-.2-.61-.34-.87-.13-.26-.23-.52-.27-.79-.05-.27.01-.56.18-.88.2-.38.47-.58.82-.59.34,0,.88.18,1.6.55l5.83,3.06c.7.37,1.15.7,1.35.99.2.29.2.63,0,1.01-.19.36-.47.6-.83.72-.36.12-.71.19-1.06.2-.34,0-.77.22-1.29.64-.52.42-1.01,1.06-1.46,1.94Z"/><path class="cls-1" d="m90.96,379.49l3.1-.49,2.22-14.1c.12-.79.14-1.49.05-2.11-.09-.62-.21-1.08-.36-1.37-.15-.29-.24-.6-.26-.93-.02-.33.08-.67.3-1.01.24-.36.53-.53.87-.5.34.03.83.25,1.47.68l5.24,3.5c.66.44,1.07.82,1.24,1.13.17.31.13.65-.11,1.01-.2.3-.55.53-1.06.68-.51.15-.91.32-1.21.49-.3.17-.58.68-.82,1.53l-1.65,10.06,6.41-1.05,1.98-2.96c.45-.68.76-1.29.92-1.83.16-.54.21-.98.16-1.3-.06-.33-.14-.63-.24-.9-.11-.27-.17-.54-.19-.82-.02-.27.07-.56.27-.86.24-.36.53-.53.87-.5.34.03.85.27,1.53.72l5.48,3.66c.66.44,1.07.82,1.24,1.13.17.31.13.65-.11,1.01-.23.34-.53.55-.9.63-.37.08-.73.11-1.07.08-.34-.03-.79.14-1.35.5-.56.36-1.11.95-1.66,1.77l-6.87,10.3c-.45.68-.76,1.29-.92,1.83-.16.54-.21.98-.16,1.3.06.33.14.63.24.9.11.27.17.55.19.82.02.27-.07.56-.27.86-.24.36-.53.53-.87.5-.34-.03-.85-.27-1.53-.72l-5.48-3.66c-.64-.43-1.05-.8-1.22-1.12-.18-.32-.15-.66.1-1.02.23-.34.53-.55.9-.63.37-.08.73-.11,1.07-.08.34.03.79-.14,1.35-.5.56-.36,1.11-.95,1.66-1.77l2.86-4.28-10.12,1.6c-.65.11-1.09.3-1.3.56s-.28.53-.19.8c.09.28.17.6.24.96.07.37.03.67-.13.91-.24.36-.51.54-.81.54s-.69-.16-1.17-.48l-4.19-2.8c-1.2-.8-1.58-1.52-1.16-2.16.21-.32.46-.51.75-.58.29-.07.59-.06.91.03.32.08.83.14,1.53.17.7.03,1.45-.01,2.26-.14Z"/><path class="cls-1" d="m68.25,360.62l3.13-.04,4.2-13.64c.23-.76.35-1.46.35-2.08,0-.63-.06-1.1-.17-1.41-.11-.31-.15-.63-.13-.96.03-.33.17-.65.44-.95.29-.32.6-.45.94-.37.34.08.79.37,1.36.88l4.69,4.2c.59.53.95.96,1.07,1.29.12.33.04.66-.25.98-.24.27-.62.44-1.15.52-.52.08-.94.18-1.27.31-.32.13-.67.59-1.03,1.39l-3.06,9.73,6.49-.13,2.38-2.65c.55-.61.93-1.17,1.17-1.68.24-.51.35-.94.34-1.27,0-.33-.05-.64-.11-.92-.07-.29-.09-.56-.07-.84.02-.27.15-.54.39-.81.29-.32.6-.44.94-.37.34.08.81.38,1.41.93l4.91,4.4c.59.53.94.96,1.06,1.29.12.33.04.66-.25.98-.27.3-.6.47-.98.5-.38.03-.74,0-1.07-.07-.33-.08-.81.03-1.41.31-.61.28-1.23.79-1.89,1.52l-8.27,9.22c-.54.61-.93,1.17-1.17,1.68-.23.51-.35.94-.34,1.27.01.33.05.64.11.92.07.29.09.56.07.84-.02.27-.15.54-.39.81-.29.32-.6.45-.94.37-.33-.08-.81-.38-1.41-.93l-4.91-4.4c-.57-.51-.92-.94-1.05-1.28-.13-.34-.05-.67.24-.99.27-.3.6-.47.98-.5.38-.03.74,0,1.08.07s.81-.03,1.41-.31c.61-.28,1.24-.79,1.89-1.52l3.44-3.83-10.24.15c-.66.02-1.12.14-1.37.37-.25.23-.35.48-.3.77.05.29.08.62.1.99.02.37-.07.67-.26.88-.29.32-.58.46-.88.42s-.66-.26-1.09-.64l-3.75-3.36c-1.07-.96-1.35-1.73-.84-2.3.26-.29.53-.44.83-.47.3-.02.6.03.9.16.31.13.8.26,1.49.39.69.13,1.44.19,2.25.18Z"/><path class="cls-1" d="m58,330.9c-.19-.37-.22-.69-.09-.94.13-.25.44-.58.93-.96,1.52-1.21,2.82-2.08,3.9-2.59.56-.26,1.08-.32,1.53-.15s1.02.63,1.69,1.42l9.69,11.27c.52.6.81,1.07.89,1.42.08.35-.05.66-.38.94-.35.3-.7.43-1.08.4s-.72-.1-1.03-.23c-.31-.13-.8-.08-1.45.13-.65.21-1.41.69-2.26,1.42l-8.95,7.7c-.86.74-1.44,1.41-1.75,2.03-.31.61-.43,1.09-.35,1.42.08.33.1.68.07,1.05-.03.37-.21.71-.56,1-.33.28-.66.36-.99.23-.33-.13-.75-.49-1.27-1.09l-9.13-10.62c-1.14-1.33-1.49-2.42-1.06-3.27.45-1.02,1.13-2.11,2.03-3.27.72-.9,1.34-1.18,1.88-.85.59.35.74,1.03.46,2.03-.38,1.37-.51,2.54-.39,3.52s.53,1.89,1.25,2.72l1.01,1.17c.7.82,1.28,1.29,1.72,1.42.44.13.89,0,1.34-.4l3.41-2.93c.53-.45.76-.9.7-1.34-.06-.44-.36-.97-.89-1.59l-.47-.55c-.34-.4-.73-.63-1.16-.69-.43-.06-.82,0-1.16.14-.34.15-.69.24-1.05.26-.36.02-.65-.09-.87-.35-.27-.31-.35-.62-.26-.94.09-.32.39-.69.9-1.13l3.52-3.03c.89-.77,1.59-.86,2.09-.28.22.25.29.56.2.92-.09.36-.23.69-.42,1-.19.31-.3.68-.31,1.12s.15.86.49,1.26l.47.55c.55.64,1.03,1.01,1.45,1.13.42.12.89-.05,1.42-.51l4.61-3.97c.46-.39.64-.82.57-1.3-.08-.47-.51-1.17-1.31-2.1l-1.48-1.67c-.66-.76-1.39-1.15-2.21-1.16-.82-.01-2.06.19-3.72.61-1.14.29-1.87.15-2.16-.42Z"/><path class="cls-1" d="m30.64,311.43c.84-.78,1.51-.97,1.98-.56.53.44.58,1.13.15,2.07-.58,1.29-.88,2.43-.92,3.42-.04.98.24,1.95.82,2.88l.86,1.38c.57.92,1.06,1.47,1.47,1.67.41.2.83.16,1.28-.12l4.52-2.82c.59-.37.89-.77.9-1.22,0-.44-.2-1.01-.64-1.7l-.69-1.1c-.28-.45-.62-.73-1.03-.84-.41-.11-.8-.12-1.16-.02-.36.1-.72.13-1.08.1-.36-.03-.63-.19-.8-.47-.23-.37-.27-.69-.12-.98.15-.29.5-.61,1.07-.97l3.94-2.46c1-.62,1.7-.61,2.11.04.18.29.2.6.06.94-.14.34-.33.65-.57.93-.24.28-.4.63-.49,1.05-.09.42,0,.86.29,1.31l.69,1.1c.44.71.86,1.16,1.24,1.35.38.18.88.09,1.49-.29l2.75-1.71c.69-.43,1.22-.86,1.59-1.29.37-.43.6-.8.68-1.12.08-.32.13-.63.15-.92.02-.29.07-.57.16-.82.1-.26.29-.48.6-.67.37-.23.7-.26,1-.09.3.17.67.6,1.1,1.29l3.49,5.59c.42.67.64,1.18.66,1.54.02.35-.15.65-.52.87-.35.22-.71.29-1.08.21-.37-.08-.71-.2-1.01-.37-.3-.17-.78-.2-1.44-.1-.66.1-1.41.41-2.24.93l-10.26,6.4c-.96.6-1.64,1.18-2.04,1.74-.4.56-.59,1.01-.56,1.35.03.34,0,.69-.09,1.05-.08.36-.32.67-.71.91-.37.23-.7.26-1.01.08-.31-.18-.67-.6-1.09-1.27l-7.45-11.94c-.93-1.49-1.11-2.62-.55-3.39.67-1.07,1.5-2.04,2.51-2.92Z"/><path class="cls-1" d="m42.48,288.76c1.47,3.18,1.68,5.95.63,8.31-1.04,2.36-3.41,4.38-7.09,6.08l-6.57,3.03c-.92.42-1.59.87-2.03,1.35-.44.48-.68.89-.72,1.23-.04.34-.14.68-.28,1.02-.14.34-.4.6-.77.77-.39.18-.73.17-1.01-.03-.28-.2-.58-.66-.91-1.38l-2.77-6.02c-.31-.68-.45-1.2-.42-1.57.03-.37.23-.64.6-.81.37-.17.73-.2,1.09-.08.36.11.68.27.98.48.29.21.77.3,1.42.28.65-.02,1.43-.24,2.35-.67l7.62-3.51c2.18-1,3.64-2.23,4.37-3.68.73-1.45.71-3.02-.07-4.72-.77-1.68-2-2.7-3.67-3.07-1.68-.37-3.65-.03-5.91,1.02l-8.9,4.09c-.46.21-.81.49-1.07.83-.25.34-.41.66-.47.97-.06.3-.15.6-.29.88-.13.29-.33.49-.59.61-.37.17-.67.16-.9-.02-.23-.18-.47-.55-.72-1.09l-1.49-3.24c-.28-.61-.41-1.06-.38-1.35.03-.29.22-.52.59-.69.28-.13.62-.11,1,.07.39.18.84.33,1.36.46.52.13,1.08.06,1.67-.21l7.99-3.64c3.94-1.78,7.11-2.32,9.53-1.59s4.37,2.69,5.84,5.89Z"/><path class="cls-1" d="m6.7,264.48l-1.02-3.42c-.19-.64-.25-1.11-.19-1.39.07-.28.29-.48.69-.6.3-.09.63-.02.98.21.36.23.78.45,1.28.65.5.2,1.06.21,1.68.03l18.05-5.37c.48-.14.92-.15,1.31-.03.39.12.63.34.72.67l.11.38c.16.53,0,1.18-.47,1.94l-11.65,19.17,12.48-3.75c.48-.14.87-.37,1.17-.67.3-.3.5-.6.6-.89.1-.29.24-.57.41-.84.17-.26.4-.44.67-.52.39-.12.69-.07.89.15.2.22.39.61.56,1.19l1.01,3.38c.19.64.25,1.11.17,1.4-.08.29-.3.48-.67.59-.3.09-.63.02-.98-.21-.36-.23-.78-.44-1.28-.63-.49-.19-1.05-.19-1.67,0l-13.32,3.96c-1.08.32-1.89.69-2.43,1.12s-.84.81-.9,1.15c-.06.34-.18.67-.36.99-.18.32-.49.54-.93.67-.41.12-.75.06-1-.19-.25-.25-.48-.75-.7-1.48l-1.01-3.38c-.21-.71-.09-1.46.38-2.25l10.27-16.73-10.56,3.14c-.48.14-.87.37-1.17.67-.3.3-.5.6-.6.89-.1.29-.24.57-.41.83-.17.26-.4.44-.67.52-.39.12-.69.07-.89-.15-.2-.21-.39-.61-.56-1.19Z"/><path class="cls-1" d="m3.81,252.65l-1.32-9.08c-.34-2.35-.3-4.48.11-6.4.41-1.92,1.11-3.5,2.09-4.76.98-1.26,2.13-2.26,3.46-3.01,1.32-.75,2.77-1.24,4.33-1.46,3.71-.54,6.96.2,9.76,2.22s4.49,5.01,5.07,8.98l1.44,9.9c.11.78.11,1.34-.01,1.68-.12.33-.4.53-.82.59-.45.07-.83-.01-1.13-.24-.3-.22-.55-.47-.74-.75s-.63-.5-1.3-.67c-.67-.17-1.56-.17-2.68-.01l-11.69,1.69c-1.12.16-1.97.42-2.56.77-.59.35-.94.69-1.05,1.01-.11.32-.28.63-.5.93-.22.3-.56.48-1.01.55-.43.06-.75-.05-.96-.33-.21-.28-.37-.82-.49-1.6Zm21.18-12.75c-.35-2.42-1.35-4.15-3.01-5.18-1.65-1.03-3.79-1.36-6.4-.98-3.37.49-6.08,1.72-8.12,3.71s-2.88,4.22-2.52,6.71c.11.74.28,1.23.52,1.47.24.24.68.32,1.32.23l16.46-2.39c.76-.11,1.29-.4,1.58-.88s.35-1.37.16-2.68Z"/><path class="cls-1" d="m17.02,204.79c.09-.41.27-.67.53-.78.26-.11.71-.16,1.33-.14,1.94.05,3.49.22,4.65.51.6.16,1.03.45,1.27.87.25.42.38,1.14.39,2.17l.19,14.87c.01.79-.07,1.35-.23,1.66-.16.31-.46.47-.89.48-.46,0-.82-.12-1.08-.38-.27-.26-.48-.54-.64-.84-.16-.3-.56-.57-1.2-.83-.64-.26-1.52-.38-2.65-.36l-11.81.15c-1.13.01-2.01.16-2.64.43-.63.27-1.02.56-1.18.86-.15.3-.36.59-.62.85-.26.27-.62.4-1.08.41-.43,0-.73-.15-.91-.46-.17-.31-.26-.86-.27-1.65L0,208.61c-.02-1.75.41-2.81,1.29-3.19,1-.49,2.22-.89,3.66-1.2,1.12-.23,1.79-.05,1.99.55.22.65-.09,1.26-.95,1.85-1.17.81-2.02,1.62-2.56,2.45-.54.82-.8,1.79-.79,2.89l.02,1.55c.01,1.08.15,1.81.41,2.19.26.38.69.57,1.29.56l4.5-.06c.7,0,1.16-.2,1.4-.58.23-.38.35-.97.34-1.79v-.72c-.02-.53-.17-.95-.46-1.27-.29-.32-.62-.53-.98-.63-.36-.1-.69-.26-.98-.47s-.44-.49-.44-.82c0-.41.13-.7.4-.89.27-.18.75-.28,1.42-.29l4.64-.06c1.18-.01,1.77.36,1.78,1.13,0,.34-.14.61-.44.83-.3.22-.62.39-.96.5-.35.11-.67.33-.96.66-.3.33-.44.76-.43,1.28v.72c.02.84.15,1.44.39,1.79s.72.53,1.41.52l6.08-.08c.6,0,1.02-.22,1.27-.63.25-.41.36-1.23.35-2.45l-.07-2.23c-.01-1.01-.33-1.78-.95-2.31-.62-.53-1.7-1.17-3.25-1.92-1.06-.51-1.53-1.08-1.39-1.71Z"/><path class="cls-1" d="m5.82,186.4l14.43,1.53c.81.09,1.5.07,2.05-.04.56-.11.96-.27,1.23-.47.26-.2.49-.41.68-.63.19-.22.4-.4.64-.55.23-.14.53-.2.89-.16.43.05.71.23.85.54.14.32.16.88.07,1.69l-.69,6.55c-.08.79-.23,1.33-.43,1.62-.2.29-.51.42-.94.37-.41-.04-.73-.21-.98-.5-.25-.29-.44-.59-.57-.91-.14-.32-.49-.64-1.07-.96-.58-.33-1.36-.54-2.34-.65l-14.43-1.53c-.98-.1-1.52.33-1.62,1.31-.1.98.1,1.77.6,2.36.5.6,1.46,1.36,2.86,2.28.82.5,1.2.99,1.14,1.5-.07.69-.69.95-1.86.78-1.93-.28-3.44-.63-4.56-1.06-.58-.23-.96-.57-1.16-1.01s-.24-1.18-.13-2.2l1.55-14.68c.11-1.05.31-1.77.59-2.16.28-.39.73-.63,1.34-.71,1.18-.19,2.74-.22,4.68-.08,1.17.08,1.73.46,1.65,1.15-.05.45-.53.86-1.43,1.22-1.56.58-2.65,1.11-3.28,1.59-.63.48-1,1.22-1.1,2.22-.1.96.35,1.49,1.35,1.59Z"/></g></svg>