<svg width="55" height="55" viewBox="0 0 55 55" fill="none" xmlns="http://www.w3.org/2000/svg">
<path d="M10.8153 29.7215C10.9749 29.5617 11.1644 29.4349 11.3731 29.3484C11.5817 29.2619 11.8054 29.2174 12.0313 29.2174C12.2571 29.2174 12.4808 29.2619 12.6894 29.3484C12.8981 29.4349 13.0877 29.5617 13.2473 29.7215L25.7813 42.2576L25.7813 8.59374C25.7813 8.1379 25.9623 7.70073 26.2847 7.3784C26.607 7.05607 27.0442 6.87499 27.5 6.87499C27.9559 6.87499 28.393 7.05607 28.7154 7.3784C29.0377 7.70073 29.2188 8.1379 29.2188 8.59374L29.2188 42.2576L41.7528 29.7215C42.0753 29.399 42.5127 29.2178 42.9688 29.2178C43.4249 29.2178 43.8623 29.399 44.1848 29.7215C44.5073 30.044 44.6885 30.4814 44.6885 30.9375C44.6885 31.3936 44.5073 31.831 44.1848 32.1535L28.716 47.6223C28.5564 47.7821 28.3669 47.9088 28.1582 47.9953C27.9495 48.0818 27.7259 48.1263 27.5 48.1263C27.2742 48.1263 27.0505 48.0818 26.8418 47.9953C26.6332 47.9088 26.4436 47.7821 26.284 47.6223L10.8153 32.1535C10.6554 31.9939 10.5287 31.8043 10.4422 31.5957C10.3557 31.387 10.3112 31.1634 10.3112 30.9375C10.3112 30.7116 10.3557 30.488 10.4422 30.2793C10.5287 30.0707 10.6554 29.8811 10.8153 29.7215Z" fill="black"/>
</svg>
