<?xml version="1.0" encoding="UTF-8"?><svg id="Layer_2" xmlns="http://www.w3.org/2000/svg" width="299.96" height="290.41" viewBox="0 0 299.96 290.41"><defs><style>.cls-1{fill:#fff;}</style></defs><g id="Layer_1-2"><path class="cls-1" d="m233.77,29.12l-4,.81-1.89,16.39c-.09.82-.08,1.54.04,2.18.12.63.27,1.1.46,1.4.19.3.31.62.36.95.05.33-.03.66-.23,1-.22.37-.5.54-.85.51-.35-.02-.84-.23-1.48-.61l-5.23-3.17c-.68-.42-1.13-.79-1.34-1.11-.21-.33-.2-.67.02-1.04.18-.3.52-.53,1.03-.69.5-.16.91-.34,1.22-.55.31-.2.57-.77.79-1.69l1.58-12.42-7.81,1.63-2.36,3.9c-.55.91-.88,1.72-.99,2.41-.11.7-.08,1.21.08,1.52.16.32.29.67.37,1.04.08.38.02.74-.19,1.08-.22.37-.51.53-.87.5-.36-.03-.89-.26-1.59-.69l-5.44-3.3c-.68-.41-1.13-.78-1.35-1.1-.21-.32-.21-.66.01-1.02.21-.34.5-.56.89-.65.38-.09.76-.14,1.13-.13.37,0,.84-.2,1.42-.61.58-.41,1.14-1.08,1.7-1.99l7.59-12.52c.55-.91.88-1.72,1-2.41.11-.7.08-1.21-.1-1.53s-.31-.68-.39-1.05-.02-.74.19-1.08c.22-.36.51-.53.87-.5s.9.26,1.63.71l5.44,3.3c.68.42,1.13.78,1.33,1.09s.19.65-.03,1.01c-.21.34-.5.56-.87.67-.37.1-.75.14-1.13.13-.38-.01-.86.19-1.42.61-.57.42-1.13,1.09-1.68,2l-3.38,5.58,12.19-2.53c.72-.16,1.19-.37,1.42-.64.23-.27.27-.54.15-.82-.13-.28-.24-.6-.32-.97-.09-.37-.05-.69.11-.96.39-.64,1.05-.67,1.98-.11l4.38,2.65c1.28.77,1.72,1.48,1.34,2.12-.26.43-.58.65-.95.64-.37,0-1.01-.05-1.91-.13-.9-.08-1.87-.01-2.91.2Z"/><path class="cls-1" d="m265.28,47.71l-4.49,1.26c.4,2.07.24,4.14-.45,6.2-.7,2.06-1.89,3.95-3.57,5.66-3.05,3.1-6.58,4.7-10.6,4.81-4.03.1-7.58-1.36-10.66-4.39-1.33-1.31-2.35-2.78-3.07-4.41l-4.15,1.14c-.41.12-.72.08-.93-.1-.21-.19-.35-.49-.43-.9-.2-.75.05-1.24.75-1.45l3.98-1.08c-.45-2.09-.36-4.17.28-6.25.64-2.08,1.8-3.98,3.48-5.69,3.03-3.08,6.6-4.7,10.73-4.85,4.13-.15,7.71,1.26,10.73,4.23,1.41,1.38,2.48,2.94,3.21,4.67l4.57-1.29c.7-.18,1.15.12,1.37.89.1.47.11.8.02,1-.08.2-.34.38-.77.56Zm-26.08,12.74c1.73,1.7,3.62,2.38,5.66,2.03s3.99-1.46,5.84-3.35c2.56-2.61,4.16-5.52,4.81-8.73l-18.59,5.18c.21,1.96.97,3.58,2.28,4.87Zm2.7-16.68c-2.73,2.78-4.36,5.83-4.9,9.15l18.73-5.21c-.08-2.05-.81-3.76-2.2-5.13-1.69-1.66-3.62-2.33-5.77-2-2.16.33-4.11,1.39-5.87,3.18Z"/><path class="cls-1" d="m272.3,59.79l4.97,8.17c1.39,2.28,2.28,4.5,2.7,6.67.41,2.17.37,4.1-.12,5.81s-1.25,3.22-2.26,4.56c-1.01,1.33-2.26,2.45-3.74,3.35-3.53,2.15-7.14,2.84-10.84,2.07-3.7-.77-6.75-3.13-9.16-7.09l-5.47-8.99c-.43-.71-.66-1.24-.7-1.61-.04-.37.13-.66.49-.88.39-.24.76-.3,1.12-.19s.69.26.98.46c.29.2.8.24,1.53.12s1.59-.48,2.59-1.09l12.3-7.48c1-.61,1.72-1.21,2.16-1.8.44-.59.63-1.06.59-1.41-.04-.35-.03-.71.05-1.08.07-.37.3-.67.69-.91.36-.22.7-.23,1.01-.03.31.2.68.65,1.11,1.36Zm-16.67,21.93c1.65,2.71,3.62,4.24,5.9,4.58s4.71-.27,7.29-1.83c3.3-2.01,5.52-4.54,6.66-7.61,1.13-3.06.86-5.97-.81-8.73-.47-.77-.89-1.24-1.25-1.39-.36-.16-.85-.05-1.46.33l-16.34,9.93c-.73.44-1.12.99-1.17,1.65-.05.66.34,1.68,1.19,3.07Z"/><path class="cls-1" d="m283.1,107.95c.25,2.28-.08,4.2-.97,5.78-.9,1.58-2.26,2.67-4.08,3.27-2.66.88-5.1.56-7.33-.95-2.23-1.51-3.95-4.1-5.16-7.77l-2.94-8.89c-.26-.78-.37-1.36-.32-1.73.05-.37.27-.62.68-.75.43-.14.81-.12,1.14.07.33.19.61.41.85.67.24.26.73.41,1.46.46.73.05,1.66-.11,2.77-.47l13.67-4.52c1.11-.37,1.95-.79,2.51-1.27.56-.48.85-.89.89-1.25.04-.35.13-.7.29-1.04.15-.35.44-.59.87-.73.4-.13.74-.07.99.2.26.27.51.79.77,1.58l2.56,7.75c2.14,6.46,1.29,10.33-2.55,11.63-2.39.85-4.42.17-6.11-2.02Zm-15.18-.54c.65,1.97,1.57,3.3,2.75,3.98,1.18.68,2.67.72,4.46.12,1.92-.64,3.3-1.82,4.14-3.54.83-1.72.87-3.72.12-6-.22-.66-.45-1.06-.69-1.2-.24-.14-.61-.14-1.09.02l-8.05,2.66c-.99.33-1.61.76-1.87,1.29-.26.54-.18,1.42.23,2.66Zm19.56-9.89l-5.28,1.75c-.25.08-.42.25-.49.5-.07.25-.08.48-.03.68.05.21.14.5.27.88.02.08.05.14.06.19.99,2.99,2.56,4.12,4.71,3.41,1.16-.39,1.99-1.16,2.48-2.32.49-1.16.49-2.46.01-3.9-.35-1.06-.93-1.46-1.74-1.19Z"/><path class="cls-1" d="m299.53,138.29l.39,3.9c.14,1.38-.12,2.1-.79,2.17-.32.03-.6-.07-.86-.32-.25-.24-.48-.54-.67-.9-.2-.36-.53-.77-.99-1.25-.46-.48-1.03-.88-1.71-1.21l-11.34-5.65-5.69.57c-1.06.11-1.9.33-2.53.66s-1.01.66-1.17.98c-.16.32-.36.63-.61.93-.25.29-.58.46-.98.5-.42.04-.73-.09-.92-.39-.19-.3-.33-.87-.41-1.69l-.64-6.33c-.08-.79-.06-1.37.07-1.73.12-.36.4-.56.82-.61.4-.04.75.06,1.06.32.31.25.57.53.79.83.22.3.67.56,1.34.77.68.21,1.55.27,2.61.16l5.69-.58,9.93-8.32c.59-.52,1.07-1.04,1.45-1.57.37-.53.62-.96.73-1.28.11-.32.27-.6.46-.83.19-.23.46-.37.8-.4.69-.07,1.1.53,1.23,1.81l.75,7.4c.12,1.22-.16,1.87-.85,1.93-.29.03-.58-.06-.85-.26-.27-.2-.5-.39-.68-.58-.18-.18-.47-.25-.88-.19-.41.05-.91.33-1.51.82l-7.06,5.7,8.02,3.77c.73.33,1.3.49,1.72.49.42,0,.69-.1.81-.3.13-.2.29-.41.5-.63.21-.22.45-.35.75-.38.69-.07,1.1.49,1.22,1.69Z"/><path class="cls-1" d="m277.9,169.41c-.12.39-.33.61-.6.68-.28.06-.72.05-1.32-.05-2.06-.32-3.64-.7-4.74-1.15-.62-.23-1.02-.59-1.21-1.07-.19-.48-.21-1.3-.08-2.46l1.84-16.01c.09-.82.24-1.39.44-1.7.2-.31.51-.45.93-.4.45.05.78.23,1,.54.22.31.38.63.49.96.11.33.49.68,1.13,1.04.64.36,1.55.6,2.71.73l14.31,1.64c1.17.13,2.1.1,2.81-.1.71-.2,1.15-.45,1.33-.75.18-.3.42-.58.7-.83.28-.25.65-.35,1.1-.3.42.05.7.25.82.6.12.35.13.93.04,1.76l-1.75,15.22c-.12,1.09-.32,1.85-.58,2.29-.27.44-.66.72-1.18.85-1.28.42-2.69.66-4.23.72-1.16.08-1.79-.19-1.88-.82-.14-.66.32-1.24,1.37-1.73,1.39-.65,2.44-1.39,3.16-2.24.71-.84,1.14-1.9,1.29-3.17l.21-1.87c.16-1.43.13-2.39-.09-2.89-.23-.5-.67-.78-1.33-.86l-5.52-.63c-.79-.09-1.34.07-1.65.47-.3.41-.51,1.12-.62,2.12l-.13,1.11c-.07.58.04,1.07.31,1.46.28.39.61.67.99.84.38.17.72.38,1.01.64.29.26.42.56.38.91-.05.42-.24.7-.58.82-.34.12-.89.14-1.66.05l-4.65-.53c-1.3-.15-1.9-.59-1.82-1.33.04-.34.24-.61.59-.8.36-.19.73-.32,1.13-.39.4-.08.78-.27,1.15-.59.37-.32.59-.77.66-1.35l.13-1.11c.12-1.03.08-1.78-.13-2.23-.2-.45-.7-.72-1.5-.82l-7.23-.83c-.69-.08-1.2.11-1.54.57-.33.46-.59,1.46-.77,2.99l-.26,2.63c-.15,1.27.06,2.26.61,2.97.55.71,1.58,1.52,3.08,2.45,1.1.69,1.54,1.34,1.3,1.96Z"/><path class="cls-1" d="m288.5,201.09l-1.17,3.36c-.23.65-.46,1.09-.69,1.31-.23.22-.54.26-.91.13-.33-.11-.56-.39-.71-.82-.15-.43-.38-.9-.7-1.39-.32-.49-.85-.87-1.58-1.12l-20.05-7c-.48-.17-.84-.41-1.08-.74-.24-.33-.31-.64-.2-.94l.14-.42c.18-.5.69-.93,1.55-1.28l24.1-9.8-14.72-5.06c-.58-.2-1.11-.27-1.58-.19-.48.07-.85.21-1.11.4-.26.19-.55.35-.87.48-.31.13-.61.15-.89.05-.38-.13-.58-.35-.62-.66-.03-.31.06-.78.28-1.41l1.16-3.32c.23-.66.46-1.09.69-1.31.23-.21.54-.26.91-.12.33.11.56.39.71.82.15.43.38.9.7,1.39.32.49.85.87,1.58,1.12l15.29,5.34c1.11.39,2.03.56,2.76.52.73-.04,1.22-.19,1.47-.44.24-.25.53-.47.86-.65.33-.18.71-.2,1.14-.05.4.14.62.39.67.76.04.37-.07.94-.35,1.72l-1.06,3.02c-.24.68-.75,1.18-1.54,1.5l-22.18,8.91,13.18,4.6c.58.2,1.11.26,1.59.17.48-.09.85-.22,1.12-.41.26-.19.55-.35.87-.48s.61-.15.89-.05c.38.13.58.35.62.66.03.31-.06.78-.28,1.41Z"/><path class="cls-1" d="m262.03,235.56l-.4-4.06-16.12-3.53c-.8-.17-1.53-.23-2.17-.18-.64.05-1.12.16-1.44.32-.32.16-.65.25-.98.27-.33.02-.66-.09-.98-.33-.34-.26-.48-.56-.43-.9.06-.34.31-.81.76-1.41l3.68-4.89c.48-.64.9-1.04,1.24-1.22.35-.17.69-.13,1.03.13.28.21.47.57.58,1.09.11.52.25.94.42,1.27.17.33.71.65,1.61.96l12.19,2.83-.83-7.94-3.64-2.74c-.85-.64-1.62-1.05-2.3-1.23-.68-.18-1.19-.2-1.52-.07-.33.13-.69.22-1.08.27-.38.04-.74-.05-1.06-.29-.34-.26-.48-.56-.41-.91.06-.35.35-.86.84-1.52l3.83-5.08c.48-.64.89-1.05,1.23-1.23.34-.18.67-.14,1.02.11.32.24.51.56.56.95.06.39.06.77.02,1.14-.04.37.11.86.47,1.48.35.62.96,1.25,1.81,1.89l11.69,8.81c.85.64,1.62,1.05,2.3,1.23.68.18,1.19.2,1.54.05.34-.14.7-.24,1.09-.28.38-.04.74.05,1.06.29.34.26.48.56.41.91-.06.35-.35.87-.87,1.55l-3.83,5.08c-.48.64-.89,1.04-1.21,1.21-.33.17-.66.13-1-.13-.32-.24-.51-.55-.57-.93-.06-.38-.07-.76-.02-1.14.05-.38-.1-.87-.47-1.48-.36-.61-.97-1.23-1.82-1.87l-5.21-3.92,1.29,12.39c.08.73.25,1.22.49,1.47.24.25.51.33.8.23.29-.1.62-.17,1-.23.37-.05.69.02.94.21.6.45.57,1.11-.09,1.98l-3.08,4.09c-.9,1.19-1.65,1.56-2.24,1.12-.4-.3-.59-.64-.54-1.01.04-.37.15-1,.32-1.89s.2-1.86.09-2.91Z"/><path class="cls-1" d="m240.43,265.01l-.8-4.59c-2.1.19-4.14-.17-6.12-1.07s-3.74-2.27-5.28-4.11c-2.78-3.34-4.03-7.02-3.73-11.03.3-4.02,2.11-7.41,5.42-10.17,1.43-1.2,3-2.07,4.7-2.61l-.72-4.24c-.08-.42,0-.73.2-.92.21-.19.52-.3.94-.34.77-.12,1.22.18,1.37.89l.68,4.07c2.12-.24,4.19.06,6.19.9,2.01.84,3.78,2.19,5.31,4.03,2.77,3.32,4.02,7.04,3.76,11.16-.26,4.12-2.02,7.54-5.28,10.26-1.52,1.26-3.17,2.17-4.96,2.73l.83,4.67c.11.71-.24,1.13-1.02,1.27-.48.05-.81.03-1-.08s-.35-.38-.48-.83Zm-10.08-27.21c-1.86,1.55-2.72,3.36-2.58,5.43.14,2.07,1.06,4.11,2.75,6.14,2.34,2.81,5.08,4.69,8.21,5.66l-3.3-19.02c-1.97.01-3.66.61-5.08,1.78Zm16.33,4.35c-2.49-2.99-5.37-4.92-8.62-5.78l3.32,19.16c2.05.13,3.83-.43,5.32-1.68,1.82-1.52,2.68-3.37,2.56-5.55-.11-2.18-.97-4.23-2.58-6.16Z"/><path class="cls-1" d="m209.9,266.95c-2.22.57-4.17.53-5.86-.13-1.69-.66-2.96-1.85-3.82-3.57-1.25-2.5-1.29-4.97-.12-7.39,1.17-2.42,3.49-4.5,6.95-6.23l8.37-4.19c.74-.37,1.29-.56,1.66-.56.37,0,.65.18.84.56.2.41.24.78.1,1.14s-.32.67-.54.94c-.22.27-.3.78-.25,1.51.05.73.34,1.62.87,2.67l6.45,12.87c.52,1.05,1.07,1.82,1.62,2.3.56.48,1.01.72,1.36.71.35-.01.71.03,1.07.13.36.1.65.35.85.76.19.38.17.72-.05,1.01-.23.29-.71.62-1.45.99l-7.3,3.65c-6.08,3.04-10.04,2.76-11.88-.85-1.18-2.24-.81-4.35,1.12-6.33Zm-1.66-15.1c-1.86.93-3.04,2.03-3.54,3.29-.5,1.26-.33,2.74.52,4.44.91,1.81,2.27,3.01,4.1,3.58,1.83.58,3.81.33,5.96-.75.62-.31.98-.6,1.09-.86.11-.26.05-.62-.18-1.07l-3.8-7.58c-.47-.93-.98-1.49-1.55-1.66-.57-.18-1.43.03-2.6.61Zm12.61,17.93l-2.49-4.97c-.12-.24-.31-.38-.56-.41s-.48-.01-.68.07c-.2.08-.47.21-.83.39-.07.04-.13.07-.18.09-2.81,1.41-3.71,3.13-2.7,5.15.55,1.1,1.43,1.8,2.65,2.12,1.22.31,2.5.13,3.86-.55,1-.5,1.31-1.13.93-1.9Z"/><path class="cls-1" d="m176.66,268.93c-.41.02-.69-.08-.85-.31-.16-.23-.3-.65-.43-1.25-.46-2.03-.68-3.64-.66-4.83,0-.66.17-1.16.55-1.51.38-.35,1.13-.67,2.27-.97l15.58-4.13c.8-.21,1.38-.28,1.74-.21.36.07.6.31.71.72.12.44.07.82-.13,1.13-.21.32-.44.59-.72.81-.27.22-.46.7-.55,1.43-.1.73,0,1.66.31,2.79l3.69,13.92c.3,1.13.67,1.99,1.12,2.58.45.59.84.91,1.19.97s.69.18,1.02.35c.34.17.56.48.68.92.11.41.02.74-.26.98-.28.24-.82.47-1.62.68l-14.81,3.92c-1.06.28-1.84.38-2.34.29-.51-.09-.91-.35-1.22-.79-.86-1.04-1.59-2.27-2.22-3.68-.5-1.05-.47-1.74.08-2.05.56-.37,1.27-.16,2.11.64,1.11,1.06,2.19,1.77,3.23,2.12s2.19.37,3.43.04l1.82-.48c1.39-.37,2.28-.75,2.66-1.14.38-.39.48-.91.31-1.55l-1.42-5.37c-.21-.77-.55-1.23-1.04-1.36-.49-.13-1.22-.07-2.2.19l-1.08.29c-.57.15-.98.43-1.25.83s-.41.81-.42,1.23c-.01.42-.09.81-.23,1.18-.14.37-.37.59-.71.68-.41.11-.74.03-.97-.24-.24-.27-.45-.78-.65-1.52l-1.2-4.52c-.33-1.26-.14-1.99.58-2.18.33-.09.65,0,.96.26.3.26.56.57.78.91.21.34.54.63.97.86.43.23.93.27,1.5.12l1.08-.29c1-.27,1.68-.58,2.03-.93.35-.36.42-.92.21-1.69l-1.87-7.04c-.18-.67-.54-1.08-1.09-1.22-.55-.14-1.57-.02-3.07.38l-2.54.72c-1.24.33-2.09.88-2.54,1.65-.46.77-.84,2.02-1.15,3.76-.24,1.28-.69,1.92-1.35,1.93Z"/><path class="cls-1" d="m150.96,290.28l-3.56.12c-.69.02-1.18-.03-1.47-.17-.29-.14-.43-.41-.45-.81-.01-.35.16-.67.51-.96s.7-.68,1.04-1.16c.34-.48.5-1.1.48-1.88l-.72-21.23c-.02-.51.08-.93.3-1.27.21-.34.48-.52.8-.53h.44c.53-.03,1.12.29,1.75.97l17.85,18.93-.6-15.55c-.02-.61-.15-1.13-.39-1.55-.24-.42-.5-.72-.77-.9-.27-.18-.53-.39-.76-.63-.23-.25-.36-.52-.37-.81-.01-.4.12-.67.39-.81s.75-.23,1.41-.25l3.52-.12c.69-.02,1.18.03,1.47.17.28.14.43.41.45.8.01.35-.16.67-.51.96-.35.29-.7.68-1.04,1.16-.34.48-.5,1.1-.48,1.88l.55,16.19c.04,1.17.21,2.09.51,2.76s.62,1.07.94,1.21c.32.13.63.32.92.57.29.24.44.59.46,1.04.01.43-.14.73-.47.9-.33.17-.9.27-1.73.3l-3.2.11c-.72.02-1.37-.27-1.95-.89l-16.32-17.46.47,13.95c.02.61.16,1.13.41,1.55.25.42.52.72.79.89.27.18.53.39.76.63.23.25.36.51.37.81.01.4-.12.67-.39.81-.27.14-.75.22-1.41.25Z"/><path class="cls-1" d="m112.65,277.47l3.18-14.29c.23-1.04.29-1.91.17-2.6-.12-.7-.31-1.17-.58-1.42-.27-.25-.51-.54-.71-.87-.2-.33-.26-.69-.17-1.08.09-.42.31-.67.66-.75.35-.09.94-.04,1.77.15l6.21,1.38c.78.17,1.32.38,1.61.6.29.23.39.55.3.97-.09.39-.29.69-.61.91-.32.22-.66.38-1.03.49-.36.11-.75.45-1.15,1.03-.4.58-.72,1.39-.95,2.43l-1.12,5.04c-.16.7-.12,1.17.09,1.41.34.32,1.94.8,4.8,1.44h.04s.04.02.04.02h.04s.04.02.04.02h.04s.04.02.04.02h.04s.04.02.04.02h.04s.04.02.04.02h.04s.04.02.04.02h.04s.04.02.04.02h.04s.04.02.04.02h.04s.35.09.35.09c3.46.77,5.45,1.12,5.96,1.04.44-.23.72-.66.86-1.28l1.12-5.04c.23-1.04.29-1.91.17-2.61-.12-.7-.31-1.17-.56-1.42-.26-.25-.49-.54-.69-.87-.2-.33-.26-.69-.17-1.08.09-.42.31-.67.66-.75.35-.09.92-.04,1.73.14l6.21,1.38c.78.17,1.32.38,1.63.61.3.23.41.56.32.97-.09.39-.3.69-.63.9-.33.21-.68.38-1.03.49-.35.11-.74.46-1.15,1.03-.41.58-.74,1.39-.97,2.43l-3.18,14.29c-.23,1.04-.29,1.91-.17,2.61.12.7.31,1.17.58,1.42.27.25.51.54.71.87.2.33.26.69.17,1.08-.09.42-.31.67-.66.75-.35.09-.94.04-1.77-.15l-6.21-1.38c-.78-.17-1.32-.38-1.61-.6s-.39-.55-.3-.97c.09-.39.29-.69.61-.91.32-.21.67-.38,1.03-.49.37-.11.75-.45,1.15-1.03.4-.58.72-1.39.95-2.43l.76-3.4c.16-.7.12-1.16-.1-1.38-.33-.35-1.96-.85-4.87-1.5-.23-.05-.61-.14-1.13-.25-3.33-.74-5.25-1.08-5.76-1-.43.23-.72.66-.86,1.28l-.76,3.4c-.23,1.04-.29,1.91-.17,2.6.12.7.31,1.17.57,1.42.26.25.49.54.69.87.2.33.26.69.17,1.08-.09.42-.31.67-.66.75-.35.09-.92.04-1.73-.14l-6.21-1.38c-.78-.17-1.32-.38-1.63-.61-.3-.23-.41-.56-.32-.97.09-.39.3-.69.63-.9.33-.21.68-.38,1.03-.49.35-.11.74-.46,1.15-1.03.42-.58.74-1.39.97-2.43Z"/><path class="cls-1" d="m105.5,259.05l1.41-1.22c.8-.83,1.19-1.41,1.19-1.75,0-.35-.1-.74-.28-1.19-.18-.45-.19-.83-.04-1.14.31-.62,1.01-.66,2.11-.11l3.19,1.59c1.24.62,1.71,1.23,1.42,1.82-.14.29-.38.48-.7.59-.32.11-.67.16-1.05.17s-.85.12-1.42.34c-.57.22-1.13.57-1.66,1.05l-14.44,12.82c-.64.69-.94,1.21-.88,1.55.05.34.17.76.35,1.27.18.51.19.93.02,1.26-.32.64-.86.78-1.63.39l-4.04-2.02c-.64-.32-.94-.84-.88-1.56l2-23.27c.07-.8.04-1.49-.08-2.08-.12-.58-.28-1.01-.46-1.28-.18-.27-.3-.54-.38-.81-.07-.27-.04-.55.11-.84.19-.38.47-.58.83-.59.36-.01.89.15,1.58.5l5.76,2.87c1.15.57,1.55,1.19,1.22,1.86-.18.36-.53.58-1.06.68-.52.1-.95.23-1.28.41-.33.18-.6.84-.81,1.99l-.11,1.56c-.06.6.02,1.01.23,1.23.36.36,1.77,1.15,4.22,2.38,2.67,1.33,4.22,2,4.63,2,.27-.01.58-.17.91-.48Zm-6.71.72c-2.08-1.04-3.23-1.52-3.47-1.46-.17.1-.27.36-.3.79l-.94,10.22,7.54-6.79c.44-.41.6-.7.48-.88-.18-.24-1.28-.86-3.31-1.88Z"/><path class="cls-1" d="m58.87,254.38l-2.85-2.21c-1.1-.85-1.44-1.54-1.03-2.06.2-.25.47-.4.82-.43.35-.03.71-.02,1.08.05s.86.05,1.46-.06c.6-.1,1.22-.34,1.84-.7l19.88-11.92c.4-.26.76-.38,1.07-.36.31.02.79.21,1.44.59.8.45,1.3.82,1.49,1.11.2.29.23.65.09,1.09l-6.52,22.83c-.23.77-.33,1.45-.33,2.05.01.6.07,1.04.18,1.33s.18.58.19.86c.02.28-.07.55-.27.8-.26.34-.57.48-.93.42-.36-.06-.84-.33-1.46-.8l-5.09-3.95c-1.01-.79-1.29-1.47-.83-2.06.25-.32.63-.47,1.17-.46.53,0,.98-.04,1.33-.15.36-.11.75-.71,1.19-1.79l5-17.03-15.22,9.31c-.92.67-1.42,1.17-1.48,1.51-.06.34-.05.74.02,1.21.08.47.01.83-.2,1.11-.43.55-1.11.45-2.06-.28Z"/><path class="cls-1" d="m35.85,228.74l-2.22-2.79c-.43-.54-.68-.97-.74-1.28-.06-.31.07-.59.38-.84.27-.22.63-.27,1.07-.16.44.11.96.16,1.55.15.59,0,1.19-.25,1.79-.73l16.62-13.22c.4-.32.8-.49,1.2-.52.4-.03.7.08.9.33l.27.34c.33.42.42,1.08.26,1.99l-4.57,25.61,12.13-9.75c.48-.38.82-.79,1.01-1.24.19-.44.28-.83.26-1.15-.02-.33,0-.66.06-.99.06-.33.2-.59.43-.78.31-.25.61-.31.89-.17.28.14.63.47,1.04.99l2.19,2.75c.43.54.68.97.74,1.28.06.31-.07.59-.38.84-.27.22-.63.27-1.07.16-.44-.11-.96-.16-1.55-.15-.59,0-1.19.25-1.79.74l-12.68,10.08c-.92.73-1.56,1.42-1.91,2.06-.36.64-.49,1.13-.41,1.48.08.34.11.7.09,1.08-.02.38-.21.71-.57.99-.33.26-.67.32-1,.16-.33-.16-.76-.56-1.27-1.21l-1.99-2.5c-.45-.56-.6-1.26-.44-2.1l4.3-23.51-10.93,8.69c-.48.38-.81.8-1,1.25-.18.45-.27.84-.25,1.17.02.33,0,.66-.06.99-.06.33-.2.59-.43.78-.31.25-.61.3-.89.17-.28-.14-.62-.46-1.04-.99Z"/><path class="cls-1" d="m37.32,194.91l3.19,6.94c.34.75.18,1.18-.51,1.29l-.7.1c-.66.1-1.12-.15-1.39-.73l-3.2-6.98c-.33-.73-.15-1.15.56-1.27l.65-.12c.66-.1,1.13.16,1.41.76Z"/><path class="cls-1" d="m16.28,158.04l14.4-2.64c1.05-.19,1.87-.48,2.47-.86.6-.38.96-.74,1.08-1.09.13-.35.3-.68.53-.99.23-.31.54-.5.93-.58.42-.08.74.03.95.31.21.29.4.85.55,1.69l1.15,6.26c.14.79.17,1.36.07,1.72-.1.36-.36.57-.77.65-.39.07-.75,0-1.08-.21-.32-.21-.61-.46-.85-.76-.24-.29-.71-.51-1.4-.66-.69-.14-1.56-.12-2.61.07l-5.08.93c-.71.13-1.13.34-1.27.64-.16.44.02,2.1.55,4.98v.04s.01.04.01.04v.04s.01.04.01.04v.04s.01.04.01.04v.04s.01.04.01.04v.04s.01.04.01.04v.04s.01.04.01.04v.04s.01.04.01.04v.04s.01.04.01.04v.04s.07.35.07.35c.64,3.49,1.1,5.45,1.37,5.89.38.31.89.41,1.52.29l5.07-.93c1.05-.19,1.87-.48,2.47-.86.59-.38.96-.74,1.08-1.07s.31-.66.53-.97c.23-.31.54-.5.93-.58.42-.08.74.03.95.31.21.29.4.84.55,1.65l1.15,6.25c.14.79.17,1.37.07,1.74-.09.37-.35.59-.77.67-.39.07-.75,0-1.08-.23-.33-.22-.61-.48-.85-.76-.24-.28-.71-.5-1.4-.66-.69-.16-1.56-.14-2.61.05l-14.4,2.64c-1.05.19-1.87.48-2.47.86-.59.38-.95.75-1.08,1.09-.12.35-.3.68-.53.99s-.54.51-.93.58c-.42.08-.74-.03-.95-.31-.21-.29-.4-.85-.55-1.69l-1.15-6.26c-.14-.79-.17-1.36-.07-1.71.1-.36.36-.57.78-.65.39-.07.75,0,1.08.21s.61.46.85.76c.24.29.71.51,1.4.66.69.14,1.56.12,2.61-.07l3.42-.63c.71-.13,1.12-.34,1.23-.63.19-.44.02-2.13-.52-5.07-.04-.24-.11-.62-.21-1.14-.62-3.36-1.06-5.26-1.33-5.69-.38-.31-.89-.41-1.52-.29l-3.42.63c-1.05.19-1.87.48-2.47.86-.59.38-.96.74-1.08,1.07-.13.33-.31.66-.53.97-.23.31-.54.5-.93.58-.42.08-.74-.03-.95-.31-.22-.29-.4-.83-.55-1.65l-1.15-6.26c-.14-.79-.17-1.36-.07-1.73.09-.37.35-.59.77-.67.39-.07.75,0,1.08.23.33.23.61.48.85.76.24.28.71.5,1.4.66s1.56.14,2.61-.05Z"/><path class="cls-1" d="m7.17,133.49c.7.89,1.02,1.94.94,3.17-.08,1.22-.52,2.21-1.31,2.94-.8.74-1.78,1.07-2.95.99-1.22-.08-2.19-.56-2.89-1.43-.7-.87-1.02-1.94-.93-3.19.08-1.2.51-2.17,1.29-2.92.78-.75,1.77-1.09,2.97-1.01,1.22.08,2.19.56,2.89,1.45Zm-1.21,2.87c.04-.56-.13-1.01-.49-1.36-.36-.34-.84-.51-1.43-.49-.56.02-1.02.19-1.38.51s-.55.74-.58,1.24c-.04.59.11,1.05.45,1.39s.8.51,1.39.49c.56-.02,1.04-.19,1.42-.53s.59-.76.62-1.26Zm24.54,7.9l1.67.83c1.07.42,1.76.56,2.08.42.32-.14.65-.38.99-.72.34-.34.69-.5,1.03-.47.69.05,1,.68.92,1.9l-.23,3.55c-.09,1.38-.47,2.05-1.13,2.01-.32-.02-.59-.16-.81-.41-.22-.25-.41-.55-.56-.9-.15-.34-.44-.74-.86-1.18-.43-.44-.96-.82-1.61-1.13l-17.41-8.35c-.89-.33-1.48-.4-1.77-.22-.29.18-.64.45-1.04.82-.4.36-.78.53-1.16.51-.72-.05-1.05-.5-.99-1.35l.29-4.51c.05-.72.41-1.19,1.09-1.41l22.23-7.17c.76-.24,1.39-.54,1.88-.88.49-.34.82-.65,1-.92.18-.27.38-.49.6-.66.23-.17.5-.25.82-.23.43.03.71.21.87.54.15.33.2.88.15,1.65l-.42,6.43c-.08,1.28-.5,1.89-1.24,1.84-.4-.03-.75-.26-1.04-.71s-.58-.79-.88-1.02c-.29-.23-1.01-.23-2.15.02l-1.48.5c-.57.18-.92.41-1.05.69-.19.47-.38,2.07-.55,4.81-.19,2.98-.21,4.66-.05,5.05.12.25.38.47.8.65Zm-3.26-5.91c.15-2.31.15-3.57,0-3.77-.15-.12-.43-.11-.84.03l-9.78,3.09,9.18,4.33c.54.25.88.28,1,.11.15-.26.3-1.52.45-3.78Z"/><path class="cls-1" d="m18.75,93.72l1.06-3.4c.21-.66.42-1.1.65-1.33.22-.22.53-.28.91-.16.33.1.58.37.74.79.16.43.41.88.75,1.36.34.48.88.84,1.62,1.07l20.28,6.33c.48.15.85.38,1.1.7.25.32.33.63.23.93l-.13.42c-.16.51-.66.95-1.5,1.33l-23.76,10.6,14.88,4.56c.59.18,1.12.23,1.59.14.47-.09.84-.23,1.1-.43.26-.2.54-.37.85-.51.31-.14.6-.17.88-.08.38.12.59.33.64.64.04.31-.03.78-.23,1.42l-1.05,3.36c-.21.66-.42,1.11-.65,1.33s-.53.28-.91.16c-.33-.1-.58-.37-.74-.8-.16-.43-.41-.88-.75-1.36-.34-.48-.88-.84-1.61-1.07l-15.46-4.83c-1.12-.35-2.05-.49-2.78-.43-.73.06-1.22.23-1.45.49-.23.26-.52.49-.84.68-.32.19-.7.22-1.14.08-.41-.13-.64-.37-.69-.74-.05-.37.04-.94.29-1.73l.95-3.05c.21-.69.71-1.2,1.49-1.55l21.87-9.64-13.33-4.16c-.58-.18-1.12-.22-1.6-.12-.48.1-.85.25-1.1.45-.26.2-.54.37-.85.51s-.6.17-.88.08c-.38-.12-.59-.33-.64-.64-.04-.31.03-.78.23-1.42Z"/><path class="cls-1" d="m24.73,79.45l4.99-8.16c1.39-2.27,2.96-4.09,4.69-5.45,1.74-1.36,3.48-2.21,5.22-2.55,1.74-.34,3.44-.37,5.09-.08,1.65.29,3.22.89,4.69,1.79,3.53,2.16,5.8,5.05,6.81,8.69s.31,7.43-2.11,11.39l-5.49,8.98c-.43.7-.8,1.16-1.11,1.36-.31.2-.65.19-1.01-.03-.39-.24-.61-.54-.69-.91-.07-.37-.08-.73-.04-1.08s-.15-.82-.59-1.42-1.15-1.2-2.15-1.81l-12.29-7.51c-1-.61-1.86-.98-2.59-1.09-.73-.12-1.23-.08-1.53.12-.29.2-.62.35-.98.46-.36.11-.74.04-1.12-.2-.36-.22-.53-.52-.49-.89.04-.37.27-.9.7-1.61Zm27.13,4.78c1.66-2.71,2.11-5.15,1.37-7.34-.74-2.19-2.4-4.07-4.97-5.64-3.3-2.02-6.57-2.83-9.81-2.44-3.24.39-5.7,1.97-7.39,4.72-.47.77-.7,1.36-.67,1.75.03.39.35.78.96,1.15l16.31,9.97c.73.45,1.4.54,2,.29.61-.25,1.34-1.07,2.19-2.46Z"/><path class="cls-1" d="m70.74,51.42c.33-.23.63-.29.89-.17.26.12.6.4,1.02.84,1.45,1.5,2.47,2.76,3.08,3.79.35.56.46,1.08.31,1.58-.14.49-.62,1.16-1.43,2.01l-10.09,10.5c-.57.6-1.03.96-1.38,1.09s-.67.05-.98-.25c-.33-.31-.48-.66-.47-1.04.01-.38.08-.73.19-1.06.12-.33.03-.84-.27-1.51s-.87-1.42-1.71-2.23l-10.47-10.06c-.77-.74-1.48-1.24-2.14-1.5-.66-.26-1.16-.34-1.52-.24s-.73.15-1.11.15-.72-.14-1.01-.42c-.31-.3-.41-.61-.3-.96.11-.34.45-.82,1.05-1.44l4.41-4.59c.55-.58,1-.93,1.35-1.06.35-.13.67-.05.98.25.29.28.44.61.46,1,.02.39-.02.76-.12,1.13-.1.37,0,.88.28,1.52.29.65.81,1.34,1.58,2.08l12.23,11.75c.48.46.97.63,1.47.52.5-.11,1.16-.6,1.99-1.47l1.22-1.33c.89-.92,1.33-1.83,1.32-2.73,0-.9-.33-2.17-.97-3.81-.46-1.22-.41-2,.15-2.35Z"/><path class="cls-1" d="m78.98,46.78l.37,1.83c.33,1.1.65,1.73.95,1.89.3.16.7.28,1.17.34s.81.24,1.01.52c.39.57.08,1.21-.94,1.9l-2.94,2c-1.15.78-1.91.9-2.28.34-.18-.26-.24-.56-.17-.9.06-.33.18-.67.36-1,.18-.33.31-.8.4-1.41.09-.61.05-1.26-.1-1.96l-4.13-18.87c-.29-.9-.6-1.41-.92-1.53-.32-.12-.75-.22-1.28-.32-.53-.09-.9-.29-1.11-.6-.41-.6-.26-1.13.45-1.61l3.74-2.54c.6-.41,1.19-.41,1.79,0l19.33,13.12c.66.45,1.28.77,1.85.94.57.18,1.02.25,1.34.22.32-.02.62,0,.89.07.27.07.5.24.68.5.24.35.28.69.11,1.01-.17.32-.57.7-1.21,1.14l-5.32,3.62c-1.06.72-1.8.77-2.22.15-.23-.33-.25-.75-.08-1.25.17-.5.26-.94.27-1.32,0-.37-.44-.93-1.34-1.68l-1.31-.85c-.49-.34-.89-.48-1.19-.4-.49.14-1.87.98-4.14,2.53-2.47,1.68-3.81,2.7-4.01,3.07-.12.25-.13.59-.02,1.03Zm2.65-6.21c1.92-1.31,2.91-2.08,2.97-2.31,0-.19-.18-.41-.54-.65l-8.45-5.81,2.24,9.9c.14.58.31.87.53.85.29-.04,1.38-.7,3.25-1.97Z"/><path class="cls-1" d="m105.79,8.35l3.31-1.41c1.28-.54,2.04-.51,2.31.1.13.29.12.6-.02.92-.14.32-.33.62-.57.92-.24.29-.46.73-.66,1.3-.2.58-.3,1.23-.28,1.95l.74,23.16c.03.48-.04.85-.2,1.11-.17.26-.57.58-1.22.97-.78.48-1.35.73-1.7.77-.35.03-.68-.12-.99-.45l-16.77-16.81c-.56-.57-1.11-1-1.63-1.28-.53-.28-.94-.45-1.25-.49-.31-.04-.59-.12-.85-.25-.26-.12-.45-.33-.57-.63-.17-.39-.14-.73.09-1.02.23-.29.7-.58,1.41-.88l5.92-2.53c1.18-.5,1.91-.41,2.21.28.16.37.1.78-.17,1.24-.27.46-.44.88-.51,1.24-.08.37.25,1,.99,1.91l12.44,12.66-.73-17.82c-.13-1.13-.33-1.81-.6-2.03-.27-.22-.62-.41-1.07-.57-.44-.16-.73-.4-.87-.72-.27-.64.15-1.19,1.25-1.66Z"/><path class="cls-1" d="m141.38,20.04c.41,0,.68.13.82.37.14.25.26.67.34,1.28.31,2.06.41,3.68.31,4.87-.04.66-.26,1.15-.66,1.47-.4.32-1.18.59-2.33.81l-15.84,2.99c-.81.15-1.4.18-1.75.09s-.58-.35-.65-.77c-.08-.45-.01-.82.22-1.12.23-.3.49-.55.77-.76.29-.2.51-.67.65-1.39.15-.72.11-1.66-.1-2.81l-2.67-14.15c-.22-1.15-.53-2.04-.93-2.65-.4-.62-.77-.97-1.11-1.05-.34-.08-.67-.23-1-.42-.32-.2-.53-.52-.61-.96-.08-.42.03-.74.33-.96s.85-.41,1.67-.56l15.05-2.84c1.07-.2,1.86-.24,2.36-.12.5.12.89.42,1.16.88.78,1.1,1.43,2.38,1.94,3.83.42,1.09.35,1.77-.23,2.04-.59.33-1.28.07-2.06-.79-1.03-1.13-2.05-1.92-3.07-2.35-1.02-.43-2.16-.53-3.41-.29l-1.85.35c-1.42.27-2.33.58-2.73.94-.41.36-.55.87-.42,1.53l1.03,5.46c.15.79.46,1.26.94,1.43.48.17,1.22.16,2.21-.03l1.1-.21c.58-.11,1.01-.35,1.31-.74s.46-.78.51-1.19c.04-.42.15-.8.31-1.16.16-.36.42-.57.76-.63.42-.08.74.02.95.31.22.29.4.81.54,1.57l.87,4.6c.24,1.28,0,2-.74,2.13-.34.07-.65-.04-.94-.33-.28-.29-.52-.61-.71-.96-.19-.36-.49-.67-.91-.93-.42-.26-.91-.34-1.49-.23l-1.1.21c-1.02.19-1.72.45-2.09.78s-.48.88-.34,1.67l1.35,7.15c.13.68.46,1.11,1,1.3.54.18,1.56.13,3.08-.15l2.59-.53c1.26-.24,2.14-.72,2.66-1.46.51-.73.99-1.96,1.42-3.67.33-1.26.83-1.87,1.49-1.83Z"/><path class="cls-1" d="m160.08,4.66l-.34,16.88c-.02,1.07.09,1.93.35,2.59.25.66.54,1.09.85,1.28.32.19.6.43.87.72.26.29.39.63.38,1.03,0,.43-.18.72-.52.87-.34.15-.92.22-1.74.21l-6.36-.13c-.8-.02-1.37-.11-1.71-.27-.34-.17-.51-.46-.5-.89,0-.4.15-.74.44-1.01.29-.27.59-.5.91-.68s.63-.59.93-1.24.45-1.5.47-2.57l.34-16.88c.02-1.17-.56-1.77-1.76-1.8-.85-.02-1.58.15-2.17.5-.59.35-1.05.75-1.36,1.21-.32.46-.78,1.23-1.39,2.31-.5.98-1,1.46-1.51,1.45-.72-.01-1.04-.61-.96-1.78.12-2.08.35-3.69.7-4.83.17-.64.49-1.07.95-1.3s1.27-.33,2.45-.31l15.96.32c1.17.02,1.98.16,2.41.41.44.25.73.68.87,1.3.35,1.34.51,2.97.5,4.89.03,1.17-.3,1.75-.99,1.74-.51-.01-1-.51-1.49-1.51-.77-1.59-1.45-2.69-2.03-3.3-.59-.61-1.5-.93-2.72-.95-1.17-.02-1.77.56-1.8,1.76Z"/><path class="cls-1" d="m181.32,24.42l3.35-14.25c.24-1.04.31-1.91.2-2.6-.11-.7-.3-1.17-.57-1.43-.27-.25-.5-.55-.7-.88-.2-.33-.25-.69-.16-1.08.1-.41.32-.66.67-.75.35-.08.94-.03,1.77.17l6.19,1.46c.78.18,1.31.39,1.6.62.29.23.38.56.29.97-.09.39-.3.69-.62.9-.32.21-.67.37-1.04.48-.37.11-.76.45-1.16,1.02-.41.58-.73,1.38-.98,2.42l-3.35,14.25c-.24,1.04-.31,1.91-.2,2.6.11.7.29,1.17.55,1.42s.48.54.68.88c.19.33.25.69.16,1.08-.1.42-.32.66-.67.75-.35.08-.92.03-1.73-.16l-6.19-1.45c-.78-.18-1.32-.39-1.62-.63-.3-.24-.4-.56-.31-.97.09-.39.31-.69.64-.9.34-.21.68-.37,1.04-.48s.74-.45,1.16-1.02c.42-.57.75-1.38,1-2.42Z"/><polygon class="cls-1" points="96.64 222.04 96.99 221.48 100.39 223.61 108.29 210.81 119.08 216.71 114.42 226.02 110.28 224.1 113.01 218.36 109.5 216.48 104.1 226.77 116.82 231.96 122.12 219.04 133.07 222.2 130.89 233.1 126.7 231.81 128.06 225.79 124.7 224.51 121.52 233.81 134.07 237.3 137.2 224.12 150.63 225.55 149.9 236.73 145.17 236.1 145.17 230.94 141.7 230.7 140.56 239.46 154.04 240.49 154.17 225.67 166.79 225.09 168.39 235.68 163.64 236.32 162.81 231.1 158.67 231.22 159.18 240.6 173.2 238.26 170.34 223.96 183.08 220.96 186.72 230.43 182.15 231.85 180.23 227.75 177.42 228.54 179.83 237.56 192.11 233.29 186.26 219.27 198.01 213.83 203.67 223.27 199.53 225.18 196.41 220.7 193.8 222.17 197.35 230.01 208.84 223.43 200.28 211.88 210.72 203.17 217.85 210.3 213.96 214.19 210.14 210.1 207.47 212.77 214.66 220.99 224.27 210.6 213.37 200.79 221.27 191.45 229.83 196.82 227.32 201.21 222.21 198.31 219.79 200.72 227.69 206.83 236.11 196.08 222.53 188.48 228.81 176.19 239.1 180.39 237.2 184.52 231.73 182.88 230.39 185.33 239.17 189.53 244.07 178.43 229.93 172.72 233.79 160.26 243.53 162.73 242.75 167.86 238.72 167.17 237.74 169.46 246.43 172.35 248.1 160.37 234.21 157.38 234.93 144.1 245.55 143.95 245.39 148.57 240.63 148.71 240.75 152.84 250.04 153.48 249.52 140.26 234.4 140.4 232.97 128.05 243.43 126.59 244.08 130.8 238.66 131.61 239.59 135.34 249.82 134.58 246.19 121.37 231.89 124.77 227.46 111.76 237.34 108.28 239.23 112.7 234.33 114.6 235.96 118.1 245.02 114.91 239.85 103.27 226.1 109.39 219.8 98.22 228.91 92.29 230.9 94.93 227.1 99.53 229.96 102.39 236.3 97.83 229.29 86.68 217.74 95.51 214.4 91.59 214.9 91.16 217.84 94.6 229.47 85.7 237.19 98.01 229.89 103.27 226.2 99.58 230.05 94.91 228.76 93.19 220.69 98.44 226.38 108.54 240.19 102.39 245.93 115.3 235.62 118.93 233.43 114.24 238.35 112.33 236.97 109.11 228.3 112.17 232.33 123.98 246.66 120.57 250.68 135.18 239.08 136.05 237.83 131.06 243.32 130.24 242.88 127.35 233.7 128.62 235 139.73 250.16 139.59 250.73 154.2 240.1 153.47 239.95 148.06 244.74 147.92 244.86 144.63 235.56 144.76 234.91 156.84 248.85 159.85 246.98 173.24 236.84 169.86 238.32 166.42 242.19 167.09 242.78 163.22 234.24 161.06 230.74 172.33 244.96 178.07 239.5 190.43 229.46 185.63 231.4 182.08 236.84 183.71 238.21 180.75 229.13 177.04 223.41 188.21 237.11 195.88 227.8 207.77 218.78 200.79 222.1 197.47 227.07 200.3 228.93 197.05 221.4 192.33 214.3 200.72 225.22 210.55 214.64 221.98 206.56 212.74 210.16 209.14 213.98 213.23 216.91 210.3 210.68 204.07 201.19 211.99 209.82 223.63 197.04 230.96 192.94 221.89 196.61 219.82 199.76 224.34 202.72 222.97 197.74 214.69 187.12 219.61 193 233.69 179.37 238.42 176.6 228.07 180.6 226.95 182.51 231.04 185.84 230 182.67 221.74 171.12 224.46 173.99 238.81 158.56 241.38 157.97 230.57 163.38 230.42 164.19 235.57 167.63 235.11 166.22 225.79 154.83 226.3 154.7 241.21 139.81 240.07 141.12 230 145.84 230.31 145.84 235.51 149.28 235.97 149.92 226.15 137.71 224.85 134.56 238.13 120.66 234.26 124.3 223.64 128.84 225.37 127.48 231.35 130.38 232.24 132.3 222.68 122.51 219.84 117.18 232.83 103.17 227.11 109.22 215.58 113.89 218.07 111.17 223.78 114.12 225.14 118.19 216.99 108.52 211.7 100.6 224.54 96.64 222.04"/><polygon class="cls-1" points="80.54 207.68 77.82 203.86 90.19 195.22 84.37 185.87 76.46 190.4 77.98 193.26 83.53 190.22 86.28 194.74 75.11 201.44 68.61 187.77 81.27 181.72 77.89 172.11 68.45 174.56 69.5 177.4 75.4 175.71 77.38 180.15 66.98 184.38 62.33 170.72 75.41 166.82 73.43 154.71 63.65 155.9 64.3 159.32 69.5 159.02 70.08 163.71 60.1 165.59 58.11 150.79 72.99 149.81 72.86 138.41 63.47 137.54 63.21 140.99 68.4 141.51 68.55 146.92 57.73 146.95 59.42 131.39 73.91 133.44 75.97 121.77 67.54 119.06 66.7 122.45 70.89 124.12 69.99 128.18 59.51 126 63.46 112.12 77.85 117.19 82.16 106.31 73.6 101.82 72.41 104.84 77.1 107.73 75.24 111.51 65.96 107.94 72.54 94.76 84.66 102.71 92.03 92.8 85.45 86.93 82.7 90.02 87 93.6 83.6 97.4 73.92 89.85 84.73 78.65 95.17 89 103.15 81.43 98.01 74.18 94.86 76.22 97.97 81.03 94.85 84.52 87.37 75.91 98.71 65.94 107.14 79.19 117.97 72.85 113.76 64 110.87 65.53 112.81 70.87 109.38 73 104.02 63.25 116.05 57.1 122.58 70.97 133.64 66.84 130.99 58.44 127.17 59.24 128.05 63.07 124.7 64.74 120.76 54.81 134.02 52.19 137.81 65.93 149.84 64.6 149.44 55.31 146.16 55.61 146.29 60.41 140.88 60.56 139.56 49.99 154.17 49.73 154.89 64.88 166.06 65.54 166.81 56.31 163.9 56.03 163.39 61.56 158.33 60.59 158.54 48.97 173.36 52.14 170.76 66.65 182.78 70 185.35 61.17 182.06 59.98 180.43 65 175.62 63.08 178.66 52.58 191.88 57.58 186.52 71.71 196.93 76.83 201.71 68.47 199.92 67.28 195.47 71.39 191.58 67.91 196.42 60.32 209.14 67.34 200.92 79.46 204.52 82.19 204.12 82.72 200.01 79.61 208.18 67.57 196.65 61.21 192.45 67.79 195.47 70.48 199.85 66.44 202.6 68.26 197.19 77.7 185.68 72.04 191.02 57.97 179.1 53.46 176.43 62.69 180.01 64.12 181.64 59.12 186.16 60.76 183.24 70.82 170 67.13 172.59 52.66 159.19 49.79 159.01 60.04 162.79 60.76 163.3 55.3 167.53 55.71 166.67 66.24 154.26 65.51 153.54 50.41 140.31 50.64 141.47 59.87 145.61 59.76 145.48 55 150.08 54.58 150.53 65.19 137.31 66.66 133.54 52.96 121.67 55.31 125.06 63.82 127.28 62.71 126.36 58.73 131.45 57.66 134.46 67.24 122.24 71.81 115.74 58 104.93 63.53 109.62 72.06 112 70.58 110.05 65.21 114.06 63.08 118.84 73.11 106.93 80.09 98.57 66.96 88.31 75.97 94.86 83.51 97.13 80.96 93.94 76.02 98.18 73.27 104.03 81.51 95.16 89.93 84.74 79.6 74.91 89.78 83.52 96.49 86.04 93.68 81.74 90.09 85.4 85.99 92.93 92.71 84.82 103.62 72.81 95.73 66.88 107.58 74.91 110.67 76.24 107.98 71.58 105.12 73.26 100.88 83 106 78.23 118.04 63.91 112.99 60.34 125.49 69.48 127.39 70.11 124.53 65.91 122.85 67.07 118.21 76.73 121.31 74.45 134.19 60.01 132.15 58.47 146.28 67.87 146.25 67.75 142.12 62.5 141.59 62.86 136.81 73.52 137.8 73.66 150.43 58.87 151.41 60.67 164.81 69.34 163.17 68.91 159.72 63.76 160.01 62.86 155.32 73.98 153.97 76.17 167.29 63.19 171.16 67.39 183.5 76.49 179.79 75.02 176.51 69.09 178.21 67.56 174.1 78.32 171.31 82.1 182.06 69.49 188.09 75.4 200.49 85.36 194.52 83.29 191.11 77.71 194.17 75.57 190.14 84.59 184.97 91.09 195.41 78.76 204.02 81.09 207.29 80.54 207.68"/><path class="cls-1" d="m220.06,79.75l1.61-1.61c1.05-1.05,1.05-2.76,0-3.81s-2.76-1.05-3.82,0l-1.65,1.65c-1.48-.23-2.98.25-4.04,1.31s-1.55,2.57-1.32,4.04l-1.58,1.58c-1.05,1.05-1.05,2.76,0,3.82s2.76,1.05,3.81,0l1.54-1.54c1.53.28,3.06-.19,4.16-1.29s1.57-2.63,1.28-4.15Zm-5.47,4.75l-.18-.04-1.8,1.8c-.79.79-2.08.79-2.87,0s-.79-2.08,0-2.87l1.84-1.84-.04-.18c-.26-1.31.15-2.67,1.1-3.61s2.3-1.35,3.61-1.1l.18.04,1.9-1.9c.79-.79,2.08-.79,2.87,0s.79,2.08,0,2.87l-1.87,1.87.04.18c.3,1.35-.1,2.74-1.07,3.71s-2.37,1.38-3.72,1.07Z"/><path class="cls-1" d="m99.66,209.83l1.61-1.61c1.05-1.05,1.05-2.76,0-3.81s-2.76-1.05-3.82,0l-1.65,1.65c-1.48-.23-2.98.25-4.04,1.31s-1.55,2.57-1.32,4.04l-1.58,1.58c-1.05,1.05-1.05,2.76,0,3.82s2.76,1.05,3.81,0l1.54-1.54c1.51.28,3.06-.19,4.16-1.29s1.56-2.64,1.28-4.15Zm-5.47,4.75l-.18-.04-1.8,1.8c-.79.79-2.08.79-2.86,0s-.79-2.08,0-2.87l1.84-1.84-.04-.17c-.26-1.32.16-2.67,1.1-3.62s2.29-1.36,3.61-1.1l.17.04,1.91-1.91c.79-.79,2.08-.79,2.87,0s.78,2.07,0,2.86l-1.87,1.87.04.18c.3,1.35-.1,2.74-1.07,3.71s-2.37,1.38-3.72,1.07Z"/><path class="cls-1" d="m167.27,148.19l-5.24-4.22c-.26-.21-.35-.56-.23-.87l2.43-6.26c.24-.62-.37-1.23-.99-.99l-6.27,2.43c-.31.12-.66.03-.87-.23l-4.22-5.24c-.42-.52-1.25-.29-1.35.36l-1.03,6.64c-.05.33-.31.59-.64.64l-6.64,1.03c-.65.1-.88.93-.36,1.35l5.24,4.22c.26.21.35.56.23.87l-2.43,6.27c-.24.62.37,1.23.99.99l6.26-2.43c.31-.12.66-.03.87.23l4.22,5.24c.42.52,1.25.29,1.35-.36l1.03-6.64c.05-.33.31-.59.64-.64l6.64-1.03c.65-.1.88-.93.36-1.35Zm-10.45,8.42l-3.57-4.44c-.21-.26-.56-.35-.87-.23l-5.31,2.06c-.62.24-1.23-.37-.99-.99l2.06-5.32c.12-.31.03-.66-.23-.87l-4.44-3.57c-.52-.42-.29-1.25.36-1.35l5.64-.87c.33-.05.59-.31.64-.64l.87-5.63c.1-.66.93-.88,1.35-.36l3.57,4.44c.21.26.56.35.87.23l5.32-2.06c.62-.24,1.23.37.99.99l-2.06,5.31c-.12.31-.03.66.23.87l4.44,3.57c.52.42.29,1.25-.36,1.35l-5.63.87c-.33.05-.59.31-.64.64l-.87,5.64c-.1.66-.93.88-1.35.36Z"/><path class="cls-1" d="m136.92,169.62l-.26-.22c-1.63-1.36-3.17-2.89-4.56-4.53l-.2-.25-8.04,6.44.18.25c1.06,1.47,2.24,2.85,3.51,4.12.73.73,1.49,1.44,2.29,2.09l.25.21,6.84-8.11Zm-12.15,1.56l7.04-5.64c1.28,1.49,2.69,2.89,4.18,4.15l-5.98,7.09c-1.94-1.63-3.71-3.52-5.24-5.61Z"/><path class="cls-1" d="m126.96,181.46l-.26-.22c-2.39-1.98-4.56-4.29-6.44-6.85l-.2-.28-9.31,7.45.18.26c1.15,1.61,2.4,3.11,3.76,4.47s2.96,2.69,4.6,3.82l.25.17,7.42-8.82Zm-15.3.23l8.27-6.63c1.8,2.4,3.85,4.58,6.1,6.48l-6.6,7.85c-2.96-2.06-5.56-4.65-7.76-7.7Z"/><path class="cls-1" d="m116.39,194.03l-.3-.21c-3.42-2.41-6.42-5.42-8.93-8.92l-.21-.28-7.52,6.04.15.25c1.48,2.37,3.16,4.5,5.05,6.39,1.57,1.57,3.28,2.97,5.12,4.19l.25.16,6.4-7.62Zm-16.08-3.22l6.51-5.23c2.44,3.33,5.33,6.22,8.59,8.58l-5.55,6.6c-3.78-2.54-7-5.88-9.55-9.95Z"/><path class="cls-1" d="m128.68,159.92c-.94-1.92-1.73-3.93-2.33-6l-.09-.31-9.97,2.62.07.31c.59,2.81,1.52,5.51,2.76,8.03l.15.29,9.54-4.63-.14-.3Zm-9.09,4.04c-1.1-2.29-1.94-4.73-2.5-7.25l8.73-2.29c.57,1.88,1.28,3.73,2.12,5.49l-8.34,4.06Z"/><path class="cls-1" d="m114.76,166.69c-1.38-2.79-2.42-5.78-3.1-8.88l-.07-.34-11.53,3.03.06.31c.79,3.96,2.23,7.66,4.26,10.97l.16.25,10.37-5.03-.15-.3Zm-9.96,4.48c-1.86-3.09-3.19-6.51-3.95-10.19l10.25-2.69c.66,2.93,1.65,5.75,2.93,8.4l-9.22,4.48Z"/><path class="cls-1" d="m99.95,173.86c-2.14-3.59-3.66-7.57-4.53-11.79l-.07-.34-9.33,2.45.04.29c.69,5.07,2.37,9.71,4.98,13.8l.16.25,8.95-4.35-.19-.32Zm-8.51,3.8c-2.42-3.86-4-8.22-4.68-12.98l8.08-2.13c.87,4.05,2.34,7.86,4.36,11.34l-7.76,3.78Z"/><path class="cls-1" d="m125.25,148.01c-.09-2.14.02-4.29.32-6.43l.04-.33-10.17-1.65-.06.3c-.6,2.81-.86,5.65-.74,8.46l.02.33,10.59-.35v-.33Zm-9.95,0c-.08-2.53.14-5.11.66-7.64l8.9,1.45c-.25,1.96-.35,3.94-.29,5.89l-9.27.3Z"/><path class="cls-1" d="m109.78,148.54c-.13-3.11.14-6.27.79-9.38l.07-.34-11.76-1.92-.08.3c-.88,3.95-1.07,7.91-.57,11.75l.04.3,11.53-.4v-.33Zm-10.92.04c-.44-3.58-.26-7.25.53-10.91l10.46,1.7c-.58,2.94-.83,5.92-.74,8.86l-10.25.35Z"/><path class="cls-1" d="m93.34,149.07c-.49-4.16-.27-8.4.65-12.62l.07-.34-9.52-1.56-.08.28c-1.43,4.91-1.79,9.84-1.07,14.63l.05.29,9.94-.34-.04-.35Zm-9.33,0c-.64-4.51-.3-9.14,1-13.76l8.24,1.34c-.85,4.04-1.05,8.12-.63,12.13l-8.62.29Z"/><path class="cls-1" d="m126.94,135.74c.8-1.99,1.77-3.91,2.91-5.74l.16-.28-8.61-5.65-.18.25c-1.7,2.32-3.08,4.82-4.12,7.42l-.12.3,9.82,4,.13-.31Zm-9.08-4.04c.95-2.35,2.21-4.61,3.71-6.72l7.54,4.95c-1.03,1.69-1.92,3.46-2.66,5.26l-8.59-3.49Z"/><path class="cls-1" d="m112.61,129.92c1.15-2.89,2.67-5.66,4.53-8.24l.2-.28-9.97-6.55-.18.25c-2.43,3.25-4.21,6.78-5.3,10.51l-.08.3,10.68,4.32.13-.31Zm-10.01-4.41c1.06-3.45,2.71-6.72,4.93-9.75l8.86,5.81c-1.73,2.45-3.17,5.08-4.28,7.79l-9.5-3.85Z"/><path class="cls-1" d="m97.37,123.72c1.24-4,3.17-7.78,5.72-11.25l.21-.29-8.07-5.3-.19.23c-3.3,3.9-5.63,8.26-6.92,12.93l-.07.28,9.22,3.73.11-.35Zm-8.53-3.78c1.25-4.39,3.44-8.48,6.51-12.17l6.99,4.58c-2.42,3.35-4.26,6.99-5.5,10.82l-8-3.23Z"/><path class="cls-1" d="m133.18,112.3l-.27.16c-2.49,1.43-4.77,3.15-6.77,5.12l-.23.23,7.35,7.64.23-.23c1.54-1.49,3.22-2.85,4.99-4.06l.27-.18-5.57-8.67Zm.09,12.2l-6.43-6.68c1.83-1.76,3.89-3.31,6.12-4.62l4.87,7.59c-1.62,1.12-3.15,2.38-4.57,3.72Z"/><path class="cls-1" d="m124.12,98.18l-.28.16c-3.53,1.97-6.6,4.49-9.11,7.45l-.2.23,8,8.3.24-.24c2.22-2.16,4.74-4.08,7.49-5.68l.3-.18-6.43-10.03Zm-1.58,15.18l-7.11-7.38c2.35-2.72,5.2-5.05,8.46-6.91l5.73,8.91c-2.57,1.54-4.96,3.34-7.08,5.38Z"/><path class="cls-1" d="m121.47,94.08l-5.21-8.11-.27.13c-4.61,2.22-8.5,5.25-11.58,8.99l-.19.23,6.91,7.16.24-.27c2.76-3.15,6.05-5.83,9.8-7.96l.3-.18Zm-10.37,7.42l-5.99-6.22c2.93-3.49,6.6-6.34,10.9-8.46l4.53,7.03c-3.58,2.08-6.75,4.65-9.43,7.65Z"/><path class="cls-1" d="m148.73,106.34l-.32.04c-2.85.29-5.64.94-8.27,1.92l-.31.11,3.61,9.98.31-.11c2-.74,4.09-1.3,6.21-1.68l.33-.06-1.56-10.19Zm-4.89,11.18l-3.15-8.71c2.39-.86,4.9-1.45,7.47-1.73l1.37,8.91c-1.94.37-3.85.88-5.69,1.53Z"/><path class="cls-1" d="m146.18,89.75l-.31.03c-4.02.37-7.85,1.41-11.36,3.1l-.27.13,3.93,10.83.31-.11c2.92-1.08,6-1.8,9.16-2.15l.34-.04-1.81-11.78Zm-7.6,13.23l-3.5-9.64c3.27-1.53,6.8-2.49,10.54-2.86l1.61,10.47c-2.98.35-5.89,1.04-8.65,2.03Z"/><path class="cls-1" d="m143.98,75.4h-.3c-5.11.16-9.9,1.34-14.24,3.52l-.27.13,3.4,9.36.33-.16c3.8-1.75,7.91-2.86,12.19-3.28l.36-.04-1.47-9.53Zm-11.03,12.09l-2.95-8.11c4.1-2.01,8.61-3.11,13.41-3.3l1.27,8.25c-4.11.45-8.05,1.51-11.72,3.15Z"/><path class="cls-1" d="m165.35,107.23l-.31-.1c-2.72-.9-5.52-1.44-8.33-1.61l-.33-.02-.75,10.58.33.02c2.13.15,4.26.47,6.35.99l.32.08,2.72-9.93Zm-9.02,8.22l.66-9.25c2.53.18,5.06.68,7.53,1.46l-2.38,8.7c-1.91-.45-3.87-.76-5.82-.91Z"/><path class="cls-1" d="m169.77,91.03l-.3-.1c-3.83-1.3-7.75-1.91-11.64-1.8h-.3s-.81,11.5-.81,11.5l.33.02c3.1.2,6.22.8,9.24,1.76l.33.11,3.14-11.5Zm-12.34,8.99l.73-10.22c3.61-.07,7.23.49,10.8,1.66l-2.79,10.22c-2.87-.89-5.81-1.45-8.74-1.67Z"/><path class="cls-1" d="m173.6,77.02l-.27-.11c-4.74-1.94-9.6-2.81-14.45-2.58h-.3s-.7,9.93-.7,9.93h.36c4.19-.06,8.39.6,12.47,1.96l.33.11,2.55-9.31Zm-15,6.57l.61-8.61c4.56-.16,9.13.66,13.59,2.43l-2.2,8.07c-3.95-1.27-7.97-1.9-12-1.89Z"/><path class="cls-1" d="m180.18,114.79l-.23-.22c-2.13-1.92-4.47-3.56-6.97-4.86l-.28-.16-5,9.35.3.16c1.89,1,3.71,2.18,5.4,3.49l.25.2,6.53-7.97Zm-11.58,3.85l4.37-8.17c2.24,1.19,4.36,2.67,6.29,4.4l-5.71,6.98c-1.57-1.2-3.23-2.27-4.96-3.2Z"/><path class="cls-1" d="m190.8,101.79l-.23-.21c-2.98-2.75-6.31-4.89-9.9-6.38l-.28-.11-5.42,10.18.3.16c2.75,1.44,5.35,3.25,7.72,5.36l.26.23,7.54-9.23Zm-14.92,3.2l4.82-9.04c3.32,1.4,6.41,3.39,9.19,5.91l-6.7,8.2c-2.26-1.98-4.72-3.68-7.3-5.07Z"/><path class="cls-1" d="m200,90.55l-.2-.21c-3.54-3.7-7.62-6.46-12.14-8.24l-.28-.11-4.68,8.78.33.15c3.84,1.65,7.41,3.96,10.6,6.87l.26.23,6.1-7.47Zm-16.36-.1l4.05-7.62c4.24,1.7,8.08,4.31,11.43,7.75l-5.3,6.47c-3.08-2.76-6.51-4.98-10.18-6.6Z"/><path class="cls-1" d="m190.51,127.44c-1.16-2.62-2.63-5.06-4.38-7.27l-.2-.25-8.37,6.51.21.26c1.32,1.68,2.5,3.49,3.52,5.39l.15.29,9.2-4.63-.13-.3Zm-8.79,4.04c-.95-1.73-2.03-3.39-3.22-4.94l7.32-5.69c1.56,2.01,2.89,4.21,3.96,6.58l-8.05,4.05Z"/><path class="cls-1" d="m205.52,119.88c-1.6-3.72-3.78-7.03-6.45-9.84l-.21-.22-9.09,7.09.21.27c1.92,2.44,3.56,5.15,4.86,8.05l.15.32,10.65-5.36-.13-.3Zm-10.2,4.74c-1.26-2.73-2.81-5.28-4.6-7.6l8.08-6.3c2.46,2.63,4.48,5.71,5.98,9.14l-9.46,4.77Z"/><path class="cls-1" d="m218.51,113.37c-1.73-4.82-4.33-9-7.74-12.45l-.21-.21-7.84,6.12.25.26c2.84,3.08,5.15,6.64,6.89,10.59l.14.31,8.62-4.33-.1-.28Zm-8.2,3.71c-1.7-3.78-3.92-7.2-6.62-10.18l6.8-5.3c3.17,3.27,5.62,7.22,7.28,11.72l-7.47,3.76Z"/><path class="cls-1" d="m194.94,143.49c0-2.86-.34-5.7-1.04-8.42l-.08-.32-10.3,2.55.08.33c.52,2.07.86,4.21,1.02,6.35l.02.33,10.3-.49v-.32Zm-9.67.11c-.16-1.97-.47-3.92-.93-5.82l8.99-2.23c.61,2.48.92,5.03.94,7.63l-9.01.42Z"/><path class="cls-1" d="m211.73,142.7c.05-4.05-.59-7.95-1.89-11.62l-.11-.29-11.19,2.79.08.33c.76,3.01,1.16,6.15,1.18,9.33v.35l11.91-.57v-.32Zm-11.26.18c-.04-3.01-.41-5.97-1.12-8.82l9.95-2.47c1.17,3.41,1.77,7.03,1.75,10.79l-10.59.5Z"/><path class="cls-1" d="m226.24,142.02c.37-5.1-.3-9.98-2-14.53l-.11-.28-9.65,2.4.11.34c1.34,3.96,2.01,8.16,1.99,12.47v.35s9.63-.46,9.63-.46l.02-.29Zm-8.99.06c0-4.14-.65-8.17-1.91-11.99l8.38-2.09c1.56,4.29,2.2,8.89,1.88,13.68l-8.35.4Z"/><path class="cls-1" d="m192.46,159.96c1.17-2.62,2.01-5.35,2.48-8.12l.06-.33-10.44-1.87-.06.33c-.37,2.11-.92,4.2-1.64,6.22l-.12.3,9.6,3.73.13-.28Zm-8.88-3.83c.66-1.86,1.16-3.78,1.51-5.7l9.14,1.63c-.45,2.5-1.21,4.97-2.25,7.34l-8.4-3.27Z"/><path class="cls-1" d="m208.11,166.05c1.7-3.68,2.7-7.51,3-11.38l.03-.3-11.36-2.01-.06.33c-.52,3.07-1.44,6.1-2.72,9.01l-.13.32,11.1,4.33.13-.29Zm-10.35-4.41c1.18-2.75,2.05-5.61,2.57-8.51l10.09,1.79c-.31,3.59-1.24,7.14-2.79,10.56l-9.87-3.85Z"/><path class="cls-1" d="m221.65,171.35c2.42-4.51,3.79-9.25,4.08-14.09v-.3s-9.78-1.73-9.78-1.73l-.04.36c-.38,4.17-1.48,8.27-3.25,12.2l-.15.32,8.99,3.49.14-.25Zm-8.24-3.61c1.67-3.78,2.73-7.72,3.13-11.73l8.5,1.51c-.32,4.55-1.61,9-3.85,13.25l-7.79-3.03Z"/><path class="cls-1" d="m189.06,167.57l.18-.27-8.78-5.95-.19.28c-1.19,1.77-2.55,3.46-4.04,5.01l-.23.24,7.25,7.32.23-.22c2.14-1.92,4.01-4.07,5.56-6.41Zm-5.78,5.71l-6.34-6.41c1.35-1.44,2.6-2.98,3.7-4.59l7.67,5.2c-1.42,2.1-3.12,4.05-5.03,5.8Z"/><path class="cls-1" d="m202.68,176.74l.15-.26-9.55-6.46-.18.28c-1.73,2.58-3.79,4.98-6.14,7.12l-.26.23,8.39,8.47.24-.21c3.04-2.67,5.52-5.76,7.37-9.18Zm-7.58,8.47l-7.45-7.53c2.19-2.04,4.14-4.3,5.8-6.73l8.5,5.74c-1.75,3.16-4.05,6.02-6.85,8.52Z"/><path class="cls-1" d="m214.99,185.06l.14-.27-8.24-5.57-.18.32c-2.05,3.65-4.72,6.95-7.94,9.82l-.26.23,6.8,6.85.23-.18c4.04-3.13,7.23-6.9,9.45-11.21Zm-9.63,10.49l-5.88-5.93c3.07-2.79,5.64-5.96,7.64-9.45l7.15,4.83c-2.14,4.03-5.13,7.58-8.9,10.54Z"/><path class="cls-1" d="m171.96,170.39l-.28.18c-1.81,1.13-3.73,2.12-5.73,2.93l-.3.13,3.65,9.63.3-.1c2.73-.88,5.32-2.08,7.69-3.59l.28-.18-5.61-9Zm-2.26,12.04l-3.2-8.43c1.82-.76,3.59-1.66,5.25-2.69l4.9,7.87c-2.16,1.34-4.5,2.43-6.95,3.25Z"/><path class="cls-1" d="m180.15,183.52l-.29.18c-2.62,1.66-5.48,3.01-8.51,4.01l-.33.11,4.22,11.15.3-.1c3.87-1.2,7.4-3.01,10.47-5.38l.23-.19-6.1-9.77Zm-4.5,14.62l-3.75-9.91c2.84-.97,5.54-2.24,8.04-3.78l5.42,8.69c-2.87,2.18-6.14,3.85-9.72,5.01Z"/><path class="cls-1" d="m188.83,197.45l-.29.22c-3.35,2.5-7.13,4.43-11.24,5.74l-.33.11,3.42,9.03.29-.08c4.96-1.22,9.4-3.37,13.19-6.39l.23-.19-5.27-8.44Zm-8.04,14.3l-2.96-7.82c3.93-1.29,7.57-3.14,10.82-5.52l4.56,7.32c-3.59,2.81-7.76,4.84-12.42,6.02Z"/><path class="cls-1" d="m160.53,175.18l-.34.04c-2.11.3-4.27.42-6.42.35h-.33s-.58,10.27-.58,10.27l.32.04c2.84.31,5.7.25,8.49-.16l.32-.05-1.45-10.5Zm-6.97,10.07l.51-8.99c1.98.04,3.95-.06,5.89-.32l1.27,9.18c-2.52.35-5.09.4-7.67.13Z"/><path class="cls-1" d="m162.66,190.5l-.33.05c-3.08.45-6.24.52-9.4.2l-.35-.04-.68,11.91.31.03c4.02.47,7.98.25,11.75-.66l.29-.06-1.59-11.42Zm-10.05,11.53l.6-10.59c2.99.28,5.98.22,8.88-.18l1.43,10.15c-3.51.81-7.18,1.02-10.91.62Z"/><path class="cls-1" d="m164.94,206.77l-.36.08c-4.08.93-8.32,1.15-12.61.67l-.35-.04-.55,9.63.29.06c5.03.91,9.96.74,14.67-.48l.28-.07-1.37-9.86Zm-13.17,9.8l.47-8.35c4.12.42,8.19.21,12.13-.64l1.19,8.55c-4.43,1.1-9.06,1.26-13.8.45Z"/><path class="cls-1" d="m148.14,174.9l-.33-.08c-2.06-.59-4.08-1.36-6.02-2.3l-.29-.13-4.72,9.15.28.16c2.48,1.44,5.11,2.55,7.82,3.31l.31.08,2.95-10.19Zm-10.47,6.37l4.14-8.01c1.78.84,3.63,1.55,5.51,2.1l-2.57,8.91c-2.45-.71-4.82-1.72-7.07-3Z"/><path class="cls-1" d="m143.84,189.78l-.32-.09c-2.99-.84-5.91-2.06-8.68-3.64l-.3-.17-5.47,10.59.27.17c3.48,2.06,7.18,3.46,11,4.17l.3.05,3.18-11.07Zm-13.87,6.43l4.85-9.42c2.62,1.46,5.38,2.62,8.2,3.44l-2.84,9.85c-3.54-.68-6.97-1.99-10.21-3.87Z"/><path class="cls-1" d="m139.3,205.56l-.35-.07c-4.1-.82-8.07-2.34-11.79-4.51l-.3-.18-4.42,8.58.25.16c4.22,2.88,8.8,4.74,13.58,5.52l.29.05,2.75-9.55Zm-16.01,3.59l3.83-7.42c3.59,2.06,7.4,3.52,11.34,4.34l-2.39,8.29c-4.49-.78-8.8-2.53-12.78-5.2Z"/><path class="cls-1" d="m154.83,169.12c-13.23,0-24-10.76-24-24s10.77-24,24-24,24,10.77,24,24-10.76,24-24,24Zm0-46.99c-12.68,0-23,10.32-23,23s10.32,23,23,23,23-10.32,23-23-10.32-23-23-23Z"/><path class="cls-1" d="m154.23,250.28c-57.98,0-105.16-47.17-105.16-105.16s47.17-105.16,105.16-105.16,105.16,47.17,105.16,105.16-47.17,105.16-105.16,105.16Zm0-209.32c-57.43,0-104.16,46.73-104.16,104.16s46.73,104.16,104.16,104.16,104.16-46.73,104.16-104.16-46.73-104.16-104.16-104.16Z"/></g></svg>