<svg width="274" height="297" viewBox="0 0 274 297" fill="none" xmlns="http://www.w3.org/2000/svg">
<g clip-path="url(#clip0_400_29806)">
<path d="M7.60147 3.12609L7.60147 18.767L3.21184 18.767L3.21184 12.7336L-1.45998 12.7336L-1.45998 18.767L-5.84961 18.767L-5.84961 3.12609L-1.45998 3.12609L-1.45998 9.01356L3.21184 9.01356L3.21184 3.12609L7.60147 3.12609Z" fill="#EC6342"/>
<path d="M20.9801 15.6826L15.7543 15.6826L14.8555 18.767L10.3613 18.767L15.1481 3.12609L21.5758 3.12609L26.3626 18.767L21.8684 18.767L20.9905 15.6826L20.9801 15.6826ZM19.9036 11.9625L18.3672 6.60647L16.8099 11.9625L19.9036 11.9625Z" fill="#EC6342"/>
<path d="M34.2316 9.49289L41.4745 9.49289L41.4745 15.1407C41.4745 17.6624 40.1158 18.9962 37.5448 18.9962L32.3399 18.9962C29.7688 18.9962 28.4102 17.6624 28.4102 15.1407L28.4102 6.76277C28.4102 4.25147 29.7688 2.90724 32.3399 2.90724L37.5448 2.90724C40.1158 2.90724 41.4745 4.24105 41.4745 6.76277C41.4745 6.96075 41.4745 7.02327 41.4536 7.11706L37.0849 7.63807L37.0849 7.48177C37.0849 6.84613 36.8654 6.6273 36.207 6.6273L33.6777 6.6273C33.0193 6.6273 32.7998 6.84613 32.7998 7.48177L32.7998 14.4217C32.7998 15.0574 33.0193 15.2762 33.6777 15.2762L36.207 15.2762C36.8654 15.2762 37.0849 15.0574 37.0849 14.4217L37.0849 13.2129L34.2316 13.2129L34.2316 9.49289Z" fill="#EC6342"/>
<path d="M49.3975 6.84606L49.3975 8.93013L55.2816 8.93013L55.2816 12.6502L49.3975 12.6502L49.3975 15.0573L56.2014 15.0573L56.2014 18.7773L45.0078 18.7773L45.0078 3.13643L56.2014 3.13643L56.2014 6.85649L49.3975 6.85649L49.3975 6.84606Z" fill="#EC6342"/>
<path d="M73.268 3.12609L73.268 18.767L69.0352 18.767L63.9453 10.4099L63.9453 18.767L59.5557 18.767L59.5557 3.12609L63.7885 3.12609L68.8784 11.4832L68.8784 3.12609L73.268 3.12609Z" fill="#EC6342"/>
<path d="M82.0059 9.27408L92.9799 9.27408L92.9799 12.9941L82.0059 12.9941L82.0059 9.27408Z" fill="#EC6342"/>
<path d="M106.148 6.84606L106.148 8.93013L112.033 8.93013L112.033 12.6502L106.148 12.6502L106.148 15.0573L112.952 15.0573L112.952 18.7773L101.759 18.7773L101.759 3.13643L112.952 3.13643L112.952 6.85649L106.148 6.85649L106.148 6.84606Z" fill="#EC6342"/>
<path d="M115.607 15.1408C115.607 14.8803 115.607 14.8594 115.628 14.7865L119.997 14.2655L119.997 14.4218C119.997 15.0574 120.217 15.2763 120.875 15.2763L123.467 15.2763C124.125 15.2763 124.345 15.0574 124.345 14.4218L124.345 13.9841C124.345 13.4318 124.125 13.3276 122.965 13.1505L119.454 12.6503C116.736 12.2543 115.681 11.2748 115.681 9.06572L115.681 6.76284C115.681 4.25154 117.039 2.90731 119.61 2.90731L124.742 2.90731C127.313 2.90731 128.672 4.24112 128.672 6.76284C128.672 7.0025 128.672 7.02334 128.651 7.11712L124.282 7.63814L124.282 7.48184C124.282 6.8462 124.063 6.62737 123.404 6.62737L120.99 6.62737C120.311 6.62737 120.07 6.86704 120.07 7.48184L120.07 7.85696C120.07 8.41966 120.227 8.51346 121.471 8.6906L124.982 9.19076C127.721 9.58673 128.735 10.5663 128.735 12.8275L128.735 15.1512C128.735 17.6729 127.376 19.0067 124.805 19.0067L119.537 19.0067C116.966 19.0067 115.607 17.6729 115.607 15.1512L115.607 15.1408Z" fill="#EC6342"/>
<path d="M144.788 7.99235L140.524 7.6068L139.458 19.486L135.089 19.09L136.155 7.21082L131.891 6.82528L132.225 3.11565L145.122 4.27229L144.788 7.98195L144.788 7.99235Z" fill="#EC6342"/>
<path d="M154.352 18.7982L149.23 17.777L147.736 20.6218L143.325 19.7361L151.101 5.33517L157.403 6.59602L159.002 22.8726L154.592 21.9868L154.341 18.7878L154.352 18.7982ZM154.028 14.9427L153.578 9.38866L150.997 14.3383L154.028 14.9427Z" fill="#EC6342"/>
<path d="M174.94 22.685L174.512 23.9667C173.707 26.3529 171.993 27.1866 169.558 26.3738L161.207 23.5915L166.192 8.75302L174.251 11.4414C176.686 12.2542 177.553 13.9528 176.748 16.339L176.424 17.2977C176.069 18.3605 175.452 18.9545 174.209 19.2775C175.254 20.2258 175.421 21.247 174.94 22.685ZM170.791 21.2574C170.99 20.653 170.854 20.3821 170.227 20.1737L167.311 19.2046L166.506 21.5909L169.422 22.5599C170.049 22.7683 170.321 22.6329 170.53 22.0285L170.791 21.2574ZM171.836 14.4321L169.213 13.5568L168.46 15.7972L171.084 16.6725C171.711 16.8809 171.983 16.7454 172.192 16.141L172.401 15.5158C172.599 14.9114 172.463 14.6405 171.836 14.4321Z" fill="#EC6342"/>
<path d="M187.431 30.0418L185.852 33.418L175.913 28.7913L182.55 14.6197L186.532 16.4745L181.473 27.2804L187.441 30.0522L187.431 30.0418Z" fill="#EC6342"/>
<path d="M195.729 21.0803L199.544 23.2477L191.768 36.8358L187.953 34.6684L195.729 21.0803Z" fill="#EC6342"/>
<path d="M196.544 35.3249C196.69 35.1061 196.711 35.0956 196.763 35.054L200.651 37.1172L200.568 37.2422C200.202 37.7633 200.254 38.0654 200.798 38.4406L202.919 39.9203C203.463 40.2954 203.766 40.2433 204.132 39.7223L204.383 39.368C204.696 38.9199 204.581 38.7011 203.724 37.8987L201.132 35.4812C199.125 33.6055 198.822 32.1988 200.097 30.3857L201.414 28.4996C202.857 26.4364 204.738 26.1134 206.849 27.5826L211.061 30.5107C213.172 31.98 213.517 33.8452 212.075 35.9084C211.939 36.1064 211.929 36.1273 211.855 36.1794L207.967 34.1161L208.051 33.9911C208.417 33.4701 208.365 33.1679 207.821 32.7928L205.846 31.4173C205.292 31.0317 204.947 31.0943 204.602 31.5944L204.393 31.8966C204.069 32.3655 204.142 32.5218 205.072 33.3763L207.664 35.7938C209.692 37.6799 209.953 39.0658 208.657 40.9206L207.33 42.8275C205.888 44.8908 204.006 45.2138 201.895 43.7445L197.579 40.7331C195.467 39.2638 195.122 37.3985 196.565 35.3353L196.544 35.3249Z" fill="#EC6342"/>
<path d="M228.034 44.9845L217.531 56.6031L214.27 53.675L218.325 49.1943L214.855 46.0786L210.8 50.5594L207.539 47.6313L218.043 36.0126L221.304 38.9407L217.353 43.3172L220.823 46.4329L224.774 42.0668L228.034 44.9949L228.034 44.9845Z" fill="#EC6342"/>
<path d="M231.671 54.4253L230.103 55.8008L233.981 60.2086L231.18 62.6574L227.302 58.2496L225.484 59.8335L229.968 64.929L227.167 67.3882L219.777 58.9998L231.567 48.6733L238.956 57.0617L236.155 59.5209L231.671 54.4253Z" fill="#EC6342"/>
<path d="M245.969 73.4007L239.416 77.9231C237.336 79.3507 235.465 78.9964 234.002 76.8915L229.017 69.7119L241.924 60.813L246.91 67.9926C248.373 70.0975 248.038 71.9731 245.969 73.4007ZM242.875 70.2121C243.398 69.8474 243.45 69.5452 243.084 69.0033L241.36 66.5233L234.587 71.1916L236.312 73.6716C236.688 74.2135 236.991 74.2656 237.514 73.9113L242.875 70.2121Z" fill="#EC6342"/>
<path d="M249.209 97.1591L245.844 98.7534L240.231 86.9889L245.008 84.7277C246.868 83.8419 247.903 84.2275 249.91 86.5512L251.864 88.8229C253.014 90.1671 253.191 90.2817 253.745 90.0108L254.122 89.8336C254.696 89.5627 254.801 89.2709 254.519 88.677L253.578 86.6971C253.296 86.1031 253.003 85.999 252.428 86.2699L252.292 86.3324L250.892 82.1747C250.965 82.1226 250.986 82.1122 251.195 82.008C253.474 80.9242 255.271 81.5807 256.369 83.894L258.459 88.281C259.556 90.5943 258.94 92.397 256.661 93.4703L254.278 94.5957C252.554 95.4085 251.498 94.9396 249.272 92.3449L247.318 90.0733C246.398 89.0104 246.304 88.9583 245.739 89.2188L245.478 89.3439L249.199 97.1487L249.209 97.1591Z" fill="#EC6342"/>
<path d="M262.357 109.632L254.382 112.289C251.989 113.092 250.285 112.227 249.47 109.799L247.819 104.881C247.004 102.453 247.84 100.744 250.233 99.9413L258.208 97.2841C260.601 96.4817 262.305 97.3466 263.12 99.7746L264.771 104.693C265.586 107.121 264.75 108.83 262.357 109.632ZM260.81 104.61L260.005 102.223C259.796 101.598 259.514 101.463 258.918 101.661L252.323 103.859C251.717 104.057 251.581 104.339 251.79 104.964L252.595 107.35C252.804 107.975 253.086 108.111 253.682 107.913L260.277 105.714C260.883 105.516 261.019 105.235 260.81 104.61Z" fill="#EC6342"/>
<path d="M257.873 127.857L254.215 128.608L251.759 116.749L255.417 115.999L256.222 119.875L263.235 118.437L260.747 116.041L263.694 113.383L267.98 117.625L268.837 121.761L257.12 124.168L257.883 127.857L257.873 127.857Z" fill="#EC6342"/>
<path d="M258.291 144.342L258.072 141.81L255.49 142.029L255.114 137.673L257.696 137.454L257.037 129.785L260.643 129.483L270.311 131.213L270.697 135.704L261.145 134.016L261.417 137.173L266.6 136.735L266.977 141.091L261.793 141.529L262.012 144.04L258.291 144.353L258.291 144.342Z" fill="#EC6342"/>
<path d="M264.05 166.475L262.221 177.26L258.542 176.645L260.371 165.86L264.05 166.475Z" fill="#EC6342"/>
<path d="M260.424 204.207L245.614 199.049L247.067 194.923L254.979 197.684L251.373 193.182L251.875 191.755L257.508 190.473L249.596 187.712L251.049 183.585L265.859 188.743L264.458 192.734L257.153 194.412L261.825 200.237L260.424 204.228L260.424 204.207Z" fill="#EC6342"/>
<path d="M252.878 211.241L251.017 210.313L248.384 215.555L245.05 213.888L247.683 208.646L245.53 207.562L242.479 213.627L239.145 211.96L244.161 201.988L258.187 209L253.17 218.973L249.836 217.305L252.888 211.241L252.878 211.241Z" fill="#EC6342"/>
<path d="M235.193 223.87L238.078 219.525L235.988 217.076L238.465 213.335L248.916 225.944L245.373 231.289L229.644 226.642L232.131 222.901L235.193 223.87ZM238.904 225.027L244.234 226.704L240.607 222.453L238.904 225.027Z" fill="#EC6342"/>
<path d="M230.751 243.835L233.479 240.553L224.271 232.946L227.072 229.57L236.28 237.177L239.008 233.894L241.882 236.27L233.626 246.211L230.751 243.835Z" fill="#EC6342"/>
<path d="M219.025 255.131L217.165 253.214C215.419 251.401 215.472 249.504 217.311 247.722L220.405 244.753L216.736 240.96L219.893 237.927L230.773 249.192L224.512 255.194C222.662 256.965 220.76 256.944 219.004 255.131L219.025 255.131ZM221.68 251.578C222.119 252.036 222.432 252.036 222.903 251.578L225.035 249.525L222.997 247.41L220.865 249.452C220.394 249.911 220.384 250.213 220.823 250.671L221.68 251.557L221.68 251.578Z" fill="#EC6342"/>
<path d="M211.354 250.932L216.433 257.611C217.959 259.612 217.687 261.498 215.639 263.04L211.5 266.177C209.452 267.719 207.56 267.479 206.034 265.479C205.919 265.322 205.877 265.27 205.835 265.187L208.992 262.134L209.086 262.259C209.472 262.759 209.776 262.811 210.298 262.405L212.305 260.883C212.827 260.487 212.869 260.185 212.482 259.674L208.281 254.152C207.894 253.651 207.591 253.599 207.069 254.006L205.062 255.527C204.539 255.923 204.498 256.225 204.884 256.736L204.978 256.861L201.184 259.07C201.111 259.018 201.069 258.966 200.954 258.809C199.429 256.809 199.7 254.923 201.749 253.37L205.888 250.234C207.936 248.681 209.828 248.931 211.354 250.932Z" fill="#EC6342"/>
<path d="M190.054 264.707L194.569 262.092L193.785 258.976L197.673 256.726L201.425 272.658L195.865 275.878L183.835 264.749L187.723 262.498L190.033 264.728L190.054 264.707ZM192.865 267.385L196.899 271.251L195.541 265.833L192.865 267.385Z" fill="#EC6342"/>
<path d="M179.08 273.346L180.073 272.929L177.742 267.354L181.797 265.666L187.838 280.109L183.783 281.797L181.505 276.368L180.491 276.785L179.341 283.641L174.638 285.6L176.195 276.534L168.398 271.241L173.112 269.282L179.069 273.346L179.08 273.346Z" fill="#EC6342"/>
<path d="M170.718 286.757L166.527 288.049L161.887 273.096L166.078 271.804L170.718 286.757Z" fill="#EC6342"/>
<path d="M148.457 292.248L145.279 276.92L149.429 276.066L156.118 283.224L154.414 275.034L158.709 274.148L161.887 289.476L157.737 290.331L151.049 283.172L152.752 291.363L148.457 292.248Z" fill="#EC6342"/>
<path d="M137.21 287.028L129.988 287.59L129.539 281.963C129.34 279.452 130.595 278.014 133.155 277.816L138.339 277.41C140.9 277.212 142.363 278.431 142.562 280.942L143.22 289.299C143.419 291.811 142.164 293.249 139.604 293.447L134.42 293.853C131.859 294.051 130.396 292.832 130.197 290.321C130.176 290.123 130.176 290.06 130.197 289.966L134.514 289.101L134.514 289.258C134.577 289.893 134.817 290.091 135.465 290.039L137.984 289.841C138.642 289.789 138.841 289.549 138.789 288.924L138.245 282.005C138.193 281.369 137.963 281.171 137.304 281.224L134.786 281.422C134.127 281.474 133.929 281.713 133.981 282.339L134.075 283.537L136.918 283.318L137.21 287.028Z" fill="#EC6342"/>
<path d="M107.654 290.029L107.654 282.089C107.654 279.577 109.013 278.233 111.584 278.233L120.342 278.233L120.342 293.874L111.584 293.874C109.013 293.874 107.654 292.54 107.654 290.018L107.654 290.029ZM112.044 289.31C112.044 289.945 112.263 290.164 112.922 290.164L115.953 290.164L115.953 281.963L112.922 281.963C112.263 281.963 112.044 282.182 112.044 282.818L112.044 289.32L112.044 289.31Z" fill="#EC6342"/>
<path d="M104.143 293.874L99.7529 293.874L99.7529 278.233L104.143 278.233L104.143 293.874Z" fill="#EC6342"/>
<path d="M96.3244 281.87C96.3244 282.13 96.3243 282.151 96.3034 282.224L91.9347 282.745L91.9347 282.589C91.9347 281.953 91.7152 281.734 91.0568 281.734L88.4648 281.734C87.8064 281.734 87.5869 281.953 87.5869 282.589L87.5869 283.026C87.5869 283.568 87.8064 283.683 88.9665 283.86L92.4782 284.36C95.1956 284.756 96.2512 285.736 96.2512 287.945L96.2512 290.248C96.2512 292.759 94.8925 294.103 92.3214 294.103L87.1897 294.103C84.6187 294.103 83.26 292.769 83.26 290.248C83.26 290.008 83.26 289.987 83.2809 289.893L87.6496 289.372L87.6496 289.529C87.6496 290.164 87.8691 290.383 88.5275 290.383L90.9418 290.383C91.6212 290.383 91.8616 290.143 91.8616 289.529L91.8616 289.153C91.8616 288.58 91.7048 288.497 90.4611 288.32L86.9494 287.82C84.2111 287.424 83.1973 286.444 83.1973 284.183L83.1973 281.87C83.1973 279.348 84.556 278.014 87.127 278.014L92.3946 278.014C94.9657 278.014 96.3244 279.348 96.3244 281.87Z" fill="#EC6342"/>
<path d="M67.8542 290.164L72.1289 290.164L72.1289 278.243L76.5185 278.243L76.5185 290.164L80.7932 290.164L80.7932 293.884L67.8438 293.884L67.8437 290.164L67.8542 290.164Z" fill="#EC6342"/>
<path d="M59.1905 283.599L60.7059 283.599L60.7059 278.243L65.0955 278.243L65.0955 293.874L56.3372 293.874C53.7661 293.874 52.4074 292.54 52.4074 290.018L52.4074 287.434C52.4074 285.684 53.0659 284.506 54.341 283.954L50.5889 278.223L55.6997 278.223L59.1905 283.579L59.1905 283.599ZM60.7059 287.32L57.675 287.32C57.0165 287.32 56.7971 287.538 56.7971 288.174L56.7971 289.31C56.7971 289.945 57.0165 290.164 57.675 290.164L60.7059 290.164L60.7059 287.32Z" fill="#EC6342"/>
<path d="M47.8398 293.874L43.4502 293.874L43.4502 278.233L47.8398 278.233L47.8398 293.874Z" fill="#EC6342"/>
<path d="M39.9491 281.87L39.9491 290.248C39.9491 292.759 38.5905 294.103 36.0194 294.103L30.8145 294.103C28.2435 294.103 26.8848 292.769 26.8848 290.248C26.8848 290.05 26.8848 289.987 26.9057 289.893L31.2744 289.372L31.2744 289.529C31.2744 290.164 31.4939 290.383 32.1523 290.383L34.6711 290.383C35.3296 290.383 35.5491 290.164 35.5491 289.529L35.5491 282.589C35.5491 281.953 35.3296 281.734 34.6711 281.734L32.1523 281.734C31.4939 281.734 31.2744 281.953 31.2744 282.589L31.2744 282.745L26.9057 282.224C26.8848 282.141 26.8848 282.068 26.8848 281.87C26.8848 279.348 28.2435 278.014 30.8145 278.014L36.0194 278.014C38.5905 278.014 39.9491 279.348 39.9491 281.87Z" fill="#EC6342"/>
<path d="M11.7409 290.164L16.0156 290.164L16.0156 278.243L20.4052 278.243L20.4052 290.164L24.6799 290.164L24.6799 293.884L11.7305 293.884L11.7305 290.164L11.7409 290.164Z" fill="#EC6342"/>
<path d="M3.94381 287.736L-7.03027 287.736L-7.03027 284.016L3.94381 284.016L3.94381 287.736Z" fill="#EC6342"/>
</g>
<defs>
<clipPath id="clip0_400_29806">
<rect width="297" height="425" fill="white" transform="translate(-151 297) rotate(-90)"/>
</clipPath>
</defs>
</svg>
