<?xml version="1.0" encoding="UTF-8"?><svg id="Layer_2" xmlns="http://www.w3.org/2000/svg" width="735.5" height="1194.55" viewBox="0 0 735.5 1194.55"><defs><style>.cls-1{fill:none;stroke:#db6e3b;stroke-miterlimit:10;}</style></defs><g id="Layer_1-2"><rect class="cls-1" x=".5" y="367.74" width="734.5" height="826.31"/><polyline class="cls-1" points="735 459.55 643.18 459.55 551.37 459.55 459.56 459.55 367.74 459.55 275.94 459.55 184.13 459.55 92.31 459.55 .5 459.55"/><polyline class="cls-1" points="735 551.37 643.18 551.37 551.37 551.37 459.56 551.37 367.74 551.37 275.94 551.37 184.13 551.37 92.31 551.37 .5 551.37"/><polyline class="cls-1" points="735 643.18 643.18 643.18 551.37 643.18 459.56 643.18 367.74 643.18 275.94 643.18 184.13 643.18 92.31 643.18 .5 643.18"/><polyline class="cls-1" points="735 734.99 643.18 734.99 551.37 734.99 459.56 734.99 367.74 734.99 275.94 734.99 184.13 734.99 92.31 734.99 .5 734.99"/><polyline class="cls-1" points="735 826.81 643.18 826.81 551.37 826.81 459.56 826.81 367.74 826.81 275.94 826.81 184.13 826.81 92.31 826.81 .5 826.81"/><polyline class="cls-1" points="735 918.62 643.18 918.62 551.37 918.62 459.56 918.62 367.74 918.62 275.94 918.62 184.13 918.62 92.31 918.62 .5 918.62"/><polyline class="cls-1" points="735 1010.42 643.18 1010.42 551.37 1010.42 459.56 1010.42 367.74 1010.42 275.94 1010.42 184.13 1010.42 92.31 1010.42 .5 1010.42"/><polyline class="cls-1" points="735 1102.24 643.18 1102.24 551.37 1102.24 459.56 1102.24 367.74 1102.24 275.94 1102.24 184.13 1102.24 92.31 1102.24 .5 1102.24"/><polyline class="cls-1" points="735 367.74 735 459.55 735 551.37 735 643.18 735 734.99 735 826.81 735 918.62 735 1010.42 735 1102.24 735 1194.05"/><line class="cls-1" x1="643.18" y1="1194.05" x2="643.18" y2="367.74"/><line class="cls-1" x1="551.37" y1="1194.05" x2="551.37" y2="367.74"/><line class="cls-1" x1="459.56" y1="1194.05" x2="459.56" y2="367.74"/><line class="cls-1" x1="367.75" y1="1194.05" x2="367.75" y2="367.74"/><line class="cls-1" x1="275.94" y1="1194.05" x2="275.94" y2="367.74"/><line class="cls-1" x1="184.12" y1="1194.05" x2="184.12" y2="367.74"/><line class="cls-1" x1="92.31" y1="1194.05" x2="92.31" y2="367.74"/><rect class="cls-1" x=".5" y=".5" width="734.5" height="367.24"/><polyline class="cls-1" points="735 .5 643.18 .5 551.37 .5 459.56 .5 367.74 .5 275.94 .5 184.13 .5 92.31 .5 .5 .5"/><polyline class="cls-1" points="735 92.31 643.18 92.31 551.37 92.31 459.56 92.31 367.74 92.31 275.94 92.31 184.13 92.31 92.31 92.31 .5 92.31"/><polyline class="cls-1" points="735 184.12 643.18 184.12 551.37 184.12 459.56 184.12 367.74 184.12 275.94 184.12 184.13 184.12 92.31 184.12 .5 184.12"/><polyline class="cls-1" points="735 275.94 643.18 275.94 551.37 275.94 459.56 275.94 367.74 275.94 275.94 275.94 184.13 275.94 92.31 275.94 .5 275.94"/><polyline class="cls-1" points="735 367.74 735 275.94 735 184.12 735 92.31 735 .5"/><polyline class="cls-1" points="643.18 .5 643.18 92.31 643.18 184.12 643.18 275.94 643.18 367.74"/><polyline class="cls-1" points="551.37 .5 551.37 92.31 551.37 184.12 551.37 275.94 551.37 367.74"/><polyline class="cls-1" points="459.56 .5 459.56 92.31 459.56 184.12 459.56 275.94 459.56 367.74"/><polyline class="cls-1" points="367.74 .5 367.74 92.31 367.74 184.12 367.74 275.94 367.74 367.74"/><polyline class="cls-1" points="275.94 .5 275.94 92.31 275.94 184.12 275.94 275.94 275.94 367.74"/><polyline class="cls-1" points="184.13 .5 184.13 92.31 184.13 184.12 184.13 275.94 184.13 367.74"/><polyline class="cls-1" points="92.31 .5 92.31 92.31 92.31 184.12 92.31 275.94 92.31 367.74"/></g></svg>