<svg width="23" height="24" viewBox="0 0 23 24" fill="none" xmlns="http://www.w3.org/2000/svg">
<path d="M18.7595 19.9062H4.24079C4.06394 19.9054 3.89343 19.8402 3.76116 19.7228C3.62888 19.6054 3.54388 19.4439 3.52204 19.2684L2.24626 7.76836C2.23492 7.66816 2.24478 7.5667 2.27522 7.47056C2.30565 7.37442 2.35597 7.28576 2.42292 7.21035C2.48986 7.13493 2.57192 7.07445 2.66377 7.03283C2.75561 6.9912 2.85519 6.96937 2.95603 6.96875H20.0443C20.1451 6.96937 20.2447 6.9912 20.3366 7.03283C20.4284 7.07445 20.5105 7.13493 20.5774 7.21035C20.6444 7.28576 20.6947 7.37442 20.7251 7.47056C20.7556 7.5667 20.7654 7.66816 20.7541 7.76836L19.4783 19.2684C19.4565 19.4439 19.3715 19.6054 19.2392 19.7228C19.1069 19.8402 18.9364 19.9054 18.7595 19.9062V19.9062Z" stroke="#2C2726" stroke-width="2" stroke-linecap="round" stroke-linejoin="round"/>
<path d="M7.90625 6.96875C7.90625 6.01563 8.28488 5.10154 8.95884 4.42759C9.63279 3.75363 10.5469 3.375 11.5 3.375C12.4531 3.375 13.3672 3.75363 14.0412 4.42759C14.7151 5.10154 15.0938 6.01563 15.0938 6.96875" stroke="#2C2726" stroke-width="2" stroke-linecap="round" stroke-linejoin="round"/>
</svg>
