<svg width="40" height="40" viewBox="0 0 40 40" fill="none" xmlns="http://www.w3.org/2000/svg">
<path d="M32.625 33.75H7.375C7.06742 33.7486 6.7709 33.6351 6.54085 33.431C6.3108 33.2268 6.16297 32.9459 6.125 32.6406L3.90625 12.6406C3.88652 12.4664 3.90368 12.2899 3.95661 12.1227C4.00954 11.9555 4.09705 11.8013 4.21347 11.6702C4.32989 11.539 4.47261 11.4338 4.63234 11.3614C4.79208 11.289 4.96526 11.2511 5.14063 11.25H34.8594C35.0347 11.2511 35.2079 11.289 35.3677 11.3614C35.5274 11.4338 35.6701 11.539 35.7865 11.6702C35.903 11.8013 35.9905 11.9555 36.0434 12.1227C36.0963 12.2899 36.1135 12.4664 36.0938 12.6406L33.875 32.6406C33.837 32.9459 33.6892 33.2268 33.4592 33.431C33.2291 33.6351 32.9326 33.7486 32.625 33.75V33.75Z" stroke="black" stroke-width="2" stroke-linecap="round" stroke-linejoin="round"/>
<path d="M13.75 11.25C13.75 9.5924 14.4085 8.00269 15.5806 6.83058C16.7527 5.65848 18.3424 5 20 5C21.6576 5 23.2473 5.65848 24.4194 6.83058C25.5915 8.00269 26.25 9.5924 26.25 11.25" stroke="black" stroke-width="2" stroke-linecap="round" stroke-linejoin="round"/>
</svg>
