<?xml version="1.0" encoding="UTF-8"?><svg id="Layer_2" xmlns="http://www.w3.org/2000/svg" width="97.95" height="138.03" viewBox="0 0 97.95 138.03"><defs><style>.cls-1{fill:#db6e3b;}</style></defs><g id="Layer_1-2"><path class="cls-1" d="m48.92,138.03l-3.39-5.57c-.56-.92-1.1-1.82-1.63-2.72-1.11-1.87-2.16-3.63-3.29-5.32-5.73-8.6-11.99-17.9-19.68-29.28l-1.3-1.92c-4.29-6.33-8.73-12.87-12.36-19.9-2.9-5.62-6.33-13.19-7.08-21.87-.82-9.41,1.09-18.27,5.67-26.33C13.17,12.24,24,4.21,38.04,1.26c18.94-3.98,35.76,1.52,48.65,15.93,8.75,9.78,12.43,21.88,10.93,35.99-1.1,10.34-4.83,20.25-11.09,29.45-5.02,7.36-9.88,14.16-14.86,20.77-2.98,3.96-3.99,5.62-5.67,8.37-2.08,3.41-4.92,8.08-13.06,19.75-.11.18-.22.37-.37.6l-3.66,5.92Zm.9-130.04c-3.26,0-6.64.37-10.13,1.1-11.7,2.46-20.75,9.18-26.88,19.98-3.76,6.62-5.33,13.92-4.65,21.68.63,7.29,3.66,13.93,6.22,18.9,3.41,6.61,7.71,12.95,11.87,19.08l1.31,1.93c7.71,11.39,13.97,20.71,19.71,29.32.65.97,1.27,1.97,1.88,2.96,5.92-8.6,8.25-12.44,10.03-15.34,1.68-2.76,2.9-4.75,6.11-9.02,4.9-6.51,9.69-13.2,14.63-20.46,5.51-8.09,8.79-16.77,9.75-25.78,1.25-11.76-1.76-21.79-8.94-29.81-8.65-9.67-19.02-14.53-30.91-14.53Z"/><path class="cls-1" d="m48.49,67.98c-11.03,0-20-8.97-20-20s8.97-20,20-20,20,8.97,20,20-8.97,20-20,20Zm0-32c-6.62,0-12,5.38-12,12s5.38,12,12,12,12-5.38,12-12-5.38-12-12-12Z"/></g></svg>