<svg width="155" height="155" viewBox="0 0 155 155" fill="none" xmlns="http://www.w3.org/2000/svg">
<path d="M82.3593 11.6257C81.9022 11.5914 81.407 11.4923 80.8736 11.3285C80.3403 11.1647 80.0432 11.0809 79.9784 11.0771C79.7765 11.0619 79.586 11.1114 79.407 11.2257C79.228 11.34 79.0794 11.3933 78.9613 11.3857C78.6413 11.3628 78.4546 11.0581 78.4051 10.479C78.2984 9.34765 78.2642 8.53625 78.2984 8.04865C78.3213 7.462 78.4965 7.18011 78.828 7.20677C78.8813 7.21058 78.9308 7.22201 78.9765 7.24106C79.0222 7.2601 79.0641 7.28296 79.0984 7.30582C79.1327 7.32867 79.1708 7.37439 79.2089 7.43534C79.247 7.49629 79.2775 7.54581 79.3003 7.58771C79.3232 7.62581 79.3651 7.70199 79.426 7.81247C79.487 7.92294 79.5365 8.01436 79.5746 8.07912C80.3441 9.48479 81.3765 10.2352 82.6603 10.3343C83.0336 10.3533 83.3193 10.2657 83.5136 10.0791C83.7079 9.89239 83.8146 9.6524 83.826 9.36289C83.8412 9.16099 83.7955 8.95909 83.685 8.75719C83.5746 8.5553 83.3879 8.34578 83.1251 8.12103C82.8584 7.89627 82.6146 7.71342 82.3974 7.56867C82.1765 7.42391 81.8679 7.22582 81.4717 6.97059C81.0946 6.72679 80.8127 6.54394 80.6222 6.41823C80.4317 6.29252 80.207 6.12872 79.9441 5.92682C79.6813 5.72492 79.4908 5.54588 79.3727 5.39351C79.2546 5.24113 79.1365 5.05447 79.0146 4.83734C78.8927 4.6202 78.8127 4.38783 78.7784 4.14403C78.7441 3.90023 78.7365 3.62976 78.7594 3.33263C78.8318 2.35362 79.3118 1.56126 80.1994 0.95557C81.0832 0.349878 82.1003 0.0870301 83.2508 0.174646C83.5822 0.197502 83.9593 0.269881 84.3898 0.387972C84.8203 0.506063 85.0603 0.567013 85.1136 0.570822C85.2736 0.58225 85.4374 0.551775 85.6012 0.479397C85.7688 0.407019 85.9136 0.372734 86.0431 0.384162C86.3821 0.410828 86.5917 0.704151 86.6679 1.26413C86.7669 2.09458 86.7936 2.77646 86.7555 3.30977C86.7326 3.89642 86.5307 4.1745 86.146 4.14784C86.0203 4.13641 85.9022 4.07165 85.7993 3.95356C85.6964 3.83166 85.5403 3.60309 85.3307 3.26787C84.5955 2.09077 83.8336 1.46984 83.0489 1.4127C82.6755 1.38603 82.3784 1.45841 82.1498 1.63364C81.9213 1.80887 81.7955 2.06029 81.7727 2.39171C81.7422 2.78408 81.8984 3.16121 82.2336 3.51929C82.5689 3.87737 83.1784 4.32688 84.0584 4.87543C84.5612 5.18018 84.9193 5.40493 85.1403 5.54969C85.3612 5.69445 85.6317 5.89635 85.9517 6.15538C86.2755 6.41442 86.4964 6.64298 86.6221 6.84107C86.7479 7.03916 86.8507 7.27534 86.9383 7.55343C87.0221 7.83151 87.0564 8.13626 87.0298 8.46768C86.9383 9.54193 86.4317 10.3571 85.5136 10.9209C84.5955 11.4847 83.5441 11.7209 82.3632 11.6295L82.3593 11.6257Z" fill="black"/>
<path d="M97.0984 10.1172C97.2774 10.201 97.3765 10.3153 97.3993 10.4562C97.4222 10.5972 97.3917 10.8181 97.3117 11.1191C97.0717 12.0181 96.8279 12.6999 96.5803 13.1685C96.4393 13.4428 96.2641 13.6142 96.0431 13.679C95.826 13.7437 95.4946 13.7247 95.0451 13.6218L88.4661 12.1095C88.1118 12.0295 87.8718 11.9305 87.7461 11.8124C87.6204 11.6943 87.5823 11.5343 87.628 11.3248C87.6699 11.1381 87.7423 10.9972 87.849 10.9057C87.9518 10.8143 88.0661 10.7457 88.1918 10.6962C88.3175 10.6505 88.447 10.5819 88.5804 10.4981C88.7137 10.4143 88.8508 10.2467 88.9918 10.0029C89.1327 9.75529 89.2508 9.42007 89.3461 8.99341L90.4051 4.37644C90.5042 3.94979 90.5423 3.59551 90.527 3.31362C90.5118 3.03172 90.4584 2.82221 90.3746 2.68888C90.2908 2.55555 90.2032 2.43746 90.108 2.34223C90.0165 2.24318 89.9442 2.13271 89.8908 2.00319C89.8375 1.87748 89.8337 1.71749 89.8756 1.53083C89.9251 1.32131 90.028 1.1956 90.1956 1.14608C90.3594 1.09656 90.6184 1.11179 90.9727 1.19179L97.1174 2.60126C97.906 2.78411 98.3479 3.09648 98.4431 3.54599C98.5688 4.04502 98.626 4.605 98.6145 5.22593C98.5802 5.79734 98.4126 6.1059 98.1079 6.14399C97.7917 6.18209 97.5441 5.97638 97.3612 5.53068C97.1136 4.94785 96.8355 4.49834 96.5307 4.18216C96.226 3.86598 95.845 3.65646 95.3879 3.5498L94.7974 3.41266C94.4127 3.32505 94.1384 3.31743 93.9746 3.386C93.8108 3.45838 93.7003 3.61837 93.6432 3.86979L93.2394 5.63354C93.1746 5.91543 93.2013 6.12876 93.3232 6.27732C93.4413 6.42589 93.6584 6.53636 93.9708 6.60493L94.1727 6.65064C94.3898 6.70016 94.5841 6.67731 94.7479 6.57826C94.9117 6.47922 95.0374 6.36113 95.1174 6.22018C95.1974 6.07923 95.3041 5.95733 95.4336 5.85067C95.5631 5.74401 95.7041 5.70591 95.8603 5.74401C96.0698 5.79353 96.1993 5.88115 96.2565 6.01447C96.3136 6.1478 96.3098 6.35351 96.245 6.6354L95.7422 8.81818C95.6812 9.08865 95.5936 9.27531 95.4831 9.38197C95.3727 9.48864 95.2127 9.5153 95.0031 9.46959C94.847 9.4353 94.7327 9.34007 94.6641 9.18769C94.5955 9.03532 94.5536 8.87532 94.546 8.70771C94.5346 8.5401 94.4774 8.37629 94.3708 8.2163C94.2641 8.05631 94.1041 7.94964 93.887 7.90012L93.6851 7.85441C93.3613 7.78203 93.1175 7.78203 92.9536 7.85822C92.7898 7.93441 92.6718 8.12107 92.607 8.41058L92.0432 10.86C91.986 11.1076 92.0241 11.3057 92.1613 11.4467C92.2984 11.5876 92.5956 11.7095 93.0527 11.8162L93.9251 12.0181C94.1841 12.079 94.4432 12.0447 94.7022 11.919C94.9612 11.7933 95.1784 11.6333 95.3612 11.4467C95.5403 11.2562 95.807 10.9476 96.1574 10.5134C96.5041 10.1019 96.8165 9.96862 97.1022 10.121L97.0984 10.1172Z" fill="black"/>
<path d="M105.536 5.27536L109.163 6.92864C110.706 7.63337 111.757 8.54001 112.317 9.64854C112.877 10.7609 112.873 11.938 112.31 13.1798C111.327 15.336 109.327 15.7245 106.31 14.3493L105.453 13.957C105.27 13.8731 105.133 13.9151 105.041 14.0865C104.87 14.4903 104.782 14.8369 104.778 15.1264C104.774 15.416 104.816 15.6255 104.904 15.755C104.992 15.8845 105.06 16.0293 105.106 16.1969C105.152 16.3645 105.133 16.5397 105.049 16.7264C104.961 16.9207 104.835 17.0273 104.675 17.0464C104.515 17.0654 104.264 17.0007 103.925 16.8445L100.896 15.4655C100.565 15.3131 100.352 15.1722 100.249 15.0312C100.15 14.8903 100.142 14.7265 100.23 14.5322C100.314 14.3493 100.435 14.2198 100.599 14.1474C100.759 14.075 100.927 14.0293 101.098 14.0141C101.27 13.9989 101.464 13.8922 101.685 13.6941C101.906 13.496 102.108 13.1875 102.298 12.7684L104.34 8.28478C104.523 7.8886 104.634 7.54576 104.672 7.26767C104.71 6.98959 104.702 6.77245 104.649 6.62389C104.592 6.47532 104.531 6.3458 104.458 6.23152C104.386 6.11724 104.34 5.99153 104.314 5.8582C104.287 5.72487 104.314 5.56869 104.394 5.39346C104.481 5.19918 104.611 5.09251 104.782 5.07728C104.954 5.06204 105.205 5.13061 105.533 5.27917L105.536 5.27536ZM106.645 13.1456C107.277 13.4313 107.841 13.477 108.336 13.2751C108.832 13.0732 109.209 12.6922 109.464 12.1285C109.91 11.1494 110.028 10.2809 109.814 9.52664C109.601 8.77238 109.209 8.26573 108.633 8.00669C108.321 7.86575 108.119 7.80099 108.024 7.81622C107.929 7.83146 107.845 7.92289 107.769 8.08669L105.906 12.178C105.818 12.3723 105.834 12.5437 105.952 12.6922C106.07 12.8408 106.302 12.9932 106.641 13.1456H106.645Z" fill="black"/>
<path d="M118.957 20.8633L118.831 22.8023C118.805 23.168 118.843 23.4994 118.949 23.7889C119.056 24.0785 119.132 24.3108 119.174 24.4899C119.216 24.6651 119.167 24.8594 119.022 25.0727C118.904 25.2517 118.759 25.3355 118.591 25.3241C118.424 25.3165 118.18 25.2022 117.864 24.9889L115.38 23.3204C114.953 23.0347 114.85 22.7337 115.064 22.4137C115.159 22.2728 115.319 22.1509 115.548 22.0557C115.772 21.9566 115.948 21.8652 116.062 21.7776C116.18 21.69 116.275 21.4462 116.351 21.0462L116.439 19.8538C116.336 19.7967 116.188 19.7053 115.993 19.5719L115.197 19.0348C115.022 18.9167 114.873 18.9434 114.751 19.1224L114.698 19.2024C114.443 19.5834 114.287 19.9186 114.233 20.2119C114.18 20.5052 114.184 20.7224 114.245 20.8671C114.306 21.0119 114.351 21.1719 114.374 21.3509C114.397 21.5262 114.351 21.6976 114.241 21.869C114.123 22.048 113.982 22.1319 113.818 22.1242C113.654 22.1166 113.418 22.01 113.11 21.8004L110.348 19.9453C110.047 19.7434 109.856 19.5643 109.78 19.412C109.704 19.2596 109.727 19.092 109.845 18.9167C109.959 18.7491 110.1 18.6425 110.271 18.5967C110.443 18.551 110.614 18.5358 110.786 18.5472C110.957 18.5587 111.167 18.4863 111.418 18.3263C111.666 18.1663 111.921 17.8958 112.176 17.5149L114.923 13.4236C115.167 13.0617 115.33 12.7455 115.418 12.4751C115.502 12.2046 115.532 11.9913 115.502 11.8351C115.471 11.6789 115.429 11.538 115.38 11.416C115.33 11.2941 115.3 11.1608 115.296 11.0237C115.296 10.8865 115.342 10.738 115.452 10.578C115.57 10.4028 115.715 10.3189 115.887 10.3304C116.058 10.3418 116.294 10.4485 116.595 10.6542L119.94 12.9017C121.311 13.8236 122.176 14.8597 122.527 16.0102C122.877 17.1606 122.702 18.2615 121.993 19.3129C121.189 20.5091 120.176 21.0309 118.957 20.8786V20.8633ZM116.542 18.4329C117.631 19.1643 118.565 18.951 119.346 17.7892C119.906 16.9587 120.149 16.1778 120.081 15.4502C120.012 14.7226 119.711 14.1817 119.178 13.8236C118.923 13.6522 118.74 13.5645 118.637 13.5645C118.534 13.5645 118.435 13.6369 118.34 13.7779L115.94 17.3511C115.822 17.5263 115.814 17.7015 115.921 17.8692C116.028 18.0368 116.233 18.2234 116.546 18.4329H116.542Z" fill="black"/>
<path d="M122.809 29.6593C121.734 28.6232 121.17 27.3813 121.121 25.9376C121.071 24.4938 121.586 23.2139 122.668 22.0939C123.86 20.8597 125.292 20.2121 126.961 20.1587C128.629 20.1016 130.077 20.6654 131.296 21.8425C132.447 22.9548 133.01 24.2272 132.984 25.6671C132.961 27.1032 132.397 28.3908 131.3 29.526C130.115 30.7526 128.709 31.3812 127.09 31.4078C125.468 31.4345 124.043 30.8517 122.805 29.6593H122.809ZM124.61 29.1984C125.631 30.185 126.812 29.9831 128.153 28.5965C128.755 27.9756 129.254 27.267 129.654 26.4785C130.054 25.6862 130.275 24.8938 130.313 24.1014C130.351 23.3091 130.138 22.6844 129.669 22.2348C129.148 21.732 128.565 21.553 127.925 21.7053C127.281 21.8577 126.645 22.2577 126.016 22.9091C125.429 23.5148 124.946 24.2005 124.557 24.97C124.169 25.7395 123.963 26.5204 123.929 27.3128C123.894 28.1051 124.123 28.7337 124.607 29.2022L124.61 29.1984Z" fill="black"/>
<path d="M137.322 28.4288L139.848 31.9715C140.45 32.8134 140.861 33.6515 141.09 34.4857C141.319 35.32 141.368 36.0819 141.239 36.7752C141.109 37.4685 140.861 38.1008 140.488 38.6761C140.115 39.2475 139.639 39.7427 139.06 40.1579C137.688 41.1369 136.237 41.495 134.709 41.236C133.182 40.9769 131.921 40.1465 130.922 38.7484L128.203 34.9314C127.993 34.6343 127.879 34.4019 127.86 34.2305C127.841 34.0591 127.921 33.9105 128.096 33.7886C128.252 33.6781 128.401 33.621 128.538 33.621C128.675 33.621 128.808 33.6439 128.934 33.6934C129.06 33.7429 129.201 33.7772 129.357 33.8039C129.513 33.8305 129.726 33.7962 129.993 33.7048C130.26 33.6134 130.572 33.4382 130.93 33.1867L134.785 30.4402C135.14 30.1849 135.406 29.9488 135.581 29.724C135.757 29.4993 135.856 29.3126 135.882 29.1564C135.909 29.0002 135.921 28.8555 135.917 28.7221C135.913 28.5888 135.932 28.4555 135.978 28.326C136.023 28.1964 136.122 28.0745 136.279 27.9641C136.454 27.8422 136.618 27.8155 136.774 27.8879C136.93 27.9603 137.113 28.1431 137.322 28.4402V28.4288ZM131.787 37.8913C132.313 38.6304 132.972 39.038 133.768 39.1141C134.561 39.1903 135.433 38.8894 136.381 38.2151C137.589 37.3542 138.408 36.3523 138.842 35.2057C139.277 34.0591 139.22 33.1029 138.675 32.3372C138.515 32.1125 138.359 31.9792 138.214 31.9373C138.069 31.8992 137.882 31.9563 137.654 32.1201L131.844 36.2609C131.574 36.4514 131.418 36.6609 131.376 36.8895C131.334 37.1142 131.471 37.4494 131.787 37.8951V37.8913Z" fill="black"/>
<path d="M136.911 49.2358C136.214 47.7577 136.1 46.4968 136.568 45.4454C137.033 44.3941 138.141 43.4569 139.886 42.6341L142.446 41.4265C142.785 41.2665 143.048 41.1027 143.239 40.9313C143.429 40.7599 143.547 40.5999 143.597 40.4513C143.646 40.3066 143.68 40.1618 143.707 40.0285C143.734 39.8952 143.78 39.7656 143.848 39.6514C143.917 39.5371 144.031 39.4419 144.183 39.3695C144.378 39.278 144.541 39.278 144.679 39.3695C144.816 39.4571 144.964 39.678 145.128 40.0247L146.545 43.0341C146.705 43.3731 146.778 43.6246 146.759 43.7922C146.739 43.9598 146.637 44.0893 146.446 44.1769C146.29 44.2493 146.145 44.2722 146.012 44.2493C145.875 44.2264 145.749 44.1769 145.627 44.1122C145.505 44.0436 145.376 43.9826 145.231 43.9293C145.086 43.8722 144.888 43.8607 144.629 43.895C144.374 43.9255 144.077 44.0245 143.738 44.1807L140.656 45.6321C139.7 46.0816 139.056 46.6111 138.724 47.2206C138.393 47.8301 138.393 48.4891 138.724 49.1939C139.052 49.8872 139.57 50.3024 140.282 50.4319C140.991 50.5614 141.86 50.3862 142.88 49.9062L146.656 48.1615C146.957 48.0206 147.166 47.7577 147.284 47.3768C147.406 46.9959 147.547 46.7673 147.711 46.6873C147.886 46.6073 148.023 46.5997 148.13 46.6759C148.237 46.7521 148.347 46.9121 148.465 47.1635L149.208 48.7406C149.345 49.0301 149.406 49.2396 149.391 49.3729C149.376 49.5024 149.28 49.6091 149.109 49.6929C148.964 49.7615 148.705 49.7234 148.328 49.5748C147.951 49.4263 147.612 49.4186 147.307 49.552L144.008 51.1062C142.13 51.9785 140.652 52.2528 139.566 51.9252C138.481 51.5976 137.593 50.7024 136.903 49.2358H136.911Z" fill="black"/>
<path d="M150.606 60.9572L149.612 60.3286L144.953 64.218C144.663 64.4618 144.435 64.7056 144.263 64.957C144.092 65.2085 143.985 65.4066 143.943 65.5551C143.901 65.7037 143.829 65.8408 143.73 65.9589C143.631 66.0808 143.482 66.1646 143.284 66.218C143.079 66.2713 142.915 66.2408 142.797 66.1227C142.679 66.0046 142.568 65.7608 142.469 65.3913L141.658 62.3438C141.562 61.9933 141.54 61.7381 141.585 61.5781C141.631 61.4181 141.757 61.3077 141.962 61.2543C142.126 61.2086 142.328 61.2391 142.564 61.3419C142.8 61.4448 142.995 61.5134 143.151 61.5515C143.307 61.5895 143.551 61.4943 143.89 61.2734L147.029 58.6982L144.858 57.323L143.559 57.6697C143.117 57.7878 142.778 57.9402 142.545 58.123C142.313 58.3059 142.172 58.4735 142.122 58.6258C142.073 58.7782 142 58.9268 141.901 59.0754C141.802 59.2239 141.654 59.323 141.46 59.3763C141.254 59.4296 141.09 59.403 140.972 59.2887C140.854 59.1782 140.747 58.9382 140.652 58.5801L139.795 55.365C139.7 55.0146 139.677 54.7555 139.722 54.5917C139.768 54.4241 139.89 54.3136 140.096 54.2603C140.29 54.207 140.469 54.2222 140.629 54.3022C140.789 54.3822 140.926 54.4812 141.048 54.6031C141.17 54.725 141.376 54.8088 141.669 54.8507C141.962 54.8926 142.332 54.8584 142.774 54.7403L147.722 53.4222C148.164 53.3041 148.503 53.1518 148.736 52.9689C148.968 52.7861 149.109 52.6146 149.155 52.4585C149.2 52.3023 149.273 52.1499 149.372 52.0013C149.471 51.8528 149.619 51.7537 149.814 51.7004C150.019 51.647 150.183 51.6775 150.301 51.7956C150.419 51.9137 150.53 52.1499 150.625 52.5118L151.482 55.7269C151.578 56.0774 151.6 56.3326 151.555 56.4926C151.509 56.6526 151.383 56.7631 151.178 56.8164C150.983 56.8697 150.804 56.8545 150.644 56.7745C150.484 56.6945 150.347 56.5993 150.225 56.4812C150.107 56.3631 149.898 56.2831 149.608 56.2412C149.315 56.1993 148.945 56.2336 148.503 56.3516L146.602 56.8583L150.103 59.0563C150.355 59.2087 150.557 59.2734 150.717 59.2392C150.873 59.2087 150.979 59.1287 151.037 59.0068C151.094 58.8849 151.166 58.7439 151.258 58.5916C151.349 58.4392 151.456 58.3478 151.581 58.3135C151.776 58.2601 151.936 58.2792 152.054 58.3706C152.172 58.462 152.267 58.6411 152.336 58.9077L152.968 61.2886C153.139 61.9286 153.037 62.2981 152.667 62.3971C152.48 62.4467 152.328 62.439 152.206 62.3781C152.084 62.3171 151.981 62.2257 151.894 62.1038C151.806 61.9819 151.65 61.8143 151.425 61.5896C151.2 61.3686 150.93 61.1553 150.61 60.9534L150.606 60.9572Z" fill="black"/>
<path d="M152.29 71.8178L146.187 72.3739C145.73 72.4159 145.372 72.5073 145.113 72.6482C144.854 72.7892 144.686 72.9301 144.614 73.0711C144.541 73.212 144.442 73.3453 144.32 73.4749C144.198 73.6044 144.035 73.6768 143.833 73.6958C143.619 73.7149 143.467 73.6577 143.368 73.5282C143.269 73.3987 143.204 73.1473 143.17 72.7739L142.865 69.4445C142.831 69.0826 142.85 68.8274 142.922 68.675C142.995 68.5227 143.136 68.4388 143.349 68.4198C143.551 68.4008 143.722 68.4427 143.867 68.5493C144.012 68.6522 144.13 68.7741 144.229 68.9112C144.328 69.0484 144.518 69.1588 144.8 69.2541C145.082 69.3455 145.452 69.3721 145.909 69.3302L152.012 68.7741C152.427 68.736 152.617 68.5303 152.583 68.1608C152.549 67.7684 152.381 67.4636 152.08 67.2427C151.783 67.0218 151.276 66.7703 150.564 66.4808C150.176 66.3361 149.97 66.1494 149.951 65.9247C149.92 65.5932 150.198 65.4142 150.785 65.3837C151.711 65.3304 152.438 65.3494 152.96 65.4409C153.254 65.4904 153.467 65.6047 153.604 65.7913C153.737 65.978 153.825 66.298 153.867 66.7551L154.48 73.4482C154.522 73.9053 154.495 74.2367 154.396 74.4424C154.297 74.6482 154.107 74.8043 153.829 74.9034C153.334 75.0862 152.621 75.2386 151.703 75.3529C151.12 75.4291 150.816 75.2996 150.785 74.972C150.762 74.7396 150.926 74.5186 151.273 74.3167C151.932 73.9129 152.389 73.5739 152.64 73.2996C152.892 73.0254 153.002 72.6901 152.968 72.2978C152.934 71.9359 152.713 71.7759 152.297 71.814L152.29 71.8178Z" fill="black"/>
<path d="M146.808 85.4439C146.755 85.6344 146.66 85.7487 146.523 85.7944C146.386 85.8401 146.165 85.8477 145.856 85.821C144.93 85.7334 144.218 85.6077 143.715 85.4401C143.422 85.3487 143.224 85.2001 143.125 84.9982C143.026 84.7963 142.987 84.4649 143.014 84.0078L143.407 77.269C143.429 76.9071 143.486 76.6518 143.578 76.5109C143.673 76.3661 143.826 76.3014 144.039 76.3128C144.229 76.3242 144.382 76.3738 144.488 76.4576C144.595 76.5414 144.683 76.6442 144.751 76.7623C144.82 76.8766 144.907 76.9947 145.01 77.1128C145.113 77.2309 145.3 77.3375 145.57 77.4328C145.837 77.528 146.187 77.589 146.626 77.6156L151.353 77.8899C151.791 77.9166 152.145 77.8975 152.424 77.8328C152.698 77.768 152.896 77.6842 153.014 77.5775C153.132 77.4709 153.231 77.3642 153.315 77.2575C153.395 77.1509 153.494 77.0594 153.612 76.9871C153.73 76.9147 153.883 76.8842 154.073 76.8956C154.286 76.9071 154.431 76.9909 154.507 77.1471C154.584 77.2994 154.61 77.5585 154.591 77.9204L154.225 84.2135C154.18 85.0211 153.94 85.5125 153.513 85.6801C153.041 85.8858 152.5 86.0382 151.883 86.1296C151.311 86.1944 150.984 86.0763 150.892 85.7829C150.805 85.4782 150.965 85.2001 151.372 84.9449C151.905 84.602 152.302 84.2554 152.564 83.9011C152.824 83.5468 152.968 83.1354 152.995 82.6669L153.029 82.0612C153.052 81.665 153.014 81.3945 152.915 81.246C152.816 81.0974 152.641 81.0136 152.385 80.9984L150.58 80.8917C150.294 80.8765 150.085 80.9374 149.959 81.0784C149.833 81.2193 149.761 81.4517 149.742 81.7717L149.73 81.9774C149.719 82.2021 149.772 82.385 149.898 82.5335C150.024 82.6783 150.161 82.7811 150.313 82.8383C150.465 82.8954 150.603 82.9792 150.732 83.0859C150.858 83.1964 150.919 83.3297 150.907 83.4897C150.896 83.703 150.827 83.8478 150.705 83.9278C150.584 84.0078 150.378 84.0382 150.092 84.0192L147.856 83.8897C147.578 83.8744 147.38 83.8173 147.258 83.7259C147.136 83.6345 147.079 83.4821 147.09 83.2688C147.098 83.1088 147.174 82.983 147.311 82.8878C147.452 82.7926 147.601 82.7278 147.765 82.6897C147.928 82.6516 148.081 82.5678 148.222 82.4345C148.363 82.305 148.439 82.1259 148.454 81.9012L148.465 81.6955C148.485 81.3641 148.443 81.1241 148.34 80.9755C148.237 80.8269 148.035 80.7431 147.738 80.7241L145.231 80.5793C144.976 80.5641 144.789 80.6365 144.675 80.7965C144.561 80.9565 144.488 81.2688 144.462 81.7374L144.408 82.6326C144.393 82.8992 144.469 83.1507 144.637 83.383C144.805 83.6154 144.999 83.8059 145.212 83.9544C145.426 84.103 145.78 84.3087 146.264 84.583C146.728 84.8573 146.911 85.143 146.805 85.4477L146.808 85.4439Z" fill="black"/>
<path d="M145.01 95.4017L143.159 95.9921C142.808 96.0988 142.515 96.2588 142.286 96.4645C142.054 96.6702 141.864 96.8264 141.715 96.9292C141.566 97.0321 141.368 97.0588 141.117 97.0016C140.907 96.9559 140.778 96.8531 140.724 96.6931C140.671 96.5331 140.686 96.2664 140.77 95.8931L141.414 92.9713C141.524 92.4723 141.768 92.2628 142.142 92.3466C142.309 92.3847 142.477 92.4913 142.652 92.6627C142.827 92.838 142.976 92.9637 143.102 93.0399C143.227 93.1161 143.49 93.1161 143.886 93.0399L145.029 92.6856C145.044 92.5675 145.075 92.3961 145.128 92.1675L145.334 91.2304C145.38 91.0209 145.3 90.8952 145.09 90.8495L144.995 90.8304C144.545 90.7314 144.176 90.7085 143.886 90.7657C143.597 90.8228 143.395 90.9066 143.281 91.0171C143.17 91.1276 143.033 91.2266 142.881 91.3142C142.724 91.398 142.549 91.4209 142.351 91.379C142.142 91.3333 142.012 91.2342 141.959 91.078C141.905 90.9257 141.917 90.6666 142.001 90.3009L142.717 87.0515C142.797 86.6972 142.892 86.4572 143.006 86.3277C143.121 86.202 143.284 86.1601 143.494 86.2058C143.692 86.2477 143.844 86.343 143.947 86.4877C144.054 86.6325 144.13 86.7848 144.18 86.9487C144.229 87.1125 144.378 87.2801 144.618 87.4553C144.858 87.6305 145.201 87.7639 145.65 87.8629L150.461 88.9257C150.888 89.021 151.242 89.0591 151.524 89.0362C151.806 89.0172 152.016 88.9638 152.149 88.88C152.282 88.7962 152.397 88.7048 152.496 88.6134C152.591 88.5181 152.705 88.4457 152.831 88.3924C152.957 88.3391 153.117 88.3315 153.303 88.3734C153.513 88.4191 153.642 88.5257 153.692 88.6895C153.741 88.8533 153.73 89.1124 153.65 89.4667L152.781 93.4018C152.423 95.0169 151.776 96.1978 150.835 96.9445C149.894 97.6911 148.804 97.9311 147.566 97.6568C146.161 97.3483 145.303 96.594 144.999 95.4017H145.01ZM146.389 92.2666C146.107 93.5465 146.648 94.3389 148.012 94.6398C148.991 94.8569 149.806 94.7998 150.458 94.4684C151.109 94.137 151.505 93.6608 151.642 93.0361C151.707 92.7351 151.722 92.5332 151.684 92.438C151.646 92.3427 151.543 92.2742 151.376 92.2399L147.174 91.3104C146.964 91.2647 146.804 91.3218 146.686 91.4818C146.568 91.6418 146.469 91.9047 146.389 92.2666Z" fill="black"/>
<path d="M141.574 104.845L142.618 102.301C142.701 102.095 142.797 101.961 142.899 101.908C143.002 101.851 143.132 101.889 143.284 102.022L143.566 102.259C143.734 102.384 143.833 102.506 143.867 102.624C143.898 102.742 143.878 102.895 143.802 103.081L142.751 105.641C142.671 105.839 142.576 105.965 142.473 106.022C142.37 106.079 142.24 106.045 142.08 105.923L141.799 105.687C141.631 105.561 141.532 105.439 141.498 105.321C141.463 105.203 141.49 105.047 141.57 104.849L141.574 104.845Z" fill="black"/>
<path d="M133.452 111.592C133.692 111.199 134.008 110.807 134.397 110.407C134.785 110.007 134.999 109.782 135.033 109.725C135.14 109.554 135.182 109.359 135.163 109.146C135.144 108.933 135.163 108.776 135.227 108.677C135.395 108.407 135.749 108.38 136.29 108.597C137.345 109.02 138.081 109.363 138.5 109.618C139.01 109.908 139.178 110.194 139.006 110.475C138.98 110.521 138.945 110.559 138.907 110.594C138.869 110.628 138.831 110.651 138.793 110.674C138.755 110.693 138.702 110.708 138.629 110.712C138.557 110.715 138.496 110.723 138.45 110.723C138.404 110.723 138.317 110.731 138.191 110.731C138.065 110.731 137.963 110.738 137.886 110.738C136.283 110.78 135.144 111.348 134.465 112.449C134.279 112.773 134.225 113.066 134.302 113.325C134.378 113.584 134.542 113.786 134.793 113.927C134.964 114.033 135.166 114.083 135.395 114.079C135.624 114.075 135.898 114.007 136.218 113.873C136.538 113.74 136.812 113.607 137.044 113.481C137.273 113.352 137.593 113.169 138.001 112.933C138.389 112.708 138.683 112.54 138.881 112.433C139.079 112.323 139.33 112.197 139.627 112.056C139.924 111.915 140.172 111.828 140.362 111.794C140.553 111.759 140.774 111.74 141.022 111.729C141.273 111.721 141.513 111.755 141.745 111.835C141.978 111.915 142.222 112.033 142.477 112.19C143.311 112.704 143.799 113.492 143.932 114.559C144.065 115.626 143.829 116.647 143.227 117.629C143.056 117.911 142.816 118.216 142.515 118.544C142.214 118.871 142.046 119.058 142.02 119.104C141.936 119.241 141.886 119.397 141.875 119.58C141.863 119.759 141.825 119.908 141.757 120.014C141.578 120.304 141.22 120.353 140.686 120.163C139.902 119.869 139.284 119.58 138.831 119.302C138.321 119.012 138.164 118.704 138.366 118.376C138.435 118.266 138.545 118.193 138.698 118.159C138.85 118.121 139.128 118.087 139.521 118.056C140.903 117.942 141.802 117.549 142.218 116.879C142.412 116.563 142.484 116.262 142.435 115.98C142.385 115.698 142.218 115.47 141.936 115.298C141.601 115.092 141.197 115.054 140.724 115.191C140.252 115.329 139.57 115.66 138.683 116.19C138.18 116.494 137.818 116.711 137.585 116.841C137.353 116.97 137.052 117.115 136.675 117.287C136.298 117.454 135.993 117.549 135.761 117.569C135.528 117.588 135.269 117.572 134.984 117.523C134.698 117.473 134.412 117.359 134.13 117.184C133.22 116.609 132.724 115.786 132.648 114.712C132.572 113.637 132.843 112.597 133.464 111.588L133.452 111.592Z" fill="black"/>
<path d="M128.035 125.374C127.879 125.492 127.734 125.53 127.597 125.484C127.46 125.439 127.277 125.313 127.049 125.103C126.359 124.479 125.868 123.949 125.563 123.515C125.384 123.264 125.315 123.027 125.357 122.806C125.399 122.582 125.567 122.296 125.864 121.945L130.222 116.788C130.454 116.509 130.652 116.342 130.816 116.285C130.976 116.224 131.14 116.266 131.304 116.403C131.448 116.529 131.54 116.654 131.574 116.788C131.608 116.921 131.616 117.054 131.601 117.188C131.586 117.321 131.586 117.466 131.601 117.626C131.612 117.782 131.7 117.98 131.856 118.216C132.012 118.452 132.256 118.711 132.591 118.993L136.21 122.052C136.546 122.334 136.843 122.532 137.102 122.646C137.361 122.761 137.57 122.81 137.727 122.799C137.883 122.787 138.027 122.761 138.157 122.723C138.287 122.685 138.42 122.673 138.557 122.685C138.694 122.696 138.835 122.765 138.984 122.886C139.147 123.024 139.212 123.176 139.182 123.347C139.151 123.515 139.018 123.74 138.786 124.018L134.717 128.833C134.195 129.45 133.711 129.701 133.269 129.58C132.767 129.461 132.245 129.256 131.696 128.962C131.201 128.669 131.007 128.38 131.113 128.09C131.224 127.793 131.521 127.667 132.001 127.709C132.633 127.755 133.159 127.713 133.582 127.587C134.005 127.461 134.367 127.218 134.668 126.86L135.06 126.395C135.315 126.094 135.448 125.854 135.46 125.675C135.471 125.496 135.38 125.324 135.186 125.161L133.807 123.995C133.586 123.808 133.384 123.736 133.197 123.774C133.01 123.812 132.816 123.953 132.607 124.197L132.473 124.357C132.328 124.528 132.264 124.707 132.275 124.902C132.287 125.092 132.336 125.26 132.424 125.393C132.511 125.53 132.572 125.679 132.61 125.842C132.648 126.006 132.61 126.147 132.511 126.269C132.374 126.433 132.233 126.509 132.088 126.498C131.944 126.486 131.761 126.387 131.54 126.204L129.829 124.757C129.616 124.578 129.49 124.414 129.449 124.265C129.407 124.117 129.452 123.961 129.589 123.801C129.692 123.679 129.829 123.622 129.997 123.629C130.165 123.637 130.325 123.675 130.477 123.744C130.629 123.808 130.801 123.835 130.995 123.812C131.186 123.793 131.353 123.698 131.498 123.526L131.631 123.366C131.845 123.115 131.955 122.898 131.963 122.715C131.97 122.532 131.86 122.345 131.631 122.151L129.711 120.528C129.517 120.365 129.323 120.307 129.136 120.368C128.949 120.426 128.702 120.635 128.401 120.993L127.822 121.679C127.65 121.881 127.559 122.128 127.555 122.418C127.548 122.707 127.589 122.974 127.673 123.222C127.757 123.469 127.913 123.846 128.138 124.357C128.348 124.852 128.317 125.195 128.054 125.374H128.035Z" fill="black"/>
<path d="M128.484 135.096L125.361 137.568C124.031 138.619 122.744 139.141 121.498 139.133C120.252 139.126 119.208 138.585 118.359 137.514C116.888 135.659 117.456 133.701 120.058 131.64L120.797 131.054C120.957 130.928 120.98 130.787 120.869 130.631C120.591 130.296 120.321 130.06 120.062 129.922C119.803 129.785 119.597 129.728 119.445 129.747C119.288 129.766 119.128 129.759 118.957 129.724C118.786 129.69 118.637 129.591 118.511 129.435C118.378 129.267 118.34 129.107 118.397 128.955C118.454 128.802 118.626 128.608 118.919 128.38L121.528 126.315C121.814 126.09 122.039 125.964 122.21 125.938C122.382 125.911 122.53 125.983 122.664 126.151C122.789 126.311 122.846 126.479 122.839 126.654C122.831 126.829 122.793 127.001 122.728 127.161C122.664 127.321 122.671 127.542 122.747 127.827C122.824 128.113 123.006 128.437 123.288 128.795L126.347 132.658C126.618 133 126.869 133.252 127.102 133.416C127.334 133.579 127.528 133.671 127.684 133.69C127.841 133.709 127.985 133.713 128.123 133.701C128.256 133.69 128.389 133.701 128.523 133.743C128.656 133.781 128.782 133.877 128.9 134.025C129.033 134.193 129.067 134.357 129.003 134.517C128.938 134.676 128.763 134.867 128.481 135.092L128.484 135.096ZM120.976 132.49C120.431 132.92 120.138 133.4 120.088 133.937C120.043 134.471 120.21 134.981 120.595 135.465C121.262 136.311 121.982 136.81 122.751 136.962C123.521 137.114 124.149 136.996 124.645 136.608C124.911 136.395 125.06 136.242 125.09 136.155C125.121 136.063 125.079 135.945 124.964 135.804L122.172 132.28C122.039 132.113 121.879 132.048 121.692 132.09C121.505 132.128 121.265 132.265 120.972 132.498L120.976 132.49Z" fill="black"/>
<path d="M108.496 139.93L106.827 138.932C106.515 138.741 106.203 138.627 105.898 138.589C105.589 138.551 105.349 138.512 105.174 138.471C104.999 138.429 104.847 138.295 104.725 138.071C104.622 137.884 104.61 137.72 104.698 137.575C104.782 137.431 104.991 137.267 105.33 137.08L107.947 135.629C108.397 135.381 108.713 135.423 108.9 135.762C108.984 135.911 109.014 136.109 108.999 136.356C108.984 136.604 108.987 136.798 109.014 136.943C109.041 137.088 109.212 137.286 109.532 137.533L110.553 138.154C110.652 138.09 110.801 137.998 111.006 137.884L111.845 137.419C112.031 137.316 112.073 137.172 111.97 136.985L111.925 136.901C111.704 136.501 111.475 136.208 111.239 136.029C111.003 135.85 110.808 135.751 110.652 135.743C110.492 135.732 110.332 135.697 110.165 135.64C109.997 135.579 109.864 135.461 109.765 135.286C109.662 135.099 109.65 134.935 109.73 134.795C109.81 134.654 110.012 134.49 110.34 134.311L113.25 132.699C113.566 132.524 113.814 132.436 113.985 132.44C114.157 132.44 114.294 132.536 114.397 132.722C114.496 132.901 114.526 133.076 114.488 133.248C114.45 133.423 114.385 133.583 114.298 133.728C114.21 133.876 114.18 134.097 114.206 134.391C114.237 134.684 114.363 135.035 114.584 135.434L116.972 139.743C117.185 140.124 117.391 140.417 117.593 140.615C117.795 140.813 117.97 140.935 118.123 140.981C118.275 141.023 118.42 141.053 118.553 141.065C118.686 141.076 118.816 141.11 118.942 141.171C119.067 141.232 119.174 141.343 119.269 141.51C119.372 141.697 119.38 141.865 119.292 142.009C119.204 142.158 118.999 142.318 118.683 142.493L115.155 144.447C113.707 145.247 112.393 145.545 111.212 145.335C110.027 145.126 109.128 144.467 108.515 143.354C107.818 142.093 107.814 140.954 108.507 139.937L108.496 139.93ZM111.761 138.89C110.614 139.526 110.378 140.455 111.056 141.678C111.544 142.554 112.126 143.129 112.805 143.396C113.483 143.667 114.104 143.644 114.664 143.335C114.934 143.187 115.094 143.065 115.14 142.969C115.185 142.878 115.166 142.756 115.086 142.608L112.999 138.844C112.896 138.657 112.744 138.573 112.549 138.592C112.351 138.612 112.088 138.711 111.765 138.89H111.761Z" fill="black"/>
<path d="M98.9115 139.339C100.325 138.859 101.685 138.924 102.991 139.541C104.298 140.154 105.201 141.198 105.704 142.676C106.256 144.303 106.176 145.868 105.46 147.381C104.744 148.889 103.586 149.918 101.978 150.466C100.462 150.981 99.0715 150.901 97.8029 150.219C96.5344 149.541 95.6468 148.455 95.1401 146.958C94.5915 145.343 94.6753 143.808 95.3915 142.352C96.1077 140.897 97.281 139.895 98.9039 139.343L98.9115 139.339ZM98.4962 141.152C97.1515 141.61 96.7934 142.752 97.4144 144.581C97.6925 145.4 98.0925 146.166 98.6105 146.886C99.1324 147.605 99.7343 148.162 100.42 148.562C101.106 148.958 101.757 149.053 102.374 148.844C103.06 148.611 103.483 148.173 103.643 147.533C103.803 146.893 103.738 146.143 103.445 145.286C103.174 144.489 102.786 143.743 102.279 143.046C101.772 142.349 101.174 141.808 100.485 141.415C99.7953 141.023 99.1324 140.939 98.4962 141.152Z" fill="black"/>
<path d="M93.3648 152.809L89.0563 153.426C88.0315 153.575 87.0982 153.556 86.2525 153.377C85.4068 153.198 84.7059 152.889 84.1497 152.459C83.5935 152.028 83.144 151.514 82.8049 150.923C82.4659 150.333 82.2488 149.682 82.1459 148.973C81.9059 147.305 82.2526 145.853 83.1859 144.615C84.1192 143.377 85.4335 142.638 87.1325 142.394L91.7725 141.728C92.1305 141.678 92.3896 141.682 92.5496 141.747C92.7096 141.811 92.8048 141.949 92.8353 142.158C92.862 142.349 92.8429 142.505 92.782 142.627C92.7172 142.749 92.6372 142.855 92.5382 142.943C92.4391 143.034 92.3401 143.141 92.2448 143.267C92.1496 143.392 92.081 143.598 92.0429 143.876C92.0048 144.154 92.0124 144.512 92.0734 144.947L92.7439 149.636C92.8048 150.07 92.8962 150.413 93.0143 150.672C93.1324 150.931 93.2543 151.106 93.3801 151.202C93.5058 151.297 93.6315 151.373 93.7534 151.43C93.8753 151.487 93.982 151.567 94.0772 151.666C94.1724 151.765 94.2334 151.91 94.26 152.101C94.2905 152.31 94.2372 152.47 94.1 152.577C93.9629 152.683 93.7191 152.76 93.3572 152.813L93.3648 152.809ZM87.4944 143.548C86.5954 143.678 85.9325 144.078 85.5021 144.748C85.0716 145.419 84.9382 146.329 85.1021 147.48C85.3116 148.946 85.8297 150.139 86.6487 151.049C87.4677 151.96 88.3439 152.348 89.2734 152.215C89.5477 152.177 89.7382 152.101 89.8372 151.99C89.9401 151.88 89.9706 151.685 89.9325 151.411L88.9192 144.348C88.8734 144.021 88.7592 143.788 88.5763 143.648C88.3934 143.507 88.0354 143.476 87.4944 143.552V143.548Z" fill="black"/>
<path d="M75.053 142.901C76.6834 142.958 77.8605 143.434 78.5805 144.329C79.3005 145.225 79.6281 146.638 79.5634 148.565L79.4643 151.396C79.4529 151.769 79.4796 152.078 79.5443 152.325C79.6091 152.573 79.6967 152.752 79.8072 152.862C79.9139 152.973 80.0243 153.068 80.1348 153.152C80.2453 153.236 80.3329 153.335 80.4053 153.449C80.4777 153.563 80.5081 153.704 80.5005 153.876C80.4929 154.089 80.4205 154.238 80.2758 154.318C80.1348 154.398 79.872 154.432 79.4872 154.417L76.1615 154.302C75.7882 154.291 75.533 154.238 75.392 154.146C75.2511 154.055 75.1863 153.902 75.1901 153.689C75.1977 153.518 75.2396 153.381 75.3234 153.27C75.4072 153.16 75.5063 153.068 75.6206 152.992C75.7349 152.916 75.8491 152.828 75.9672 152.725C76.0815 152.622 76.1844 152.451 76.272 152.207C76.3596 151.963 76.4129 151.659 76.4244 151.285L76.5425 147.88C76.5806 146.825 76.4015 146.009 76.0091 145.434C75.6168 144.859 75.0339 144.558 74.2568 144.531C73.4873 144.505 72.8854 144.779 72.4435 145.35C72.0016 145.922 71.7616 146.771 71.7235 147.903L71.5482 152.059C71.5368 152.39 71.674 152.695 71.9559 152.977C72.2416 153.259 72.3787 153.491 72.3711 153.67C72.3635 153.86 72.3025 153.986 72.1882 154.047C72.074 154.108 71.8797 154.131 71.6016 154.123L69.8568 154.062C69.5368 154.051 69.3235 154.009 69.213 153.937C69.1026 153.864 69.053 153.731 69.0568 153.54C69.0607 153.381 69.2168 153.167 69.5178 152.901C69.8226 152.634 69.9825 152.337 70.0054 152.005L70.1311 148.36C70.2149 146.291 70.6492 144.851 71.434 144.036C72.2187 143.221 73.4225 142.84 75.0453 142.897L75.053 142.901Z" fill="black"/>
<path d="M58.3672 149.739L59.3805 149.141L58.0434 143.221C57.9596 142.855 57.8453 142.535 57.7005 142.272C57.5558 142.006 57.4262 141.819 57.3158 141.712C57.2053 141.606 57.1139 141.48 57.0529 141.335C56.992 141.191 56.9805 141.019 57.0263 140.821C57.072 140.612 57.1748 140.482 57.331 140.429C57.491 140.375 57.7577 140.391 58.131 140.471L61.2129 141.137C61.5672 141.213 61.8071 141.309 61.9291 141.423C62.051 141.537 62.089 141.697 62.0433 141.907C62.009 142.074 61.891 142.238 61.6891 142.402C61.491 142.566 61.3386 142.707 61.2357 142.829C61.1329 142.947 61.1062 143.21 61.1481 143.613L62.009 147.583L64.2224 146.276L64.5081 144.962C64.6033 144.512 64.6262 144.143 64.569 143.853C64.5119 143.564 64.4281 143.362 64.3138 143.251C64.2033 143.141 64.1043 143.008 64.0166 142.851C63.929 142.695 63.91 142.52 63.9519 142.322C63.9976 142.112 64.0966 141.983 64.249 141.93C64.4014 141.876 64.6604 141.888 65.0262 141.968L68.2795 142.672C68.6337 142.749 68.8737 142.844 69.0033 142.958C69.1328 143.072 69.1709 143.236 69.129 143.442C69.0871 143.64 68.9918 143.792 68.8509 143.899C68.7061 144.006 68.5537 144.082 68.3899 144.135C68.2261 144.189 68.0585 144.333 67.8871 144.573C67.7157 144.813 67.5785 145.16 67.4833 145.606L66.4014 150.611C66.3061 151.061 66.2833 151.43 66.3404 151.72C66.3976 152.009 66.4852 152.211 66.6033 152.325C66.7214 152.436 66.8242 152.573 66.908 152.725C66.9957 152.882 67.0147 153.057 66.9728 153.255C66.9271 153.464 66.8242 153.594 66.668 153.647C66.508 153.701 66.249 153.685 65.8833 153.609L62.63 152.904C62.2757 152.828 62.0357 152.733 61.9138 152.619C61.7919 152.504 61.7538 152.344 61.7957 152.135C61.8376 151.937 61.9329 151.784 62.0738 151.678C62.2186 151.571 62.3671 151.491 62.5271 151.442C62.6871 151.388 62.8509 151.244 63.0224 151C63.1938 150.756 63.3309 150.413 63.4262 149.967L63.8414 148.044L60.291 150.158C60.0396 150.31 59.891 150.463 59.8491 150.619C59.8072 150.775 59.8262 150.904 59.9138 151.007C60.0015 151.114 60.0891 151.244 60.1843 151.392C60.2795 151.541 60.31 151.682 60.2834 151.807C60.2415 152.005 60.1538 152.135 60.0167 152.2C59.8796 152.264 59.6815 152.264 59.411 152.207L57.0034 151.685C56.3558 151.544 56.0739 151.289 56.1539 150.912C56.1958 150.725 56.272 150.592 56.3786 150.512C56.4891 150.432 56.6186 150.383 56.7634 150.36C56.912 150.337 57.1329 150.276 57.4339 150.177C57.7348 150.078 58.0472 149.933 58.371 149.743L58.3672 149.739Z" fill="black"/>
<path d="M47.9333 146.284L50.2228 140.6C50.3942 140.173 50.478 139.815 50.4704 139.518C50.4628 139.221 50.4133 139.012 50.3218 138.882C50.2304 138.753 50.1542 138.604 50.0971 138.436C50.0399 138.269 50.0476 138.09 50.1237 137.903C50.2037 137.705 50.3257 137.594 50.4856 137.564C50.6456 137.537 50.9009 137.594 51.2475 137.732L54.3485 138.981C54.6837 139.118 54.9046 139.252 55.0037 139.385C55.1065 139.518 55.118 139.682 55.038 139.88C54.9618 140.067 54.8437 140.2 54.6875 140.28C54.5275 140.36 54.3675 140.413 54.1999 140.436C54.0361 140.463 53.8456 140.577 53.6361 140.787C53.4266 140.996 53.2361 141.312 53.0647 141.739L50.7752 147.423C50.619 147.807 50.7142 148.07 51.0609 148.211C51.4266 148.36 51.7771 148.348 52.1085 148.185C52.4399 148.021 52.897 147.686 53.4761 147.183C53.7847 146.905 54.0399 146.806 54.2494 146.889C54.5542 147.011 54.5885 147.343 54.3523 147.88C53.9751 148.729 53.6285 149.365 53.3085 149.788C53.1332 150.028 52.9313 150.165 52.7028 150.2C52.478 150.234 52.1504 150.165 51.7237 149.994L45.4914 147.484C45.0648 147.312 44.7829 147.137 44.6457 146.954C44.5048 146.771 44.4552 146.531 44.4933 146.238C44.5581 145.712 44.7448 145.011 45.0648 144.139C45.2629 143.587 45.5181 143.373 45.8228 143.495C46.04 143.583 46.1619 143.827 46.1847 144.227C46.2419 144.996 46.3371 145.56 46.4628 145.91C46.5924 146.261 46.84 146.512 47.2057 146.657C47.5409 146.794 47.7885 146.668 47.9447 146.28L47.9333 146.284Z" fill="black"/>
<path d="M38.3255 135.168C38.1807 135.035 38.1198 134.894 38.1426 134.753C38.1655 134.612 38.2607 134.41 38.4245 134.151C38.9236 133.37 39.3655 132.791 39.7464 132.421C39.9635 132.2 40.1845 132.094 40.4131 132.098C40.6416 132.101 40.9502 132.219 41.3464 132.456L47.1558 135.895C47.4682 136.082 47.6663 136.246 47.7501 136.398C47.8339 136.551 47.8225 136.714 47.7158 136.897C47.6168 137.061 47.5063 137.172 47.3806 137.229C47.2549 137.286 47.1254 137.316 46.9882 137.324C46.8549 137.332 46.7101 137.354 46.5577 137.393C46.4054 137.431 46.2225 137.549 46.0168 137.743C45.8111 137.937 45.5939 138.219 45.373 138.596L42.9616 142.672C42.7406 143.05 42.5921 143.373 42.5235 143.648C42.4549 143.922 42.4397 144.135 42.4778 144.291C42.5159 144.444 42.5654 144.581 42.6226 144.703C42.6797 144.825 42.7178 144.954 42.7292 145.091C42.7406 145.228 42.6987 145.381 42.5997 145.545C42.4892 145.727 42.3521 145.819 42.1768 145.815C42.0054 145.815 41.7616 145.72 41.4492 145.533L36.0245 142.322C35.3274 141.91 34.9998 141.476 35.0493 141.019C35.0798 140.505 35.1979 139.952 35.396 139.366C35.6017 138.829 35.8569 138.589 36.1579 138.646C36.4702 138.707 36.6455 138.977 36.6798 139.457C36.7407 140.09 36.8664 140.6 37.0607 140.996C37.255 141.392 37.5559 141.709 37.9598 141.945L38.4817 142.253C38.8207 142.455 39.0797 142.547 39.2588 142.528C39.4378 142.509 39.5902 142.39 39.7235 142.17L40.6454 140.615C40.794 140.368 40.8321 140.154 40.7635 139.979C40.695 139.804 40.5235 139.632 40.2493 139.469L40.0702 139.362C39.8759 139.248 39.6893 139.213 39.4988 139.255C39.3121 139.301 39.1559 139.377 39.0378 139.484C38.9197 139.591 38.7788 139.678 38.6264 139.743C38.474 139.808 38.3255 139.796 38.1883 139.716C38.0055 139.606 37.9064 139.48 37.8912 139.335C37.8759 139.191 37.9445 138.996 38.0893 138.749L39.2321 136.821C39.3731 136.581 39.514 136.429 39.6512 136.364C39.7883 136.299 39.9521 136.318 40.135 136.429C40.2721 136.509 40.3521 136.634 40.3712 136.802C40.3902 136.97 40.3788 137.134 40.3407 137.294C40.2988 137.457 40.3064 137.629 40.3559 137.815C40.4054 138.002 40.5312 138.151 40.7216 138.265L40.9007 138.372C41.1864 138.539 41.4188 138.612 41.5978 138.589C41.7807 138.566 41.9445 138.425 42.0968 138.17L43.3768 136.01C43.5064 135.789 43.5292 135.591 43.4416 135.415C43.354 135.24 43.1064 135.031 42.7026 134.795L41.933 134.337C41.7045 134.2 41.4454 134.155 41.1597 134.196C40.874 134.238 40.6188 134.322 40.3902 134.448C40.1616 134.574 39.815 134.787 39.3464 135.095C38.8893 135.385 38.5502 135.412 38.3293 135.179L38.3255 135.168Z" fill="black"/>
<path d="M30.3029 128.997L30.6267 127.081C30.6914 126.719 30.6876 126.387 30.6076 126.086C30.5314 125.785 30.4819 125.545 30.4552 125.366C30.4324 125.187 30.5009 125.001 30.6648 124.802C30.8019 124.639 30.9505 124.57 31.1181 124.597C31.2819 124.623 31.5143 124.761 31.8076 125.004L34.1085 126.917C34.5009 127.244 34.5771 127.557 34.3295 127.85C34.219 127.98 34.0476 128.086 33.8114 128.159C33.5752 128.231 33.3962 128.307 33.2704 128.383C33.1447 128.46 33.0228 128.692 32.9085 129.08L32.699 130.258C32.7981 130.326 32.9352 130.433 33.1143 130.581L33.8533 131.195C34.0171 131.332 34.1657 131.317 34.3028 131.153L34.3638 131.08C34.6571 130.726 34.8438 130.41 34.9276 130.124C35.0114 129.839 35.0304 129.621 34.9809 129.473C34.9352 129.32 34.9047 129.157 34.9009 128.981C34.8971 128.802 34.958 128.639 35.0876 128.482C35.2247 128.319 35.3733 128.246 35.5333 128.269C35.6933 128.292 35.918 128.421 36.2075 128.661L38.7675 130.787C39.0456 131.019 39.217 131.214 39.278 131.378C39.3389 131.541 39.3008 131.701 39.1637 131.865C39.0342 132.021 38.8818 132.113 38.7066 132.139C38.5313 132.166 38.3599 132.166 38.1885 132.139C38.0209 132.109 37.8037 132.162 37.5371 132.296C37.2742 132.429 36.9961 132.673 36.7028 133.027L33.5523 136.817C33.2742 137.153 33.0762 137.453 32.9657 137.713C32.8552 137.972 32.8057 138.181 32.8209 138.341C32.8362 138.501 32.8628 138.642 32.9009 138.772C32.939 138.901 32.9543 139.034 32.9428 139.172C32.9314 139.309 32.8666 139.45 32.7447 139.598C32.6076 139.762 32.4552 139.831 32.2876 139.8C32.12 139.77 31.8952 139.64 31.6133 139.408L28.5124 136.829C27.24 135.774 26.4896 134.654 26.2534 133.476C26.021 132.296 26.3067 131.221 27.1181 130.242C28.04 129.134 29.0991 128.719 30.299 128.997H30.3029ZM32.459 131.663C31.4495 130.825 30.4971 130.943 29.6057 132.017C28.9657 132.787 28.6419 133.541 28.6381 134.273C28.6343 135.004 28.8781 135.575 29.3695 135.983C29.6057 136.181 29.7771 136.284 29.88 136.295C29.9829 136.307 30.0895 136.246 30.2 136.113L32.9504 132.802C33.0876 132.638 33.1104 132.467 33.0228 132.292C32.9352 132.117 32.7485 131.907 32.459 131.667V131.663Z" fill="black"/>
<path d="M21.4537 119.066L23.1413 121.237C23.2785 121.412 23.347 121.561 23.3432 121.679C23.3432 121.797 23.2442 121.888 23.0537 121.957L22.707 122.083C22.5128 122.167 22.3604 122.193 22.2423 122.163C22.1242 122.132 22.0023 122.037 21.8804 121.877L20.1814 119.69C20.0518 119.523 19.9871 119.378 19.9909 119.264C19.9947 119.149 20.0861 119.05 20.2728 118.974L20.6194 118.849C20.8137 118.765 20.9661 118.738 21.0842 118.769C21.2023 118.799 21.328 118.898 21.4575 119.066H21.4537Z" fill="black"/>
<path d="M18.2345 105.946C18.4364 106.357 18.6002 106.837 18.7259 107.378C18.8516 107.919 18.9316 108.22 18.9583 108.277C19.0459 108.46 19.1868 108.601 19.3773 108.696C19.5678 108.795 19.6859 108.895 19.7392 109.001C19.8802 109.291 19.7126 109.603 19.2364 109.938C18.3145 110.601 17.6326 111.039 17.1907 111.253C16.6726 111.527 16.3412 111.519 16.1964 111.222C16.1735 111.173 16.1583 111.127 16.1507 111.073C16.1431 111.024 16.1431 110.978 16.1469 110.933C16.1469 110.891 16.1697 110.837 16.204 110.773C16.2383 110.708 16.265 110.654 16.2878 110.616C16.3107 110.578 16.3526 110.502 16.4174 110.392C16.4821 110.281 16.5354 110.194 16.5735 110.129C17.4002 108.754 17.5297 107.489 16.9659 106.327C16.7945 105.996 16.5774 105.794 16.3145 105.717C16.0516 105.641 15.7964 105.672 15.5412 105.809C15.3583 105.897 15.2097 106.037 15.0878 106.232C14.9698 106.426 14.8821 106.693 14.8212 107.039C14.764 107.382 14.7259 107.683 14.7107 107.946C14.6955 108.209 14.6802 108.575 14.6574 109.047C14.6383 109.496 14.6231 109.832 14.6079 110.06C14.5926 110.285 14.5659 110.563 14.524 110.894C14.4821 111.222 14.425 111.477 14.3526 111.656C14.2802 111.835 14.1774 112.03 14.0517 112.247C13.926 112.464 13.766 112.647 13.5717 112.799C13.3812 112.952 13.1488 113.092 12.8783 113.226C11.9945 113.656 11.0688 113.641 10.0974 113.18C9.12601 112.719 8.39078 111.973 7.88793 110.936C7.74317 110.639 7.61365 110.274 7.49936 109.843C7.38508 109.413 7.31651 109.173 7.29365 109.127C7.22508 108.982 7.11461 108.856 6.96985 108.75C6.82509 108.643 6.72223 108.533 6.66509 108.418C6.51652 108.11 6.66509 107.782 7.1108 107.436C7.78127 106.933 8.35269 106.563 8.83268 106.331C9.35077 106.057 9.69362 106.091 9.86124 106.434C9.91838 106.548 9.91838 106.681 9.86886 106.83C9.81553 106.978 9.69743 107.23 9.51458 107.58C8.86697 108.807 8.71459 109.778 9.06125 110.487C9.22506 110.822 9.43839 111.043 9.70505 111.153C9.97172 111.264 10.2536 111.241 10.5508 111.1C10.905 110.929 11.1527 110.605 11.2898 110.136C11.4307 109.664 11.5146 108.914 11.545 107.877C11.5565 107.291 11.5679 106.868 11.5831 106.605C11.5984 106.342 11.6365 106.007 11.6974 105.596C11.7584 105.188 11.8422 104.879 11.9526 104.674C12.0593 104.468 12.2117 104.258 12.4098 104.041C12.6079 103.828 12.8555 103.645 13.1526 103.5C14.1279 103.039 15.0878 103.062 16.0364 103.577C16.985 104.087 17.7164 104.876 18.2345 105.942V105.946Z" fill="black"/>
<path d="M9.51859 93.9694C9.50335 93.7751 9.54907 93.6304 9.66335 93.5389C9.77382 93.4475 9.97954 93.3637 10.2767 93.2799C11.1719 93.0361 11.8843 92.9028 12.4138 92.8837C12.7224 92.8647 12.9585 92.9371 13.1224 93.0894C13.2862 93.2418 13.4385 93.5428 13.5757 93.9808L15.5795 100.43C15.6861 100.777 15.7242 101.032 15.6861 101.203C15.648 101.371 15.5299 101.485 15.3242 101.55C15.1414 101.607 14.9852 101.615 14.8519 101.569C14.7223 101.527 14.6042 101.462 14.4976 101.379C14.3947 101.295 14.269 101.215 14.1319 101.142C13.9909 101.07 13.7814 101.036 13.4957 101.04C13.2138 101.043 12.8633 101.112 12.4443 101.242L7.92242 102.647C7.50338 102.777 7.17957 102.921 6.94338 103.078C6.7072 103.234 6.55101 103.382 6.47863 103.523C6.40625 103.664 6.3491 103.798 6.31101 103.927C6.27292 104.057 6.21196 104.175 6.12816 104.285C6.04435 104.396 5.91101 104.479 5.72816 104.537C5.52626 104.601 5.35864 104.575 5.23293 104.457C5.10721 104.339 4.98912 104.106 4.88246 103.76L3.012 97.7407C2.772 96.9674 2.82153 96.4265 3.16057 96.1179C3.53009 95.756 3.98342 95.4246 4.52817 95.1236C5.03864 94.8646 5.38912 94.857 5.57578 95.1008C5.76625 95.356 5.71292 95.6722 5.41959 96.0531C5.04245 96.5636 4.79103 97.0283 4.67293 97.4512C4.55103 97.874 4.56246 98.3083 4.70341 98.7578L4.88246 99.3368C5.00055 99.714 5.13007 99.9539 5.27483 100.061C5.41959 100.167 5.61388 100.183 5.85768 100.106L7.58338 99.5692C7.85766 99.4854 8.02908 99.3521 8.09766 99.173C8.16623 98.994 8.15099 98.754 8.05575 98.4492L7.9948 98.2512C7.93004 98.0378 7.81194 97.8855 7.64433 97.7902C7.47671 97.6988 7.30909 97.6493 7.14909 97.6493C6.9891 97.6493 6.8291 97.6188 6.6691 97.5617C6.51291 97.5045 6.41006 97.3979 6.36053 97.2455C6.29577 97.0436 6.31101 96.8836 6.39482 96.7655C6.48244 96.6474 6.66148 96.5484 6.93576 96.4645L9.07669 95.8017C9.34335 95.7179 9.54907 95.6989 9.69383 95.7446C9.8424 95.7903 9.94525 95.9122 10.01 96.1141C10.0557 96.2665 10.0329 96.4112 9.93382 96.5484C9.83859 96.6855 9.71668 96.7998 9.57954 96.8912C9.4424 96.9826 9.32812 97.116 9.24431 97.2874C9.15669 97.4588 9.14907 97.6531 9.21383 97.8664L9.27478 98.0645C9.37383 98.3807 9.49573 98.5902 9.64811 98.693C9.80049 98.7959 10.0138 98.8035 10.2995 98.7159L12.6995 97.9693C12.9433 97.8931 13.0919 97.7597 13.1452 97.5731C13.1985 97.3826 13.1566 97.0664 13.0157 96.6169L12.749 95.7598C12.669 95.5046 12.509 95.2989 12.2728 95.1389C12.0328 94.9789 11.7852 94.8684 11.5338 94.8075C11.2786 94.7465 10.8786 94.6741 10.3262 94.5865C9.79668 94.4951 9.52621 94.2894 9.51478 93.9694H9.51859Z" fill="black"/>
<path d="M1.09192 89.1086L0.695732 85.143C0.528115 83.4555 0.779541 82.0917 1.45763 81.0479C2.13571 80.0042 3.15285 79.4137 4.51283 79.2804C6.86709 79.0442 8.21183 80.5756 8.54326 83.8783L8.63849 84.8192C8.65754 85.0211 8.76421 85.1164 8.95849 85.1087C9.39277 85.0554 9.73562 84.9564 9.99086 84.8116C10.2461 84.6669 10.4061 84.5259 10.4709 84.385C10.5356 84.244 10.6309 84.1107 10.7528 83.9888C10.8747 83.8631 11.0347 83.7907 11.2366 83.7716C11.4499 83.7488 11.6061 83.8059 11.7013 83.9355C11.8004 84.065 11.8689 84.3164 11.907 84.6859L12.2385 87.9963C12.2727 88.3581 12.2575 88.6172 12.1889 88.7734C12.1204 88.9296 11.9794 89.021 11.7661 89.04C11.5642 89.0591 11.3927 89.0172 11.248 88.9143C11.1032 88.8115 10.9813 88.6896 10.8823 88.5486C10.7832 88.4077 10.5928 88.2934 10.3109 88.2058C10.029 88.1182 9.65944 88.0953 9.2023 88.141L4.2995 88.6324C3.86522 88.6743 3.51475 88.7505 3.25189 88.8572C2.98904 88.9638 2.80618 89.0781 2.70714 89.2C2.60809 89.3219 2.52428 89.4438 2.46333 89.5619C2.39857 89.68 2.31857 89.7867 2.2119 89.8781C2.10524 89.9695 1.96048 90.0229 1.77001 90.0419C1.55667 90.0648 1.40049 90.0038 1.30144 89.8629C1.20239 89.7219 1.13382 89.4705 1.09573 89.1124L1.09192 89.1086ZM7.33565 84.1907C7.26708 83.5012 7.01947 82.9907 6.59661 82.6631C6.17376 82.3355 5.65186 82.2022 5.03854 82.2631C3.96807 82.3698 3.16046 82.705 2.61571 83.2688C2.07095 83.8326 1.83096 84.4269 1.89572 85.0516C1.93 85.3906 1.97572 85.6002 2.03667 85.6725C2.09762 85.7487 2.21952 85.7754 2.39857 85.7563L6.8709 85.3068C7.08423 85.284 7.22518 85.1849 7.28994 85.0059C7.35851 84.8268 7.37375 84.5526 7.33565 84.1793V84.1907Z" fill="black"/>
<path d="M7.78888 69.6655L9.526 68.797C9.85743 68.637 10.1203 68.4351 10.3184 68.1951C10.5165 67.9551 10.6803 67.7761 10.8098 67.6503C10.9393 67.5246 11.1336 67.4713 11.3888 67.4865C11.6022 67.5018 11.7469 67.5818 11.8231 67.7303C11.8993 67.8789 11.926 68.1456 11.9031 68.5303L11.7165 71.5169C11.686 72.0273 11.4765 72.2711 11.0955 72.2483C10.9241 72.2368 10.7412 72.1607 10.5393 72.0121C10.3412 71.8673 10.1736 71.7645 10.0365 71.7073C9.89933 71.6502 9.64029 71.6921 9.25934 71.8254L8.18507 72.3511C8.18507 72.4692 8.18507 72.6445 8.16983 72.8806L8.10888 73.8406C8.09364 74.0539 8.1965 74.1682 8.40983 74.1796L8.50506 74.1873C8.9622 74.2139 9.33172 74.1796 9.60981 74.0806C9.8879 73.9815 10.0746 73.8673 10.1698 73.7377C10.265 73.612 10.3793 73.4901 10.5203 73.3835C10.6612 73.273 10.8327 73.2273 11.0346 73.2387C11.2479 73.254 11.3926 73.3301 11.4688 73.4749C11.545 73.6197 11.5717 73.8749 11.5488 74.2482L11.3431 77.57C11.3203 77.9319 11.2631 78.1833 11.1679 78.3281C11.0727 78.4728 10.9203 78.5376 10.7069 78.5223C10.505 78.5109 10.3412 78.4423 10.2155 78.3166C10.0898 78.1909 9.99076 78.05 9.91457 77.8976C9.83838 77.7452 9.66695 77.6005 9.4041 77.4671C9.14125 77.3338 8.77935 77.25 8.32221 77.2233L3.40417 76.9186C2.96608 76.8919 2.6118 76.911 2.33371 76.9719C2.05562 77.0329 1.86133 77.1205 1.73943 77.2233C1.62134 77.33 1.52229 77.4329 1.43848 77.5395C1.35848 77.6462 1.25944 77.7376 1.14134 77.81C1.02325 77.8824 0.870869 77.9128 0.680395 77.9014C0.467064 77.8862 0.322304 77.8062 0.246114 77.65C0.169925 77.4976 0.143258 77.2386 0.166115 76.8767L0.417541 72.854C0.520397 71.2045 0.977534 69.936 1.79276 69.0522C2.60799 68.1684 3.64798 67.7646 4.91273 67.8446C6.3489 67.9322 7.3127 68.5456 7.7965 69.6731L7.78888 69.6655ZM6.90889 72.9759C6.98889 71.6654 6.33366 70.9683 4.93939 70.8807C3.9375 70.8198 3.14132 71.0026 2.54704 71.4293C1.95276 71.8559 1.63657 72.3892 1.59848 73.0292C1.57943 73.3378 1.59848 73.5359 1.648 73.6273C1.70133 73.7149 1.81181 73.7644 1.98324 73.7758L6.28033 74.0425C6.49366 74.0539 6.64604 73.9739 6.73746 73.7987C6.82889 73.6235 6.88603 73.3492 6.90889 72.9759Z" fill="black"/>
<path d="M13.4385 61.902C13.0842 63.3533 12.2956 64.4657 11.0766 65.2352C9.85756 66.0047 8.48996 66.2104 6.97759 65.8409C5.30904 65.4333 4.02906 64.5228 3.14145 63.1095C2.25003 61.6963 2.00622 60.1649 2.41003 58.5154C2.79098 56.9612 3.60621 55.8336 4.85952 55.1289C6.11284 54.4241 7.50711 54.2603 9.03852 54.6337C10.6956 55.0374 11.9452 55.9326 12.787 57.3193C13.6289 58.7059 13.8461 60.2334 13.4385 61.902ZM12.1318 60.5763C12.4671 59.1973 11.6975 58.2792 9.82327 57.8221C8.98519 57.6164 8.12044 57.5402 7.23664 57.5935C6.34903 57.6469 5.55666 57.8564 4.85191 58.2221C4.14715 58.5878 3.71668 59.0868 3.5643 59.7192C3.39288 60.4239 3.53383 61.0144 3.98715 61.4944C4.44048 61.9743 5.10714 62.321 5.99094 62.5343C6.80998 62.7324 7.64806 62.8086 8.5052 62.7553C9.36233 62.7019 10.1433 62.4886 10.8442 62.1153C11.5452 61.742 11.9756 61.2315 12.1356 60.5763H12.1318Z" fill="black"/>
<path d="M5.05759 49.99L6.85186 46.0245C7.27852 45.0836 7.79661 44.3026 8.40231 43.6893C9.00802 43.076 9.6442 42.6494 10.3071 42.4094C10.9699 42.1732 11.6442 42.0703 12.3261 42.1008C13.008 42.1351 13.6746 42.2989 14.3261 42.5922C15.8613 43.2855 16.9013 44.3598 17.4422 45.8111C17.987 47.2625 17.9031 48.771 17.1946 50.3367L15.2632 54.607C15.1146 54.9384 14.9699 55.1518 14.8289 55.2546C14.688 55.3575 14.5241 55.3613 14.3299 55.2737C14.1546 55.1937 14.0327 55.0946 13.9642 54.9765C13.8956 54.8584 13.8499 54.7327 13.827 54.5994C13.8042 54.4661 13.7661 54.3251 13.7089 54.1766C13.6518 54.028 13.5184 53.8604 13.3013 53.6775C13.088 53.4909 12.7794 53.3118 12.3794 53.129L8.06327 51.1748C7.66708 50.9957 7.32423 50.8853 7.04614 50.8472C6.76805 50.8091 6.55091 50.8167 6.40234 50.8738C6.25377 50.931 6.12424 50.9919 6.00996 51.0643C5.89568 51.1367 5.76996 51.1862 5.63663 51.2129C5.5033 51.2395 5.34711 51.2129 5.17188 51.1329C4.97759 51.0452 4.87093 50.9157 4.85569 50.7443C4.84045 50.5729 4.90521 50.3215 5.05378 49.99H5.05759ZM16.0213 50.0167C16.3946 49.1901 16.4136 48.4168 16.0822 47.6892C15.747 46.9654 15.0537 46.3635 13.9946 45.8835C12.6461 45.274 11.3623 45.0683 10.1547 45.2702C8.94707 45.4721 8.14708 46.0016 7.75851 46.8549C7.64423 47.1063 7.60613 47.3082 7.64423 47.453C7.68232 47.5978 7.83089 47.7311 8.08232 47.8454L14.5851 50.7862C14.886 50.9233 15.1451 50.9538 15.3622 50.8738C15.5794 50.7976 15.8003 50.5081 16.0251 50.0129L16.0213 50.0167Z" fill="black"/>
<path d="M23.2592 39.8799C22.3335 41.2246 21.2973 41.956 20.1545 42.0817C19.0117 42.2074 17.6479 41.7198 16.0555 40.6227L13.7241 39.0152C13.4155 38.8018 13.1412 38.6571 12.8974 38.5809C12.6536 38.5047 12.4555 38.478 12.3032 38.5123C12.1508 38.5466 12.0098 38.5847 11.8803 38.6304C11.7508 38.6761 11.6175 38.699 11.4841 38.699C11.3508 38.699 11.2137 38.6457 11.0727 38.5504C10.8975 38.4285 10.8137 38.2876 10.8213 38.1238C10.8289 37.96 10.9432 37.72 11.1603 37.4076L13.0498 34.6687C13.2632 34.3601 13.4422 34.1734 13.5946 34.1011C13.747 34.0325 13.9108 34.0553 14.086 34.1772C14.227 34.2725 14.3184 34.3868 14.3679 34.5163C14.4136 34.6458 14.4403 34.7791 14.4403 34.9163C14.4403 35.0534 14.4555 35.1982 14.4784 35.3505C14.5012 35.5029 14.5927 35.682 14.7488 35.8877C14.905 36.0934 15.1374 36.3029 15.446 36.5124L18.2498 38.4476C19.1183 39.0456 19.8993 39.339 20.5964 39.3161C21.2897 39.2971 21.8573 38.9656 22.2992 38.3257C22.7373 37.6933 22.8326 37.0381 22.5888 36.3562C22.3449 35.6781 21.7583 35.0153 20.8288 34.3715L17.4231 31.983C17.1526 31.7964 16.8212 31.743 16.4288 31.8307C16.0365 31.9183 15.7698 31.9107 15.6212 31.8078C15.4612 31.6973 15.3888 31.5792 15.4003 31.4497C15.4117 31.3202 15.4955 31.1412 15.6517 30.9126L16.6422 29.4765C16.825 29.2136 16.9736 29.0536 17.0955 29.0041C17.2174 28.9508 17.3545 28.9812 17.5145 29.0879C17.6479 29.1793 17.7431 29.4231 17.8041 29.8231C17.865 30.2231 18.0288 30.5202 18.2955 30.7183L21.2973 32.7906C22.9964 33.9753 23.9754 35.1182 24.2383 36.2191C24.5011 37.32 24.1735 38.539 23.2516 39.8723L23.2592 39.8799Z" fill="black"/>
<path d="M26.4898 22.1472L26.4479 23.3243L32.1583 25.3852C32.5126 25.5109 32.8402 25.5871 33.145 25.6099C33.4459 25.6328 33.6745 25.6252 33.8231 25.5833C33.9754 25.5452 34.1278 25.5375 34.2802 25.5642C34.4364 25.5909 34.585 25.6747 34.7259 25.8156C34.8783 25.968 34.9316 26.1242 34.8935 26.2842C34.8516 26.448 34.6954 26.6651 34.425 26.9356L32.204 29.1717C31.9488 29.4307 31.7393 29.5793 31.5793 29.6212C31.4155 29.6631 31.2593 29.6098 31.1107 29.4574C30.9888 29.3355 30.9126 29.1488 30.8821 28.8936C30.8517 28.6384 30.8136 28.4327 30.7679 28.2841C30.7221 28.1317 30.5164 27.9679 30.1545 27.7889L26.3489 26.3756L26.2536 28.9431L27.206 29.8917C27.5298 30.2155 27.8307 30.4326 28.1088 30.5393C28.3831 30.6497 28.6003 30.684 28.7526 30.6497C28.9088 30.6155 29.0726 30.604 29.2517 30.6155C29.4307 30.6269 29.5907 30.7031 29.7317 30.844C29.8841 30.9964 29.9412 31.1488 29.9031 31.3088C29.865 31.4688 29.7164 31.6783 29.4536 31.9449L27.1069 34.3068C26.8517 34.5658 26.6422 34.7144 26.4746 34.7601C26.307 34.8058 26.1508 34.7525 25.9984 34.6039C25.8536 34.4629 25.7774 34.3029 25.766 34.1239C25.7546 33.9449 25.7698 33.7734 25.8155 33.6096C25.8612 33.442 25.827 33.2249 25.7165 32.9468C25.606 32.6725 25.3889 32.3716 25.0613 32.0478L21.427 28.4403C21.1032 28.1165 20.8023 27.9032 20.5242 27.7927C20.2499 27.686 20.0327 27.6479 19.8727 27.686C19.7128 27.7241 19.5451 27.7394 19.3699 27.7279C19.1909 27.7165 19.0309 27.6403 18.8899 27.4994C18.7375 27.3508 18.6842 27.1946 18.7223 27.0308C18.7642 26.867 18.9166 26.6537 19.1794 26.3908L21.5261 24.029C21.7813 23.77 21.9908 23.6214 22.1508 23.5795C22.3146 23.5376 22.4708 23.591 22.6194 23.7433C22.7641 23.8881 22.8403 24.0481 22.8518 24.2233C22.8632 24.4023 22.8518 24.57 22.8099 24.7338C22.768 24.8976 22.8022 25.1147 22.9127 25.389C23.0232 25.6633 23.2403 25.9642 23.5679 26.2842L24.966 27.6708L25.0994 23.5414C25.107 23.2481 25.0574 23.0386 24.9508 22.9205C24.8441 22.7986 24.7222 22.7491 24.5889 22.7643C24.4517 22.7796 24.2956 22.7872 24.1203 22.7834C23.9413 22.7834 23.8079 22.7338 23.7165 22.6424C23.5718 22.5015 23.5108 22.3567 23.5298 22.2081C23.5489 22.0596 23.6556 21.8882 23.8498 21.6939L25.587 19.9454C26.0517 19.4768 26.4212 19.3778 26.6955 19.6482C26.8327 19.7816 26.905 19.9187 26.9127 20.0558C26.9203 20.193 26.8936 20.3263 26.8365 20.4634C26.7755 20.6006 26.707 20.8215 26.6308 21.1263C26.5508 21.431 26.5051 21.7739 26.4936 22.151L26.4898 22.1472Z" fill="black"/>
<path d="M35.0077 15.214L38.5734 20.1967C38.8401 20.57 39.0991 20.8328 39.3543 20.9852C39.6096 21.1376 39.8153 21.21 39.9715 21.2023C40.1315 21.1947 40.2953 21.21 40.4667 21.2519C40.6381 21.2938 40.7867 21.3966 40.9048 21.5604C41.0305 21.7357 41.061 21.8957 40.9962 22.0442C40.9315 22.1928 40.7486 22.3794 40.4477 22.5966L37.7277 24.5432C37.4344 24.7527 37.202 24.867 37.0344 24.8822C36.8667 24.8975 36.722 24.8175 36.5963 24.6422C36.4782 24.4784 36.4287 24.307 36.4477 24.1318C36.4668 23.9565 36.5087 23.7889 36.5772 23.6365C36.6458 23.4842 36.6458 23.2632 36.5848 22.9737C36.5201 22.6842 36.3563 22.3528 36.0896 21.9795L32.5239 16.9968C32.2801 16.6577 32.0097 16.5968 31.7049 16.8139C31.3849 17.0425 31.2059 17.3434 31.164 17.7091C31.1259 18.0786 31.164 18.6424 31.2744 19.4005C31.343 19.8081 31.2897 20.0786 31.1068 20.2081C30.8363 20.4024 30.543 20.2538 30.2192 19.7624C29.7049 18.9891 29.3545 18.3529 29.1716 17.8577C29.0649 17.5796 29.0573 17.3358 29.1487 17.1263C29.2402 16.9168 29.4725 16.6768 29.8459 16.4101L35.3125 12.5017C35.6858 12.235 35.9868 12.0903 36.2153 12.0712C36.4439 12.0522 36.6725 12.136 36.901 12.3265C37.3125 12.6617 37.8001 13.1988 38.3677 13.934C38.7258 14.3988 38.7715 14.7264 38.501 14.9207C38.3105 15.0578 38.0401 15.0273 37.6896 14.8331C37.0077 14.4674 36.4858 14.2464 36.1201 14.1664C35.7544 14.0864 35.4115 14.1626 35.0915 14.3912C34.7982 14.6007 34.7715 14.875 35.0115 15.214H35.0077Z" fill="black"/>
<path d="M49.5482 13.0695C49.7387 13.0199 49.8872 13.0428 49.9939 13.138C50.1006 13.2333 50.2225 13.4199 50.352 13.7018C50.7444 14.5437 50.992 15.2256 51.1024 15.7437C51.171 16.0446 51.1444 16.2884 51.0186 16.4789C50.8929 16.6693 50.6263 16.8674 50.2186 17.0731L44.1959 20.1283C43.8721 20.2921 43.6244 20.3721 43.453 20.3606C43.2816 20.353 43.1483 20.254 43.0492 20.0635C42.9616 19.8921 42.9273 19.7397 42.9502 19.6026C42.9692 19.4654 43.0149 19.3397 43.0797 19.2216C43.1444 19.1035 43.2016 18.9702 43.2511 18.8216C43.3006 18.6693 43.3006 18.4559 43.2511 18.1779C43.1978 17.8998 43.0759 17.5645 42.8778 17.176L40.733 12.9514C40.535 12.5628 40.3407 12.2619 40.1464 12.0562C39.9521 11.8505 39.7807 11.7209 39.6283 11.6714C39.4759 11.6219 39.335 11.5914 39.2016 11.5724C39.0683 11.5571 38.9388 11.5152 38.8169 11.4543C38.695 11.3895 38.5921 11.2714 38.5045 11.1C38.4093 10.9095 38.4055 10.7419 38.5045 10.601C38.5997 10.4562 38.8093 10.3039 39.1331 10.1401L44.7559 7.28682C45.4797 6.92112 46.0206 6.87922 46.3787 7.16111C46.7939 7.46586 47.1977 7.85823 47.5863 8.34202C47.9292 8.80296 47.9939 9.1458 47.7844 9.37056C47.5673 9.59912 47.2434 9.60293 46.8168 9.37817C46.253 9.09247 45.7501 8.92105 45.3159 8.87534C44.8816 8.82962 44.4511 8.90962 44.0321 9.12295L43.4911 9.39722C43.1406 9.57626 42.9235 9.74388 42.8435 9.90387C42.7635 10.0639 42.7825 10.2581 42.8968 10.4867L43.7159 12.0981C43.8454 12.3533 44.0054 12.5019 44.1921 12.54C44.3787 12.5781 44.6149 12.5247 44.9006 12.38L45.0873 12.2847C45.2854 12.1819 45.4187 12.0409 45.4835 11.8619C45.5482 11.679 45.5635 11.5114 45.5368 11.3514C45.5101 11.1914 45.5101 11.0314 45.5406 10.8638C45.5711 10.7 45.6587 10.5819 45.7997 10.5096C45.9901 10.4143 46.1501 10.3991 46.2796 10.4638C46.4092 10.5286 46.5387 10.6924 46.6682 10.9476L47.6815 12.9438C47.8072 13.1914 47.8606 13.3895 47.8415 13.5456C47.8225 13.698 47.7196 13.8237 47.5292 13.919C47.3844 13.9913 47.2396 13.9913 47.0873 13.919C46.9349 13.8466 46.8015 13.7475 46.6873 13.6295C46.573 13.5075 46.4206 13.4199 46.2377 13.3628C46.0549 13.3057 45.8606 13.3285 45.6625 13.4314L45.4759 13.5266C45.1825 13.6752 44.9959 13.8352 44.9159 13.999C44.8397 14.1628 44.8663 14.3799 45.0035 14.6466L46.1387 16.8865C46.253 17.115 46.4092 17.2407 46.6073 17.2598C46.8015 17.2788 47.1101 17.1836 47.5292 16.9703L48.3291 16.5665C48.5653 16.4446 48.7444 16.2541 48.8625 15.9913C48.9806 15.7284 49.0491 15.4656 49.0644 15.2065C49.0834 14.9475 49.0872 14.5361 49.0796 13.9799C49.0796 13.4428 49.2396 13.138 49.5558 13.0771L49.5482 13.0695Z" fill="black"/>
<path d="M59.0609 9.61802L60.5009 10.9208C60.7713 11.1684 61.0532 11.3437 61.3466 11.4389C61.6399 11.5341 61.8685 11.6218 62.0323 11.6979C62.1961 11.7741 62.318 11.9341 62.3942 12.1779C62.4589 12.3798 62.4361 12.5436 62.3256 12.6693C62.2151 12.7951 61.9751 12.917 61.6094 13.0312L58.7599 13.9417C58.2723 14.0979 57.9714 13.9912 57.8533 13.6255C57.7999 13.4617 57.8076 13.2636 57.8723 13.0236C57.9371 12.7836 57.9676 12.5932 57.9714 12.4446C57.9714 12.2998 57.8418 12.0713 57.579 11.7627L56.699 10.9513C56.5885 10.997 56.4247 11.0542 56.2 11.1265L55.2857 11.4199C55.0838 11.4846 55.0152 11.618 55.08 11.8237L55.1105 11.9151C55.2514 12.3532 55.419 12.6808 55.6133 12.9055C55.8076 13.1303 55.9828 13.2598 56.1352 13.3017C56.2876 13.3436 56.44 13.4084 56.5923 13.4998C56.7447 13.5912 56.8514 13.7322 56.9123 13.9264C56.9771 14.1283 56.9581 14.2921 56.8514 14.4179C56.7447 14.5398 56.5161 14.6617 56.1581 14.7721L52.9886 15.7854C52.6419 15.8959 52.3867 15.934 52.2191 15.8959C52.0514 15.8616 51.9333 15.7397 51.8686 15.5378C51.8076 15.3435 51.8114 15.1683 51.8838 15.0045C51.9562 14.8407 52.0476 14.6959 52.1657 14.5702C52.2838 14.4445 52.3562 14.2312 52.3829 13.9379C52.4133 13.6445 52.3562 13.2788 52.2153 12.8408L50.7143 8.1476C50.581 7.73238 50.4362 7.40477 50.2762 7.1724C50.1162 6.93622 49.9677 6.78384 49.8267 6.71146C49.6858 6.63908 49.5524 6.58575 49.4229 6.54766C49.2934 6.50956 49.1753 6.45242 49.0648 6.36862C48.9543 6.28481 48.8705 6.15529 48.8134 5.97244C48.7486 5.77054 48.7753 5.60293 48.8896 5.47722C49.0077 5.35151 49.2362 5.23342 49.5829 5.12295L53.4229 3.89633C54.9962 3.39349 56.3447 3.3592 57.4647 3.79728C58.5847 4.23536 59.339 5.05819 59.7237 6.26576C60.1618 7.63714 59.9447 8.75329 59.0647 9.61802H59.0609ZM55.6552 10.0028C56.9047 9.60279 57.3161 8.73806 56.8895 7.40858C56.5847 6.45242 56.1238 5.77816 55.5104 5.38199C54.8971 4.98581 54.2838 4.88296 53.6743 5.07724C53.3809 5.17247 53.2019 5.26009 53.1371 5.34008C53.0724 5.42389 53.0686 5.54579 53.1219 5.70578L54.4324 9.80468C54.4971 10.0066 54.6266 10.1209 54.8247 10.1399C55.0228 10.159 55.2971 10.1132 55.6552 9.99896V10.0028Z" fill="black"/>
<path d="M72.1881 7.52305L69.449 7.77447C69.2243 7.79351 69.0643 7.77447 68.9691 7.7059C68.8738 7.64114 68.8472 7.50781 68.8929 7.30972L68.9729 6.94783C69.0072 6.74212 69.0681 6.59737 69.1595 6.51356C69.2471 6.42975 69.3919 6.38023 69.5938 6.36118L72.3519 6.10976C72.5652 6.09072 72.7176 6.11357 72.8166 6.17833C72.9119 6.24309 72.9462 6.37642 72.9081 6.5707L72.8281 6.93259C72.7938 7.1383 72.7328 7.28306 72.6414 7.36686C72.5538 7.45067 72.4014 7.50019 72.1881 7.51924V7.52305Z" fill="black"/>
</svg>
