<?xml version="1.0" encoding="UTF-8"?><svg id="Layer_2" xmlns="http://www.w3.org/2000/svg" width="288.27" height="353" viewBox="0 0 288.27 353"><defs><style>.cls-1{fill:#fff;}</style></defs><g id="Layer_1-2"><path class="cls-1" d="m12.91,165.93h11.95c7.13,0,10.91-3.72,10.91-10.73v-7.44c0-7.01-3.78-10.73-10.91-10.73H.72v43.59h12.19v-14.69Zm0-18.53h8.23c1.83,0,2.44.61,2.44,2.38v3.41c0,1.77-.61,2.38-2.44,2.38h-8.23v-8.17Z"/><polygon class="cls-1" points="73.57 170.26 55.28 170.26 55.28 137.04 43.09 137.04 43.09 180.62 73.57 180.62 73.57 170.26"/><path class="cls-1" d="m90.34,180.62l2.5-8.6h14.51l2.44,8.6h12.5l-13.29-43.59h-17.86l-13.29,43.59h12.5Zm9.75-33.89l4.27,14.93h-8.59l4.33-14.93Z"/><polygon class="cls-1" points="121.67 147.4 133.56 147.4 133.56 180.62 145.75 180.62 145.75 147.4 157.64 147.4 157.64 137.04 121.67 137.04 121.67 147.4"/><polygon class="cls-1" points="195.74 147.4 195.74 137.04 164.65 137.04 164.65 180.62 195.74 180.62 195.74 170.26 176.84 170.26 176.84 163.55 193.18 163.55 193.18 153.19 176.84 153.19 176.84 147.4 195.74 147.4"/><path class="cls-1" d="m231.77,137.04h-17.86l-13.29,43.59h12.5l2.5-8.6h14.51l2.44,8.6h12.5l-13.29-43.59Zm-13.23,24.63l4.33-14.93,4.27,14.93h-8.59Z"/><path class="cls-1" d="m263.05,168.49v-31.45h-12.19v33.47c0,7.01,3.78,10.73,10.91,10.73h13.84c7.13,0,10.91-3.72,10.91-10.73v-33.47h-12.19v31.45c0,1.77-.61,2.38-2.44,2.38h-6.4c-1.83,0-2.44-.61-2.44-2.38Z"/><polygon class="cls-1" points="16.42 198.4 10.57 198.4 6.3 205.18 5.04 205.18 5.04 198.4 0 198.4 0 216.43 5.04 216.43 5.04 209.47 6.28 209.47 10.79 216.43 16.67 216.43 10.74 207.35 16.42 198.4"/><path class="cls-1" d="m23.08,216.68h5.98c2.95,0,4.51-1.54,4.51-4.44v-9.66c0-1.89-.68-3.2-1.97-3.88l1.21-2.42h-2.35l-.93,1.89c-.15-.03-.33-.03-.48-.03h-5.98c-2.95,0-4.51,1.54-4.51,4.44v9.66c0,1.92.68,3.23,1.99,3.91l-1.41,2.82h2.35l1.16-2.29h.43Zm5.45-5.27c0,.73-.25.98-1.01.98h-2.75l3.76-7.52v6.53Zm-4.92-8c0-.73.25-.98,1.01-.98h2.77l-3.78,7.59v-6.61Z"/><path class="cls-1" d="m37.36,216.43h10.06c2.95,0,4.51-1.54,4.51-4.44v-9.16c0-2.9-1.56-4.44-4.51-4.44h-10.06v18.03Zm5.04-13.74h3.48c.76,0,1.01.25,1.01.98v7.49c0,.73-.25.98-1.01.98h-3.48v-9.46Z"/><path class="cls-1" d="m70.35,211.99v-1.56c0-1.74-.55-2.8-2.04-3.46,1.24-.81,1.69-1.69,1.69-2.98v-1.16c0-2.9-1.56-4.44-4.51-4.44h-9.76v18.03h10.11c2.95,0,4.51-1.54,4.51-4.44Zm-9.58-9.46h3.18c.76,0,1.01.25,1.01.98v.76c0,.73-.25.98-1.01.98h-3.18v-2.72Zm4.54,8.78c0,.73-.25.98-1.01.98h-3.53v-2.9h3.53c.76,0,1.01.25,1.01.98v.93Z"/><polygon class="cls-1" points="83.14 216.43 83.14 210.33 89.47 198.4 83.87 198.4 80.62 204.8 77.34 198.4 71.74 198.4 78.07 210.33 78.07 216.43 83.14 216.43"/><polygon class="cls-1" points="105.24 212.14 97.42 212.14 97.42 209.37 104.18 209.37 104.18 205.08 97.42 205.08 97.42 202.69 105.24 202.69 105.24 198.4 92.37 198.4 92.37 216.43 105.24 216.43 105.24 212.14"/><polygon class="cls-1" points="124.61 198.4 119.57 198.4 119.57 208.03 113.71 198.4 108.85 198.4 108.85 216.43 113.89 216.43 113.89 206.8 119.74 216.43 124.61 216.43 124.61 198.4"/><path class="cls-1" d="m149.48,211.99v-9.16c0-2.9-1.56-4.44-4.51-4.44h-10.06v18.03h10.06c2.95,0,4.51-1.54,4.51-4.44Zm-5.04-.83c0,.73-.25.98-1.01.98h-3.48v-9.46h3.48c.76,0,1.01.25,1.01.98v7.49Z"/><rect class="cls-1" x="153.27" y="198.4" width="5.04" height="18.03"/><path class="cls-1" d="m177.05,212.24v-2.67c0-2.6-1.16-3.73-4.31-4.19l-4.04-.58c-1.44-.2-1.61-.3-1.61-.96v-.43c0-.71.28-.98,1.06-.98h2.77c.76,0,1.01.25,1.01.98v.18l5.02-.61c.03-.1.03-.13.03-.4,0-2.9-1.56-4.44-4.51-4.44h-5.9c-2.95,0-4.51,1.54-4.51,4.44v2.65c0,2.55,1.21,3.68,4.34,4.14l4.03.58c1.34.2,1.59.33,1.59.96v.5c0,.73-.25.98-1.01.98h-2.98c-.76,0-1.01-.25-1.01-.98v-.18l-5.02.61c-.03.08-.03.1-.03.4,0,2.9,1.56,4.44,4.51,4.44h6.05c2.95,0,4.51-1.54,4.51-4.44Z"/><polygon class="cls-1" points="189.54 202.69 194.46 202.69 194.46 198.4 179.58 198.4 179.58 202.69 184.5 202.69 184.5 216.43 189.54 216.43 189.54 202.69"/><rect class="cls-1" x="197.36" y="198.4" width="5.04" height="18.03"/><polygon class="cls-1" points="206.44 198.4 206.44 216.43 219.05 216.43 219.05 212.14 211.49 212.14 211.49 198.4 206.44 198.4"/><polygon class="cls-1" points="227 198.4 221.95 198.4 221.95 216.43 234.57 216.43 234.57 212.14 227 212.14 227 198.4"/><polygon class="cls-1" points="250.33 202.69 250.33 198.4 237.47 198.4 237.47 216.43 250.33 216.43 250.33 212.14 242.51 212.14 242.51 209.37 249.27 209.37 249.27 205.08 242.51 205.08 242.51 202.69 250.33 202.69"/><path class="cls-1" d="m268.57,205.81v-2.98c0-2.9-1.56-4.44-4.51-4.44h-10.06v18.03h5.04v-6.18h1.74l4.01,6.18h5.88l-4.31-6.61c1.46-.63,2.22-1.99,2.22-4.01Zm-5.04-.83c0,.73-.25.98-1.01.98h-3.48v-3.28h3.48c.76,0,1.01.25,1.01.98v1.31Z"/><polygon class="cls-1" points="282.67 198.4 279.42 204.8 276.14 198.4 270.54 198.4 276.87 210.33 276.87 216.43 281.94 216.43 281.94 210.33 288.27 198.4 282.67 198.4"/><polygon class="cls-1" points="54.9 230.49 53.32 230.49 53.27 234.23 43.17 234.48 43.34 230.49 41.77 230.49 41.54 236.1 54.81 235.75 54.9 230.49"/><path class="cls-1" d="m143.03,255.31l-.82-.05c-1.72-.08-3.44-.35-5.1-.8l-.75-.22-1.37,4.76.78.2c2.01.52,4.05.86,6.05,1.02l.77.06.43-4.99Zm-1.86,3.29c-1.4-.15-2.82-.39-4.23-.71l.5-1.72c1.25.3,2.56.51,3.88.62l-.15,1.81Z"/><path class="cls-1" d="m142.22,264.86l-.79-.06c-2.33-.19-4.68-.59-6.98-1.19l-.74-.19-3.39,11.76.71.24c3.04,1.05,6.18,1.7,9.33,1.94l.78.06,1.08-12.57Zm-9.97,9.31l2.55-8.86c1.87.45,3.79.78,5.72.98l-.81,9.44c-2.51-.25-5.01-.77-7.46-1.56Z"/><path class="cls-1" d="m140.75,281.99l-.79-.06c-3.42-.27-6.83-.97-10.14-2.08l-.77-.25-3.89,13.5.7.25c4.11,1.46,8.32,2.2,12.51,2.2.17,0,.35,0,.52,0h.72l1.15-13.55Zm-13.68,10.11l3.04-10.52c2.93.92,5.94,1.54,8.94,1.83l-.9,10.56c-3.7-.02-7.42-.65-11.08-1.87Z"/><path class="cls-1" d="m136.35,311.99c.38,0,.77,0,1.15-.02l.7-.03,1.01-11.82h-.86c-4.61,0-9.22-.8-13.69-2.35l-.78-.27-3.19,11.07.64.27c4.91,2.09,9.96,3.15,15.01,3.15Zm1.15-10.31l-.74,8.74c-4.76.05-9.53-.87-14.17-2.75l2.34-8.15c4.11,1.35,8.34,2.07,12.57,2.16Z"/><path class="cls-1" d="m130.49,257.34l.69.38,2.47-4.49-.74-.36c-1.53-.76-2.99-1.7-4.33-2.79l-.6-.49-3.25,3.86.64.5c1.66,1.31,3.38,2.45,5.11,3.39Zm-3.5-4.13l1.22-1.44c1.04.79,2.14,1.5,3.28,2.12l-.93,1.69c-1.18-.68-2.38-1.48-3.57-2.37Z"/><path class="cls-1" d="m122.88,272.76l6.09-11.04-.69-.38c-2.04-1.11-4.02-2.43-5.89-3.91l-.6-.49-7.88,9.36.54.51c2.35,2.19,4.95,4.06,7.73,5.56l.69.38Zm-6.8-6.59l5.93-7.05c1.55,1.19,3.17,2.27,4.83,3.22l-4.58,8.29c-2.18-1.25-4.26-2.74-6.18-4.46Z"/><path class="cls-1" d="m114.11,288.68l6.56-11.91-.7-.37c-2.99-1.62-5.82-3.65-8.41-6.03l-.61-.54-9.05,10.75.53.52c3.29,3.13,7,5.58,11.02,7.31l.66.28Zm-10.05-8.23l7.05-8.37c2.31,2.04,4.81,3.83,7.43,5.32l-5.11,9.27c-3.38-1.53-6.52-3.62-9.36-6.22Z"/><path class="cls-1" d="m105.52,302.85l.65.25,5.72-10.38-.77-.35c-4.2-1.88-8.09-4.47-11.55-7.72l-.61-.56-7.41,8.82.47.51c3.92,4.21,8.46,7.38,13.51,9.44Zm-11.89-10.01l5.46-6.49c3.21,2.9,6.77,5.28,10.6,7.09l-4.23,7.68c-4.37-1.88-8.34-4.67-11.83-8.28Z"/><path class="cls-1" d="m121.8,250.71l4.13-3.13-.53-.64c-1.1-1.31-2.06-2.74-2.85-4.27l-.35-.69-4.55,2.22.24.46.14.26c.97,1.84,2.08,3.58,3.3,5.18l.47.61Zm-.28-6.65c.63,1.14,1.36,2.23,2.16,3.25l-1.58,1.2c-.83-1.14-1.6-2.35-2.3-3.62l1.72-.84Z"/><path class="cls-1" d="m107.62,260.46l.47.63,10.06-7.61-.48-.62c-1.41-1.85-2.69-3.86-3.79-5.98l-.36-.67-11,5.35.3.69c1.26,2.96,2.87,5.73,4.8,8.22Zm.78-1.57c-1.5-2.03-2.78-4.24-3.83-6.59l8.29-4.03c.91,1.69,1.95,3.33,3.1,4.9l-7.55,5.71Z"/><path class="cls-1" d="m93.62,272.06l10.83-8.2-.47-.63c-2.09-2.72-3.85-5.72-5.24-8.92l-.32-.75-12.65,6.14.28.68h0c1.73,4.2,4.12,7.95,7.09,11.16l.48.51Zm4.01-16.38c1.28,2.81,2.84,5.46,4.62,7.88l-8.44,6.4c-2.46-2.78-4.49-5.97-6.02-9.49l9.85-4.78Z"/><path class="cls-1" d="m79.99,281.5l.48.51,9.46-7.16-.56-.64c-3.07-3.42-5.57-7.37-7.41-11.74l-.32-.77-10.37,5.04.22.66c1.87,5.43,4.73,10.17,8.5,14.1Zm.66-1.59c-3.23-3.51-5.73-7.67-7.44-12.37l7.63-3.71c1.75,3.96,4.04,7.59,6.79,10.79l-6.99,5.29Z"/><path class="cls-1" d="m119.96,232.69l-5.02.16.05.81c.14,2.09.44,4.13.9,6.07l.19.76,5.06-1.18-.23-.8c-.49-1.64-.79-3.34-.89-5.07l-.05-.76Zm-2.72,5.92c-.29-1.39-.5-2.81-.63-4.24l1.88-.06c.13,1.33.35,2.62.67,3.85l-1.93.45Z"/><path class="cls-1" d="m99.33,244.4l12.29-2.86-.19-.77c-.54-2.27-.88-4.63-1.02-7l-.05-.76-12.23.41v.75c-.07,3.21.28,6.4,1.02,9.47l.17.76Zm9.56-9.77c.15,1.94.43,3.87.84,5.74l-9.23,2.15c-.54-2.47-.81-5.01-.82-7.58l9.21-.31Z"/><path class="cls-1" d="m81.65,248.53l13.22-3.09-.17-.77c-.8-3.32-1.19-6.77-1.16-10.28v-.82s-14.03.47-14.03.47l-.03.74c-.12,4.54.53,8.94,1.94,13.08l.23.67Zm10.32-13.33c.03,3.08.37,6.12,1.02,9.07l-10.32,2.41c-1.12-3.54-1.67-7.27-1.65-11.11l10.94-.37Z"/><path class="cls-1" d="m65.59,252.28l11.56-2.7-.27-.81c-1.42-4.4-2.09-9.02-1.99-13.74l.02-.83-11.51.38-.06.69c-.51,5.72.17,11.21,2.02,16.34l.24.66Zm1.02-1.85c-1.53-4.51-2.12-9.33-1.76-14.32l8.47-.29c0,4.33.6,8.57,1.83,12.62l-8.54,1.99Z"/><polygon class="cls-1" points="233.8 230.49 232.22 230.49 232.3 235.75 245.58 236.1 245.34 230.49 243.77 230.49 243.94 234.48 233.85 234.23 233.8 230.49"/><polygon class="cls-1" points="250.04 241.87 250.19 230.49 248.62 230.49 248.49 240.17 232.13 238.84 230.12 253.49 242.45 256.51 243.81 250.52 238.08 249.07 238.53 245.29 247.98 246.67 244.21 261.08 228.71 256.49 223.86 270.99 234.69 276.33 237.03 270.67 232.67 268.14 233.56 265.81 242.49 269.09 236.91 281.44 222.03 273.58 214.44 286.69 224.98 294.4 227.91 289.31 223.3 285.43 224.76 283.31 232.35 287.61 224.44 298.9 212.59 288.33 201.35 299.53 209.03 308.75 214.37 304.3 210.23 299.67 212.83 297.5 220.61 305.67 208.85 314.71 199.1 301.69 187.37 309.92 192.79 320.61 198.63 317.94 195.89 311.9 198.2 309.97 203.69 318.58 191.7 326.32 184.69 310.62 169.74 316.62 173.6 329.21 179.1 327.25 177.83 321.01 179.97 320.08 183.43 329.41 171.47 333.44 166.59 317.26 151.66 320.45 153.53 332.23 160.09 331.84 159.72 327.21 161.61 326.6 163.72 335.58 151.18 336.18 149.27 320.55 144.17 320.36 144.17 320.32 143.95 320.33 143.95 320.32 143.56 320.34 143.17 320.32 143.17 320.33 142.95 320.33 142.95 320.36 137.85 320.55 135.94 336.18 123.4 335.58 125.51 326.6 127.4 327.21 127.03 331.84 133.58 332.23 135.46 320.45 120.53 317.26 115.65 333.44 103.69 329.41 107.15 320.08 109.29 321.01 108.02 327.25 113.52 329.21 117.38 316.62 102.42 310.62 95.42 326.32 83.43 318.58 88.92 309.97 91.23 311.9 88.49 317.94 94.33 320.61 99.75 309.92 88.01 301.69 78.27 314.71 66.51 305.67 74.29 297.5 76.88 299.67 72.75 304.3 78.09 308.75 85.77 299.53 74.53 288.33 62.68 298.9 54.77 287.61 62.36 283.31 63.82 285.43 59.21 289.31 62.13 294.4 72.68 286.69 65.09 273.58 50.21 281.44 44.63 269.09 53.55 265.81 54.44 268.14 50.09 270.67 52.43 276.33 63.26 270.99 58.41 256.49 42.91 261.08 39.14 246.67 48.58 245.29 49.04 249.07 43.31 250.52 44.67 256.51 57 253.49 54.99 238.84 38.63 240.17 38.5 230.49 36.93 230.49 37.08 241.87 53.64 240.52 55.25 252.3 45.85 254.61 45.18 251.67 50.76 250.25 49.95 243.5 37.18 245.37 41.8 263.04 57.4 258.42 61.34 270.19 53.24 274.18 52.07 271.34 56.38 268.82 54.47 263.8 42.5 268.2 49.47 283.61 64.49 275.67 70.62 286.25 62.62 292.1 61.22 289.67 65.92 285.71 62.83 281.24 52.49 287.09 62.41 301.25 74.47 290.49 83.65 299.63 77.89 306.54 75 304.14 79.14 299.5 74.17 295.36 64.17 305.85 78.58 316.93 88.36 303.84 97.74 310.42 93.62 318.55 90.57 317.16 93.15 311.46 88.55 307.63 81.27 319.05 96.1 328.63 103.24 312.64 115.45 317.54 112.5 327.18 109.83 326.23 111.08 320.07 106.26 317.98 101.66 330.38 116.68 335.45 121.62 319.1 133.68 321.68 132.26 330.58 128.72 330.37 129.07 326.1 124.37 324.58 121.44 337.05 137.32 337.81 139.25 322.07 143.56 321.91 147.87 322.07 149.8 337.81 165.68 337.05 162.75 324.58 158.05 326.1 158.4 330.37 154.86 330.58 153.44 321.68 165.5 319.1 170.44 335.45 185.46 330.38 180.86 317.98 176.04 320.07 177.29 326.23 174.62 327.18 171.67 317.54 183.88 312.64 191.02 328.63 205.85 319.05 198.57 307.63 193.97 311.46 196.55 317.16 193.5 318.55 189.38 310.42 198.76 303.84 208.54 316.93 222.95 305.85 212.95 295.36 207.98 299.5 212.12 304.14 209.23 306.54 203.47 299.63 212.65 290.49 224.71 301.25 234.62 287.09 224.29 281.24 221.19 285.71 225.9 289.67 224.5 292.1 216.5 286.25 222.63 275.67 237.65 283.61 244.62 268.2 232.65 263.8 230.74 268.82 235.05 271.34 233.88 274.18 225.78 270.19 229.71 258.42 245.31 263.04 249.94 245.37 237.17 243.5 236.36 250.25 241.94 251.67 241.27 254.61 231.87 252.3 233.48 240.52 250.04 241.87"/><path class="cls-1" d="m145.3,260.24c2-.16,4.04-.5,6.05-1.02l.78-.2-1.37-4.76-.75.22c-1.66.46-3.38.73-5.11.8l-.81.05.43,4.99.77-.06Zm.65-1.64l-.15-1.81c1.33-.11,2.63-.31,3.88-.62l.5,1.72c-1.41.33-2.83.56-4.23.71Z"/><path class="cls-1" d="m146.75,277.36c3.15-.24,6.29-.9,9.33-1.94l.71-.24-3.39-11.76-.74.19c-2.3.6-4.65,1-6.98,1.19l-.79.06,1.08,12.57.77-.06Zm5.57-12.05l2.55,8.86c-2.45.78-4.95,1.31-7.46,1.56l-.81-9.44c1.93-.2,3.85-.52,5.72-.98Z"/><path class="cls-1" d="m148.22,295.54c.17,0,.35,0,.52,0,4.19,0,8.4-.74,12.51-2.2l.7-.25-3.89-13.5-.78.25c-3.31,1.11-6.72,1.81-10.13,2.08l-.79.06,1.15,13.55h.71Zm8.78-13.96l3.04,10.52c-3.66,1.22-7.38,1.85-11.08,1.87l-.9-10.56c3.01-.29,6.01-.91,8.94-1.83Z"/><path class="cls-1" d="m149.61,311.97c.39.01.77.02,1.15.02,5.06,0,10.1-1.06,15.01-3.15l.65-.27-3.19-11.07-.78.27c-4.47,1.55-9.08,2.34-13.69,2.35h-.86l1,11.82.7.03Zm12.57-12.45l2.34,8.15c-4.64,1.88-9.39,2.81-14.17,2.75l-.74-8.74c4.23-.09,8.45-.82,12.57-2.16Z"/><path class="cls-1" d="m156.63,257.34c1.73-.94,3.45-2.08,5.11-3.39l.64-.5-3.25-3.86-.6.49c-1.34,1.09-2.8,2.03-4.33,2.79l-.74.36,2.47,4.49.69-.38Zm-1-3.45c1.14-.62,2.24-1.33,3.28-2.12l1.22,1.44c-1.19.89-2.38,1.68-3.57,2.37l-.93-1.69Z"/><path class="cls-1" d="m173.2,266.31l-7.88-9.36-.59.48c-1.87,1.49-3.85,2.81-5.89,3.92l-.69.38,6.09,11.04.69-.37c2.78-1.5,5.38-3.38,7.74-5.57l.54-.51Zm-2.17-.13c-1.92,1.71-4,3.21-6.18,4.46l-4.58-8.29c1.66-.95,3.28-2.03,4.83-3.22l5.93,7.05Z"/><path class="cls-1" d="m173.66,288.4h0c4.02-1.72,7.72-4.18,11.02-7.31l.53-.51-9.05-10.75-.61.55c-2.59,2.37-5.41,4.4-8.4,6.02l-.7.38,6.56,11.91.66-.28Zm.03-1.73l-5.12-9.27c2.62-1.49,5.12-3.27,7.43-5.32l7.05,8.37c-2.84,2.6-5.98,4.69-9.36,6.22Z"/><path class="cls-1" d="m181.61,302.85c5.04-2.06,9.58-5.23,13.5-9.44l.47-.51-7.41-8.82-.61.56c-3.46,3.24-7.35,5.84-11.55,7.72l-.77.35,5.72,10.38.66-.25Zm-4.18-9.4c3.83-1.81,7.39-4.19,10.6-7.09l5.46,6.49c-3.48,3.61-7.46,6.4-11.83,8.28l-4.23-7.68Z"/><path class="cls-1" d="m165.62,250.32l.17-.22c1.22-1.6,2.33-3.34,3.29-5.18l.37-.72-4.55-2.22-.34.69c-.79,1.53-1.75,2.97-2.85,4.28l-.53.64,4.13,3.13.3-.39Zm-2.19-3c.8-1.02,1.53-2.11,2.16-3.25l1.72.84c-.7,1.26-1.47,2.48-2.3,3.62l-1.58-1.2Z"/><path class="cls-1" d="m179.49,260.46c1.93-2.5,3.55-5.27,4.8-8.23l.3-.69-11-5.35-.36.67c-1.1,2.12-2.37,4.13-3.78,5.97l-.49.63,10.06,7.61.47-.62Zm-8.33-7.29c1.15-1.57,2.19-3.21,3.1-4.9l8.29,4.03c-1.05,2.35-2.34,4.56-3.83,6.59l-7.55-5.71Z"/><path class="cls-1" d="m201.36,259.69l-12.65-6.14-.32.75c-1.39,3.21-3.16,6.21-5.25,8.93l-.47.63,10.83,8.2.49-.52c2.97-3.21,5.36-6.96,7.09-11.16l.28-.68Zm-16.49,3.86c1.79-2.42,3.34-5.06,4.62-7.88l9.85,4.78c-1.54,3.53-3.56,6.71-6.02,9.49l-8.44-6.4Z"/><path class="cls-1" d="m207.12,281.5c3.77-3.94,6.63-8.68,8.5-14.11l.22-.65-10.37-5.04-.31.77c-1.84,4.37-4.34,8.32-7.41,11.74l-.56.64,9.46,7.16.48-.51Zm-7.64-6.89c2.76-3.2,5.04-6.83,6.79-10.79l7.63,3.71c-1.71,4.71-4.21,8.87-7.44,12.37l-6.99-5.29Z"/><path class="cls-1" d="m166.22,238.52l-.23.8,5.06,1.18.19-.76c.46-1.94.76-3.98.9-6.07l.05-.81-5.02-.16-.05.76c-.11,1.73-.41,3.43-.89,5.07Zm4.28-4.15c-.12,1.43-.33,2.85-.63,4.24l-1.93-.45c.32-1.23.54-2.52.67-3.85l1.88.06Z"/><path class="cls-1" d="m187.96,243.64c.75-3.08,1.1-6.26,1.04-9.47v-.75s-12.24-.41-12.24-.41l-.05.77c-.14,2.37-.49,4.73-1.02,7l-.19.77,12.29,2.86.17-.76Zm-10.58-3.27c.41-1.87.69-3.8.84-5.74l9.21.31c0,2.57-.28,5.11-.82,7.58l-9.23-2.15Z"/><path class="cls-1" d="m193.58,234.39c.03,3.51-.36,6.97-1.16,10.29l-.17.76,13.22,3.09.23-.67c1.41-4.13,2.06-8.53,1.94-13.08l-.03-.73-14.05-.47.02.82Zm.54,9.88c.65-2.95.99-5.99,1.02-9.07l10.94.37c.03,3.84-.52,7.58-1.64,11.11l-10.32-2.41Z"/><path class="cls-1" d="m221.76,251.62c1.85-5.13,2.53-10.63,2.02-16.35l-.06-.69-11.51-.38v.83c.11,4.72-.56,9.35-1.97,13.74l-.27.81,11.56,2.7.23-.66Zm-9.79-3.18c1.22-4.05,1.83-8.29,1.83-12.62l8.47.29c.36,5-.23,9.81-1.76,14.32l-8.54-1.99Z"/><polygon class="cls-1" points="245.58 117.06 232.3 117.41 232.22 122.67 233.8 122.67 233.85 118.93 243.94 118.68 243.77 122.67 245.34 122.67 245.58 117.06"/><path class="cls-1" d="m144.09,97.85l.82.05c1.72.08,3.44.35,5.1.8l.75.22,1.37-4.76-.78-.2c-2.01-.52-4.05-.86-6.05-1.02l-.77-.06-.43,4.99Zm1.86-3.29c1.4.15,2.82.39,4.23.71l-.5,1.72c-1.25-.3-2.56-.51-3.88-.62l.15-1.81Z"/><path class="cls-1" d="m144.9,88.3l.79.06c2.33.19,4.68.59,6.98,1.19l.74.19,3.39-11.76-.71-.24c-3.04-1.05-6.18-1.7-9.33-1.94l-.78-.06-1.08,12.57Zm9.97-9.31l-2.55,8.86c-1.87-.45-3.79-.78-5.72-.98l.81-9.44c2.51.25,5.01.77,7.46,1.56Z"/><path class="cls-1" d="m146.37,71.17l.79.06c3.41.27,6.82.97,10.14,2.08l.77.25,3.89-13.5-.7-.25c-4.28-1.52-8.67-2.26-13.03-2.2h-.72l-1.15,13.55Zm13.68-10.11l-3.04,10.52c-2.93-.92-5.94-1.54-8.94-1.83l.9-10.56c3.7.02,7.42.65,11.08,1.87Z"/><path class="cls-1" d="m149.61,41.19l-.7.03-1,11.82h.86c4.61,0,9.22.8,13.69,2.35l.78.27,3.19-11.07-.64-.27c-5.28-2.25-10.71-3.31-16.17-3.13Zm0,10.29l.74-8.74c4.77-.04,9.53.87,14.17,2.75l-2.34,8.15c-4.11-1.35-8.34-2.07-12.57-2.16Z"/><path class="cls-1" d="m156.63,95.82l-.69-.38-2.47,4.49.74.36c1.53.76,2.99,1.7,4.33,2.79l.6.49,3.25-3.86-.64-.5c-1.66-1.31-3.38-2.45-5.11-3.39Zm3.5,4.13l-1.22,1.44c-1.04-.79-2.14-1.5-3.28-2.12l.93-1.69c1.19.68,2.38,1.48,3.57,2.37Z"/><path class="cls-1" d="m164.23,80.4l-6.09,11.04.69.38c2.04,1.11,4.02,2.43,5.89,3.92l.6.49,7.88-9.36-.54-.51c-2.35-2.19-4.95-4.06-7.73-5.56l-.69-.37Zm6.8,6.58l-5.93,7.05c-1.55-1.19-3.17-2.27-4.83-3.22l4.58-8.29c2.18,1.25,4.26,2.74,6.18,4.46Z"/><path class="cls-1" d="m173,64.48l-6.56,11.91.7.37c2.99,1.62,5.82,3.65,8.41,6.03l.61.54,9.05-10.75-.53-.52c-3.29-3.13-7-5.58-11.02-7.31l-.66-.28Zm10.05,8.23l-7.05,8.37c-2.31-2.04-4.8-3.83-7.43-5.32l5.12-9.27c3.38,1.53,6.52,3.62,9.36,6.22Z"/><path class="cls-1" d="m181.6,50.3l-.65-.25-5.72,10.38.77.35c4.2,1.88,8.09,4.47,11.55,7.72l.61.56,7.41-8.82-.47-.5c-3.92-4.21-8.46-7.38-13.51-9.44Zm11.89,10.01l-5.46,6.48c-3.21-2.9-6.77-5.28-10.6-7.09l4.23-7.68c4.37,1.88,8.34,4.67,11.83,8.28Z"/><path class="cls-1" d="m165.32,102.45l-4.13,3.13.53.64c1.1,1.3,2.06,2.74,2.85,4.27l.35.69,4.55-2.22-.38-.72c-.97-1.84-2.08-3.58-3.3-5.18l-.47-.61Zm.28,6.65c-.63-1.14-1.36-2.23-2.16-3.25l1.58-1.2c.83,1.14,1.6,2.35,2.3,3.62l-1.72.84Z"/><path class="cls-1" d="m179.5,92.7l-.47-.63-10.06,7.61.48.62c1.41,1.85,2.68,3.86,3.79,5.98l.36.67,11-5.35-.3-.69c-1.26-2.96-2.87-5.73-4.8-8.22Zm-.78,1.57c1.5,2.03,2.78,4.24,3.83,6.59l-8.29,4.03c-.91-1.69-1.95-3.34-3.1-4.9l7.55-5.71Z"/><path class="cls-1" d="m193.5,81.1l-10.83,8.2.47.63c2.08,2.72,3.85,5.72,5.24,8.92l.32.75,12.65-6.14-.28-.69c-1.73-4.2-4.12-7.95-7.09-11.16l-.48-.52Zm-4.01,16.38c-1.28-2.81-2.84-5.46-4.62-7.88l8.44-6.4c2.46,2.78,4.49,5.96,6.02,9.49l-9.85,4.78Z"/><path class="cls-1" d="m207.13,71.66l-.48-.51-9.46,7.16.56.64c3.07,3.42,5.57,7.37,7.41,11.74l.32.77,10.37-5.04-.22-.66c-1.87-5.43-4.73-10.17-8.5-14.1Zm-.66,1.59c3.23,3.51,5.73,7.67,7.44,12.37l-7.63,3.71c-1.75-3.96-4.04-7.59-6.79-10.79l6.99-5.29Z"/><path class="cls-1" d="m167.16,120.46l5.02-.16-.05-.81c-.14-2.09-.44-4.13-.9-6.07l-.19-.76-5.06,1.18.23.8c.49,1.63.78,3.34.89,5.07l.05.76Zm2.72-5.92c.29,1.39.5,2.81.63,4.24l-1.88.06c-.13-1.33-.35-2.62-.67-3.85l1.93-.45Z"/><path class="cls-1" d="m187.79,108.76l-12.29,2.86.19.77c.54,2.27.88,4.63,1.02,7l.05.76,12.23-.41v-.75c.07-3.21-.28-6.4-1.02-9.47l-.17-.76Zm-9.56,9.77c-.15-1.94-.43-3.87-.84-5.74l9.23-2.15c.54,2.47.81,5.01.82,7.58l-9.21.31Z"/><path class="cls-1" d="m207.64,118.37c.12-4.55-.53-8.94-1.94-13.08l-.23-.67-13.22,3.09.17.77c.8,3.32,1.19,6.77,1.16,10.28l-.02.82,14.05-.47.03-.74Zm-12.5-.42c-.03-3.08-.37-6.13-1.02-9.07l10.32-2.41c1.12,3.54,1.67,7.27,1.64,11.11l-10.94.37Z"/><path class="cls-1" d="m212.21,118.96l11.51-.38.06-.69c.51-5.71-.17-11.21-2.02-16.34l-.23-.66-11.56,2.7.27.81c1.42,4.4,2.09,9.02,1.99,13.75v.83Zm8.3-16.23c1.53,4.51,2.12,9.32,1.76,14.32l-8.47.29c0-4.33-.6-8.57-1.83-12.62l8.54-1.99Z"/><polygon class="cls-1" points="53.32 122.67 54.9 122.67 54.81 117.41 41.54 117.06 41.77 122.67 43.34 122.67 43.17 118.68 53.27 118.93 53.32 122.67"/><polygon class="cls-1" points="37.08 111.29 36.93 122.67 38.5 122.67 38.63 112.99 54.99 114.32 57 99.67 44.67 96.65 43.31 102.64 49.04 104.09 48.58 107.87 39.14 106.49 42.91 92.08 58.41 96.67 63.26 82.17 52.43 76.83 50.09 82.49 54.44 85.02 53.55 87.35 44.63 84.07 50.21 71.72 65.09 79.58 72.68 66.47 62.13 58.76 59.21 63.85 63.82 67.73 62.36 69.85 54.77 65.55 62.68 54.26 74.53 64.83 85.77 53.62 78.09 44.4 72.75 48.86 76.88 53.49 74.29 55.66 66.51 47.49 78.27 38.45 88.01 51.47 99.75 43.24 94.33 32.55 88.49 35.22 91.23 41.26 88.92 43.18 83.43 34.58 95.42 26.83 102.42 42.54 117.38 36.54 113.52 23.95 108.02 25.91 109.29 32.15 107.15 33.08 103.69 23.75 115.65 19.71 120.53 35.9 135.46 32.71 133.58 20.93 127.03 21.32 127.4 25.95 125.51 26.56 123.4 17.58 135.94 16.98 137.85 32.61 142.95 32.8 142.95 32.84 143.17 32.83 143.17 32.83 143.56 32.82 143.95 32.83 143.95 32.83 144.17 32.83 144.17 32.8 149.27 32.61 151.18 16.98 163.72 17.58 161.61 26.56 159.72 25.95 160.09 21.32 153.53 20.93 151.66 32.71 166.59 35.9 171.47 19.71 183.43 23.75 179.97 33.08 177.83 32.15 179.1 25.91 173.6 23.95 169.74 36.54 184.69 42.54 191.7 26.83 203.69 34.58 198.2 43.18 195.89 41.26 198.63 35.22 192.79 32.55 187.37 43.24 199.1 51.47 208.85 38.45 220.61 47.49 212.83 55.66 210.23 53.49 214.37 48.86 209.03 44.4 201.35 53.62 212.59 64.83 224.44 54.26 232.35 65.55 224.76 69.85 223.3 67.73 227.91 63.85 224.98 58.76 214.44 66.47 222.03 79.58 236.91 71.72 242.49 84.07 233.56 87.35 232.67 85.02 237.03 82.49 234.69 76.83 223.86 82.17 228.71 96.67 244.21 92.08 247.98 106.49 238.53 107.87 238.08 104.09 243.81 102.64 242.45 96.65 230.12 99.67 232.13 114.32 248.49 112.99 248.62 122.67 250.19 122.67 250.04 111.29 233.48 112.64 231.87 100.85 241.27 98.55 241.94 101.49 236.36 102.9 237.17 109.65 249.94 107.79 245.31 90.11 229.71 94.74 225.78 82.97 233.88 78.98 235.05 81.82 230.74 84.34 232.65 89.36 244.62 84.96 237.65 69.55 222.63 77.49 216.5 66.91 224.5 61.06 225.9 63.49 221.19 67.45 224.29 71.92 234.62 66.07 224.71 51.91 212.65 62.67 203.47 53.53 209.23 46.62 212.12 49.02 207.98 53.66 212.95 57.8 222.95 47.31 208.54 36.23 198.76 49.31 189.38 42.74 193.5 34.6 196.55 36 193.97 41.7 198.57 45.53 205.85 34.11 191.02 24.52 183.88 40.52 171.67 35.62 174.62 25.98 177.29 26.93 176.04 33.09 180.86 35.18 185.46 22.78 170.44 17.71 165.5 34.06 153.44 31.48 154.86 22.58 158.4 22.79 158.05 27.05 162.75 28.58 165.68 16.11 149.8 15.35 147.87 31.09 143.56 31.25 139.25 31.09 137.32 15.35 121.44 16.11 124.37 28.58 129.07 27.05 128.72 22.79 132.26 22.58 133.68 31.48 121.62 34.06 116.68 17.71 101.66 22.78 106.26 35.18 111.08 33.09 109.83 26.93 112.5 25.98 115.45 35.62 103.24 40.52 96.1 24.52 81.27 34.11 88.55 45.53 93.15 41.7 90.57 36 93.62 34.6 97.74 42.74 88.36 49.31 78.58 36.23 64.17 47.31 74.17 57.8 79.14 53.66 75 49.02 77.89 46.62 83.65 53.53 74.47 62.67 62.41 51.91 52.49 66.07 62.83 71.92 65.92 67.45 61.22 63.49 62.62 61.06 70.62 66.91 64.49 77.49 49.47 69.55 42.5 84.96 54.47 89.36 56.38 84.34 52.07 81.82 53.24 78.98 61.34 82.97 57.4 94.74 41.8 90.11 37.18 107.79 49.95 109.65 50.76 102.9 45.18 101.49 45.85 98.55 55.25 100.85 53.64 112.64 37.08 111.29"/><path class="cls-1" d="m141.82,92.92c-2.01.16-4.04.5-6.06,1.02l-.78.2,1.37,4.76.75-.22c1.66-.46,3.38-.73,5.11-.8l.81-.05-.43-4.99-.77.06Zm-.65,1.64l.15,1.81c-1.33.11-2.63.31-3.88.62l-.5-1.72c1.41-.33,2.83-.56,4.23-.71Z"/><path class="cls-1" d="m140.37,75.8c-3.15.24-6.29.9-9.33,1.94l-.71.24,3.39,11.76.74-.19c2.3-.6,4.64-1,6.98-1.19l.79-.06-1.08-12.57-.77.06Zm-5.57,12.05l-2.55-8.86c2.45-.78,4.95-1.31,7.46-1.56l.81,9.44c-1.93.2-3.85.52-5.72.98Z"/><path class="cls-1" d="m138.89,57.62c-4.37-.06-8.75.68-13.04,2.2l-.7.25,3.89,13.5.78-.25c3.31-1.11,6.72-1.81,10.14-2.08l.78-.06-1.15-13.55h-.71Zm-8.78,13.96l-3.04-10.52c3.66-1.22,7.38-1.85,11.08-1.87l.9,10.56c-3.01.29-6.01.91-8.94,1.83Z"/><path class="cls-1" d="m137.51,41.19c-5.45-.18-10.88.88-16.16,3.13l-.65.27,3.19,11.07.78-.27c4.47-1.55,9.08-2.35,13.69-2.35h.86l-1.01-11.82-.7-.03Zm-12.57,12.45l-2.34-8.15c4.64-1.88,9.4-2.8,14.17-2.75l.74,8.74c-4.23.09-8.45.82-12.57,2.16Z"/><path class="cls-1" d="m128.59,103.08c1.34-1.09,2.8-2.03,4.33-2.79l.74-.36-2.47-4.49-.69.38c-1.73.94-3.45,2.08-5.11,3.39l-.64.5,3.25,3.87.6-.49Zm-1.6-3.14c1.19-.89,2.38-1.68,3.57-2.37l.93,1.69c-1.14.62-2.24,1.33-3.28,2.12l-1.22-1.44Z"/><path class="cls-1" d="m113.92,86.85l7.88,9.36.59-.48c1.87-1.49,3.85-2.81,5.89-3.92l.69-.38-6.09-11.04-.69.37c-2.78,1.5-5.38,3.38-7.74,5.57l-.54.51Zm2.17.13c1.92-1.71,4-3.21,6.18-4.46l4.58,8.29c-1.66.95-3.28,2.03-4.83,3.22l-5.93-7.05Z"/><path class="cls-1" d="m113.46,64.76c-4.02,1.72-7.72,4.18-11.02,7.31l-.53.51,9.05,10.75.61-.55c2.59-2.37,5.42-4.4,8.4-6.02l.7-.38-6.56-11.91-.66.28Zm-.03,1.73l5.11,9.27c-2.62,1.49-5.11,3.27-7.43,5.32l-7.05-8.37c2.84-2.6,5.98-4.69,9.36-6.22Z"/><path class="cls-1" d="m105.51,50.31c-5.04,2.06-9.58,5.23-13.5,9.44l-.47.51,7.41,8.82.61-.56c3.46-3.24,7.35-5.84,11.55-7.72l.77-.35-5.72-10.38-.66.25Zm4.18,9.4c-3.83,1.81-7.39,4.19-10.6,7.09l-5.46-6.48c3.48-3.61,7.46-6.4,11.83-8.28l4.23,7.68Z"/><path class="cls-1" d="m121.32,103.06c-1.22,1.6-2.32,3.34-3.29,5.18l-.37.72,4.55,2.22.34-.69c.79-1.53,1.75-2.97,2.85-4.28l.53-.64-4.13-3.13-.48.62Zm2.36,2.78c-.8,1.02-1.53,2.11-2.16,3.25l-1.72-.84c.7-1.26,1.47-2.48,2.3-3.62l1.58,1.2Z"/><path class="cls-1" d="m107.63,92.69c-1.93,2.5-3.55,5.27-4.8,8.23l-.3.69,11,5.35.36-.67c1.1-2.12,2.37-4.13,3.78-5.97l.49-.63-10.06-7.61-.47.62Zm8.33,7.29c-1.15,1.57-2.19,3.21-3.1,4.9l-8.29-4.03c1.05-2.35,2.34-4.56,3.83-6.59l7.55,5.71Z"/><path class="cls-1" d="m85.76,93.47l12.65,6.14.32-.75c1.39-3.2,3.16-6.21,5.24-8.93l.47-.63-10.83-8.2-.49.52c-2.97,3.21-5.36,6.96-7.09,11.16l-.28.69Zm16.49-3.86c-1.79,2.42-3.34,5.06-4.62,7.88l-9.85-4.78c1.54-3.52,3.56-6.71,6.02-9.49l8.44,6.4Z"/><path class="cls-1" d="m80,71.66c-3.77,3.94-6.63,8.68-8.5,14.11l-.22.65,10.37,5.04.31-.77c1.85-4.37,4.34-8.32,7.41-11.74l.56-.64-9.46-7.16-.47.51Zm7.64,6.89c-2.76,3.2-5.04,6.83-6.79,10.79l-7.63-3.71c1.71-4.71,4.21-8.87,7.44-12.37l6.99,5.29Z"/><path class="cls-1" d="m115.89,113.42c-.46,1.94-.76,3.98-.9,6.07l-.05.81,5.02.16.05-.76c.11-1.73.41-3.43.89-5.07l.23-.8-5.06-1.18-.19.76Zm3.28,1.58c-.32,1.23-.54,2.52-.67,3.85l-1.88-.06c.12-1.43.33-2.85.63-4.24l1.93.45Z"/><path class="cls-1" d="m99.16,109.52c-.75,3.08-1.09,6.27-1.04,9.47v.75s12.24.41,12.24.41l.05-.77c.14-2.37.49-4.72,1.02-7l.19-.77-12.29-2.86-.17.76Zm10.58,3.27c-.41,1.87-.69,3.8-.84,5.74l-9.21-.31c0-2.57.29-5.11.82-7.58l9.23,2.15Z"/><path class="cls-1" d="m94.87,107.72l-13.22-3.09-.23.67c-1.41,4.13-2.06,8.53-1.94,13.08l.03.73,14.05.47v-.82c-.04-3.51.35-6.97,1.15-10.29l.17-.76Zm-2.9,10.24l-10.94-.37c-.03-3.84.52-7.58,1.65-11.11l10.32,2.41c-.65,2.95-.99,5.99-1.02,9.07Z"/><path class="cls-1" d="m65.36,101.54c-1.85,5.13-2.53,10.63-2.02,16.35l.06.69,11.51.38-.02-.83c-.1-4.72.57-9.35,1.99-13.74l.27-.81-11.56-2.7-.24.66Zm9.79,3.18c-1.22,4.05-1.83,8.29-1.83,12.62l-8.47-.29c-.36-5,.24-9.81,1.76-14.32l8.54,1.99Z"/><path class="cls-1" d="m143.56,3c65.07,0,118,52.93,118,118h3C264.56,54.28,210.28,0,143.56,0S22.56,54.28,22.56,121h3C25.56,55.93,78.49,3,143.56,3Z"/><path class="cls-1" d="m143.56,350c-65.07,0-118-52.93-118-118h-3c0,66.72,54.28,121,121,121s121-54.28,121-121h-3c0,65.07-52.93,118-118,118Z"/></g></svg>