<svg width="285" height="81" viewBox="0 0 285 81" fill="none" xmlns="http://www.w3.org/2000/svg">
<path d="M34.7066 10.5837V17.9222C34.7066 24.8366 31.0276 28.5058 24.0883 28.5058H12.4578V42.9955H0.59375V0H24.0883C31.0276 0 34.7066 3.66926 34.7066 10.5837ZM22.8425 12.5662C22.8425 10.8204 22.2488 10.2187 20.4677 10.2187H12.4578V18.2773H20.4677C22.2488 18.2773 22.8425 17.6756 22.8425 15.9297V12.5662Z" fill="#FFFFF7"/>
<path d="M71.4958 32.7669V42.9856H41.8308V0H53.6949V32.7669H71.4958Z" fill="#FFFFF7"/>
<path d="M104.363 34.5128H90.2408L87.8076 42.9955H75.6418L88.5862 0H105.969L118.903 42.9955H106.738L104.363 34.5128ZM101.453 24.2941L97.2969 9.56771L93.0827 24.2941H101.443H101.453Z" fill="#FFFFF7"/>
<path d="M153.318 10.2187H141.746V42.9856H129.882V10.2187H118.31V0H153.318V10.2187Z" fill="#FFFFF7"/>
<path d="M172.004 10.2187V15.9297H187.908V26.1484H172.004V32.7669H190.399V42.9856H160.14V0H190.399V10.2187H172.004Z" fill="#FFFFF7"/>
<path d="M223.86 34.5128H209.738L207.305 42.9955H195.139L208.083 0H225.466L238.4 42.9955H226.234L223.86 34.5128ZM220.95 24.2941L216.794 9.56771L212.58 24.2941H220.94H220.95Z" fill="#FFFFF7"/>
<path d="M278.752 33.0135C278.752 39.9279 275.073 43.5972 268.133 43.5972H254.663C247.724 43.5972 244.045 39.9279 244.045 33.0135V0H255.909V31.0211C255.909 32.7669 256.503 33.3686 258.284 33.3686H264.513C266.294 33.3686 266.888 32.7669 266.888 31.0211V0H278.752V33.0135Z" fill="#FFFFF7"/>
<path d="M6.2094 71.4716H4.9831V78.4451H0V60.375H4.9831V67.171H6.22887L10.4431 60.375H16.2243L10.6183 69.341L16.4773 78.4353H10.6669L6.19967 71.4617L6.2094 71.4716Z" fill="#FFFFF7"/>
<path d="M33.1882 64.5774V74.2536C33.1882 77.1633 31.6407 78.7021 28.7209 78.7021H22.385L21.2365 81.0003H18.9202L20.3119 78.1694C19.0175 77.4888 18.3459 76.177 18.3459 74.2536V64.5774C18.3459 61.6676 19.8934 60.1289 22.8132 60.1289H28.7209C28.8669 60.1289 29.0421 60.1289 29.1978 60.1585L30.1224 58.2646H32.4388L31.2417 60.6911C32.5166 61.3717 33.1882 62.6836 33.1882 64.5872V64.5774ZM23.3388 72.0343L27.0761 64.4294H24.3315C23.5821 64.4294 23.3388 64.6859 23.3388 65.4158V72.0343ZM28.2051 73.425V66.8756L24.4872 74.4015H27.2026C27.952 74.4015 28.1953 74.1451 28.1953 73.4152L28.2051 73.425Z" fill="#FFFFF7"/>
<path d="M51.3493 64.8333V74.0064C51.3493 76.9162 49.8018 78.4549 46.882 78.4549H36.9353V60.3848H46.882C49.8018 60.3848 51.3493 61.9235 51.3493 64.8333ZM46.3662 65.6717C46.3662 64.9418 46.1132 64.6853 45.3735 64.6853H41.9281V74.1642H45.3735C46.1229 74.1642 46.3662 73.9078 46.3662 73.1779V65.6717Z" fill="#FFFFF7"/>
<path d="M69.5493 72.4381V74.0064C69.5493 76.9162 68.0018 78.4549 65.0821 78.4549H55.0867V60.3848H64.7414C67.6612 60.3848 69.2087 61.9235 69.2087 64.8333V65.9972C69.2087 67.2893 68.761 68.1672 67.5347 68.976C69.0043 69.6368 69.5591 70.6922 69.5591 72.4381H69.5493ZM63.2134 64.5275H60.0698V67.2597H63.2134C63.9628 67.2597 64.2061 67.0033 64.2061 66.2733V65.5138C64.2061 64.7839 63.9531 64.5275 63.2134 64.5275ZM64.5565 72.3888C64.5565 71.6589 64.3035 71.4024 63.5638 71.4024H60.0698V74.3122H63.5638C64.3132 74.3122 64.5565 74.0557 64.5565 73.3258V72.3888Z" fill="#FFFFF7"/>
<path d="M82.2015 72.3297V78.4451H77.1892V72.3297L70.9312 60.375H76.469L79.71 66.7962L82.9315 60.375H88.4693L82.2113 72.3297H82.2015Z" fill="#FFFFF7"/>
<path d="M96.3139 64.6754V67.0723H103V71.3728H96.3139V74.1544H104.042V78.4549H91.321V60.3848H104.042V64.6853H96.3139V64.6754Z" fill="#FFFFF7"/>
<path d="M123.195 60.3848V78.4549H118.388L112.606 68.7984V78.4549H107.623V60.3848H112.431L118.212 70.0412V60.3848H123.195Z" fill="#FFFFF7"/>
<path d="M147.79 64.8333V74.0064C147.79 76.9162 146.242 78.4549 143.322 78.4549H133.376V60.3848H143.322C146.242 60.3848 147.79 61.9235 147.79 64.8333ZM142.807 65.6717C142.807 64.9418 142.554 64.6853 141.814 64.6853H138.369V74.1642H141.814C142.563 74.1642 142.807 73.9078 142.807 73.1779V65.6717Z" fill="#FFFFF7"/>
<path d="M151.527 60.3848H156.51V78.4549H151.527V60.3848Z" fill="#FFFFF7"/>
<path d="M160.131 74.2536C160.131 73.9478 160.131 73.9281 160.16 73.8492L165.124 73.2376V73.4152C165.124 74.1451 165.377 74.4016 166.116 74.4016H169.055C169.805 74.4016 170.048 74.1451 170.048 73.4152V72.9121C170.048 72.2809 169.795 72.1526 168.481 71.9554L164.491 71.3734C161.396 70.9197 160.199 69.7854 160.199 67.2307V64.5774C160.199 61.6676 161.746 60.1289 164.666 60.1289H170.496C173.416 60.1289 174.963 61.6676 174.963 64.5774C174.963 64.8536 174.963 64.8832 174.934 64.9818L169.97 65.5835V65.4059C169.97 64.676 169.717 64.4196 168.978 64.4196H166.233C165.464 64.4196 165.182 64.6958 165.182 65.4059V65.8399C165.182 66.5008 165.357 66.5994 166.778 66.7967L170.768 67.3787C173.883 67.8324 175.031 68.9667 175.031 71.5707V74.2536C175.031 77.1634 173.484 78.7021 170.564 78.7021H164.578C161.659 78.7021 160.111 77.1634 160.111 74.2536H160.131Z" fill="#FFFFF7"/>
<path d="M192.258 64.6755H187.392V78.4451H182.409V64.6755H177.542V60.375H192.258V64.6755Z" fill="#FFFFF7"/>
<path d="M195.119 60.3848H200.102V78.4549H195.119V60.3848Z" fill="#FFFFF7"/>
<path d="M216.57 74.1544V78.4549H204.103V60.3848H209.086V74.1544H216.57Z" fill="#FFFFF7"/>
<path d="M231.909 74.1544V78.4549H219.441V60.3848H224.424V74.1544H231.909Z" fill="#FFFFF7"/>
<path d="M239.763 64.6754V67.0723H246.449V71.3728H239.763V74.1544H247.491V78.4549H234.77V60.3848H247.491V64.6853H239.763V64.6754Z" fill="#FFFFF7"/>
<path d="M257.817 72.2606H256.094V78.4549H251.111V60.3848H261.058C263.978 60.3848 265.525 61.9235 265.525 64.8333V67.8121C265.525 69.8341 264.776 71.1953 263.335 71.8266L267.598 78.445H261.788L257.827 72.2507L257.817 72.2606ZM256.094 67.96H259.54C260.289 67.96 260.532 67.7036 260.532 66.9737V65.6618C260.532 64.9319 260.279 64.6754 259.54 64.6754H256.094V67.96Z" fill="#FFFFF7"/>
<path d="M278.742 72.3297V78.4451H273.73V72.3297L267.472 60.375H273.009L276.25 66.7962L279.472 60.375H285.01L278.752 72.3297H278.742Z" fill="#FFFFF7"/>
</svg>
