<svg width="194" height="52" viewBox="0 0 194 52" fill="none" xmlns="http://www.w3.org/2000/svg">
<g clip-path="url(#clip0_430_8971)">
<path d="M23.5924 6.79445V11.5056C23.5924 15.9445 21.0916 18.3 16.3745 18.3H8.46855V27.602H0.403809V0H16.3745C21.0916 0 23.5924 2.35558 23.5924 6.79445ZM15.5277 8.06722C15.5277 6.94642 15.1241 6.56016 13.9134 6.56016H8.46855V11.7336H13.9134C15.1241 11.7336 15.5277 11.3473 15.5277 10.2265V8.06722Z" fill="#2C2726"/>
<path d="M48.6002 21.0356V27.5957H28.4351V0H36.4998V21.0356H48.6002Z" fill="#2C2726"/>
<path d="M70.9419 22.1564H61.3423L59.6883 27.602H51.4185L60.2176 0H72.0335L80.826 27.602H72.5561L70.9419 22.1564ZM68.9637 15.5962L66.1388 6.14223L63.2741 15.5962H68.9571H68.9637Z" fill="#2C2726"/>
<path d="M104.22 6.56016H96.3534V27.5957H88.2886V6.56016H80.4224V0H104.22V6.56016Z" fill="#2C2726"/>
<path d="M116.922 6.56016V10.2265H127.732V16.7867H116.922V21.0356H129.426V27.5957H108.857V0H129.426V6.56016H116.922Z" fill="#2C2726"/>
<path d="M152.171 22.1564H142.572L140.918 27.602H132.648L141.447 0H153.263L162.055 27.602H153.786L152.171 22.1564ZM150.193 15.5962L147.368 6.14223L144.504 15.5962H150.187H150.193Z" fill="#2C2726"/>
<path d="M189.485 21.1939C189.485 25.6327 186.984 27.9883 182.267 27.9883H173.11C168.393 27.9883 165.893 25.6327 165.893 21.1939V0H173.957V19.9148C173.957 21.0356 174.361 21.4218 175.572 21.4218H179.806C181.016 21.4218 181.42 21.0356 181.42 19.9148V0H189.485V21.1939Z" fill="#2C2726"/>
<path d="M4.22092 45.883H3.38732V50.3599H0V38.7593H3.38732V43.1222H4.23415L7.09882 38.7593H11.0286L7.21791 44.5152L11.2007 50.3535H7.25099L4.21431 45.8767L4.22092 45.883Z" fill="#2C2726"/>
<path d="M22.5599 41.4569V47.6688C22.5599 49.5368 21.508 50.5246 19.5232 50.5246H15.2163L14.4356 52H12.861L13.8071 50.1827C12.9272 49.7457 12.4707 48.9036 12.4707 47.6688V41.4569C12.4707 39.5889 13.5226 38.6011 15.5074 38.6011H19.5232C19.6225 38.6011 19.7415 38.6011 19.8474 38.6201L20.4759 37.4043H22.0505L21.2367 38.962C22.1034 39.3989 22.5599 40.2411 22.5599 41.4632V41.4569ZM15.8646 46.244L18.4051 41.3619H16.5395C16.03 41.3619 15.8646 41.5266 15.8646 41.9951V46.244ZM19.1726 47.1369V42.9323L16.6453 47.7638H18.4911C19.0006 47.7638 19.166 47.5991 19.166 47.1306L19.1726 47.1369Z" fill="#2C2726"/>
<path d="M34.9055 41.6214V47.5104C34.9055 49.3784 33.8536 50.3662 31.8688 50.3662H25.1074V38.7656H31.8688C33.8536 38.7656 34.9055 39.7534 34.9055 41.6214ZM31.5182 42.1597C31.5182 41.6911 31.3462 41.5265 30.8434 41.5265H28.5014V47.6117H30.8434C31.3528 47.6117 31.5182 47.4471 31.5182 46.9785V42.1597Z" fill="#2C2726"/>
<path d="M47.277 46.5036V47.5104C47.277 49.3784 46.2251 50.3662 44.2403 50.3662H37.4458V38.7656H44.0087C45.9935 38.7656 47.0454 39.7534 47.0454 41.6214V42.3686C47.0454 43.1982 46.7411 43.7617 45.9075 44.281C46.9065 44.7052 47.2836 45.3828 47.2836 46.5036H47.277ZM42.97 41.4251H40.8331V43.1792H42.97C43.4795 43.1792 43.6449 43.0145 43.6449 42.5459V42.0584C43.6449 41.5898 43.4729 41.4251 42.97 41.4251ZM43.883 46.4719C43.883 46.0033 43.711 45.8387 43.2082 45.8387H40.8331V47.7067H43.2082C43.7176 47.7067 43.883 47.542 43.883 47.0735V46.4719Z" fill="#2C2726"/>
<path d="M55.8775 46.4339V50.3599H52.4703V46.4339L48.2163 38.7593H51.9807L54.1838 42.8815L56.3737 38.7593H60.1381L55.8841 46.4339H55.8775Z" fill="#2C2726"/>
<path d="M65.4706 41.5201V43.0589H70.0157V45.8197H65.4706V47.6054H70.7236V50.3662H62.0767V38.7656H70.7236V41.5265H65.4706V41.5201Z" fill="#2C2726"/>
<path d="M83.7436 38.7656V50.3662H80.4753L76.5455 44.167V50.3662H73.1582V38.7656H76.4264L80.3563 44.9648V38.7656H83.7436Z" fill="#2C2726"/>
<path d="M100.462 41.6214V47.5104C100.462 49.3784 99.4097 50.3662 97.425 50.3662H90.6636V38.7656H97.425C99.4097 38.7656 100.462 39.7534 100.462 41.6214ZM97.0743 42.1597C97.0743 41.6911 96.9023 41.5265 96.3995 41.5265H94.0575V47.6117H96.3995C96.909 47.6117 97.0743 47.4471 97.0743 46.9785V42.1597Z" fill="#2C2726"/>
<path d="M103.002 38.7656H106.39V50.3662H103.002V38.7656Z" fill="#2C2726"/>
<path d="M108.851 47.6688C108.851 47.4725 108.851 47.4598 108.87 47.4092L112.245 47.0166V47.1305C112.245 47.5991 112.417 47.7638 112.919 47.7638H114.917C115.427 47.7638 115.592 47.5991 115.592 47.1305V46.8076C115.592 46.4023 115.42 46.32 114.527 46.1934L111.815 45.8198C109.711 45.5285 108.897 44.8003 108.897 43.1603V41.4569C108.897 39.5889 109.949 38.6011 111.934 38.6011H115.897C117.881 38.6011 118.933 39.5889 118.933 41.4569C118.933 41.6342 118.933 41.6532 118.913 41.7165L115.539 42.1028V41.9888C115.539 41.5202 115.367 41.3556 114.864 41.3556H112.999C112.476 41.3556 112.284 41.5329 112.284 41.9888V42.2674C112.284 42.6917 112.403 42.755 113.369 42.8816L116.082 43.2552C118.199 43.5465 118.98 44.2747 118.98 45.9464V47.6688C118.98 49.5368 117.928 50.5246 115.943 50.5246H111.874C109.889 50.5246 108.837 49.5368 108.837 47.6688H108.851Z" fill="#2C2726"/>
<path d="M130.69 41.5201H127.382V50.3599H123.994V41.5201H120.687V38.7593H130.69V41.5201Z" fill="#2C2726"/>
<path d="M132.635 38.7656H136.022V50.3662H132.635V38.7656Z" fill="#2C2726"/>
<path d="M147.216 47.6054V50.3662H138.741V38.7656H142.129V47.6054H147.216Z" fill="#2C2726"/>
<path d="M157.643 47.6054V50.3662H149.168V38.7656H152.555V47.6054H157.643Z" fill="#2C2726"/>
<path d="M162.982 41.5201V43.0589H167.527V45.8197H162.982V47.6054H168.235V50.3662H159.588V38.7656H168.235V41.5265H162.982V41.5201Z" fill="#2C2726"/>
<path d="M175.254 46.3896H174.083V50.3662H170.696V38.7656H177.457C179.442 38.7656 180.494 39.7534 180.494 41.6214V43.5338C180.494 44.8319 179.984 45.7057 179.005 46.111L181.903 50.3599H177.953L175.261 46.3833L175.254 46.3896ZM174.083 43.6288H176.425C176.935 43.6288 177.1 43.4641 177.1 42.9955V42.1533C177.1 41.6848 176.928 41.5201 176.425 41.5201H174.083V43.6288Z" fill="#2C2726"/>
<path d="M189.479 46.4339V50.3599H186.071V46.4339L181.817 38.7593H185.582L187.785 42.8815L189.975 38.7593H193.739L189.485 46.4339H189.479Z" fill="#2C2726"/>
</g>
<defs>
<clipPath id="clip0_430_8971">
<rect width="193.732" height="52" fill="white"/>
</clipPath>
</defs>
</svg>
