<svg width="243" height="243" viewBox="0 0 243 243" fill="none" xmlns="http://www.w3.org/2000/svg">
<path d="M115.651 5.74907L119.155 5.31518C120.504 5.14829 121.218 5.38888 121.299 6.03695C121.338 6.34846 121.248 6.63634 121.031 6.90057C120.812 7.1648 120.552 7.40122 120.249 7.60982C119.946 7.81843 119.62 8.16888 119.273 8.65979C118.925 9.15071 118.661 9.73758 118.483 10.4176L112.912 32.4462C112.81 32.9065 112.648 33.2361 112.422 33.435C112.197 33.6353 111.727 33.8313 111.013 34.0247C110.147 34.2639 109.545 34.3515 109.208 34.2875C108.87 34.2235 108.599 33.9941 108.392 33.5977L97.1357 13.2171C96.7602 12.5259 96.3625 11.9766 95.9439 11.5663C95.5239 11.1575 95.1748 10.8905 94.8967 10.7667C94.6172 10.6429 94.3752 10.4899 94.168 10.3036C93.9608 10.1186 93.837 9.8697 93.7995 9.55957C93.748 9.14515 93.8676 8.83363 94.1583 8.62642C94.4489 8.4192 94.9704 8.26901 95.7228 8.17583L101.989 7.39983C103.235 7.24546 103.903 7.53194 103.992 8.25788C104.041 8.64728 103.875 9.02277 103.5 9.38574C103.123 9.74871 102.849 10.0922 102.679 10.4162C102.508 10.7403 102.646 11.4273 103.092 12.4786L111.388 27.7721L115.528 10.7806C115.707 9.67778 115.701 8.988 115.508 8.70847C115.316 8.43033 115.031 8.15497 114.656 7.88518C114.28 7.61538 114.072 7.31221 114.03 6.97427C113.946 6.29979 114.489 5.88953 115.656 5.7449L115.651 5.74907Z" fill="black"/>
<path d="M135.063 34.7589C131.373 34.1498 128.522 32.4406 126.51 29.63C124.496 26.8194 123.801 23.5318 124.422 19.7659C125.112 15.5868 127.072 12.2728 130.298 9.82517C133.525 7.37755 137.189 6.49168 141.29 7.16895C145.108 7.79893 147.985 9.55399 149.921 12.4299C151.857 15.3073 152.512 18.6422 151.886 22.4332C151.192 26.6387 149.259 29.9165 146.088 32.2668C142.917 34.6185 139.242 35.4487 135.064 34.7589H135.063ZM137.58 32.0345C139.927 32.4226 141.821 31.901 143.264 30.4686C144.706 29.0376 145.637 27.0447 146.059 24.4914C146.425 22.2733 146.413 20.0982 146.024 17.9663C145.633 15.8344 144.827 13.9861 143.601 12.4188C142.376 10.8515 140.848 9.91696 139.016 9.61379C136.72 9.23413 134.801 9.78623 133.258 11.2659C131.714 12.747 130.743 14.6996 130.343 17.1235C129.759 20.6587 130.122 23.9115 131.433 26.8834C132.743 29.8567 134.793 31.5728 137.578 32.0332L137.58 32.0345Z" fill="black"/>
<path d="M165.113 13.7762L173.408 18.1402C175.721 19.357 177.598 20.7741 179.039 22.3887C180.479 24.0033 181.421 25.6513 181.866 27.3327C182.311 29.014 182.444 30.6717 182.263 32.3058C182.082 33.9398 181.597 35.5085 180.805 37.0119C178.918 40.5985 176.229 43.0016 172.735 44.2212C169.242 45.4409 165.483 44.9917 161.457 42.8737L152.329 38.0702C151.612 37.6933 151.145 37.3582 150.929 37.0675C150.712 36.7769 150.702 36.4459 150.897 36.0759C151.104 35.6824 151.387 35.4404 151.745 35.3486C152.104 35.2568 152.456 35.2207 152.8 35.2387C153.144 35.2582 153.594 35.0357 154.147 34.574C154.701 34.1123 155.244 33.3724 155.781 32.3531L162.355 19.8591C162.89 18.8411 163.192 17.9733 163.26 17.2557C163.328 16.5381 163.256 16.043 163.046 15.769C162.835 15.4965 162.667 15.1849 162.539 14.8373C162.411 14.4896 162.451 14.1197 162.658 13.7261C162.853 13.3562 163.131 13.1768 163.494 13.1907C163.856 13.2046 164.395 13.3993 165.113 13.7762ZM162.153 40.6249C164.907 42.074 167.33 42.3674 169.424 41.5038C171.517 40.6416 173.252 38.9018 174.628 36.2873C176.393 32.933 176.981 29.6815 176.391 26.5358C175.802 23.3886 174.106 21.0787 171.307 19.606C170.52 19.1915 169.936 19.0107 169.555 19.0608C169.174 19.1109 168.819 19.4488 168.489 20.0732L159.76 36.6628C159.371 37.4041 159.318 38.0632 159.606 38.6418C159.892 39.2203 160.74 39.8809 162.152 40.6235L162.153 40.6249Z" fill="black"/>
<path d="M205.855 48.9746L201.863 48.7757L196.113 63.8995C195.829 64.6546 195.666 65.3472 195.625 65.9758C195.583 66.6044 195.616 67.0856 195.723 67.4193C195.832 67.7531 195.871 68.0813 195.84 68.4053C195.81 68.7294 195.655 69.0284 195.376 69.3023C195.077 69.5958 194.767 69.6903 194.444 69.586C194.121 69.4817 193.703 69.1688 193.19 68.6473L188.981 64.3709C188.431 63.8119 188.097 63.3516 187.98 62.99C187.862 62.6284 187.954 62.3016 188.251 62.0081C188.493 61.7703 188.873 61.6341 189.392 61.6007C189.909 61.5673 190.34 61.4936 190.683 61.3754C191.027 61.2586 191.414 60.7843 191.846 59.9569L196.346 48.5393L188.529 48.2L185.343 51.336C184.598 52.0703 184.089 52.7545 183.815 53.39C183.541 54.0256 183.445 54.5151 183.526 54.8572C183.606 55.1993 183.64 55.5609 183.629 55.9392C183.616 56.3174 183.47 56.6456 183.19 56.9196C182.891 57.213 182.577 57.3034 182.245 57.1894C181.912 57.0754 181.462 56.7305 180.894 56.1519L176.521 51.7073C175.97 51.1482 175.632 50.6921 175.505 50.3402C175.379 49.9884 175.465 49.6657 175.763 49.3723C176.042 49.0969 176.376 48.9607 176.764 48.9648C177.152 48.9676 177.522 49.0177 177.872 49.1122C178.223 49.2082 178.722 49.1289 179.372 48.8744C180.021 48.6213 180.718 48.1276 181.463 47.3934L191.693 37.3247C192.439 36.5918 192.948 35.9062 193.222 35.2707C193.494 34.6351 193.586 34.1414 193.497 33.7896C193.406 33.4377 193.369 33.072 193.381 32.6937C193.394 32.3141 193.54 31.9873 193.819 31.7133C194.117 31.4198 194.433 31.3295 194.765 31.4435C195.098 31.5575 195.556 31.9122 196.143 32.5088L200.517 36.9534C201.068 37.5125 201.4 37.9631 201.518 38.3066C201.635 38.6501 201.545 38.9685 201.247 39.2606C200.968 39.5359 200.638 39.6764 200.26 39.682C199.88 39.6875 199.512 39.6388 199.151 39.5345C198.791 39.4302 198.292 39.5095 197.652 39.7724C197.013 40.0352 196.32 40.5345 195.575 41.2673L191.019 45.7509L203.216 46.2919C203.937 46.317 204.436 46.2279 204.716 46.0263C204.994 45.826 205.106 45.5771 205.055 45.2809C205.002 44.9847 204.977 44.6509 204.98 44.2824C204.983 43.9124 205.097 43.6176 205.319 43.3979C205.841 42.8847 206.478 43.0099 207.23 43.7734L210.751 47.3516C211.778 48.3946 212.031 49.1734 211.509 49.6866C211.154 50.0357 210.803 50.1622 210.452 50.0663C210.102 49.9717 209.507 49.777 208.668 49.4836C207.829 49.1901 206.892 49.0205 205.857 48.976L205.855 48.9746Z" fill="black"/>
<path d="M202.653 71.8376L200.831 71.985C199.723 72.1755 199.071 72.4092 198.876 72.6859C198.681 72.9641 198.526 73.3312 198.409 73.7888C198.292 74.2463 198.082 74.5536 197.78 74.7094C197.175 75.0223 196.598 74.6426 196.046 73.5746L194.444 70.4733C193.82 69.2648 193.797 68.5111 194.379 68.2121C194.657 68.0674 194.956 68.0466 195.273 68.1481C195.59 68.2496 195.899 68.4054 196.2 68.6182C196.501 68.8309 196.942 69.0145 197.523 69.1703C198.104 69.326 198.744 69.3705 199.445 69.3024L218.294 67.5084C219.204 67.3332 219.736 67.094 219.889 66.795C220.044 66.4946 220.195 66.0927 220.347 65.5878C220.497 65.083 220.736 64.7465 221.062 64.5782C221.689 64.2542 222.194 64.4628 222.579 65.2068L224.614 69.1438C224.938 69.771 224.87 70.351 224.409 70.8836L209.36 88.1504C208.842 88.7415 208.464 89.3047 208.226 89.8401C207.986 90.3755 207.861 90.8011 207.847 91.1168C207.834 91.4325 207.776 91.7204 207.675 91.979C207.572 92.2377 207.383 92.4393 207.105 92.5826C206.733 92.7745 206.4 92.7703 206.105 92.5701C205.81 92.3698 205.489 91.9317 205.14 91.2586L202.242 85.6486C201.666 84.5332 201.702 83.8087 202.353 83.4721C202.702 83.2927 203.111 83.3164 203.582 83.5431C204.052 83.7698 204.469 83.9074 204.832 83.9561C205.195 84.0034 205.793 83.6363 206.625 82.8533L207.61 81.6823C208.002 81.2443 208.177 80.8743 208.138 80.5698C208.062 80.0802 207.405 78.6381 206.169 76.2461C204.824 73.6441 203.987 72.2228 203.657 71.9822C203.433 71.8334 203.098 71.7848 202.656 71.8376H202.653ZM208.38 75.1475C209.424 77.1681 210.057 78.2237 210.281 78.3141C210.469 78.3349 210.7 78.1861 210.976 77.8663L217.63 70.3231L207.733 71.3314C207.149 71.3968 206.853 71.5358 206.845 71.7472C206.848 72.0393 207.361 73.1727 208.381 75.1475H208.38Z" fill="black"/>
<path d="M232.568 128.269L216.079 129.779C215.428 129.843 214.893 129.987 214.474 130.206C214.055 130.428 213.748 130.667 213.553 130.928C213.359 131.188 213.19 131.447 213.049 131.704C212.907 131.961 212.723 132.181 212.498 132.365C212.273 132.548 211.978 132.65 211.612 132.672C211.195 132.696 210.892 132.557 210.704 132.254C210.516 131.95 210.399 131.419 210.356 130.663L210.006 124.634C209.96 123.851 210.013 123.291 210.163 122.955C210.313 122.619 210.597 122.439 211.015 122.414C211.433 122.391 211.791 122.487 212.093 122.705C212.394 122.923 212.637 123.171 212.823 123.448C213.01 123.724 213.357 123.959 213.866 124.153C214.375 124.345 215.008 124.42 215.765 124.377L230.545 123.202L212.25 115.978C211.633 115.725 211.227 115.277 211.034 114.635C210.829 113.835 211.021 113.312 211.611 113.069L229.217 104.423L213.762 104.812C213.003 104.83 212.405 105.015 211.968 105.369C211.53 105.722 211.184 106.075 210.931 106.431C210.676 106.786 210.366 106.975 210.002 106.996C209.609 107.018 209.341 106.897 209.195 106.63C209.048 106.363 208.956 105.904 208.918 105.252L208.715 101.767C208.676 101.088 208.719 100.608 208.847 100.325C208.974 100.042 209.234 99.8893 209.626 99.8671C209.913 99.8504 210.181 99.9533 210.43 100.174C210.679 100.396 210.903 100.644 211.102 100.921C211.301 101.198 211.616 101.447 212.049 101.671C212.48 101.895 212.997 102.002 213.599 101.993L231.026 101.725C231.655 101.714 232.178 101.586 232.595 101.338C233.012 101.091 233.297 100.82 233.451 100.522C233.604 100.224 233.805 99.9519 234.052 99.7016C234.3 99.4512 234.593 99.3164 234.933 99.2969C235.35 99.2732 235.646 99.3984 235.818 99.6779C235.992 99.9561 236.098 100.434 236.138 101.113L236.403 105.655C236.446 106.385 236.147 106.901 235.51 107.2L218.673 115.565L236.364 122.549C237.06 122.823 237.429 123.299 237.468 123.978L237.718 128.284C237.757 128.963 237.707 129.45 237.568 129.746C237.427 130.042 237.149 130.202 236.732 130.227C236.393 130.247 236.085 130.147 235.812 129.927C235.536 129.707 235.312 129.458 235.14 129.18C234.966 128.902 234.659 128.664 234.215 128.468C233.771 128.271 233.223 128.205 232.573 128.269H232.568Z" fill="black"/>
<path d="M212.207 155.624C212.032 155.984 211.807 156.175 211.53 156.197C211.253 156.219 210.828 156.141 210.253 155.965C208.301 155.374 206.818 154.784 205.811 154.196C205.244 153.886 204.903 153.485 204.788 152.996C204.672 152.506 204.76 151.705 205.051 150.591L209.047 135.3C209.252 134.516 209.472 133.986 209.707 133.71C209.942 133.433 210.26 133.348 210.665 133.454C211.095 133.566 211.395 133.786 211.566 134.114C211.737 134.442 211.852 134.776 211.912 135.117C211.972 135.456 212.289 135.844 212.865 136.278C213.441 136.712 214.285 137.075 215.397 137.366L229.057 140.936C230.169 141.226 231.083 141.324 231.798 141.226C232.513 141.129 232.978 140.947 233.197 140.68C233.415 140.413 233.679 140.178 233.99 139.975C234.3 139.772 234.668 139.727 235.099 139.84C235.504 139.945 235.742 140.176 235.81 140.532C235.879 140.888 235.81 141.458 235.607 142.243L231.809 156.776C231.538 157.813 231.243 158.526 230.926 158.916C230.607 159.305 230.185 159.526 229.659 159.578C228.356 159.804 226.954 159.843 225.453 159.695C224.313 159.613 223.743 159.261 223.743 158.639C223.698 157.978 224.221 157.481 225.309 157.143C226.747 156.707 227.87 156.13 228.68 155.41C229.489 154.689 230.054 153.722 230.371 152.507L230.837 150.725C231.194 149.359 231.297 148.419 231.147 147.907C230.997 147.395 230.606 147.056 229.973 146.89L224.7 145.512C223.94 145.313 223.387 145.393 223.038 145.747C222.689 146.102 222.388 146.76 222.137 147.721L221.859 148.783C221.714 149.339 221.747 149.829 221.961 150.249C222.176 150.67 222.458 150.986 222.807 151.2C223.156 151.413 223.455 151.666 223.703 151.961C223.95 152.254 224.031 152.567 223.945 152.896C223.839 153.3 223.614 153.539 223.271 153.612C222.928 153.684 222.39 153.624 221.657 153.432L217.218 152.272C215.979 151.948 215.452 151.433 215.637 150.725C215.723 150.395 215.951 150.164 216.324 150.033C216.696 149.901 217.08 149.826 217.476 149.808C217.873 149.79 218.273 149.651 218.679 149.392C219.084 149.134 219.361 148.725 219.505 148.17L219.784 147.107C220.041 146.121 220.103 145.393 219.969 144.927C219.834 144.46 219.387 144.126 218.628 143.928L211.722 142.123C211.064 141.951 210.541 142.065 210.153 142.463C209.765 142.86 209.38 143.793 208.996 145.261L208.38 147.775C208.063 148.989 208.121 149.978 208.558 150.74C208.993 151.502 209.878 152.435 211.21 153.541C212.183 154.363 212.516 155.058 212.206 155.625L212.207 155.624Z" fill="black"/>
<path d="M226.505 171.294L221.665 179.321C220.315 181.56 218.792 183.352 217.097 184.695C215.402 186.039 213.701 186.884 211.997 187.23C210.292 187.577 208.63 187.611 207.01 187.337C205.39 187.062 203.852 186.486 202.397 185.609C198.926 183.516 196.684 180.691 195.669 177.134C194.655 173.575 195.321 169.849 197.67 165.953L202.995 157.12C203.414 156.426 203.774 155.98 204.077 155.781C204.38 155.582 204.711 155.591 205.069 155.806C205.45 156.036 205.675 156.332 205.746 156.695C205.817 157.058 205.832 157.411 205.795 157.755C205.756 158.097 205.95 158.558 206.38 159.138C206.81 159.718 207.516 160.304 208.502 160.899L220.593 168.189C221.578 168.783 222.427 169.135 223.139 169.243C223.851 169.353 224.351 169.31 224.636 169.115C224.921 168.92 225.241 168.77 225.595 168.663C225.95 168.556 226.317 168.617 226.698 168.847C227.056 169.062 227.218 169.35 227.183 169.712C227.149 170.072 226.923 170.6 226.505 171.294ZM199.873 166.779C198.267 169.443 197.833 171.845 198.573 173.985C199.313 176.126 200.947 177.959 203.478 179.484C206.724 181.441 209.936 182.217 213.111 181.812C216.286 181.406 218.691 179.849 220.325 177.139C220.784 176.377 220.999 175.806 220.971 175.422C220.942 175.038 220.626 174.664 220.021 174.3L203.967 164.62C203.251 164.188 202.595 164.098 202.001 164.351C201.406 164.602 200.698 165.412 199.873 166.777V166.779Z" fill="black"/>
<path d="M183.848 193.349L183.403 191.576C183.033 190.514 182.695 189.91 182.389 189.763C182.083 189.615 181.695 189.522 181.225 189.483C180.755 189.443 180.417 189.287 180.214 189.016C179.807 188.471 180.085 187.84 181.047 187.119L183.841 185.028C184.93 184.213 185.67 184.067 186.061 184.591C186.249 184.843 186.32 185.132 186.272 185.461C186.225 185.791 186.121 186.121 185.961 186.453C185.801 186.784 185.692 187.25 185.634 187.849C185.576 188.447 185.638 189.087 185.82 189.767L190.695 208.063C191.017 208.931 191.34 209.416 191.661 209.519C191.982 209.622 192.405 209.705 192.928 209.771C193.451 209.836 193.822 210.016 194.041 210.309C194.463 210.874 194.341 211.408 193.671 211.908L190.123 214.563C189.558 214.986 188.974 215.014 188.374 214.648L168.864 202.649C168.195 202.235 167.577 201.954 167.01 201.808C166.442 201.66 166.002 201.606 165.689 201.645C165.374 201.684 165.082 201.674 164.81 201.617C164.538 201.559 164.308 201.404 164.12 201.154C163.87 200.819 163.818 200.489 163.968 200.165C164.117 199.841 164.495 199.452 165.103 198.998L170.158 195.216C171.164 194.463 171.884 194.381 172.324 194.967C172.559 195.281 172.603 195.689 172.456 196.191C172.31 196.693 172.242 197.127 172.254 197.492C172.267 197.858 172.728 198.387 173.636 199.078L174.953 199.855C175.45 200.169 175.845 200.282 176.137 200.193C176.608 200.037 177.921 199.151 180.077 197.538C182.421 195.783 183.686 194.723 183.869 194.358C183.979 194.112 183.972 193.775 183.847 193.345L183.848 193.349ZM181.527 199.544C179.705 200.906 178.769 201.705 178.717 201.941C178.728 202.129 178.913 202.333 179.273 202.553L187.809 207.872L185.183 198.277C185.022 197.712 184.837 197.442 184.627 197.469C184.339 197.52 183.306 198.213 181.527 199.544Z" fill="black"/>
<path d="M149.157 216.069L144.615 212.22C144.098 211.796 143.568 211.469 143.023 211.237C142.478 211.004 142.052 210.868 141.745 210.828C141.438 210.787 141.15 210.683 140.88 210.518C140.61 210.352 140.409 210.085 140.274 209.717C140.129 209.323 140.172 209.002 140.4 208.751C140.628 208.501 141.087 208.249 141.774 207.998L147.187 206.015C148.365 205.583 149.085 205.722 149.345 206.434C149.462 206.753 149.44 207.166 149.276 207.671C149.113 208.176 149.036 208.594 149.046 208.924C149.056 209.255 149.381 209.762 150.021 210.447L153.405 213.3C154.172 212.962 154.777 212.713 155.219 212.552L158.129 211.487C158.62 211.307 158.775 210.971 158.596 210.48L158.056 209.007C157.696 208.025 157.285 207.279 156.819 206.767C156.353 206.255 155.947 205.964 155.602 205.896C155.257 205.828 154.915 205.71 154.574 205.542C154.235 205.373 153.997 205.106 153.862 204.738C153.718 204.344 153.766 204.022 154.007 203.766C154.247 203.511 154.748 203.243 155.509 202.965L161.364 200.82C162.101 200.55 162.655 200.431 163.028 200.461C163.401 200.492 163.66 200.703 163.804 201.096C163.939 201.464 163.925 201.824 163.761 202.176C163.598 202.528 163.4 202.844 163.169 203.125C162.936 203.404 162.803 203.892 162.765 204.588C162.728 205.283 162.889 206.123 163.249 207.105L168.146 220.472C168.541 221.553 168.983 222.358 169.47 222.889C169.957 223.42 170.372 223.7 170.716 223.728C171.059 223.754 171.403 223.838 171.746 223.977C172.09 224.116 172.337 224.393 172.49 224.811C172.634 225.203 172.581 225.53 172.326 225.79C172.073 226.05 171.567 226.319 170.805 226.598L162.778 229.539C158.924 230.951 155.639 231.2 152.923 230.288C150.209 229.375 148.352 227.556 147.354 224.831C146.085 221.369 146.686 218.447 149.156 216.068L149.157 216.069ZM156.301 214.705C154.46 215.379 153.202 216.37 152.524 217.675C151.847 218.981 151.832 220.518 152.48 222.286C153.307 224.544 154.617 226.124 156.41 227.028C158.202 227.93 160.117 228.008 162.155 227.263C163.121 226.936 163.721 226.654 163.954 226.416C164.188 226.177 164.231 225.861 164.088 225.469L160.122 214.642C159.96 214.2 159.608 213.98 159.066 213.985C158.524 213.987 157.603 214.228 156.301 214.705Z" fill="black"/>
<path d="M120.159 232.735L122.948 229.873L115.412 215.556C115.034 214.844 114.622 214.264 114.179 213.816C113.736 213.368 113.353 213.076 113.031 212.936C112.71 212.797 112.438 212.608 112.215 212.371C111.993 212.135 111.87 211.821 111.849 211.428C111.827 211.011 111.962 210.715 112.253 210.543C112.545 210.37 113.056 210.263 113.787 210.223L119.778 209.896C120.561 209.853 121.127 209.907 121.476 210.059C121.825 210.21 122.01 210.494 122.033 210.912C122.051 211.252 121.903 211.627 121.584 212.036C121.267 212.446 121.038 212.818 120.899 213.154C120.759 213.489 120.858 214.093 121.193 214.965L126.777 225.893L132.203 220.255L131.96 215.791C131.903 214.747 131.726 213.912 131.43 213.286C131.135 212.661 130.831 212.264 130.521 212.099C130.211 211.932 129.917 211.719 129.642 211.459C129.366 211.199 129.218 210.874 129.195 210.481C129.173 210.064 129.314 209.768 129.618 209.594C129.923 209.42 130.48 209.312 131.29 209.267L137.516 208.928C138.299 208.885 138.865 208.934 139.213 209.071C139.56 209.209 139.745 209.487 139.769 209.906C139.79 210.298 139.671 210.637 139.411 210.926C139.153 211.216 138.87 211.459 138.567 211.659C138.264 211.858 137.993 212.286 137.754 212.94C137.515 213.595 137.423 214.443 137.48 215.488L138.261 229.82C138.318 230.865 138.495 231.699 138.791 232.325C139.087 232.951 139.396 233.346 139.72 233.511C140.043 233.677 140.343 233.889 140.619 234.15C140.895 234.41 141.043 234.735 141.065 235.127C141.087 235.544 140.947 235.841 140.642 236.014C140.338 236.188 139.767 236.298 138.932 236.343L132.706 236.682C131.923 236.725 131.363 236.676 131.028 236.537C130.693 236.398 130.515 236.12 130.492 235.703C130.471 235.311 130.583 234.971 130.828 234.684C131.074 234.396 131.355 234.151 131.672 233.951C131.989 233.75 132.26 233.322 132.486 232.668C132.712 232.015 132.797 231.165 132.74 230.121L132.393 223.737L123.916 232.525C123.421 233.05 123.157 233.483 123.124 233.826C123.09 234.168 123.202 234.417 123.459 234.574C123.716 234.729 123.983 234.931 124.257 235.179C124.532 235.425 124.678 235.706 124.695 236.019C124.735 236.749 124.22 237.144 123.15 237.202L118.138 237.475C116.676 237.554 115.925 237.229 115.885 236.498C115.859 236.002 115.996 235.654 116.3 235.454C116.603 235.254 117.142 234.937 117.917 234.501C118.691 234.066 119.438 233.476 120.157 232.73L120.159 232.735Z" fill="black"/>
<path d="M93.2237 229.175L97.0147 213.065C97.2539 212.047 97.3206 211.196 97.2122 210.513C97.1051 209.829 96.9187 209.363 96.6559 209.113C96.393 208.863 96.165 208.575 95.9731 208.247C95.7811 207.92 95.7311 207.565 95.8201 207.183C95.916 206.775 96.1413 206.533 96.4946 206.455C96.8492 206.377 97.4208 206.432 98.2093 206.617L104.28 208.045C105.043 208.224 105.573 208.43 105.868 208.66C106.163 208.89 106.263 209.209 106.167 209.616C106.076 209.999 105.866 210.291 105.537 210.495C105.207 210.7 104.868 210.854 104.52 210.961C104.173 211.067 103.793 211.401 103.378 211.961C102.964 212.522 102.637 213.311 102.398 214.329L98.607 230.439C98.3442 231.559 98.785 232.254 99.9296 232.524C100.745 232.716 101.472 232.706 102.113 232.493C102.754 232.282 103.273 231.987 103.671 231.61C104.068 231.233 104.67 230.589 105.474 229.679C106.154 228.844 106.736 228.485 107.22 228.598C107.907 228.759 108.093 229.395 107.779 230.502C107.235 232.47 106.681 233.963 106.12 234.987C105.823 235.561 105.433 235.913 104.944 236.04C104.458 236.168 103.655 236.099 102.534 235.835L87.3021 232.251C86.1826 231.988 85.4399 231.692 85.0728 231.364C84.707 231.036 84.5165 230.562 84.5012 229.94C84.4442 228.583 84.6194 226.986 85.0241 225.148C85.2369 224.016 85.6736 223.528 86.3356 223.683C86.8195 223.797 87.1922 224.381 87.4537 225.437C87.8639 227.118 88.2881 228.313 88.7262 229.019C89.1642 229.726 89.968 230.218 91.139 230.493C92.2585 230.758 92.9539 230.315 93.2223 229.171L93.2237 229.175Z" fill="black"/>
<path d="M84.1105 208.596L78.061 221.613C77.6202 222.561 77.3838 223.38 77.3504 224.071C77.3184 224.762 77.4046 225.256 77.6118 225.555C77.819 225.853 77.9845 226.182 78.1055 226.541C78.2265 226.9 78.2056 227.257 78.0402 227.613C77.8635 227.993 77.6007 228.188 77.2502 228.197C76.8998 228.207 76.3449 228.036 75.5856 227.684L69.931 225.056C69.2204 224.725 68.7489 224.42 68.5181 224.139C68.2886 223.86 68.2608 223.529 68.4374 223.151C68.6029 222.795 68.8616 222.548 69.2148 222.409C69.5681 222.27 69.931 222.187 70.3037 222.159C70.6778 222.131 71.1173 221.881 71.6249 221.411C72.1325 220.939 72.6067 220.23 73.0462 219.282L79.0957 206.265C79.5365 205.316 79.773 204.497 79.8063 203.806C79.8397 203.115 79.7577 202.623 79.563 202.331C79.3683 202.039 79.2097 201.712 79.0874 201.353C78.9664 200.994 78.9872 200.637 79.1527 200.281C79.3293 199.901 79.5922 199.706 79.9426 199.697C80.2931 199.687 80.8368 199.852 81.5711 200.194L87.2257 202.823C87.9363 203.154 88.4133 203.461 88.6553 203.748C88.8973 204.033 88.9307 204.365 88.7541 204.745C88.5886 205.101 88.3243 205.344 87.9586 205.478C87.5942 205.611 87.2313 205.695 86.8697 205.728C86.5081 205.761 86.0672 206.01 85.5485 206.476C85.0298 206.941 84.55 207.649 84.1091 208.597L84.1105 208.596Z" fill="black"/>
<path d="M69.7015 192.422C70.6096 193.085 71.4996 193.882 72.3744 194.812C73.2491 195.743 73.7595 196.263 73.9069 196.37C74.2448 196.618 74.6342 196.748 75.0765 196.764C75.5187 196.779 75.8344 196.857 76.0249 196.994C76.6368 197.442 76.6146 198.316 75.9554 199.616C74.7817 201.931 73.8666 203.627 73.2102 204.702C72.5746 205.661 71.9919 205.948 71.4635 205.563C71.1895 205.362 71.0337 205.111 70.9948 204.807C70.9572 204.504 70.9725 203.973 71.0421 203.215C71.6582 199.228 70.5929 196.231 67.849 194.226C66.7518 193.423 65.7185 193.098 64.7506 193.248C63.7827 193.398 62.9761 193.87 62.3322 194.662C61.8482 195.28 61.6438 196.036 61.7175 196.933C61.7912 197.829 62.0054 198.69 62.3572 199.514C62.7104 200.339 63.1735 201.333 63.7465 202.497C63.9287 202.824 64.0594 203.066 64.1401 203.222C65.4904 205.894 66.304 207.75 66.578 208.793C67.112 210.899 66.7448 212.818 65.4807 214.549C64.1999 216.301 62.3683 217.246 59.9861 217.382C57.6038 217.518 55.2619 216.746 52.9603 215.064C52.3692 214.633 51.7212 214.044 51.0161 213.303C50.3124 212.562 49.8743 212.129 49.7061 212.006C49.4321 211.805 49.0872 211.666 48.6728 211.591C48.2597 211.515 47.9566 211.408 47.766 211.269C47.4712 211.053 47.3127 210.76 47.2918 210.388C47.2724 210.017 47.4378 209.458 47.7883 208.711C48.4906 207.087 49.2054 205.665 49.9327 204.449C50.5488 203.474 51.1524 203.203 51.742 203.634C52.1439 203.927 52.315 204.732 52.258 206.051C52.1134 209.572 52.9909 212.026 54.8906 213.416C55.8835 214.142 56.8348 214.456 57.7457 214.361C58.658 214.267 59.4131 213.808 60.0153 212.985C60.6939 212.056 60.8886 211.015 60.5966 209.864C60.3059 208.711 59.555 206.948 58.3423 204.574C58.2352 204.365 58.0753 204.054 57.8597 203.638C57.3034 202.582 56.9001 201.795 56.6498 201.272C56.3995 200.749 56.1241 200.054 55.8196 199.185C55.5164 198.316 55.3537 197.597 55.33 197.029C55.3078 196.462 55.3815 195.819 55.5498 195.1C55.7194 194.381 56.0351 193.705 56.4968 193.073C57.957 191.031 59.9583 189.999 62.4991 189.978C65.0398 189.958 67.4402 190.773 69.6987 192.423L69.7015 192.422Z" fill="black"/>
<path d="M29.2241 183.651L33.1653 184.313L40.6403 169.964C41.0102 169.246 41.2522 168.578 41.3676 167.958C41.483 167.339 41.5053 166.858 41.4371 166.513C41.369 166.17 41.369 165.839 41.4371 165.52C41.5053 165.203 41.693 164.924 42.0031 164.683C42.3341 164.426 42.6526 164.369 42.9613 164.509C43.2701 164.651 43.6483 165.01 44.0975 165.588L47.7787 170.327C48.2599 170.945 48.538 171.442 48.6117 171.815C48.6868 172.187 48.5575 172.502 48.2279 172.759C47.9595 172.967 47.5659 173.058 47.0486 173.03C46.5312 173.002 46.0946 173.026 45.7399 173.104C45.3853 173.18 44.9458 173.604 44.4202 174.378L38.6182 185.192L46.3435 186.44L49.8745 183.698C50.7005 183.057 51.286 182.435 51.6309 181.836C51.9772 181.237 52.1302 180.762 52.0884 180.412C52.0495 180.063 52.0565 179.7 52.1135 179.324C52.1705 178.95 52.3527 178.641 52.6628 178.401C52.9938 178.144 53.3164 178.092 53.6335 178.244C53.9506 178.395 54.3567 178.792 54.8545 179.431L58.6803 184.356C59.1615 184.975 59.4452 185.467 59.5287 185.831C59.6135 186.196 59.4911 186.506 59.1601 186.763C58.85 187.004 58.5023 187.1 58.1171 187.051C57.7319 187.002 57.3703 186.911 57.0337 186.776C56.6972 186.639 56.191 186.66 55.5165 186.837C54.842 187.013 54.0924 187.422 53.2664 188.063L41.9308 196.869C41.1048 197.51 40.5193 198.132 40.1744 198.731C39.8295 199.331 39.6807 199.811 39.728 200.171C39.7766 200.531 39.7725 200.898 39.7154 201.274C39.6598 201.649 39.4762 201.956 39.1661 202.197C38.8365 202.453 38.5125 202.506 38.1954 202.354C37.8797 202.203 37.4639 201.797 36.9508 201.136L33.125 196.211C32.6438 195.593 32.3656 195.106 32.2878 194.751C32.2113 194.397 32.3378 194.091 32.6688 193.835C32.9789 193.594 33.3224 193.493 33.6993 193.53C34.0762 193.568 34.4378 193.66 34.7827 193.806C35.1276 193.952 35.6338 193.931 36.2999 193.744C36.966 193.558 37.7128 193.144 38.5375 192.503L43.5857 188.581L31.534 186.62C30.822 186.511 30.3144 186.542 30.014 186.709C29.7136 186.876 29.5731 187.109 29.5912 187.41C29.6093 187.71 29.5954 188.044 29.5495 188.411C29.5036 188.778 29.3562 189.058 29.1086 189.25C28.5315 189.699 27.9126 189.5 27.2548 188.653L24.1745 184.69C23.2761 183.534 23.1161 182.73 23.6947 182.282C24.0868 181.978 24.4526 181.893 24.7891 182.028C25.1257 182.163 25.6945 182.426 26.4927 182.815C27.2924 183.204 28.2019 183.481 29.2254 183.647L29.2241 183.651Z" fill="black"/>
<path d="M12.5327 143.992L15.926 146.105L28.2976 135.677C28.9123 135.154 29.3907 134.629 29.7328 134.099C30.0749 133.57 30.2794 133.134 30.3461 132.789C30.4129 132.444 30.5394 132.139 30.723 131.871C30.9066 131.603 31.1875 131.416 31.5658 131.312C31.9691 131.201 32.2861 131.269 32.517 131.516C32.7478 131.764 32.962 132.241 33.1581 132.946L34.7602 138.729C34.9702 139.485 35.0383 140.05 34.9646 140.422C34.8923 140.795 34.6531 141.037 34.2498 141.15C33.923 141.24 33.5239 141.175 33.0552 140.952C32.5865 140.73 32.1735 140.587 31.8175 140.523C31.4615 140.459 30.8927 140.684 30.1125 141.198L20.6335 148.993L27.3019 153.087L31.6103 151.894C32.6185 151.615 33.3959 151.264 33.9438 150.84C34.4918 150.417 34.813 150.036 34.909 149.698C35.0049 149.36 35.151 149.028 35.3457 148.703C35.5404 148.377 35.8268 148.163 36.2051 148.057C36.6084 147.946 36.9269 148.02 37.1619 148.28C37.3969 148.54 37.6222 149.061 37.8392 149.842L39.5038 155.851C39.7138 156.607 39.7875 157.169 39.7277 157.539C39.6679 157.909 39.4357 158.15 39.0324 158.261C38.6541 158.365 38.2967 158.322 37.9588 158.132C37.6208 157.94 37.3218 157.718 37.0618 157.464C36.8017 157.211 36.3261 157.037 35.6363 156.944C34.9465 156.851 34.0968 156.944 33.0886 157.222L19.2567 161.055C18.2499 161.334 17.4711 161.686 16.9231 162.108C16.3766 162.53 16.0554 162.918 15.9636 163.269C15.8718 163.619 15.7271 163.959 15.5324 164.284C15.3378 164.609 15.0513 164.824 14.673 164.929C14.2697 165.04 13.9512 164.967 13.7162 164.707C13.4812 164.447 13.2517 163.913 13.0292 163.106L11.3645 157.097C11.1545 156.342 11.0822 155.785 11.1462 155.428C11.2102 155.072 11.4438 154.837 11.8471 154.726C12.2254 154.621 12.5814 154.659 12.9152 154.837C13.2489 155.016 13.5493 155.237 13.8122 155.505C14.0764 155.772 14.552 155.944 15.2376 156.025C15.9246 156.105 16.7729 156.007 17.7798 155.727L23.9406 154.021L13.541 147.623C12.9235 147.252 12.4423 147.087 12.1016 147.127C11.7609 147.167 11.5412 147.33 11.4438 147.615C11.3465 147.9 11.2074 148.203 11.0238 148.525C10.8416 148.846 10.5997 149.049 10.2965 149.132C9.59141 149.327 9.09493 148.91 8.80845 147.877L7.46782 143.038C7.07703 141.628 7.23418 140.824 7.93926 140.628C8.41766 140.496 8.78759 140.556 9.04765 140.809C9.30771 141.062 9.73326 141.521 10.3243 142.184C10.9153 142.849 11.6524 143.451 12.5341 143.994L12.5327 143.992Z" fill="black"/>
<path d="M26.4606 125.578L28.1253 126.333C29.1878 126.705 29.8706 126.817 30.1752 126.668C30.4811 126.521 30.7954 126.275 31.1195 125.931C31.4435 125.588 31.7759 125.421 32.1152 125.431C32.7952 125.452 33.1165 126.062 33.0803 127.264L32.9774 130.753C32.9371 132.112 32.5908 132.782 31.9372 132.762C31.6243 132.753 31.3531 132.628 31.125 132.386C30.8969 132.144 30.7036 131.857 30.5423 131.525C30.3824 131.194 30.0862 130.818 29.6537 130.4C29.2212 129.981 28.683 129.632 28.0363 129.351L10.6832 121.775C9.80291 121.487 9.2216 121.437 8.94207 121.624C8.66254 121.812 8.33295 122.09 7.95607 122.459C7.57919 122.827 7.20787 123.005 6.84212 122.994C6.13704 122.973 5.79632 122.545 5.82135 121.708L5.95208 117.278C5.97294 116.573 6.31366 116.099 6.97563 115.857L28.5105 108.06C29.2504 107.794 29.8553 107.485 30.3226 107.132C30.7913 106.78 31.1069 106.469 31.2724 106.199C31.4379 105.929 31.6271 105.707 31.8412 105.529C32.0568 105.352 32.3196 105.268 32.6339 105.277C33.0525 105.289 33.3418 105.455 33.5017 105.773C33.663 106.092 33.7312 106.63 33.7089 107.388L33.5212 113.699C33.4836 114.953 33.0998 115.569 32.3683 115.548C31.9761 115.537 31.6298 115.318 31.3281 114.889C31.0263 114.462 30.7287 114.14 30.4352 113.921C30.1418 113.703 29.4409 113.735 28.3339 114.016L26.9057 114.562C26.3508 114.756 26.017 114.994 25.903 115.279C25.7319 115.745 25.6067 117.323 25.5275 120.015C25.4413 122.943 25.4844 124.592 25.6554 124.962C25.7792 125.201 26.0476 125.406 26.4606 125.574V125.578ZM23.059 119.906C23.1257 117.632 23.084 116.401 22.9324 116.213C22.7781 116.105 22.5041 116.121 22.1064 116.267L12.6288 119.636L21.7726 123.556C22.315 123.781 22.6418 123.805 22.7517 123.624C22.8907 123.367 22.9922 122.128 23.0576 119.906H23.059Z" fill="black"/>
<path d="M12.7762 81.2845L13.7524 77.8926C14.1279 76.5868 14.6313 76.0235 15.2586 76.2043C15.5603 76.2906 15.7898 76.4866 15.9469 76.7898C16.1041 77.0944 16.2195 77.4268 16.2918 77.7869C16.3655 78.1485 16.5589 78.5852 16.8731 79.097C17.1888 79.6101 17.6241 80.0816 18.179 80.5141L36.2525 94.2861C36.6363 94.5601 36.8755 94.8396 36.9701 95.1247C37.0646 95.4112 37.0618 95.9202 36.9589 96.6517C36.8379 97.5417 36.6822 98.13 36.4917 98.4151C36.2997 98.7002 35.9827 98.8601 35.5376 98.8949L12.3743 101.247C11.5913 101.322 10.9293 101.47 10.3883 101.696C9.84736 101.921 9.46492 102.138 9.24241 102.345C9.0199 102.554 8.78209 102.717 8.53038 102.835C8.27866 102.953 8.00191 102.968 7.70013 102.882C7.29822 102.767 7.05902 102.534 6.98254 102.185C6.90605 101.836 6.9728 101.298 7.1828 100.569L8.92951 94.5017C9.27718 93.296 9.80286 92.7939 10.5052 92.997C10.882 93.1054 11.163 93.4044 11.3493 93.8926C11.5357 94.3821 11.7443 94.7687 11.9751 95.0524C12.206 95.3375 12.893 95.4793 14.0347 95.4821L31.3572 93.8564L17.3557 83.3789C16.4128 82.7809 15.7745 82.5153 15.4421 82.5834C15.1097 82.6516 14.7454 82.8046 14.3504 83.0452C13.9555 83.2857 13.5939 83.3581 13.2671 83.2635C12.6135 83.0757 12.4494 82.4166 12.7748 81.2859L12.7762 81.2845Z" fill="black"/>
<path d="M36.92 78.7313L24.3092 71.8751C23.3913 71.3759 22.5875 71.088 21.8991 71.0115C21.2121 70.935 20.7128 70.9907 20.4013 71.1798C20.0912 71.3675 19.7519 71.5122 19.3861 71.6095C19.0204 71.7083 18.6644 71.6638 18.3209 71.476C17.9537 71.2758 17.7757 71.0004 17.7882 70.6499C17.8007 70.2995 18.0066 69.7571 18.4057 69.0214L21.3845 63.5435C21.7586 62.8537 22.0938 62.4045 22.3872 62.1917C22.6807 61.9804 23.0117 61.9734 23.3788 62.1737C23.7237 62.3614 23.9532 62.6354 24.07 62.9956C24.1868 63.3571 24.2466 63.7243 24.2522 64.0984C24.2563 64.4739 24.4774 64.9286 24.9155 65.464C25.3536 65.9995 26.0322 66.5182 26.9501 67.0175L39.5609 73.8736C40.4802 74.3728 41.2826 74.6607 41.971 74.7372C42.6594 74.8137 43.1545 74.7636 43.459 74.587C43.7636 74.4104 44.0987 74.2727 44.4645 74.174C44.8302 74.0752 45.1863 74.1197 45.5298 74.3075C45.8969 74.5077 46.0749 74.7831 46.0624 75.1335C46.0499 75.484 45.851 76.0152 45.463 76.7273L42.4841 82.2052C42.11 82.895 41.7721 83.3511 41.4717 83.5751C41.1713 83.799 40.8376 83.8101 40.4704 83.6112C40.1255 83.4235 39.8988 83.1439 39.789 82.7712C39.6791 82.3985 39.6179 82.0314 39.6082 81.6684C39.5971 81.3054 39.3759 80.8507 38.9448 80.3027C38.5137 79.7562 37.8378 79.2319 36.9186 78.7327L36.92 78.7313Z" fill="black"/>
<path d="M45.235 64.6296L46.0472 66.2679C46.6341 67.2274 47.093 67.7462 47.4226 67.8241C47.7522 67.9019 48.1513 67.9117 48.62 67.8505C49.0886 67.7893 49.4516 67.8699 49.7075 68.0925C50.222 68.5375 50.0844 69.2147 49.2958 70.1229L47.0096 72.7596C46.1195 73.7873 45.4269 74.0863 44.9332 73.658C44.6968 73.4522 44.5661 73.1838 44.5425 72.8514C44.5188 72.519 44.5494 72.1755 44.6356 71.8167C44.7219 71.4593 44.7288 70.9809 44.6579 70.3829C44.587 69.7863 44.3909 69.1744 44.0682 68.5486L35.4153 51.7073C34.9147 50.9285 34.4961 50.5224 34.1609 50.4905C33.8258 50.4585 33.3947 50.4668 32.8704 50.5127C32.3461 50.56 31.9456 50.4626 31.6674 50.2234C31.1334 49.7617 31.1403 49.2138 31.6897 48.581L34.5921 45.2322C35.0538 44.6982 35.6184 44.548 36.2831 44.7775L57.8973 52.354C58.6385 52.6168 59.3019 52.7601 59.8874 52.7823C60.4729 52.806 60.9151 52.7642 61.2127 52.6599C61.5117 52.5556 61.7996 52.5028 62.0777 52.5014C62.3559 52.5014 62.6131 52.6015 62.8495 52.8073C63.1652 53.0813 63.2848 53.3928 63.2083 53.7405C63.1319 54.0896 62.844 54.5499 62.3475 55.1229L58.2116 59.8943C57.3897 60.8428 56.7027 61.0778 56.1492 60.598C55.853 60.3407 55.7236 59.9527 55.7598 59.4298C55.796 58.9083 55.7695 58.4703 55.6805 58.1142C55.5901 57.7596 55.0283 57.341 53.9922 56.8584L52.5403 56.3786C51.9882 56.177 51.5794 56.1506 51.311 56.2994C50.884 56.5525 49.7882 57.697 48.0248 59.7316C46.107 61.9442 45.0973 63.2487 44.9958 63.645C44.9402 63.9093 45.0195 64.2361 45.2322 64.6296H45.235ZM46.1863 58.0836C47.6757 56.3647 48.4211 55.3857 48.4225 55.1437C48.3724 54.9615 48.1485 54.8016 47.7494 54.6639L38.2774 51.2804L42.882 60.0988C43.1601 60.6161 43.3979 60.8414 43.5968 60.7705C43.8666 60.6592 44.7302 59.7636 46.1849 58.0836H46.1863Z" fill="black"/>
<path d="M74.2782 35.0315L79.5406 37.8171C80.1358 38.1202 80.7255 38.3261 81.3068 38.4359C81.8881 38.5458 82.3331 38.5875 82.6418 38.5611C82.9506 38.5347 83.2551 38.5736 83.5527 38.6779C83.8517 38.7822 84.1062 38.9992 84.3176 39.3301C84.5429 39.6834 84.5693 40.006 84.4011 40.2995C84.2314 40.5929 83.8378 40.9378 83.2204 41.33L78.3585 44.427C77.3002 45.1015 76.5673 45.1196 76.1598 44.4799C75.9776 44.1934 75.9109 43.7859 75.9623 43.2575C76.0138 42.729 75.9985 42.3048 75.9178 41.9836C75.8372 41.6623 75.4116 41.2368 74.6384 40.7055L70.7208 38.6445C70.0435 39.1382 69.5067 39.5109 69.109 39.764L66.4959 41.4287C66.055 41.7096 65.9744 42.0712 66.2553 42.512L67.0981 43.8346C67.6599 44.7163 68.2231 45.3574 68.7877 45.7579C69.3524 46.1584 69.8113 46.3545 70.1631 46.3462C70.515 46.3392 70.8752 46.381 71.2423 46.4713C71.6095 46.5631 71.9001 46.7731 72.1101 47.1041C72.3354 47.4573 72.3577 47.7842 72.1769 48.0846C71.9961 48.3849 71.5636 48.7535 70.8807 49.1888L65.6211 52.5389C64.9592 52.9603 64.4432 53.1967 64.0719 53.2468C63.7006 53.2969 63.403 53.1467 63.1777 52.7934C62.9663 52.4625 62.9037 52.1078 62.9872 51.7282C63.0706 51.3485 63.1958 50.9981 63.3627 50.6754C63.5295 50.3528 63.556 49.8479 63.4433 49.1596C63.3307 48.4726 62.9941 47.6868 62.4309 46.8051L54.7821 34.7993C54.1646 33.8286 53.5597 33.136 52.97 32.7216C52.3803 32.3071 51.9145 32.1236 51.5724 32.1708C51.2302 32.2181 50.877 32.2112 50.5126 32.1486C50.1483 32.0874 49.8465 31.8691 49.6073 31.4936C49.3834 31.1417 49.3653 30.8108 49.5572 30.502C49.7478 30.1947 50.1858 29.822 50.8701 29.3867L58.0808 24.7932C61.5422 22.5876 64.6977 21.6405 67.5445 21.9493C70.3926 22.2594 72.5955 23.6376 74.1544 26.0852C76.1348 29.1948 76.1751 32.1764 74.2726 35.0301L74.2782 35.0315ZM67.5931 37.8949C69.2467 36.8408 70.2647 35.6045 70.6457 34.1832C71.0268 32.7633 70.7125 31.2586 69.7 29.6704C68.4081 27.6414 66.7893 26.3786 64.8451 25.8807C62.9009 25.3843 61.0138 25.718 59.1836 26.8834C58.3103 27.4091 57.7846 27.8138 57.608 28.0961C57.4313 28.3798 57.4564 28.6969 57.6803 29.0501L63.8758 38.7739C64.1289 39.1702 64.5197 39.3093 65.0482 39.1897C65.5766 39.0701 66.425 38.639 67.5931 37.8936V37.8949Z" fill="black"/>
</svg>
