<svg width="557" height="556" viewBox="0 0 557 556" fill="none" xmlns="http://www.w3.org/2000/svg">
<g clip-path="url(#clip0_400_29946)">
<path d="M147.231 145.259L151.32 140.503C152.895 138.671 154.123 138.134 155.005 138.891C155.427 139.254 155.654 139.739 155.682 140.347C155.711 140.954 155.653 141.577 155.502 142.214C155.352 142.853 155.342 143.701 155.471 144.761C155.601 145.823 155.955 146.91 156.532 148.017L175.529 183.656C175.947 184.383 176.125 185.013 176.066 185.543C176.006 186.075 175.624 186.894 174.917 188.003C174.062 189.352 173.376 190.186 172.857 190.507C172.337 190.826 171.705 190.85 170.96 190.575L131.795 177.215C130.474 176.756 129.295 176.506 128.253 176.468C127.213 176.432 126.433 176.498 125.921 176.669C125.407 176.84 124.903 176.928 124.409 176.93C123.915 176.934 123.457 176.754 123.034 176.392C122.47 175.908 122.255 175.355 122.389 174.735C122.525 174.115 123.029 173.294 123.909 172.273L131.225 163.764C132.679 162.073 133.899 161.653 134.886 162.499C135.413 162.954 135.646 163.645 135.586 164.571C135.524 165.499 135.575 166.278 135.737 166.908C135.9 167.54 136.903 168.278 138.747 169.127L167.935 179.334L153.077 152.032C151.996 150.367 151.163 149.466 150.576 149.329C149.989 149.193 149.287 149.171 148.471 149.266C147.655 149.36 147.018 149.212 146.559 148.817C145.643 148.03 145.865 146.843 147.229 145.258L147.231 145.259Z" fill="#EC6342"/>
<path d="M207.56 161.147C201.846 164.538 196.012 165.476 190.058 163.956C184.103 162.438 179.396 158.761 175.933 152.927C172.091 146.454 170.965 139.705 172.552 132.684C174.14 125.663 178.111 120.267 184.465 116.496C190.377 112.986 196.298 112.082 202.223 113.779C208.148 115.479 212.855 119.264 216.34 125.137C220.206 131.65 221.326 138.321 219.702 145.146C218.08 151.974 214.032 157.306 207.558 161.148L207.56 161.147ZM207.866 154.562C211.502 152.403 213.482 149.528 213.806 145.929C214.13 142.334 213.118 138.556 210.771 134.601C208.732 131.164 206.225 128.219 203.258 125.767C200.287 123.314 197.076 121.722 193.615 120.992C190.155 120.263 187.008 120.739 184.17 122.421C180.613 124.532 178.631 127.478 178.227 131.256C177.821 135.036 178.734 138.803 180.963 142.561C184.213 148.037 188.428 152.044 193.612 154.587C198.796 157.132 203.546 157.122 207.861 154.56L207.866 154.562Z" fill="#EC6342"/>
<path d="M260.546 123.246L267.412 131.298C268.197 132.188 269.035 132.915 269.923 133.478C270.812 134.041 271.52 134.403 272.048 134.562C272.577 134.722 273.051 134.985 273.477 135.354C273.903 135.723 274.182 136.248 274.312 136.932C274.452 137.664 274.285 138.215 273.813 138.588C273.34 138.964 272.464 139.272 271.188 139.519L261.125 141.448C258.934 141.868 257.713 141.416 257.458 140.093C257.345 139.501 257.502 138.784 257.934 137.945C258.365 137.106 258.618 136.393 258.696 135.811C258.774 135.228 258.349 134.245 257.421 132.862L252.303 126.888C250.859 127.26 249.727 127.524 248.906 127.68L243.499 128.716C242.586 128.89 242.216 129.435 242.392 130.347L242.917 133.084C243.267 134.909 243.777 136.339 244.449 137.369C245.119 138.4 245.747 139.025 246.333 139.242C246.918 139.461 247.487 139.767 248.034 140.158C248.582 140.549 248.922 141.088 249.054 141.773C249.194 142.505 249.017 143.059 248.522 143.436C248.026 143.816 247.07 144.14 245.656 144.412L234.772 146.499C233.403 146.761 232.395 146.813 231.749 146.652C231.103 146.491 230.71 146.046 230.572 145.317C230.44 144.631 230.568 144.004 230.955 143.433C231.342 142.863 231.779 142.364 232.266 141.94C232.753 141.516 233.127 140.698 233.393 139.489C233.659 138.279 233.615 136.76 233.265 134.935L228.501 110.086C228.116 108.08 227.572 106.539 226.87 105.467C226.167 104.395 225.518 103.787 224.922 103.641C224.326 103.495 223.748 103.252 223.184 102.909C222.621 102.568 222.267 102.01 222.117 101.234C221.978 100.506 222.165 99.9476 222.685 99.5644C223.201 99.1811 224.169 98.8537 225.584 98.5835L240.507 95.7235C247.672 94.3508 253.506 94.8539 258.007 97.2313C262.509 99.6103 265.244 103.33 266.215 108.398C267.449 114.833 265.56 119.784 260.546 123.252L260.546 123.246ZM247.624 123.594C251.047 122.938 253.538 121.562 255.101 119.465C256.662 117.369 257.128 114.675 256.498 111.391C255.693 107.192 253.848 104.045 250.962 101.947C248.076 99.8521 244.739 99.1651 240.951 99.8922C239.162 100.188 238.03 100.513 237.554 100.863C237.077 101.216 236.91 101.757 237.05 102.486L240.907 122.612C241.064 123.435 241.62 123.919 242.57 124.067C243.521 124.217 245.205 124.059 247.624 123.594Z" fill="#EC6342"/>
<path d="M313.818 129.161C314.495 129.379 314.886 129.731 314.993 130.21C315.102 130.691 315.069 131.46 314.901 132.515C314.343 136.099 313.67 138.851 312.886 140.77C312.479 141.847 311.859 142.546 311.027 142.87C310.193 143.193 308.761 143.238 306.733 143.001L278.831 139.745C277.4 139.578 276.412 139.323 275.869 138.978C275.323 138.633 275.095 138.092 275.181 137.354C275.272 136.571 275.586 135.986 276.122 135.604C276.658 135.223 277.216 134.938 277.802 134.748C278.386 134.559 278.989 133.905 279.609 132.783C280.229 131.662 280.66 130.088 280.898 128.056L283.806 103.132C284.042 101.102 283.988 99.4686 283.641 98.2366C283.293 97.0016 282.858 96.228 282.333 95.9082C281.809 95.5899 281.329 95.1826 280.896 94.6893C280.462 94.1944 280.292 93.554 280.385 92.7696C280.47 92.0309 280.818 91.557 281.427 91.3479C282.036 91.1388 283.055 91.1176 284.487 91.2844L311.003 94.3776C312.895 94.5974 314.224 94.9419 314.988 95.4049C315.751 95.8694 316.246 96.5574 316.466 97.4718C317.187 99.7083 317.602 102.166 317.712 104.846C317.849 106.874 317.371 107.963 316.278 108.117C315.127 108.358 314.119 107.561 313.258 105.728C312.138 103.306 310.843 101.471 309.374 100.223C307.904 98.9758 306.062 98.223 303.848 97.9649L300.594 97.5865C298.102 97.2958 296.422 97.3455 295.558 97.7356C294.694 98.1257 294.194 98.8985 294.059 100.052L292.937 109.676C292.777 111.061 293.051 112.016 293.761 112.545C294.472 113.074 295.703 113.439 297.459 113.642L299.397 113.87C300.412 113.989 301.264 113.807 301.951 113.324C302.64 112.843 303.127 112.268 303.416 111.599C303.705 110.931 304.077 110.344 304.534 109.835C304.99 109.328 305.518 109.109 306.119 109.178C306.858 109.264 307.334 109.6 307.545 110.187C307.756 110.773 307.785 111.734 307.629 113.073L306.684 121.172C306.42 123.434 305.642 124.49 304.35 124.337C303.75 124.267 303.287 123.921 302.961 123.299C302.636 122.677 302.41 122.018 302.28 121.326C302.15 120.633 301.808 119.961 301.252 119.31C300.697 118.662 299.91 118.276 298.897 118.158L296.959 117.931C295.159 117.721 293.863 117.793 293.074 118.145C292.284 118.498 291.809 119.366 291.646 120.752L290.177 133.353C290.037 134.555 290.365 135.444 291.163 136.031C291.959 136.616 293.696 137.062 296.373 137.375L300.952 137.839C303.167 138.097 304.892 137.749 306.127 136.794C307.362 135.84 308.787 134.051 310.402 131.433C311.608 129.515 312.749 128.759 313.826 129.166L313.818 129.161Z" fill="#EC6342"/>
<path d="M332.529 152.379C330.692 151.591 328.832 150.564 326.948 149.3C325.064 148.036 323.971 147.338 323.675 147.21C322.991 146.918 322.264 146.845 321.493 146.993C320.721 147.141 320.143 147.133 319.759 146.969C318.52 146.436 318.213 144.916 318.838 142.402C319.951 137.925 320.864 134.625 321.574 132.502C322.295 130.585 323.189 129.858 324.257 130.317C324.812 130.555 325.181 130.93 325.367 131.439C325.552 131.95 325.736 132.877 325.918 134.218C326.437 141.37 329.471 146.138 335.022 148.521C337.241 149.475 339.162 149.63 340.779 148.984C342.395 148.34 343.603 147.202 344.405 145.573C344.997 144.311 345.053 142.919 344.57 141.395C344.085 139.873 343.374 138.467 342.435 137.18C341.497 135.892 340.299 134.353 338.842 132.563C338.397 132.07 338.074 131.702 337.873 131.464C334.47 127.374 332.326 124.479 331.437 122.783C329.675 119.347 329.547 115.877 331.051 112.376C332.573 108.832 335.373 106.468 339.445 105.285C343.518 104.104 347.882 104.51 352.537 106.509C353.732 107.021 355.089 107.783 356.605 108.786C358.119 109.792 359.049 110.367 359.391 110.514C359.946 110.752 360.597 110.855 361.344 110.823C362.09 110.791 362.658 110.856 363.041 111.022C363.638 111.28 364.028 111.724 364.211 112.359C364.393 112.993 364.328 114.028 364.016 115.46C363.446 118.552 362.773 121.298 361.996 123.696C361.316 125.63 360.38 126.338 359.185 125.826C358.374 125.478 357.754 124.149 357.33 121.843C356.183 115.687 353.687 111.782 349.845 110.131C347.838 109.269 346.063 109.102 344.523 109.627C342.981 110.154 341.855 111.25 341.139 112.914C340.332 114.793 340.41 116.672 341.372 118.553C342.335 120.433 344.337 123.191 347.379 126.823C347.647 127.142 348.048 127.617 348.586 128.253C349.968 129.859 350.981 131.064 351.621 131.871C352.261 132.678 353.015 133.773 353.888 135.158C354.759 136.545 355.327 137.723 355.591 138.697C355.856 139.671 355.984 140.812 355.978 142.125C355.97 143.437 355.692 144.732 355.142 146.013C353.423 150.13 350.368 152.711 345.974 153.758C341.579 154.805 337.098 154.346 332.53 152.384L332.529 152.379Z" fill="#EC6342"/>
<path d="M409.141 156.478L388.148 177.083C386.821 178.386 385.914 179.6 385.428 180.729C384.939 181.857 384.776 182.734 384.936 183.361C385.095 183.987 385.161 184.637 385.139 185.31C385.116 185.983 384.856 186.565 384.358 187.053C383.827 187.575 383.259 187.724 382.653 187.505C382.047 187.285 381.239 186.66 380.231 185.633L372.466 177.724C371.49 176.728 370.889 175.917 370.665 175.292C370.439 174.666 370.594 174.091 371.125 173.572C371.623 173.084 372.216 172.842 372.907 172.848C373.597 172.855 374.253 172.944 374.874 173.113C375.497 173.284 376.386 173.145 377.54 172.695C378.694 172.246 379.933 171.371 381.262 170.069L402.254 149.464C403.713 148.033 403.711 146.571 402.246 145.079C401.204 144.016 400.1 143.342 398.938 143.051C397.774 142.76 396.714 142.71 395.76 142.898C394.804 143.087 393.291 143.483 391.215 144.087C389.401 144.695 388.186 144.682 387.569 144.053C386.691 143.158 387.011 142.028 388.537 140.662C391.221 138.223 393.471 136.501 395.289 135.499C396.281 134.917 397.2 134.761 398.054 135.032C398.905 135.303 400.047 136.166 401.48 137.627L420.961 157.474C422.393 158.933 423.228 160.082 423.467 160.922C423.706 161.762 423.541 162.656 422.973 163.603C421.769 165.695 419.993 167.929 417.637 170.305C416.242 171.804 415.122 172.123 414.276 171.261C413.657 170.63 413.651 169.397 414.26 167.564C415.241 164.649 415.736 162.452 415.751 160.973C415.766 159.494 415.023 157.992 413.525 156.468C412.093 155.007 410.632 155.011 409.139 156.477L409.141 156.478Z" fill="#EC6342"/>
<path d="M403.134 196.301L424.916 183.019C426.502 182.051 427.659 181.072 428.39 180.084C429.12 179.094 429.479 178.276 429.465 177.631C429.452 176.986 429.533 176.338 429.708 175.687C429.883 175.037 430.268 174.53 430.862 174.166C431.496 173.779 432.078 173.751 432.607 174.082C433.137 174.412 433.787 175.212 434.561 176.482L440.331 185.943C441.056 187.134 441.451 188.047 441.517 188.691C441.581 189.333 441.295 189.847 440.663 190.233C440.067 190.595 439.441 190.704 438.783 190.563C438.124 190.42 437.505 190.186 436.925 189.859C436.345 189.531 435.448 189.467 434.234 189.663C433.02 189.86 431.619 190.441 430.032 191.409L408.25 204.692C406.664 205.66 405.504 206.638 404.776 207.627C404.044 208.615 403.68 209.423 403.681 210.05C403.682 210.675 403.595 211.314 403.42 211.964C403.245 212.614 402.86 213.121 402.266 213.485C401.631 213.873 401.05 213.9 400.521 213.57C399.993 213.238 399.352 212.458 398.602 211.228L392.832 201.767C392.106 200.577 391.706 199.651 391.628 198.992C391.552 198.331 391.831 197.806 392.467 197.42C393.062 197.058 393.694 196.958 394.365 197.12C395.035 197.281 395.654 197.516 396.223 197.824C396.79 198.131 397.687 198.195 398.914 198.019C400.142 197.843 401.547 197.273 403.135 196.303L403.134 196.301Z" fill="#EC6342"/>
<path d="M427.387 243.828C427.483 244.532 427.339 245.037 426.955 245.343C426.568 245.649 425.862 245.955 424.84 246.263C421.37 247.32 418.599 247.914 416.53 248.043C415.385 248.145 414.486 247.893 413.831 247.284C413.176 246.676 412.514 245.404 411.844 243.474L403.516 219.507C403.043 218.146 402.842 217.145 402.914 216.505C402.988 215.864 403.374 215.422 404.076 215.179C404.822 214.918 405.484 214.948 406.062 215.263C406.637 215.58 407.138 215.959 407.565 216.402C407.989 216.844 408.842 217.101 410.121 217.173C411.401 217.245 413.005 216.945 414.937 216.274L438.836 207.968C440.592 207.358 441.931 206.645 442.853 205.834C443.776 205.021 444.3 204.298 444.423 203.663C444.546 203.03 444.764 202.413 445.072 201.815C445.381 201.215 445.864 200.803 446.523 200.574C447.225 200.33 447.8 200.425 448.247 200.861C448.693 201.296 449.16 202.216 449.648 203.619L453.285 214.087C453.744 215.405 453.936 216.382 453.863 217.023C453.791 217.662 453.403 218.106 452.7 218.349C452.041 218.578 451.407 218.552 450.793 218.274C450.179 217.996 449.623 217.634 449.126 217.193C448.627 216.75 447.763 216.497 446.538 216.432C445.309 216.366 443.817 216.64 442.062 217.25L414.146 226.952C413.048 227.333 412.391 227.953 412.175 228.818C411.959 229.68 412.194 231.099 412.88 233.074L413.976 236.013C414.708 238.12 415.772 239.521 417.17 240.217C418.568 240.912 420.797 241.416 423.858 241.729C426.11 241.979 427.287 242.678 427.389 243.823L427.387 243.828Z" fill="#EC6342"/>
<path d="M414.993 275.498C414.803 268.205 416.906 262.249 421.298 257.632C425.693 253.013 431.467 250.634 438.622 250.493C445.917 250.349 452.13 252.62 457.266 257.306C462.4 261.991 465.039 267.889 465.177 274.998C465.218 277.088 465.062 279.171 464.708 281.246C464.353 283.32 464.181 284.474 464.183 284.707C464.195 285.309 464.394 285.946 464.779 286.612C465.164 287.279 465.361 287.891 465.372 288.449C465.4 289.843 464.186 290.819 461.736 291.379C459.192 292.033 455.974 292.677 452.083 293.311C450.137 293.627 449.081 293.067 448.913 291.63C448.856 291.166 448.953 290.724 449.199 290.3C449.446 289.877 449.742 289.523 450.086 289.237C450.429 288.951 451.037 288.497 451.906 287.876C453.372 286.777 454.469 285.909 455.2 285.267C455.93 284.624 456.796 283.712 457.794 282.531C458.793 281.35 459.512 280.059 459.949 278.655C460.386 277.251 460.587 275.667 460.552 273.902C460.467 269.627 458.787 266.29 455.511 263.892C452.233 261.492 448.179 260.342 443.348 260.437C436.424 260.573 430.81 262.194 426.503 265.301C422.195 268.407 420.092 272.539 420.193 277.695C420.232 279.739 420.699 281.624 421.594 283.351C422.488 285.076 423.677 285.923 425.165 285.894L430.391 285.792C431.925 285.761 433.137 285.364 434.029 284.606C434.92 283.844 435.472 283.032 435.69 282.168C435.905 281.304 436.225 280.496 436.652 279.744C437.078 278.991 437.64 278.609 438.338 278.597C439.08 278.535 439.596 278.781 439.886 279.332C440.175 279.884 440.335 280.902 440.365 282.39L440.751 294.93C440.792 297.02 440.162 298.103 438.863 298.174C438.305 298.186 437.804 298.055 437.357 297.786C436.908 297.516 436.531 297.22 436.225 296.902C435.917 296.583 435.284 296.293 434.326 296.033C433.369 295.773 432.146 295.656 430.66 295.687L425.852 295.782C423.294 295.832 420.886 293.858 418.623 289.859C416.36 285.86 415.151 281.074 414.993 275.498Z" fill="#EC6342"/>
<path d="M423.657 314.301L421.223 312.148C419.613 310.963 418.51 310.416 417.915 310.508C417.32 310.6 416.657 310.853 415.927 311.269C415.197 311.684 414.546 311.792 413.974 311.6C412.829 311.21 412.602 310.004 413.29 307.98L415.286 302.107C416.064 299.818 417.001 298.862 418.102 299.237C418.631 299.416 419.025 299.77 419.285 300.301C419.547 300.831 419.728 301.42 419.825 302.069C419.925 302.716 420.233 303.506 420.749 304.444C421.266 305.38 421.999 306.254 422.95 307.068L448.481 328.994C449.827 329.941 450.787 330.33 451.362 330.156C451.936 329.983 452.64 329.682 453.472 329.254C454.305 328.825 455.029 328.715 455.645 328.926C456.832 329.329 457.188 330.235 456.709 331.642L454.176 339.1C453.773 340.288 452.945 340.915 451.697 340.983L411.039 342.997C409.642 343.063 408.456 343.272 407.475 343.627C406.495 343.98 405.794 344.344 405.375 344.716C404.955 345.089 404.514 345.368 404.058 345.557C403.601 345.745 403.109 345.751 402.581 345.57C401.876 345.331 401.472 344.9 401.366 344.273C401.259 343.649 401.424 342.698 401.857 341.422L405.467 330.798C406.185 328.686 407.16 327.839 408.391 328.257C409.053 328.482 409.525 329.036 409.814 329.918C410.102 330.801 410.439 331.504 410.827 332.029C411.213 332.551 412.42 332.865 414.447 332.963L417.16 332.78C418.204 332.742 418.895 332.512 419.235 332.087C419.768 331.384 420.805 328.768 422.344 324.236C424.018 319.309 424.804 316.484 424.707 315.763C424.621 315.293 424.27 314.805 423.657 314.301ZM426.479 325.712C425.177 329.54 424.608 331.652 424.767 332.05C424.972 332.314 425.448 332.428 426.198 332.39L444.057 331.611L430.566 320.181C429.761 319.514 429.219 319.306 428.938 319.553C428.567 319.918 427.749 321.971 426.477 325.71L426.479 325.712Z" fill="#EC6342"/>
<path d="M414.455 405.597L410.578 410.439C409.822 411.382 409.192 411.964 408.688 412.184C408.183 412.405 407.659 412.298 407.116 411.862C406.643 411.484 406.415 410.898 406.425 410.102C406.437 409.308 406.321 408.412 406.078 407.414C405.836 406.416 405.187 405.496 404.137 404.654L375.248 381.515C374.559 380.962 374.11 380.351 373.906 379.68C373.7 379.008 373.771 378.456 374.119 378.02L374.599 377.422C375.18 376.694 376.276 376.294 377.887 376.216L423.174 374.086L401.925 357.244C401.091 356.575 400.259 356.164 399.432 356.007C398.605 355.85 397.919 355.852 397.375 356.011C396.832 356.17 396.264 356.265 395.67 356.299C395.078 356.331 394.583 356.188 394.185 355.867C393.64 355.432 393.431 354.951 393.554 354.423C393.677 353.897 394.105 353.18 394.829 352.273L398.663 347.486C399.419 346.543 400.049 345.961 400.553 345.741C401.055 345.52 401.582 345.627 402.125 346.064C402.597 346.44 402.826 347.027 402.816 347.823C402.804 348.618 402.92 349.514 403.162 350.511C403.405 351.509 404.052 352.428 405.104 353.272L427.139 370.92C428.735 372.197 430.149 373.017 431.379 373.377C432.609 373.737 433.497 373.779 434.046 373.502C434.593 373.227 435.193 373.036 435.842 372.932C436.491 372.829 437.124 373.023 437.741 373.515C438.32 373.981 438.54 374.526 438.392 375.154C438.247 375.782 437.724 376.657 436.822 377.783L433.335 382.134C432.551 383.113 431.418 383.634 429.938 383.701L388.332 385.473L407.319 400.681C408.153 401.35 408.991 401.752 409.834 401.891C410.676 402.029 411.368 402.018 411.913 401.861C412.457 401.702 413.026 401.605 413.617 401.575C414.207 401.541 414.704 401.685 415.102 402.006C415.647 402.441 415.855 402.924 415.732 403.45C415.609 403.975 415.184 404.691 414.458 405.6L414.455 405.597Z" fill="#EC6342"/>
<path d="M348.044 395.403C354.286 391.624 360.5 390.499 366.689 392.028C372.877 393.556 377.805 397.395 381.471 403.54C385.21 409.804 386.316 416.327 384.789 423.11C383.263 429.891 379.447 435.104 373.341 438.749C371.545 439.82 369.659 440.717 367.681 441.438C365.703 442.159 364.613 442.577 364.414 442.697C363.896 443.007 363.441 443.493 363.053 444.157C362.665 444.821 362.232 445.296 361.752 445.582C360.554 446.297 359.108 445.727 357.405 443.875C355.577 441.99 353.422 439.515 350.943 436.448C349.704 434.915 349.668 433.719 350.832 432.862C351.206 432.583 351.64 432.447 352.13 432.452C352.62 432.457 353.074 432.537 353.492 432.693C353.91 432.849 354.606 433.151 355.576 433.601C357.256 434.331 358.555 434.852 359.476 435.171C360.396 435.487 361.617 435.787 363.137 436.07C364.659 436.351 366.137 436.337 367.572 436.021C369.006 435.706 370.483 435.094 371.999 434.19C375.67 431.999 377.736 428.887 378.195 424.851C378.656 420.814 377.647 416.724 375.171 412.572C371.622 406.625 367.433 402.551 362.601 400.349C357.769 398.145 353.138 398.367 348.709 401.009C346.953 402.057 345.547 403.396 344.491 405.027C343.435 406.658 343.289 408.112 344.051 409.389L346.731 413.88C347.516 415.198 348.461 416.053 349.563 416.451C350.666 416.847 351.646 416.926 352.502 416.686C353.361 416.444 354.222 416.322 355.085 416.322C355.949 416.319 356.561 416.617 356.919 417.217C357.341 417.831 357.382 418.402 357.047 418.926C356.712 419.451 355.905 420.094 354.627 420.857L343.925 427.406C342.13 428.478 340.878 428.467 340.173 427.373C339.888 426.895 339.751 426.393 339.764 425.871C339.778 425.35 339.847 424.874 339.971 424.45C340.095 424.023 340.032 423.33 339.784 422.37C339.534 421.409 339.029 420.29 338.268 419.014L335.803 414.884C334.493 412.688 335.015 409.618 337.367 405.671C339.719 401.723 343.278 398.3 348.043 395.404L348.044 395.403Z" fill="#EC6342"/>
<path d="M290.864 413.873C297.49 413.348 303.138 415.08 307.814 419.068C312.489 423.055 315.094 428.431 315.629 435.195C316.224 442.699 314.26 449.253 309.74 454.854C305.219 460.456 299.276 463.548 291.912 464.133C285.056 464.675 279.344 462.878 274.772 458.743C270.203 454.605 267.648 449.134 267.109 442.323C266.511 434.772 268.445 428.29 272.911 422.88C277.376 417.468 283.362 414.466 290.866 413.872L290.864 413.873ZM287.686 419.648C283.47 419.982 280.426 421.692 278.549 424.777C276.671 427.862 275.916 431.698 276.279 436.285C276.595 440.268 277.545 444.015 279.127 447.526C280.71 451.035 282.893 453.88 285.676 456.061C288.46 458.241 291.495 459.201 294.784 458.942C298.908 458.615 301.985 456.844 304.013 453.632C306.042 450.418 306.884 446.633 306.54 442.279C306.036 435.931 304.02 430.475 300.487 425.907C296.956 421.337 292.688 419.254 287.685 419.649L287.686 419.648Z" fill="#EC6342"/>
<path d="M239.788 408.853C246.807 410.851 251.862 414.635 254.957 420.209C258.051 425.781 258.598 432.002 256.595 438.873C254.552 445.877 250.529 451.129 244.523 454.631C238.518 458.13 232.102 458.886 225.276 456.896C223.268 456.312 221.327 455.539 219.453 454.582C217.579 453.625 216.531 453.114 216.307 453.048C215.729 452.879 215.063 452.877 214.312 453.047C213.563 453.215 212.917 453.221 212.382 453.065C211.044 452.676 210.475 451.225 210.673 448.719C210.809 446.095 211.154 442.834 211.711 438.93C211.989 436.98 212.84 436.137 214.261 436.406C214.719 436.492 215.116 436.716 215.445 437.077C215.775 437.439 216.025 437.828 216.194 438.24C216.365 438.654 216.615 439.367 216.949 440.382C217.561 442.109 218.06 443.417 218.454 444.307C218.849 445.195 219.462 446.295 220.289 447.6C221.12 448.906 222.138 449.978 223.345 450.815C224.554 451.651 226.005 452.317 227.701 452.812C231.805 454.009 235.492 453.402 238.76 450.989C242.03 448.578 244.34 445.052 245.69 440.413C247.629 433.766 247.759 427.922 246.081 422.884C244.404 417.844 241.09 414.605 236.136 413.161C234.173 412.589 232.236 412.47 230.321 412.81C228.407 413.147 227.242 414.029 226.826 415.458L225.363 420.477C224.933 421.949 224.95 423.225 225.409 424.304C225.87 425.381 226.48 426.15 227.24 426.615C228.001 427.078 228.676 427.626 229.265 428.258C229.856 428.891 230.053 429.541 229.858 430.211C229.694 430.936 229.306 431.357 228.693 431.468C228.08 431.579 227.059 431.427 225.633 431.011L213.548 427.633C211.541 427.048 210.698 426.124 211.016 424.862C211.172 424.327 211.445 423.885 211.836 423.54C212.228 423.194 212.623 422.922 213.017 422.722C213.415 422.522 213.88 422.006 214.414 421.168C214.948 420.331 215.423 419.2 215.84 417.771L217.185 413.155C217.902 410.701 220.504 408.992 224.997 408.028C229.488 407.062 234.419 407.337 239.785 408.853L239.788 408.853Z" fill="#EC6342"/>
<path d="M193.887 400.532L178.703 421.032C177.597 422.526 176.891 423.868 176.587 425.06C176.283 426.252 176.259 427.144 176.513 427.738C176.768 428.33 176.937 428.963 177.019 429.63C177.102 430.298 176.936 430.914 176.52 431.473C176.077 432.069 175.55 432.315 174.936 432.207C174.322 432.099 173.419 431.602 172.222 430.717L163.316 424.121C162.196 423.291 161.486 422.592 161.185 422.022C160.885 421.451 160.957 420.868 161.398 420.27C161.812 419.709 162.352 419.372 163.017 419.257C163.681 419.141 164.343 419.126 165.002 419.21C165.663 419.294 166.519 419.016 167.57 418.378C168.622 417.74 169.7 416.674 170.806 415.181L185.99 394.68C187.096 393.187 187.802 391.844 188.106 390.652C188.409 389.461 188.446 388.575 188.208 387.995C187.974 387.416 187.814 386.793 187.729 386.123C187.646 385.454 187.812 384.839 188.228 384.28C188.671 383.683 189.198 383.438 189.812 383.546C190.426 383.654 191.313 384.136 192.469 384.994L201.375 391.59C202.495 392.42 203.216 393.127 203.534 393.71C203.854 394.295 203.792 394.884 203.35 395.483C202.936 396.043 202.387 396.374 201.703 396.475C201.022 396.576 200.358 396.592 199.717 396.522C199.076 396.451 198.22 396.727 197.15 397.353C196.081 397.978 194.993 399.035 193.886 400.53L193.887 400.532Z" fill="#EC6342"/>
<path d="M146.633 410.697L136.15 397.749C133.226 394.138 131.156 390.507 129.936 386.86C128.718 383.214 128.335 379.86 128.789 376.803C129.243 373.746 130.19 370.946 131.631 368.405C133.072 365.863 134.965 363.643 137.312 361.743C142.911 357.211 148.989 355.176 155.548 355.634C162.109 356.094 167.932 359.465 173.019 365.748L184.553 379.996C185.459 381.117 185.987 381.989 186.136 382.616C186.285 383.244 186.072 383.79 185.492 384.257C184.877 384.754 184.245 384.952 183.596 384.851C182.946 384.749 182.347 384.562 181.796 384.291C181.246 384.017 180.357 384.065 179.13 384.431C177.904 384.797 176.494 385.625 174.904 386.911L155.403 402.7C153.813 403.987 152.712 405.192 152.098 406.317C151.484 407.442 151.254 408.302 151.407 408.896C151.56 409.49 151.617 410.115 151.581 410.774C151.545 411.429 151.221 412.007 150.606 412.503C150.029 412.971 149.449 413.069 148.866 412.792C148.285 412.516 147.539 411.818 146.634 410.699L146.633 410.697ZM170.306 368.932C166.826 364.635 163.074 362.455 159.05 362.396C155.026 362.337 150.974 363.957 146.893 367.262C141.656 371.5 138.414 376.397 137.169 381.949C135.924 387.501 137.07 392.461 140.609 396.831C141.604 398.059 142.429 398.765 143.087 398.951C143.745 399.137 144.56 398.834 145.536 398.045L171.431 377.08C172.586 376.144 173.134 375.103 173.073 373.958C173.013 372.812 172.09 371.138 170.307 368.934L170.306 368.932Z" fill="#EC6342"/>
<path d="M129.976 314.232C129.865 313.53 129.997 313.021 130.376 312.706C130.755 312.392 131.454 312.069 132.471 311.74C135.916 310.607 138.673 309.951 140.739 309.777C141.881 309.65 142.787 309.884 143.454 310.477C144.123 311.072 144.813 312.326 145.526 314.243L155.328 340.567C155.831 341.917 156.052 342.914 155.993 343.556C155.935 344.197 155.558 344.649 154.861 344.907C154.121 345.183 153.459 345.169 152.875 344.865C152.291 344.562 151.782 344.194 151.349 343.76C150.916 343.327 150.058 343.089 148.777 343.045C147.497 343 145.899 343.336 143.983 344.049L120.468 352.806C118.552 353.519 117.123 354.311 116.184 355.183C115.243 356.053 114.752 356.794 114.705 357.407C114.66 358.018 114.517 358.63 114.272 359.241C114.03 359.851 113.538 360.295 112.796 360.572C112.1 360.831 111.519 360.739 111.054 360.291C110.591 359.844 110.107 358.947 109.605 357.596L100.29 332.577C99.626 330.793 99.3261 329.453 99.39 328.562C99.4555 327.67 99.8446 326.919 100.557 326.305C102.221 324.646 104.221 323.157 106.555 321.839C108.299 320.795 109.488 320.723 110.122 321.628C110.861 322.544 110.609 323.803 109.37 325.404C107.723 327.504 106.678 329.493 106.235 331.367C105.794 333.243 105.961 335.226 106.74 337.315L107.882 340.386C108.758 342.739 109.567 344.211 110.307 344.802C111.048 345.394 111.962 345.487 113.05 345.081L122.13 341.701C123.437 341.215 124.164 340.535 124.308 339.663C124.454 338.79 124.219 337.529 123.602 335.872L122.922 334.044C122.565 333.086 122.016 332.411 121.274 332.019C120.533 331.625 119.799 331.452 119.072 331.499C118.346 331.547 117.653 331.481 116.991 331.307C116.332 331.132 115.895 330.761 115.685 330.195C115.426 329.498 115.507 328.922 115.934 328.466C116.36 328.009 117.204 327.547 118.465 327.076L126.109 324.23C128.243 323.436 129.537 323.649 129.991 324.867C130.201 325.434 130.105 326.003 129.698 326.575C129.293 327.148 128.81 327.649 128.25 328.082C127.693 328.513 127.251 329.123 126.924 329.915C126.598 330.705 126.614 331.58 126.971 332.538L127.652 334.366C128.284 336.064 128.938 337.185 129.61 337.727C130.283 338.27 131.273 338.297 132.58 337.811L144.467 333.384C145.6 332.963 146.245 332.265 146.402 331.287C146.559 330.311 146.168 328.56 145.227 326.034L143.556 321.747C142.777 319.658 141.682 318.28 140.269 317.616C138.856 316.953 136.617 316.498 133.549 316.25C131.293 316.049 130.1 315.378 129.973 314.235L129.976 314.232Z" fill="#EC6342"/>
<path d="M125.825 270.065C125.919 269.36 126.193 268.913 126.644 268.719C127.097 268.527 127.86 268.42 128.929 268.396C132.555 268.298 135.385 268.464 137.414 268.891C138.546 269.097 139.345 269.581 139.813 270.341C140.282 271.104 140.582 272.503 140.716 274.543L142.546 302.574C142.641 304.012 142.565 305.029 142.326 305.627C142.085 306.227 141.594 306.548 140.853 306.596C140.064 306.646 139.435 306.443 138.961 305.985C138.489 305.526 138.108 305.028 137.816 304.488C137.526 303.949 136.771 303.474 135.556 303.064C134.342 302.654 132.716 302.515 130.674 302.648L105.635 304.281C103.596 304.414 102 304.763 100.849 305.326C99.6995 305.89 99.0155 306.458 98.7954 307.032C98.5768 307.605 98.264 308.15 97.8541 308.665C97.4457 309.182 96.8465 309.464 96.058 309.515C95.317 309.563 94.7868 309.307 94.4707 308.745C94.1546 308.183 93.9505 307.185 93.8556 305.748L92.1166 279.108C91.9921 277.207 92.0897 275.838 92.4077 275.002C92.7273 274.168 93.316 273.558 94.1753 273.176C96.2454 272.064 98.5868 271.211 101.204 270.621C103.175 270.121 104.333 270.394 104.679 271.443C105.124 272.532 104.522 273.666 102.876 274.842C100.694 276.381 99.1239 277.985 98.1602 279.654C97.1996 281.323 96.7898 283.27 96.934 285.498L97.1478 288.767C97.3116 291.271 97.6625 292.913 98.2021 293.693C98.7416 294.472 99.5921 294.825 100.75 294.749L110.419 294.118C111.81 294.028 112.702 293.585 113.091 292.792C113.481 291.998 113.619 290.721 113.504 288.957L113.377 287.009C113.311 285.99 112.979 285.184 112.38 284.594C111.782 284.004 111.129 283.629 110.42 283.464C109.712 283.3 109.065 283.041 108.483 282.683C107.901 282.325 107.59 281.844 107.55 281.241C107.503 280.5 107.748 279.971 108.285 279.658C108.824 279.342 109.765 279.141 111.109 279.054L119.247 278.523C121.519 278.375 122.697 278.951 122.782 280.249C122.821 280.852 122.564 281.371 122.01 281.803C121.457 282.235 120.85 282.576 120.19 282.83C119.532 283.082 118.932 283.541 118.394 284.204C117.856 284.867 117.619 285.71 117.686 286.73L117.812 288.677C117.93 290.486 118.234 291.747 118.722 292.459C119.211 293.173 120.15 293.483 121.541 293.393L134.2 292.567C135.406 292.489 136.224 292.006 136.655 291.116C137.086 290.226 137.213 288.437 137.038 285.748L136.667 281.161C136.521 278.935 135.869 277.301 134.707 276.26C133.546 275.219 131.53 274.14 128.665 273.022C126.56 272.181 125.612 271.195 125.819 270.064L125.825 270.065Z" fill="#EC6342"/>
<path d="M130.494 229.489L140.674 226.603C141.813 226.261 142.821 225.803 143.703 225.229C144.586 224.658 145.208 224.163 145.572 223.75C145.938 223.337 146.374 223.014 146.886 222.781C147.398 222.547 147.992 222.514 148.67 222.68C149.394 222.857 149.826 223.239 149.968 223.825C150.11 224.411 150.029 225.336 149.72 226.598L147.281 236.549C146.75 238.714 145.83 239.639 144.521 239.318C143.936 239.174 143.35 238.733 142.765 237.99C142.181 237.249 141.639 236.722 141.143 236.408C140.645 236.095 139.575 236.072 137.93 236.338L130.368 238.504C130.104 239.971 129.872 241.109 129.674 241.921L128.364 247.269C128.142 248.172 128.484 248.734 129.386 248.954L132.094 249.618C133.899 250.061 135.411 250.193 136.628 250.012C137.845 249.833 138.674 249.521 139.117 249.079C139.56 248.637 140.073 248.251 140.657 247.914C141.241 247.58 141.871 247.494 142.549 247.66C143.273 247.837 143.701 248.231 143.84 248.838C143.979 249.446 143.876 250.45 143.533 251.849L140.894 262.613C140.563 263.968 140.188 264.905 139.774 265.425C139.359 265.944 138.79 266.118 138.068 265.939C137.392 265.774 136.873 265.395 136.516 264.806C136.158 264.215 135.889 263.612 135.705 262.991C135.522 262.372 134.935 261.69 133.946 260.945C132.956 260.2 131.56 259.607 129.754 259.163L105.178 253.14C103.192 252.654 101.566 252.504 100.298 252.698C99.0326 252.889 98.2068 253.225 97.827 253.706C97.4472 254.187 96.9848 254.611 96.4382 254.981C95.8931 255.35 95.2382 255.442 94.4703 255.253C93.7496 255.076 93.3217 254.673 93.1898 254.041C93.0563 253.411 93.162 252.397 93.5055 250.995L97.1243 236.237C98.8609 229.152 101.75 224.058 105.785 220.957C109.824 217.856 114.347 216.92 119.357 218.147C125.72 219.706 129.435 223.487 130.5 229.49L130.494 229.489ZM125.426 241.38C126.256 237.995 126.043 235.156 124.786 232.863C123.531 230.571 121.278 229.024 118.029 228.227C113.877 227.211 110.247 227.575 107.137 229.326C104.029 231.076 102.016 233.825 101.098 237.57C100.622 239.32 100.444 240.485 100.564 241.063C100.685 241.642 101.108 242.02 101.829 242.197L121.731 247.077C122.545 247.276 123.217 246.976 123.746 246.172C124.278 245.369 124.837 243.773 125.423 241.38L125.426 241.38Z" fill="#EC6342"/>
</g>
<defs>
<clipPath id="clip0_400_29946">
<rect width="392.96" height="392.96" fill="white" transform="translate(0.719727 269.89) rotate(-43.3525)"/>
</clipPath>
</defs>
</svg>
